<?xml version="1.0" encoding="UTF-8" standalone="no"?>
<svg
   id="emoji"
   viewBox="0 0 151.18111 151.18111"
   version="1.1"
   sodipodi:docname="25B6.svg"
   width="151.18111"
   height="151.18111"
   inkscape:version="1.1 (c4e8f9e, 2021-05-24)"
   xmlns:inkscape="http://www.inkscape.org/namespaces/inkscape"
   xmlns:sodipodi="http://sodipodi.sourceforge.net/DTD/sodipodi-0.dtd"
   xmlns="http://www.w3.org/2000/svg"
   xmlns:svg="http://www.w3.org/2000/svg">
  <defs
     id="defs1072" />
  <sodipodi:namedview
     id="namedview1070"
     pagecolor="#ffffff"
     bordercolor="#666666"
     borderopacity="1.0"
     inkscape:pageshadow="2"
     inkscape:pageopacity="0.0"
     inkscape:pagecheckerboard="0"
     showgrid="false"
     fit-margin-top="0"
     fit-margin-left="0"
     fit-margin-right="0"
     fit-margin-bottom="0"
     inkscape:zoom="2.6145833"
     inkscape:cx="75.920319"
     inkscape:cy="75.920319"
     inkscape:window-width="1920"
     inkscape:window-height="1016"
     inkscape:window-x="0"
     inkscape:window-y="0"
     inkscape:window-maximized="1"
     inkscape:current-layer="emoji" />
  <circle
     style="fill:#d9d9d9;fill-opacity:1;stroke:none;stroke-width:3.77953;stroke-miterlimit:4;stroke-dasharray:none;stroke-opacity:0.0854831"
     id="path848"
     cx="75.590553"
     cy="75.590553"
     r="75.590553" />
  <g
     id="line"
     transform="matrix(1.7461787,0,0,1.7461787,12.559177,12.733902)">
    <path
       fill="none"
       stroke="#000000"
       stroke-linejoin="round"
       stroke-miterlimit="10"
       stroke-width="2"
       d="m 19.5816,55.6062 c 0.4848,0.1782 1.0303,0.297 1.5758,0.297 0.8485,0 1.697,-0.297 2.4242,-0.7722 l 30,-15.9793 0.303,-0.297 c 0.7879,-0.7722 1.2121,-1.7227 1.2121,-2.7919 0,-1.0692 -0.4242,-2.0791 -1.2121,-2.7919 l -0.303,-0.297 -30,-16.0981 c -1.0909,-0.8316 -2.6667,-1.0098 -4,-0.4752 -1.5152,0.594 -2.4848,2.0791 -2.4848,3.683 v 31.8397 c -1e-4,1.6039 0.9696,3.0889 2.4848,3.6829 z"
       id="path1066" />
  </g>
</svg>
