<?xml version="1.0" encoding="UTF-8"?>
<svg width="24px" height="24px" viewBox="0 0 24 24" version="1.1" xmlns="http://www.w3.org/2000/svg" xmlns:xlink="http://www.w3.org/1999/xlink">
    <!-- Generator: Sketch 44.1 (41455) - http://www.bohemiancoding.com/sketch -->
    <title>alarm</title>
    <desc>Created with Sketch.</desc>
    <defs></defs>
    <g id="Page-1" stroke="none" stroke-width="1" fill="none" fill-rule="evenodd">
        <g id="Artboard-4" transform="translate(-180.000000, -687.000000)">
            <g id="264" transform="translate(180.000000, 687.000000)">
                <path d="M13.6686291,3.1385935 C14.4613033,1.85521598 15.8807785,1 17.5,1 C19.9852814,1 22,3.01471863 22,5.5 C22,6.62544421 21.5868467,7.6543913 20.9039359,8.44344549 C20.5744613,7.80091205 20.1774803,7.19870588 19.7223546,6.64618894 C19.8997913,6.30285146 20,5.91312823 20,5.5 C20,4.11928813 18.8807119,3 17.5,3 C16.8141835,3 16.1928663,3.27615418 15.7411799,3.72333095 C15.0822457,3.45733534 14.3884822,3.25950971 13.6686291,3.1385935 Z" id="Right-Bell" fill="#333333" fill-rule="nonzero"></path>
                <path d="M2,3.1385935 C2.79267429,1.85521598 4.21214942,1 5.83137094,1 C8.31665231,1 10.3313709,3.01471863 10.3313709,5.5 C10.3313709,6.62544421 9.91821765,7.6543913 9.23530685,8.44344549 C8.90583229,7.80091205 8.50885119,7.19870588 8.05372552,6.64618894 C8.23116222,6.30285146 8.33137094,5.91312823 8.33137094,5.5 C8.33137094,4.11928813 7.21208281,3 5.83137094,3 C5.14555445,3 4.52423723,3.27615418 4.07255086,3.72333095 C3.41361662,3.45733534 2.71985318,3.25950971 2,3.1385935 Z" id="Left-Bell" fill="#333333" fill-rule="nonzero" transform="translate(6.165685, 4.721723) scale(-1, 1) translate(-6.165685, -4.721723) "></path>
                <circle id="Faec" stroke="#333333" stroke-width="2" cx="12" cy="13" r="8"></circle>
                <path d="M17,20 L19,22" id="Right-Leg" stroke="#333333" stroke-width="2" stroke-linecap="round"></path>
                <path d="M7,20 L5,22" id="Left-Leg" stroke="#333333" stroke-width="2" stroke-linecap="round"></path>
                <polyline id="Hands" stroke="#333333" stroke-width="2" stroke-linecap="round" stroke-linejoin="round" points="12 9 12 13 15 13"></polyline>
            </g>
        </g>
    </g>
</svg>