<?xml version="1.0" encoding="UTF-8"?>
<svg width="24px" height="24px" viewBox="0 0 24 24" version="1.1" xmlns="http://www.w3.org/2000/svg" xmlns:xlink="http://www.w3.org/1999/xlink">
    <!-- Generator: Sketch 44.1 (41455) - http://www.bohemiancoding.com/sketch -->
    <title>backpack</title>
    <desc>Created with Sketch.</desc>
    <defs></defs>
    <g id="Page-1" stroke="none" stroke-width="1" fill="none" fill-rule="evenodd">
        <g id="Artboard-4" transform="translate(-180.000000, -775.000000)">
            <g id="304" transform="translate(180.000000, 775.000000)">
                <path d="M4,10.9907535 C4,6.57758222 7.59071231,3 12,3 L12,3 C16.418278,3 20,6.57559919 20,10.9907535 L20,21.0092049 C20,22.1086907 19.1054862,23 18.0059397,23 L5.99406028,23 C4.8927712,23 4,22.1017876 4,21.0092049 L4,10.9907535 Z" id="Backpack" stroke="#333333" stroke-width="2"></path>
                <rect id="Front-Pocket" stroke="#333333" stroke-width="2" x="7" y="14" width="10" height="9" rx="1"></rect>
                <rect id="Right-Pocket" fill="#333333" x="20" y="15" width="2" height="6" rx="1"></rect>
                <rect id="Left-Pocket" fill="#333333" x="2" y="15" width="2" height="6" rx="1"></rect>
                <rect id="Pocket" fill="#333333" x="7" y="17" width="10" height="1"></rect>
                <polygon id="Label" stroke="#333333" stroke-width="2" fill="#333333" stroke-linecap="round" stroke-linejoin="round" points="12 7 11 8 12 9 13 8"></polygon>
                <path d="M9.52460577,2.5 L14.4753942,2.5 C14.331086,1.12530889 13.5473124,0.5 12,0.5 C10.4526876,0.5 9.668914,1.12530889 9.52460577,2.5 Z" id="Handle" stroke="#333333"></path>
            </g>
        </g>
    </g>
</svg>