<?xml version="1.0" encoding="UTF-8"?>
<svg width="24px" height="24px" viewBox="0 0 24 24" version="1.1" xmlns="http://www.w3.org/2000/svg" xmlns:xlink="http://www.w3.org/1999/xlink">
    <!-- Generator: Sketch 44.1 (41455) - http://www.bohemiancoding.com/sketch -->
    <title>basket</title>
    <desc>Created with Sketch.</desc>
    <defs></defs>
    <g id="Page-1" stroke="none" stroke-width="1" fill="none" fill-rule="evenodd">
        <g id="Artboard-4" transform="translate(-356.000000, -599.000000)">
            <g id="228" transform="translate(356.000000, 599.000000)">
                <rect id="Top" stroke="#333333" stroke-width="2" x="2" y="9" width="20" height="4" rx="1"></rect>
                <path d="M3.5,13 L5.25875327,20.0350131 C5.39199016,20.5679606 5.94748943,21 6.49850233,21 L17.5014977,21 C18.0529553,21 18.6075287,20.5698853 18.7412467,20.0350131 L20.5,13" id="Body" stroke="#333333" stroke-width="2"></path>
                <path d="M10,15.4904785 C10,15.2195947 10.2319336,15 10.5,15 C10.7761424,15 11,15.2150574 11,15.4904785 L11,18.5095215 C11,18.7804053 10.7680664,19 10.5,19 C10.2238576,19 10,18.7849426 10,18.5095215 L10,15.4904785 Z M13,15.4904785 C13,15.2195947 13.2319336,15 13.5,15 C13.7761424,15 14,15.2150574 14,15.4904785 L14,18.5095215 C14,18.7804053 13.7680664,19 13.5,19 C13.2238576,19 13,18.7849426 13,18.5095215 L13,15.4904785 Z M16,15.495389 C16,15.2217932 16.2319336,15 16.5,15 C16.7761424,15 17,15.2157526 17,15.495389 L17,17.504611 C17,17.7782068 16.7680664,18 16.5,18 C16.2238576,18 16,17.7842474 16,17.504611 L16,15.495389 Z M7,15.495389 C7,15.2217932 7.23193359,15 7.5,15 C7.77614237,15 8,15.2157526 8,15.495389 L8,17.504611 C8,17.7782068 7.76806641,18 7.5,18 C7.22385763,18 7,17.7842474 7,17.504611 L7,15.495389 Z" id="Gaps" fill="#333333"></path>
                <path d="M11.5,9 L17,3" id="Handle" stroke="#333333" stroke-width="2" stroke-linecap="round" stroke-linejoin="round"></path>
            </g>
        </g>
    </g>
</svg>