<?xml version="1.0" encoding="UTF-8"?>
<svg width="24px" height="24px" viewBox="0 0 24 24" version="1.1" xmlns="http://www.w3.org/2000/svg" xmlns:xlink="http://www.w3.org/1999/xlink">
    <!-- Generator: Sketch 44.1 (41455) - http://www.bohemiancoding.com/sketch -->
    <title>bluetooth-off</title>
    <desc>Created with Sketch.</desc>
    <defs></defs>
    <g id="Page-1" stroke="none" stroke-width="1" fill="none" fill-rule="evenodd">
        <g id="Artboard-4" transform="translate(-444.000000, -423.000000)">
            <g id="150" transform="translate(444.000000, 423.000000)">
                <path d="M11,7.17639148 L11,2 C11,1.15216235 11.9888575,0.689006285 12.6401844,1.23177872 L18.6401844,6.23177872 C19.1199385,6.63157383 19.1199385,7.36842617 18.6401844,7.76822128 L16.8974751,9.22047902 C16.7657289,8.7289506 16.5070107,8.26436997 16.1213203,7.87867966 C16.006359,7.76371829 15.8843887,7.66003758 15.756785,7.56763753 L17.3598156,6.23177872 L17.3598156,7.76822128 L11.3598156,2.76822128 L13,2 L13,7.17083433 C12.6369586,7.29886903 12.2936337,7.49887208 11.9921905,7.77084348 C11.6950737,7.50277543 11.3572687,7.30462476 11,7.17639148 Z M13,16.8447846 L13,22 L11.3598156,21.2317787 L17.3598156,16.2317787 L17.3598156,17.7682213 L15.7667933,16.4407027 C15.8907689,16.350146 16.009368,16.2488916 16.1213203,16.1369392 C16.5103538,15.7479058 16.7702045,15.2786084 16.9008724,14.7823521 L18.6401844,16.2317787 C19.1199385,16.6315738 19.1199385,17.3684262 18.6401844,17.7682213 L12.6401844,22.7682213 C11.9888575,23.3109937 11,22.8478376 11,22 L11,16.8392274 C11.3572687,16.7109941 11.6950737,16.5128435 11.9921905,16.2447754 C12.2936337,16.5167468 12.6369586,16.7167499 13,16.8447846 Z M7.08977479,9.20985394 L5.3598156,7.76822128 C4.9355387,7.4146572 4.87821464,6.7840925 5.23177872,6.3598156 C5.5853428,5.9355387 6.2159075,5.87821464 6.6401844,6.23177872 L8.23596727,7.56159778 C8.10532503,7.6555128 7.98053365,7.76120676 7.86306076,7.87867966 C7.48015063,8.26158978 7.22238864,8.722257 7.08977479,9.20985394 Z M8.22592522,16.4467706 L6.6401844,17.7682213 C6.2159075,18.1217854 5.5853428,18.0644613 5.23177872,17.6401844 C4.87821464,17.2159075 4.9355387,16.5853428 5.3598156,16.2317787 L7.08633633,14.7930114 C7.21790564,15.2853271 7.47681378,15.7506923 7.86306076,16.1369392 C7.97752026,16.2513987 8.0989276,16.3546759 8.22592522,16.4467706 Z" id="Bluetooth" fill="#333333" fill-rule="nonzero" opacity="0.75"></path>
                <path d="M14,10 L10,14" id="Path-82" stroke="#333333" stroke-width="2" stroke-linecap="round"></path>
                <path d="M14,10 L10,14" id="Path-82" stroke="#333333" stroke-width="2" stroke-linecap="round" transform="translate(12.000000, 12.000000) scale(-1, 1) translate(-12.000000, -12.000000) "></path>
            </g>
        </g>
    </g>
</svg>