<?xml version="1.0" encoding="UTF-8"?>
<svg width="24px" height="24px" viewBox="0 0 24 24" version="1.1" xmlns="http://www.w3.org/2000/svg" xmlns:xlink="http://www.w3.org/1999/xlink">
    <!-- Generator: Sketch 44.1 (41455) - http://www.bohemiancoding.com/sketch -->
    <title>burger</title>
    <desc>Created with Sketch.</desc>
    <defs></defs>
    <g id="Page-1" stroke="none" stroke-width="1" fill="none" fill-rule="evenodd">
        <g id="Artboard-4" transform="translate(-48.000000, -423.000000)">
            <g id="141" transform="translate(48.000000, 423.000000)">
                <path d="M22,22 C22,18 22,18 12,18 C2,18 2,18 2,22 C4,22 20,22 22,22 Z" id="bun-botty" stroke="#333333" stroke-width="2" stroke-linecap="round" stroke-linejoin="round" transform="translate(12.000000, 20.000000) scale(1, -1) translate(-12.000000, -20.000000) "></path>
                <rect id="burger" fill="#333333" x="1" y="13" width="22" height="3" rx="1.5"></rect>
                <path d="M2,11 C2,11 3,12 4,12 C5,12 5,11 6,11 C7,11 7,12 8,12 C9,12 9,11 10,11 C11,11 11,12 12,12 C13,12 13,11 14,11 C15,11 15,12 16,12 C17,12 17,11 18,11 C19,11 19,12 20,12 C21,12 22,11 22,11" id="lettuce" stroke="#333333" stroke-width="2" opacity="0.899999976" stroke-linecap="round" stroke-linejoin="round"></path>
                <path d="M6.5,5 C6.22385763,5 6,4.77614237 6,4.5 C6,4.22385763 6.22385763,4 6.5,4 C6.77614237,4 7,4.22385763 7,4.5 C7,4.77614237 6.77614237,5 6.5,5 Z M8.5,6 C8.22385763,6 8,5.77614237 8,5.5 C8,5.22385763 8.22385763,5 8.5,5 C8.77614237,5 9,5.22385763 9,5.5 C9,5.77614237 8.77614237,6 8.5,6 Z M9.5,4 C9.22385763,4 9,3.77614237 9,3.5 C9,3.22385763 9.22385763,3 9.5,3 C9.77614237,3 10,3.22385763 10,3.5 C10,3.77614237 9.77614237,4 9.5,4 Z M11.5,5 C11.2238576,5 11,4.77614237 11,4.5 C11,4.22385763 11.2238576,4 11.5,4 C11.7761424,4 12,4.22385763 12,4.5 C12,4.77614237 11.7761424,5 11.5,5 Z M14.5,4 C14.2238576,4 14,3.77614237 14,3.5 C14,3.22385763 14.2238576,3 14.5,3 C14.7761424,3 15,3.22385763 15,3.5 C15,3.77614237 14.7761424,4 14.5,4 Z M16.5,6 C16.2238576,6 16,5.77614237 16,5.5 C16,5.22385763 16.2238576,5 16.5,5 C16.7761424,5 17,5.22385763 17,5.5 C17,5.77614237 16.7761424,6 16.5,6 Z M17.5,4 C17.2238576,4 17,3.77614237 17,3.5 C17,3.22385763 17.2238576,3 17.5,3 C17.7761424,3 18,3.22385763 18,3.5 C18,3.77614237 17.7761424,4 17.5,4 Z" id="seeds" fill="#333333" opacity="0.5"></path>
                <path d="M22,8 C22,2 18,2 12,2 C6,2 2,2 2,8 C4,8 20,8 22,8 Z" id="bun-top" stroke="#333333" stroke-width="2" stroke-linecap="round" stroke-linejoin="round"></path>
            </g>
        </g>
    </g>
</svg>