<?xml version="1.0" encoding="UTF-8"?>
<svg width="24px" height="24px" viewBox="0 0 24 24" version="1.1" xmlns="http://www.w3.org/2000/svg" xmlns:xlink="http://www.w3.org/1999/xlink">
    <!-- Generator: Sketch 44.1 (41455) - http://www.bohemiancoding.com/sketch -->
    <title>calculator-alt</title>
    <desc>Created with Sketch.</desc>
    <defs></defs>
    <g id="Page-1" stroke="none" stroke-width="1" fill="none" fill-rule="evenodd">
        <g id="Artboard-4" transform="translate(-664.000000, -599.000000)">
            <g id="236" transform="translate(664.000000, 599.000000)">
                <rect id="Body" stroke="#333333" stroke-width="2" x="3" y="3" width="18" height="18" rx="2"></rect>
                <path d="M8,7 L8,5.49769878 C8,5.21484375 7.77614237,5 7.5,5 C7.23193359,5 7,5.22282734 7,5.49769878 L7,7 L5.49769878,7 C5.21484375,7 5,7.22385763 5,7.5 C5,7.76806641 5.22282734,8 5.49769878,8 L7,8 L7,9.50230122 C7,9.78515625 7.22385763,10 7.5,10 C7.76806641,10 8,9.77717266 8,9.50230122 L8,8 L9.50230122,8 C9.78515625,8 10,7.77614237 10,7.5 C10,7.23193359 9.77717266,7 9.50230122,7 L8,7 Z" id="Add" fill="#333333"></path>
                <path d="M8,16 L8,14.4976988 C8,14.2148438 7.77614237,14 7.5,14 C7.23193359,14 7,14.2228273 7,14.4976988 L7,16 L5.49769878,16 C5.21484375,16 5,16.2238576 5,16.5 C5,16.7680664 5.22282734,17 5.49769878,17 L7,17 L7,18.5023012 C7,18.7851562 7.22385763,19 7.5,19 C7.76806641,19 8,18.7771727 8,18.5023012 L8,17 L9.50230122,17 C9.78515625,17 10,16.7761424 10,16.5 C10,16.2319336 9.77717266,16 9.50230122,16 L8,16 Z" id="Multiply" fill="#333333" transform="translate(7.500000, 16.500000) rotate(-45.000000) translate(-7.500000, -16.500000) "></path>
                <rect id="Minus" fill="#333333" transform="translate(16.500000, 7.500000) rotate(-90.000000) translate(-16.500000, -7.500000) " x="16" y="5" width="1" height="5" rx="0.5"></rect>
                <path d="M14.4976988,16 C14.2228273,16 14,15.7680664 14,15.5 C14,15.2238576 14.2148438,15 14.4976988,15 L18.5023012,15 C18.7771727,15 19,15.2319336 19,15.5 C19,15.7761424 18.7851562,16 18.5023012,16 L14.4976988,16 Z M14.4976988,18 C14.2228273,18 14,17.7680664 14,17.5 C14,17.2238576 14.2148438,17 14.4976988,17 L18.5023012,17 C18.7771727,17 19,17.2319336 19,17.5 C19,17.7761424 18.7851562,18 18.5023012,18 L14.4976988,18 Z" id="Equal" fill="#333333"></path>
                <path d="M13,11 L13,3 L11,3 L11,11 L3,11 L3,13 L11,13 L11,21 L13,21 L13,13 L21,13 L21,11 L13,11 Z" id="Centre" fill="#333333"></path>
            </g>
        </g>
    </g>
</svg>