<?xml version="1.0" encoding="UTF-8"?>
<svg width="24px" height="24px" viewBox="0 0 24 24" version="1.1" xmlns="http://www.w3.org/2000/svg" xmlns:xlink="http://www.w3.org/1999/xlink">
    <!-- Generator: Sketch 44.1 (41455) - http://www.bohemiancoding.com/sketch -->
    <title>calendar</title>
    <desc>Created with Sketch.</desc>
    <defs></defs>
    <g id="Page-1" stroke="none" stroke-width="1" fill="none" fill-rule="evenodd">
        <g id="Artboard-4" transform="translate(-312.000000, -247.000000)">
            <g id="67" transform="translate(312.000000, 247.000000)">
                <path d="M1,4.99420208 C1,3.34054993 2.34308127,2 4.00138694,2 L19.9986131,2 C21.6562333,2 23,3.34331197 23,4.99420208 L23,19.0057979 C23,20.6594501 21.6569187,22 19.9986131,22 L4.00138694,22 C2.3437667,22 1,20.656688 1,19.0057979 L1,4.99420208 Z M3,7.00684547 L3,18.9931545 C3,19.5500512 3.44475929,20 3.99339768,20 L20.0066023,20 C20.5550537,20 21,19.5492199 21,18.9931545 L21,7.00684547 C21,6.44994876 20.5552407,6 20.0066023,6 L3.99339768,6 C3.44494629,6 3,6.45078007 3,7.00684547 Z" id="Base" fill="#333333"></path>
                <polyline id="1" stroke="#333333" stroke-width="2" stroke-linecap="round" stroke-linejoin="round" points="8 12 10 10 10 16"></polyline>
                <polyline id="1" stroke="#333333" stroke-width="2" stroke-linecap="round" stroke-linejoin="round" points="13 12 15 10 15 16"></polyline>
            </g>
        </g>
    </g>
</svg>