<?xml version="1.0" encoding="UTF-8"?>
<svg width="24px" height="24px" viewBox="0 0 24 24" version="1.1" xmlns="http://www.w3.org/2000/svg" xmlns:xlink="http://www.w3.org/1999/xlink">
    <!-- Generator: Sketch 44.1 (41455) - http://www.bohemiancoding.com/sketch -->
    <title>candle</title>
    <desc>Created with Sketch.</desc>
    <defs></defs>
    <g id="Page-1" stroke="none" stroke-width="1" fill="none" fill-rule="evenodd">
        <g id="Artboard-4" transform="translate(-224.000000, -555.000000)">
            <g id="205" transform="translate(224.000000, 555.000000)">
                <path d="M9,9.9955775 C9,9.44573523 9.45097518,9.07516253 9.99077797,9.16512966 L14.009222,9.83487034 C14.5564136,9.92606893 15,10.4556644 15,10.9953976 L15,19.0046024 C15,19.5543453 14.5490248,20 14.009222,20 L9.99077797,20 C9.44358641,20 9,19.555163 9,19.0044225 L9,9.9955775 Z" id="Candle" stroke="#333333" stroke-width="2" stroke-linecap="round" stroke-linejoin="round"></path>
                <rect id="Wax" fill="#333333" x="12" y="10" width="1" height="4" rx="0.5"></rect>
                <path d="M4.83659172,21.2548876 C4.37455487,20.5618323 4.66712976,20 5.50524116,20 L18.4947588,20 C19.3260806,20 19.6238153,20.5642771 19.1634083,21.2548876 L18,23 L6,23 L4.83659172,21.2548876 Z" id="Base" stroke="#333333" stroke-width="2" stroke-linejoin="round"></path>
                <path d="M12,7 C13.1045695,7 14,6 14,5 C14,3.5 12,3 12,1 C11,1 10,3.8954305 10,5 C10,6.1045695 10.8954305,7 12,7 Z" id="Flame" stroke="#333333" stroke-width="2" stroke-linecap="round" stroke-linejoin="round"></path>
            </g>
        </g>
    </g>
</svg>