<?xml version="1.0" encoding="UTF-8"?>
<svg width="24px" height="24px" viewBox="0 0 24 24" version="1.1" xmlns="http://www.w3.org/2000/svg" xmlns:xlink="http://www.w3.org/1999/xlink">
    <!-- Generator: Sketch 44.1 (41455) - http://www.bohemiancoding.com/sketch -->
    <title>castle</title>
    <desc>Created with Sketch.</desc>
    <defs></defs>
    <g id="Page-1" stroke="none" stroke-width="1" fill="none" fill-rule="evenodd">
        <g id="Artboard-4" transform="translate(-664.000000, -775.000000)">
            <g id="315" transform="translate(664.000000, 775.000000)">
                <path d="M4,3 L7,3 L7,5 L10,5 L10,3 L14,3 L14,5 L17,5 L16.9812012,3 L20,3 L20,7 L19,9 L19,19.9975267 C19,20.5511774 18.5500512,21 17.9931545,21 L6.00684547,21 C5.45078007,21 5,20.544239 5,19.9975267 L5,9 L4,7 L4,3 Z" id="Walls" stroke="#333333" stroke-width="2" stroke-linejoin="round"></path>
                <path d="M10,16.9979131 C10,15.8944962 10.8877296,15 12,15 L12,15 C13.1045695,15 14,15.8982606 14,16.9979131 L14,21 L10,21 L10,16.9979131 Z" id="Door" stroke="#333333" stroke-width="2"></path>
                <path d="M8,10.9989566 C8,10.4472481 8.44386482,10 9,10 C9.55228475,10 10,10.4426603 10,10.9989566 L10,13 L8,13 L8,10.9989566 Z M11,10.9989566 C11,10.4472481 11.4438648,10 12,10 C12.5522847,10 13,10.4426603 13,10.9989566 L13,13 L11,13 L11,10.9989566 Z M14,10.9989566 C14,10.4472481 14.4438648,10 15,10 C15.5522847,10 16,10.4426603 16,10.9989566 L16,13 L14,13 L14,10.9989566 Z" id="Windows" fill="#333333"></path>
                <rect id="Shadow" fill="#333333" opacity="0.200000003" x="4" y="7" width="16" height="2"></rect>
            </g>
        </g>
    </g>
</svg>