<?xml version="1.0" encoding="UTF-8"?>
<svg width="24px" height="24px" viewBox="0 0 24 24" version="1.1" xmlns="http://www.w3.org/2000/svg" xmlns:xlink="http://www.w3.org/1999/xlink">
    <!-- Generator: Sketch 44.1 (41455) - http://www.bohemiancoding.com/sketch -->
    <title>chart</title>
    <desc>Created with Sketch.</desc>
    <defs></defs>
    <g id="Page-1" stroke="none" stroke-width="1" fill="none" fill-rule="evenodd">
        <g id="Artboard-4" transform="translate(-400.000000, -203.000000)">
            <g id="49" transform="translate(400.000000, 203.000000)">
                <polyline id="Axis" stroke="#333333" stroke-width="2" stroke-linecap="round" stroke-linejoin="round" points="3 3 3 21.006249 21.0246733 21.006249"></polyline>
                <path d="M6,19 L6,12.5047388 C6,11.6736945 6.66579723,11 7.5,11 L7.5,11 C8.32842712,11 9,11.6683155 9,12.5047388 L9,19 L6,19 Z" id="Bar-1" fill="#333333"></path>
                <path d="M11,19 L11,5.49309635 C11,4.66848201 11.6657972,4 12.5,4 L12.5,4 C13.3284271,4 14,4.66388585 14,5.49309635 L14,19 L11,19 Z" id="Bar-2" fill="#333333"></path>
                <path d="M16,19 L16,8.49554521 C16,7.6695784 16.6657972,7 17.5,7 L17.5,7 C18.3284271,7 19,7.67955446 19,8.49554521 L19,19 L16,19 Z" id="Bar-3" fill="#333333"></path>
            </g>
        </g>
    </g>
</svg>