<?xml version="1.0" encoding="UTF-8"?>
<svg width="24px" height="24px" viewBox="0 0 24 24" version="1.1" xmlns="http://www.w3.org/2000/svg" xmlns:xlink="http://www.w3.org/1999/xlink">
    <!-- Generator: Sketch 44.1 (41455) - http://www.bohemiancoding.com/sketch -->
    <title>chat</title>
    <desc>Created with Sketch.</desc>
    <defs></defs>
    <g id="Page-1" stroke="none" stroke-width="1" fill="none" fill-rule="evenodd">
        <g id="Artboard-4" transform="translate(-664.000000, -115.000000)">
            <g id="15" transform="translate(664.000000, 115.000000)">
                <path d="M12.4142136,18 L9,21.4142136 L5.58578644,18 L3.99895656,18 C2.89547708,18 2,17.0970743 2,15.9975267 L2,6.00247329 C2,4.89859975 2.89058031,4 3.99339768,4 L20.0066023,4 C21.1082892,4 22,4.90415942 22,6.00247329 L22,15.9975267 C22,17.1024207 21.1070219,18 20.0024554,18 L12.4142136,18 Z" id="Rectangle-406" stroke="#333333" stroke-width="2" stroke-linejoin="round"></path>
                <path d="M6,9 C6,8.44771525 6.45576096,8 7.00247329,8 L16.9975267,8 C17.5511774,8 18,8.44386482 18,9 C18,9.55228475 17.544239,10 16.9975267,10 L7.00247329,10 C6.44882258,10 6,9.55613518 6,9 Z M6,13 C6,12.4477153 6.45576096,12 7.00247329,12 L16.9975267,12 C17.5511774,12 18,12.4438648 18,13 C18,13.5522847 17.544239,14 16.9975267,14 L7.00247329,14 C6.44882258,14 6,13.5561352 6,13 Z" id="Combined-Shape" fill="#333333"></path>
            </g>
        </g>
    </g>
</svg>