<?xml version="1.0" encoding="UTF-8"?>
<svg width="24px" height="24px" viewBox="0 0 24 24" version="1.1" xmlns="http://www.w3.org/2000/svg" xmlns:xlink="http://www.w3.org/1999/xlink">
    <!-- Generator: Sketch 44.1 (41455) - http://www.bohemiancoding.com/sketch -->
    <title>christmas-pudding</title>
    <desc>Created with Sketch.</desc>
    <defs></defs>
    <g id="Page-1" stroke="none" stroke-width="1" fill="none" fill-rule="evenodd">
        <g id="Artboard-4" transform="translate(-796.000000, -555.000000)" stroke="#333333" stroke-width="2">
            <g id="218" transform="translate(796.000000, 555.000000)">
                <path d="M8.39841904,4.74956956 C5.22063485,6.13873231 3,9.31003762 3,13 C3,17.9705627 7.02943725,22 12,22 L12,22 C16.9705627,22 21,17.9705627 21,13 C21,9.49540718 18.9968733,6.45866966 16.0730932,4.97226064" id="Pudding"></path>
                <path d="M3,11 C3,11 5,10 5.5,11 C6,12 6,14 8,14 C10,14 9,10 11,10 C13,10 12,15 14.5,15 C17,15 15.5,10 17.5,10 C19.5,10 18.5,12 21,12" id="Icing"></path>
                <path d="M14,6 C12.8954305,6 12,5.1045695 12,4 C12,2.8954305 12.8954305,2 14,2 C15.1045695,2 16,2.8954305 16,4 C16,5.1045695 15.1045695,6 14,6 Z M10,5 C8.8954305,5 8,4.1045695 8,3 C8,1.8954305 8.8954305,1 10,1 C11.1045695,1 12,1.8954305 12,3 C12,4.1045695 11.1045695,5 10,5 Z" id="Berries"></path>
            </g>
        </g>
    </g>
</svg>