<?xml version="1.0" encoding="UTF-8"?>
<svg width="24px" height="24px" viewBox="0 0 24 24" version="1.1" xmlns="http://www.w3.org/2000/svg" xmlns:xlink="http://www.w3.org/1999/xlink">
    <!-- Generator: Sketch 44.1 (41455) - http://www.bohemiancoding.com/sketch -->
    <title>christmas-tree</title>
    <desc>Created with Sketch.</desc>
    <defs></defs>
    <g id="Page-1" stroke="none" stroke-width="1" fill="none" fill-rule="evenodd" stroke-linecap="round" stroke-linejoin="round">
        <g id="Artboard-4" transform="translate(-48.000000, -555.000000)" stroke="#333333" stroke-width="2">
            <g id="201" transform="translate(48.000000, 555.000000)">
                <path d="M12,1 L8,7 C8,7 9,8 12,8 C15,8 16,7 16,7 L12,1 Z" id="Top"></path>
                <path d="M15,8 L18,13 C18,13 16,14 12,14 C8,14 6,13 6,13 L9,8 L15,8 Z" id="Mid"></path>
                <path d="M17,14 L20,19 C20,19 19,20 12,20 C5,20 4,19 4,19 L7,14 L17,14 Z" id="Bottom"></path>
                <rect id="Trunk" x="10" y="20" width="4" height="3"></rect>
            </g>
        </g>
    </g>
</svg>