<?xml version="1.0" encoding="UTF-8"?>
<svg width="24px" height="24px" viewBox="0 0 24 24" version="1.1" xmlns="http://www.w3.org/2000/svg" xmlns:xlink="http://www.w3.org/1999/xlink">
    <!-- Generator: Sketch 44.1 (41455) - http://www.bohemiancoding.com/sketch -->
    <title>cloud</title>
    <desc>Created with Sketch.</desc>
    <defs></defs>
    <g id="Page-1" stroke="none" stroke-width="1" fill="none" fill-rule="evenodd" stroke-linecap="round" stroke-linejoin="round">
        <g id="Artboard-4" transform="translate(-48.000000, -247.000000)" stroke="#333333" stroke-width="2">
            <g id="61" transform="translate(48.000000, 247.000000)">
                <path d="M5,19 C2.790861,19 1,17.209139 1,15 C1,12.790861 2.790861,11 5,11 C5.35840468,11 5.70579988,11.0471371 6.03632437,11.1355501 C6.01233106,10.927026 6,10.714953 6,10.5 C6,7.46243388 8.46243388,5 11.5,5 C14.0673313,5 16.2238156,6.7590449 16.8299648,9.1376465 C17.2052921,9.04765874 17.5970804,9 18,9 C20.7614237,9 23,11.2385763 23,14 C23,16.7614237 20.7614237,19 18,19 L5,19 Z" id="Combined-Shape"></path>
            </g>
        </g>
    </g>
</svg>