<?xml version="1.0" encoding="UTF-8"?>
<svg width="24px" height="24px" viewBox="0 0 24 24" version="1.1" xmlns="http://www.w3.org/2000/svg" xmlns:xlink="http://www.w3.org/1999/xlink">
    <!-- Generator: Sketch 44.1 (41455) - http://www.bohemiancoding.com/sketch -->
    <title>coffee</title>
    <desc>Created with Sketch.</desc>
    <defs></defs>
    <g id="Page-1" stroke="none" stroke-width="1" fill="none" fill-rule="evenodd">
        <g id="Artboard-4" transform="translate(-532.000000, -247.000000)" stroke="#333333" stroke-width="2">
            <g id="72" transform="translate(532.000000, 247.000000)">
                <ellipse id="Rim" cx="11" cy="9" rx="9" ry="3"></ellipse>
                <path d="M2,9 C2,17 8,19 8,19 L14,19 C14,19 20,17 20,9" id="Body" stroke-linejoin="round"></path>
                <path d="M20,11 C20,11 23.5,10.5 23,14 C22.5,17.5 18,16 18,16" id="Handle"></path>
                <path d="M7,2 C7,3 6,4 6,5 C6,6 7,7 7,8" id="Steam" opacity="0.5" stroke-linecap="round" stroke-linejoin="round"></path>
                <path d="M11,2 C11,3 10,4 10,5 C10,6 11,7 11,8" id="Steam" opacity="0.5" stroke-linecap="round" stroke-linejoin="round"></path>
                <path d="M15,2 C15,3 14,4 14,5 C14,6 15,7 15,8" id="Steam" opacity="0.5" stroke-linecap="round" stroke-linejoin="round"></path>
            </g>
        </g>
    </g>
</svg>