<?xml version="1.0" encoding="UTF-8"?>
<svg width="24px" height="24px" viewBox="0 0 24 24" version="1.1" xmlns="http://www.w3.org/2000/svg" xmlns:xlink="http://www.w3.org/1999/xlink">
    <!-- Generator: Sketch 44.1 (41455) - http://www.bohemiancoding.com/sketch -->
    <title>copy</title>
    <desc>Created with Sketch.</desc>
    <defs></defs>
    <g id="Page-1" stroke="none" stroke-width="1" fill="none" fill-rule="evenodd">
        <g id="Artboard-4" transform="translate(-92.000000, -247.000000)">
            <g id="62" transform="translate(92.000000, 247.000000)">
                <path d="M7,6.00748397 C7,4.89985206 7.89485293,4 9.00222974,4 L15.4089735,4 L20,8.58542907 L20,19.0044225 C20,20.1067204 19.1072771,21 18.0044225,21 L8.9955775,21 C7.890372,21 7,20.1003052 7,18.992516 L7,6.00748397 Z" id="Front-Page" stroke="#333333" stroke-width="2" stroke-linejoin="round"></path>
                <path d="M16.8277126,4 L13.4084678,0.58492406 C13.0334655,0.210378892 12.5251274,0 11.9951172,0 L5.9964216,0 C4.34595783,0 3,1.34576814 3,3.00087166 L3,15.9991283 C3,17.6605333 4.34483505,19 6.00247329,19 L10.5,19 L6,19 L6,16.9999973 C5.44748653,16.9986752 5,16.5545406 5,15.9991283 L5,3.00087166 C5,2.4481055 5.4527598,2 5.9964216,2 L11.9951172,2 L13.9975586,4 L16.8277126,4 Z" id="Back-Page" fill="#333333" fill-rule="nonzero"></path>
                <polyline id="Curl" stroke="#333333" stroke-width="2" stroke-linecap="round" stroke-linejoin="round" points="13 7 13 11 17 11"></polyline>
            </g>
        </g>
    </g>
</svg>