<?xml version="1.0" encoding="UTF-8"?>
<svg width="24px" height="24px" viewBox="0 0 24 24" version="1.1" xmlns="http://www.w3.org/2000/svg" xmlns:xlink="http://www.w3.org/1999/xlink">
    <!-- Generator: Sketch 44.1 (41455) - http://www.bohemiancoding.com/sketch -->
    <title>crown</title>
    <desc>Created with Sketch.</desc>
    <defs></defs>
    <g id="Page-1" stroke="none" stroke-width="1" fill="none" fill-rule="evenodd">
        <g id="Artboard-4" transform="translate(-136.000000, -423.000000)" stroke="#333333" stroke-width="2">
            <g id="143" transform="translate(136.000000, 423.000000)">
                <path d="M16,21 L3,10 L4.82251334,20.0238234 C4.92053652,20.5629508 5.45003997,21 6.00704959,21 L17.9957886,21 C18.5519667,21 19.0837176,20.555163 19.1803248,20.0238234 L21.0028382,10 L8,21" id="Edges" stroke-linecap="round" stroke-linejoin="round"></path>
                <polyline id="Mid" stroke-linejoin="round" points="19 21 12 6 5 21"></polyline>
                <path d="M21.5,10 C20.6715729,10 20,9.32842712 20,8.5 C20,7.67157288 20.6715729,7 21.5,7 C22.3284271,7 23,7.67157288 23,8.5 C23,9.32842712 22.3284271,10 21.5,10 Z M2.5,10 C1.67157288,10 1,9.32842712 1,8.5 C1,7.67157288 1.67157288,7 2.5,7 C3.32842712,7 4,7.67157288 4,8.5 C4,9.32842712 3.32842712,10 2.5,10 Z M12,6 C10.8954305,6 10,5.1045695 10,4 C10,2.8954305 10.8954305,2 12,2 C13.1045695,2 14,2.8954305 14,4 C14,5.1045695 13.1045695,6 12,6 Z" id="Jewels"></path>
            </g>
        </g>
    </g>
</svg>