<?xml version="1.0" encoding="UTF-8"?>
<svg width="24px" height="24px" viewBox="0 0 24 24" version="1.1" xmlns="http://www.w3.org/2000/svg" xmlns:xlink="http://www.w3.org/1999/xlink">
    <!-- Generator: Sketch 44.1 (41455) - http://www.bohemiancoding.com/sketch -->
    <title>dial</title>
    <desc>Created with Sketch.</desc>
    <defs>
        <linearGradient x1="100%" y1="50%" x2="0%" y2="51.8187661%" id="linearGradient-1">
            <stop stop-color="#373737" stop-opacity="0.35" offset="0%"></stop>
            <stop stop-color="#333333" stop-opacity="0" offset="100%"></stop>
        </linearGradient>
    </defs>
    <g id="Page-1" stroke="none" stroke-width="1" fill="none" fill-rule="evenodd">
        <g id="Artboard-4" transform="translate(-620.000000, -379.000000)">
            <g id="133" transform="translate(620.000000, 379.000000)">
                <path d="M12,18 L21,18 C22,18 23,17 23,16 C23,10.6553849 18.0751322,5 12,5 C5.92486775,5 1,9.94218743 1,16 C1,17 2,18 3,18 C4,18 12,18 12,18 Z" id="Body" stroke="#333333" stroke-width="2" stroke-linejoin="round"></path>
                <path d="M12,18 C12,18 15.1836567,11.5 16.4574228,9.35586045 C15.1836567,8.49962716 13.6501754,8 12,8 C7.581722,8 4,11.581722 4,16 C4,16.6973947 4.25691426,18.0188615 4.25691426,18.0188615 L12,18 Z" id="Gradient" fill="url(#linearGradient-1)"></path>
                <path d="M11.8120157,16.9727855 C11.7715245,17.1314282 11.75,17.297656 11.75,17.4689111 C11.75,18.5734806 12.6454305,19.4689111 13.75,19.4689111 C14.8545695,19.4689111 15.75,18.5734806 15.75,17.4689111 C15.75,17.297656 15.7284755,17.1314282 15.6879843,16.9727855 L14.75,9.46891109 C14.75,8.91662634 14.3022847,8.46891109 13.75,8.46891109 C13.1977153,8.46891109 12.75,8.91662634 12.75,9.46891109 L11.8120157,16.9727855 Z" id="Needle" fill="#333333" transform="translate(13.750000, 13.968911) rotate(-330.000000) translate(-13.750000, -13.968911) "></path>
            </g>
        </g>
    </g>
</svg>