<?xml version="1.0" encoding="UTF-8"?>
<svg width="24px" height="24px" viewBox="0 0 24 24" version="1.1" xmlns="http://www.w3.org/2000/svg" xmlns:xlink="http://www.w3.org/1999/xlink">
    <!-- Generator: Sketch 44.1 (41455) - http://www.bohemiancoding.com/sketch -->
    <title>divide</title>
    <desc>Created with Sketch.</desc>
    <defs></defs>
    <g id="Page-1" stroke="none" stroke-width="1" fill="none" fill-rule="evenodd">
        <g id="Artboard-4" transform="translate(-444.000000, -643.000000)" fill="#333333">
            <g id="250" transform="translate(444.000000, 643.000000)">
                <rect id="Line" transform="translate(12.000000, 12.000000) rotate(-90.000000) translate(-12.000000, -12.000000) " x="11" y="4" width="2" height="16" rx="1"></rect>
                <path d="M12,8.5 C11.1715729,8.5 10.5,7.82842712 10.5,7 C10.5,6.17157288 11.1715729,5.5 12,5.5 C12.8284271,5.5 13.5,6.17157288 13.5,7 C13.5,7.82842712 12.8284271,8.5 12,8.5 Z M12,18.5 C11.1715729,18.5 10.5,17.8284271 10.5,17 C10.5,16.1715729 11.1715729,15.5 12,15.5 C12.8284271,15.5 13.5,16.1715729 13.5,17 C13.5,17.8284271 12.8284271,18.5 12,18.5 Z" id="Dots"></path>
            </g>
        </g>
    </g>
</svg>