<?xml version="1.0" encoding="UTF-8"?>
<svg width="24px" height="24px" viewBox="0 0 24 24" version="1.1" xmlns="http://www.w3.org/2000/svg" xmlns:xlink="http://www.w3.org/1999/xlink">
    <!-- Generator: Sketch 44.1 (41455) - http://www.bohemiancoding.com/sketch -->
    <title>emoji-shocked</title>
    <desc>Created with Sketch.</desc>
    <defs></defs>
    <g id="Page-1" stroke="none" stroke-width="1" fill="none" fill-rule="evenodd">
        <g id="Artboard-4" transform="translate(-840.000000, -643.000000)">
            <g id="259" transform="translate(840.000000, 643.000000)">
                <path d="M12,23 C5.92486775,23 1,18.0751322 1,12 C1,5.92486775 5.92486775,1 12,1 C18.0751322,1 23,5.92486775 23,12 C23,18.0751322 18.0751322,23 12,23 Z M12,21 C16.9705627,21 21,16.9705627 21,12 C21,7.02943725 16.9705627,3 12,3 C7.02943725,3 3,7.02943725 3,12 C3,16.9705627 7.02943725,21 12,21 Z" id="Face" fill="#333333"></path>
                <path d="M8.5,12 C7.67157288,12 7,11.3284271 7,10.5 C7,9.67157288 7.67157288,9 8.5,9 C9.32842712,9 10,9.67157288 10,10.5 C10,11.3284271 9.32842712,12 8.5,12 Z M15.5,12 C14.6715729,12 14,11.3284271 14,10.5 C14,9.67157288 14.6715729,9 15.5,9 C16.3284271,9 17,9.67157288 17,10.5 C17,11.3284271 16.3284271,12 15.5,12 Z" id="Eyes" fill="#333333"></path>
                <path d="M15.5,6.5 C16.5,6.5 17,7 17.5,7.5" id="Right-Eyebrow" stroke="#333333" stroke-linecap="round" stroke-linejoin="round"></path>
                <path d="M6.5,6.5 C7.5,6.5 8,7 8.5,7.5" id="Left-Eyebrow" stroke="#333333" stroke-linecap="round" stroke-linejoin="round" transform="translate(7.500000, 7.000000) scale(-1, 1) translate(-7.500000, -7.000000) "></path>
                <path d="M9,17.5 C9,18.5170615 15,18.5 15,17.5 C15,16.5 15.5,14 12,14 C8.5,14 9,16.4829385 9,17.5 Z" id="Mouth" stroke="#333333" stroke-width="2" stroke-linecap="round" stroke-linejoin="round"></path>
            </g>
        </g>
    </g>
</svg>