<?xml version="1.0" encoding="UTF-8"?>
<svg width="24px" height="24px" viewBox="0 0 24 24" version="1.1" xmlns="http://www.w3.org/2000/svg" xmlns:xlink="http://www.w3.org/1999/xlink">
    <!-- Generator: Sketch 44.1 (41455) - http://www.bohemiancoding.com/sketch -->
    <title>eraser</title>
    <desc>Created with Sketch.</desc>
    <defs>
        <linearGradient x1="1.41638472e-14%" y1="50%" x2="100%" y2="50%" id="linearGradient-1">
            <stop stop-color="#333333" offset="0%"></stop>
            <stop stop-color="#333333" stop-opacity="0.24779212" offset="100%"></stop>
        </linearGradient>
    </defs>
    <g id="Page-1" stroke="none" stroke-width="1" fill="none" fill-rule="evenodd">
        <g id="Artboard-4" transform="translate(-444.000000, -687.000000)">
            <g id="270" transform="translate(444.000000, 687.000000)">
                <g id="eraser" transform="translate(12.013721, 12.903735) rotate(-315.000000) translate(-12.013721, -12.903735) translate(6.513721, 2.403735)">
                    <g id="Group-7" transform="translate(1.000000, 1.000000)">
                        <path d="M0,1.99742191 C0,0.894276248 0.895857811,0 1.9973917,0 L7.0026083,0 C8.10573727,0 9,0.893397331 9,1.99188419 L9,13.992516 C9,14.5489341 8.68612671,15.3138733 8.29408795,15.7059121 L5.70591205,18.2940879 C5.31604759,18.6839524 4.55628335,19 4.00019251,19 L2.0048815,19 C0.897616023,19 0,18.1090746 0,17.0025781 L0,1.99742191 Z" id="Rectangle-194" stroke="#333333" stroke-width="2" stroke-linecap="round" stroke-linejoin="round"></path>
                        <rect id="Rectangle-195" fill="#333333" x="0" y="0" width="9" height="8"></rect>
                    </g>
                </g>
                <path d="M9,21 L20,21 C20.5522847,21 21,20.5522847 21,20 C21,19.4477153 20.5522847,19 20,19 L9,19 C8.44771525,19 8,19.4477153 8,20 C8,20.5522847 8.44771525,21 9,21 Z" id="Line" fill="url(#linearGradient-1)" fill-rule="nonzero"></path>
            </g>
        </g>
    </g>
</svg>