<?xml version="1.0" encoding="UTF-8"?>
<svg width="24px" height="24px" viewBox="0 0 24 24" version="1.1" xmlns="http://www.w3.org/2000/svg" xmlns:xlink="http://www.w3.org/1999/xlink">
    <!-- Generator: Sketch 44.1 (41455) - http://www.bohemiancoding.com/sketch -->
    <title>factory</title>
    <desc>Created with Sketch.</desc>
    <defs></defs>
    <g id="Page-1" stroke="none" stroke-width="1" fill="none" fill-rule="evenodd" stroke-linecap="round" stroke-linejoin="round">
        <g id="Artboard-4" transform="translate(-620.000000, -775.000000)" stroke="#333333" stroke-width="2">
            <g id="314" transform="translate(620.000000, 775.000000)">
                <path d="M5.50104344,3 C6.05275191,3 6.52520066,3.4463114 6.55632566,3.99754465 L7.00817871,12 L12.0085449,8 L12.0081787,12 L17.0081787,8 L17.0081787,12 L22.0081787,8 L22.0006282,20.0014977 C22.0002812,20.5529553 21.5490746,21 21.0052288,21 L3.99477117,21 C3.44537422,21 3,20.5536886 3,20.0024554 L3,12.9975446 C3,12.446616 3.02479508,11.5536886 3.05541915,11.0024554 L3.44458085,3.99754465 C3.475188,3.44661595 3.94266033,3 4.49895656,3 L5.50104344,3 Z M7,16 L7,17 L8,17 L8,16 L7,16 Z M12,16 L12,17 L13,17 L13,16 L12,16 Z M17,16 L17,17 L18,17 L18,16 L17,16 Z" id="Combined-Shape"></path>
            </g>
        </g>
    </g>
</svg>