<?xml version="1.0" encoding="UTF-8"?>
<svg width="24px" height="24px" viewBox="0 0 24 24" version="1.1" xmlns="http://www.w3.org/2000/svg" xmlns:xlink="http://www.w3.org/1999/xlink">
    <!-- Generator: Sketch 44.1 (41455) - http://www.bohemiancoding.com/sketch -->
    <title>finder</title>
    <desc>Created with Sketch.</desc>
    <defs></defs>
    <g id="Page-1" stroke="none" stroke-width="1" fill="none" fill-rule="evenodd">
        <g id="Artboard-4" transform="translate(-840.000000, -379.000000)">
            <g id="138" transform="translate(840.000000, 379.000000)">
                <rect id="Rectangle-87" stroke="#333333" stroke-width="2" x="2" y="3" width="20" height="18" rx="2"></rect>
                <polygon id="Face" fill="#333333" opacity="0.100000001" points="13 4.5 11 13 13 13 14 20 22 20 22 4"></polygon>
                <path d="M14,3 C14,3 11,9 11,13 L13,13 C13,17 14,21 14,21" id="Nose" stroke="#333333" stroke-width="2" stroke-linejoin="round"></path>
                <path d="M6,8.0093689 C6,7.45190985 6.44386482,7 7,7 C7.55228475,7 8,7.44335318 8,8.0093689 L8,9.9906311 C8,10.5480902 7.55613518,11 7,11 C6.44771525,11 6,10.5566468 6,9.9906311 L6,8.0093689 Z M16,8.0093689 C16,7.45190985 16.4438648,7 17,7 C17.5522847,7 18,7.44335318 18,8.0093689 L18,9.9906311 C18,10.5480902 17.5561352,11 17,11 C16.4477153,11 16,10.5566468 16,9.9906311 L16,8.0093689 Z" id="Eyes" fill="#333333"></path>
                <path d="M7,15 C7,15 8,17 12,17 C16,17 17,15 17,15" id="Smile" stroke="#333333" stroke-width="2" stroke-linecap="round" stroke-linejoin="round"></path>
            </g>
        </g>
    </g>
</svg>