<?xml version="1.0" encoding="UTF-8"?>
<svg width="24px" height="24px" viewBox="0 0 24 24" version="1.1" xmlns="http://www.w3.org/2000/svg" xmlns:xlink="http://www.w3.org/1999/xlink">
    <!-- Generator: Sketch 44.1 (41455) - http://www.bohemiancoding.com/sketch -->
    <title>flame</title>
    <desc>Created with Sketch.</desc>
    <defs></defs>
    <g id="Page-1" stroke="none" stroke-width="1" fill="none" fill-rule="evenodd" stroke-linecap="round" stroke-linejoin="round">
        <g id="Artboard-4" transform="translate(-532.000000, -819.000000)" stroke="#333333">
            <g id="332" transform="translate(532.000000, 819.000000)">
                <path d="M9.5,13 C7,16.5 11,21 11,21 L13,21 C13,21 16.5,16.5 14,16.5 C11.5,16.5 10,16.5 9.5,13 Z" id="Centre" fill="#333333" opacity="0.449999988"></path>
                <path d="M12,22 C15.8659932,22 19,18.8659932 19,15 C19,13.7555985 18.5,10.5 16.5,9 C16.5,11 15,14.5 13,13 C11,11.5 15.5,4.5 9,2 C10,9 5,10 5,15 C5,18.8659932 8.13400675,22 12,22 Z" id="Flame" stroke-width="2"></path>
            </g>
        </g>
    </g>
</svg>