<?xml version="1.0" encoding="UTF-8"?>
<svg width="24px" height="24px" viewBox="0 0 24 24" version="1.1" xmlns="http://www.w3.org/2000/svg" xmlns:xlink="http://www.w3.org/1999/xlink">
    <!-- Generator: Sketch 44.1 (41455) - http://www.bohemiancoding.com/sketch -->
    <title>flash-off</title>
    <desc>Created with Sketch.</desc>
    <defs></defs>
    <g id="Page-1" stroke="none" stroke-width="1" fill="none" fill-rule="evenodd">
        <g id="Artboard-4" transform="translate(-92.000000, -511.000000)">
            <g id="182" transform="translate(92.000000, 511.000000)">
                <path d="M14.2985711,10 L18,10 C18.8436265,10 19.3081735,10.9803069 18.7739573,11.6332378 L16.7573553,14.0979736 L14.2985711,10 Z M12.7205424,19.031856 L9.7739573,22.6332378 C9.10692015,23.4485054 7.79530372,22.811361 8.02381294,21.7830695 L9.73934203,14.0631886 L12.7205424,19.031856 Z M9.70142886,14 L6,14 C5.15637345,14 4.69182649,13.0196931 5.2260427,12.3667622 L7.24264471,9.90202642 L9.70142886,14 Z M11.2794576,4.96814404 L14.2260427,1.36676221 C14.8930799,0.551494583 16.2046963,1.18863896 15.9761871,2.21693046 L14.260658,9.93681138 L11.2794576,4.96814404 Z" id="Lightning-Bolt" fill="#333333" fill-rule="nonzero"></path>
                <path d="M6,2 L18,22 L6,2 Z" id="Line" stroke="#333333" stroke-width="2" stroke-linecap="round" stroke-linejoin="round"></path>
            </g>
        </g>
    </g>
</svg>