<?xml version="1.0" encoding="UTF-8"?>
<svg width="24px" height="24px" viewBox="0 0 24 24" version="1.1" xmlns="http://www.w3.org/2000/svg" xmlns:xlink="http://www.w3.org/1999/xlink">
    <!-- Generator: Sketch 44.1 (41455) - http://www.bohemiancoding.com/sketch -->
    <title>flower 2</title>
    <desc>Created with Sketch.</desc>
    <defs></defs>
    <g id="Page-1" stroke="none" stroke-width="1" fill="none" fill-rule="evenodd">
        <g id="Artboard-4" transform="translate(-884.000000, -335.000000)" stroke="#333333" stroke-width="2">
            <g id="119" transform="translate(884.000000, 335.000000)">
                <path d="M8.02711188,6.53178862 C8.25894986,4.54326722 9.94925025,3 12,3 C14.0507498,3 15.7410501,4.54326722 15.9728881,6.53178862 C17.9357262,6.13779274 19.9257921,7.26846813 20.5595086,9.21884705 C21.1932252,11.169226 20.2478224,13.253693 18.428268,14.0886709 C19.4095307,15.8336894 18.9491587,18.0757525 17.2900673,19.2811529 C15.6309759,20.4865534 13.3563844,20.2315576 12,18.759081 C10.6436156,20.2315576 8.36902413,20.4865534 6.70993273,19.2811529 C5.05084133,18.0757525 4.5904693,15.8336894 5.57173199,14.0886709 C3.75217763,13.253693 2.80677483,11.169226 3.44049135,9.21884705 C4.07420788,7.26846813 6.06427376,6.13779274 8.02711188,6.53178862 Z M12,15 C13.6568542,15 15,13.6568542 15,12 C15,10.3431458 13.6568542,9 12,9 C10.3431458,9 9,10.3431458 9,12 C9,13.6568542 10.3431458,15 12,15 Z" id="Petals"></path>
            </g>
        </g>
    </g>
</svg>