<?xml version="1.0" encoding="UTF-8"?>
<svg width="24px" height="24px" viewBox="0 0 24 24" version="1.1" xmlns="http://www.w3.org/2000/svg" xmlns:xlink="http://www.w3.org/1999/xlink">
    <!-- Generator: Sketch 44.1 (41455) - http://www.bohemiancoding.com/sketch -->
    <title>gears</title>
    <desc>Created with Sketch.</desc>
    <defs></defs>
    <g id="Page-1" stroke="none" stroke-width="1" fill="none" fill-rule="evenodd">
        <g id="Artboard-4" transform="translate(-444.000000, -863.000000)">
            <g id="350" transform="translate(444.000000, 863.000000)">
                <path d="M18,6 L18,18" id="3-4" stroke="#333333" stroke-width="2" stroke-linecap="round" stroke-linejoin="round"></path>
                <path d="M12,6 L12,18" id="1-2" stroke="#333333" stroke-width="2" stroke-linecap="round" stroke-linejoin="round"></path>
                <path d="M6,6 L6,10.0020869 C6,11.1055038 6.90195036,12 8.0085302,12 L18,12" id="Reverse" stroke="#333333" stroke-width="2" stroke-linecap="round" stroke-linejoin="round"></path>
                <path d="M18,4 C17.4477153,4 17,3.55228475 17,3 C17,2.44771525 17.4477153,2 18,2 C18.5522847,2 19,2.44771525 19,3 C19,3.55228475 18.5522847,4 18,4 Z M18,22 C17.4477153,22 17,21.5522847 17,21 C17,20.4477153 17.4477153,20 18,20 C18.5522847,20 19,20.4477153 19,21 C19,21.5522847 18.5522847,22 18,22 Z M12,4 C11.4477153,4 11,3.55228475 11,3 C11,2.44771525 11.4477153,2 12,2 C12.5522847,2 13,2.44771525 13,3 C13,3.55228475 12.5522847,4 12,4 Z M12,22 C11.4477153,22 11,21.5522847 11,21 C11,20.4477153 11.4477153,20 12,20 C12.5522847,20 13,20.4477153 13,21 C13,21.5522847 12.5522847,22 12,22 Z M6,4 C5.44771525,4 5,3.55228475 5,3 C5,2.44771525 5.44771525,2 6,2 C6.55228475,2 7,2.44771525 7,3 C7,3.55228475 6.55228475,4 6,4 Z" id="Gears" fill="#333333" opacity="0.5"></path>
            </g>
        </g>
    </g>
</svg>