<?xml version="1.0" encoding="UTF-8"?>
<svg width="24px" height="24px" viewBox="0 0 24 24" version="1.1" xmlns="http://www.w3.org/2000/svg" xmlns:xlink="http://www.w3.org/1999/xlink">
    <!-- Generator: Sketch 44.1 (41455) - http://www.bohemiancoding.com/sketch -->
    <title>gender-unisex</title>
    <desc>Created with Sketch.</desc>
    <defs></defs>
    <g id="Page-1" stroke="none" stroke-width="1" fill="none" fill-rule="evenodd">
        <g id="Artboard-4" transform="translate(-268.000000, -731.000000)">
            <g id="286" transform="translate(268.000000, 731.000000)">
                <circle id="Head" stroke="#333333" stroke-width="2" cx="12" cy="3" r="2"></circle>
                <path d="M5,15 L8.50148493,8.87240137 C8.7768072,8.3905874 9.44266033,8 9.99895656,8" id="Left-Arm" stroke="#333333" stroke-width="2" stroke-linecap="round" stroke-linejoin="round"></path>
                <path d="M14,8 L15,8 C15.5522847,8 16.068734,8.44677132 16.1518785,8.98721009 L17,14.5" id="Right-Arm" stroke="#333333" stroke-width="2" stroke-linecap="round" stroke-linejoin="round"></path>
                <path d="M14,18 L14,23" id="Right-Leg`" stroke="#333333" stroke-width="2" stroke-linecap="round"></path>
                <path d="M10,18 L10,23" id="Left-Leg" stroke="#333333" stroke-width="2" stroke-linecap="round"></path>
                <polyline id="Body" stroke="#333333" stroke-width="2" points="13 8 14 8 14 18 13 18"></polyline>
                <path d="M11,7 L10,7 C10,7 10.1514332,8.55995811 9.93311061,9.0451195 L6.08807849,17.5896353 C5.79029432,18.2513779 6.27434257,19 7,19 L11,19 L11,17 L8.54658561,17 L10.9983876,11.551551 L11,7 Z" id="Skirt" fill="#333333" fill-rule="nonzero"></path>
            </g>
        </g>
    </g>
</svg>