<?xml version="1.0" encoding="UTF-8"?>
<svg width="24px" height="24px" viewBox="0 0 24 24" version="1.1" xmlns="http://www.w3.org/2000/svg" xmlns:xlink="http://www.w3.org/1999/xlink">
    <!-- Generator: Sketch 44.1 (41455) - http://www.bohemiancoding.com/sketch -->
    <title>gingerbread-house</title>
    <desc>Created with Sketch.</desc>
    <defs></defs>
    <g id="Page-1" stroke="none" stroke-width="1" fill="none" fill-rule="evenodd">
        <g id="Artboard-4" transform="translate(-48.000000, -599.000000)">
            <g id="221" transform="translate(48.000000, 599.000000)">
                <path d="M3.47400693,3.92864127 C3.76450488,2.86348211 4.89451376,2 5.99406028,2 L18.0059397,2 C19.1072288,2 20.235405,2.86315155 20.5259931,3.92864127 L22.4740069,11.0713587 C22.7645049,12.1365179 22.1103261,13 21.008845,13 L2.991155,13 C1.89147046,13 1.23540497,12.1368484 1.52599307,11.0713587 L3.47400693,3.92864127 Z" id="Roof" stroke="#333333" stroke-width="2"></path>
                <path d="M3,13 L21,13 L21,21.0024554 C21,21.553384 20.5550537,22 20.0066023,22 L3.99339768,22 C3.44475929,22 3,21.5536886 3,21.0024554 L3,13 Z" id="Walls" stroke="#333333" stroke-width="2"></path>
                <path d="M10,17.9979131 C10,16.8944962 10.8877296,16 12,16 L12,16 C13.1045695,16 14,16.8982606 14,17.9979131 L14,22 L10,22 L10,17.9979131 Z" id="Door" stroke="#333333" stroke-width="2"></path>
                <path d="M2,6 C4,6 4,4 4,4 C4,4 4,6 6,6 C8,6 8,4 8,4 C8,4 8,6 10,6 C12,6 12,4 12,4 C12,4 12,6 14,6 C16,6 16,4 16,4 C16,4 16,6 18,6 C20,6 20,4 20,4 C20,4 20,6 22,6" id="Icing" stroke="#333333" stroke-linejoin="round"></path>
                <path d="M2,8 C2,8 2,10 4,10 C6,10 6,8 6,8 C6,8 6,10 8,10 C10,10 10,8 10,8 C10,8 10,10 12,10 C14,10 14,8 14,8 C14,8 14,10 16,10 C18,10 18,8 18,8 C18,8 18,10 20,10 C22,10 22,8 22,8" id="Icing" stroke="#333333" stroke-linejoin="round"></path>
                <path d="M17,16.9989566 C17,16.4472481 17.4438648,16 18,16 C18.5522847,16 19,16.4426603 19,16.9989566 L19,19 L17,19 L17,16.9989566 Z M5,16.9989566 C5,16.4472481 5.44386482,16 6,16 C6.55228475,16 7,16.4426603 7,16.9989566 L7,19 L5,19 L5,16.9989566 Z" id="Windows" fill="#333333"></path>
            </g>
        </g>
    </g>
</svg>