<?xml version="1.0" encoding="UTF-8"?>
<svg width="24px" height="24px" viewBox="0 0 24 24" version="1.1" xmlns="http://www.w3.org/2000/svg" xmlns:xlink="http://www.w3.org/1999/xlink">
    <!-- Generator: Sketch 44.1 (41455) - http://www.bohemiancoding.com/sketch -->
    <title>hammer</title>
    <desc>Created with Sketch.</desc>
    <defs></defs>
    <g id="Page-1" stroke="none" stroke-width="1" fill="none" fill-rule="evenodd">
        <g id="Artboard-4" transform="translate(-48.000000, -643.000000)">
            <g id="241" transform="translate(43.000000, 639.000000)">
                <g id="hammer" transform="translate(15.702796, 15.502784) rotate(-315.000000) translate(-15.702796, -15.502784) translate(7.202796, 2.502784)">
                    <g id="Group-6" transform="translate(1.000000, 2.000000)">
                        <path d="M6.5,14 L9.5,14 L9.95023012,23.0046024 C9.97771727,23.5543453 9.55664682,24 8.9906311,24 L7.0093689,24 C6.45190985,24 6.02278322,23.5443356 6.04976988,23.0046024 L6.5,14 Z" id="Rectangle-185" stroke="#333333" stroke-width="2" stroke-linecap="round" stroke-linejoin="round"></path>
                        <rect id="Rectangle-186" fill="#333333" x="7" y="8" width="2" height="6"></rect>
                        <path d="M8,8 C8,6 6.5,5 4.5,5 C2.5,5 0.5,7.5 0.5,7.5 C0.5,7.5 0.5,3 6.5,1 C7.99883632,0.500387892 10,1 10,1 C10,1 10.5,2 11,2 C11.5,2 12,1 12,1 L15,1 L15,6 L12,6 C12,6 12,5 11,5 C10,5 8,5 8,8 Z" id="Path-176" stroke="#333333" stroke-width="2" stroke-linejoin="round"></path>
                    </g>
                </g>
            </g>
        </g>
    </g>
</svg>