<?xml version="1.0" encoding="UTF-8"?>
<svg width="24px" height="24px" viewBox="0 0 24 24" version="1.1" xmlns="http://www.w3.org/2000/svg" xmlns:xlink="http://www.w3.org/1999/xlink">
    <!-- Generator: Sketch 44.1 (41455) - http://www.bohemiancoding.com/sketch -->
    <title>hashtag</title>
    <desc>Created with Sketch.</desc>
    <defs></defs>
    <g id="Page-1" stroke="none" stroke-width="1" fill="none" fill-rule="evenodd">
        <g id="Artboard-4" transform="translate(-136.000000, -907.000000)" stroke="#333333" stroke-width="2" fill-rule="nonzero">
            <g id="363" transform="translate(136.000000, 907.000000)">
                <path d="M13.6532122,11 L14.8581385,11 L13.8752663,9.81571146 L13.6532122,11 Z M13.2782122,13 L13.1252663,13.8157115 L14.1081385,13 L13.2782122,13 Z M11.3467878,13 L10.1418615,13 L11.1247337,14.1842885 L11.3467878,13 Z M11.7217878,11 L11.8747337,10.1842885 L10.8918615,11 L11.7217878,11 Z M11.7217878,11 L13.6532122,11 L13.2782122,13 L11.3467878,13 L11.7217878,11 Z M12.4717878,7 L14.4033206,7 L15.0476259,3.56613908 C15.2872406,2.48787263 16.3555945,1.80801111 17.4338609,2.04762588 C18.5121274,2.28724065 19.1919889,3.35559446 18.9590592,4.40121899 L18.4717878,7 L20,7 C21.1045695,7 22,7.8954305 22,9 C22,10.1045695 21.1045695,11 20,11 L17.7217878,11 L17.3467878,13 L18.5,13 C19.6045695,13 20.5,13.8954305 20.5,15 C20.5,16.1045695 19.6045695,17 18.5,17 L16.5966794,17 L15.9523741,20.4338609 C15.7127594,21.5121274 14.6444055,22.1919889 13.5661391,21.9523741 C12.4878726,21.7127594 11.8080111,20.6444055 12.0409408,19.598781 L12.5282122,17 L10.5966794,17 L9.95237412,20.4338609 C9.71275935,21.5121274 8.64440554,22.1919889 7.56613908,21.9523741 C6.48787263,21.7127594 5.80801111,20.6444055 6.04094075,19.598781 L6.52821219,17 L5,17 C3.8954305,17 3,16.1045695 3,15 C3,13.8954305 3.8954305,13 5,13 L7.27821219,13 L7.65321219,11 L6.5,11 C5.3954305,11 4.5,10.1045695 4.5,9 C4.5,7.8954305 5.3954305,7 6.5,7 L8.4033206,7 L9.04762588,3.56613908 C9.28724065,2.48787263 10.3555945,1.80801111 11.4338609,2.04762588 C12.5121274,2.28724065 13.1919889,3.35559446 12.9590592,4.40121899 L12.4717878,7 Z" id="Combined-Shape"></path>
            </g>
        </g>
    </g>
</svg>