<?xml version="1.0" encoding="UTF-8"?>
<svg width="24px" height="24px" viewBox="0 0 24 24" version="1.1" xmlns="http://www.w3.org/2000/svg" xmlns:xlink="http://www.w3.org/1999/xlink">
    <!-- Generator: Sketch 44.1 (41455) - http://www.bohemiancoding.com/sketch -->
    <title>holdall</title>
    <desc>Created with Sketch.</desc>
    <defs></defs>
    <g id="Page-1" stroke="none" stroke-width="1" fill="none" fill-rule="evenodd">
        <g id="Artboard-4" transform="translate(-224.000000, -379.000000)">
            <g id="124" transform="translate(224.000000, 379.000000)">
                <path d="M1,11.999615 C1,10.3458159 2.34308897,9 3.99079514,9 L20.0092049,9 C21.6640573,9 23,10.3382343 23,11.999615 L23,18.000385 C23,19.6541841 21.656911,21 20.0092049,21 L3.99079514,21 C2.33594272,21 1,19.6617657 1,18.000385 L1,11.999615 Z" id="Bag" stroke="#333333" stroke-width="2"></path>
                <path d="M16,12 L16,7 C16,4.790861 14.209139,3 12,3 C9.790861,3 8,4.790861 8,7 L8,12" id="Handle" stroke="#333333" stroke-width="2" stroke-linecap="round"></path>
                <path d="M18,9 L20,9 L20,21 L18,21 L18,9 Z M4,9 L6,9 L6,21 L4,21 L4,9 Z" id="Straps" fill="#333333"></path>
            </g>
        </g>
    </g>
</svg>