<?xml version="1.0" encoding="UTF-8"?>
<svg width="24px" height="24px" viewBox="0 0 24 24" version="1.1" xmlns="http://www.w3.org/2000/svg" xmlns:xlink="http://www.w3.org/1999/xlink">
    <!-- Generator: Sketch 44.1 (41455) - http://www.bohemiancoding.com/sketch -->
    <title>homekit</title>
    <desc>Created with Sketch.</desc>
    <defs></defs>
    <g id="Page-1" stroke="none" stroke-width="1" fill="none" fill-rule="evenodd">
        <g id="Artboard-4" transform="translate(-48.000000, -907.000000)" stroke="#333333" stroke-width="2">
            <g id="361" transform="translate(48.000000, 907.000000)">
                <path d="M2.69498562,11.0040174 L4,10.9864409 L4,20.000385 C4,20.5574808 4.44271433,21 4.99508929,21 L19.0049107,21 C19.5552337,21 20,20.5559323 20,20.0084645 L20,11.0404053 L21.4271769,11.0404053 L20,9.73355354 L20,6 L19,6 L19,8.74437789 L12.1122564,2.90703363 C12.0708145,2.87191177 11.9508167,2.87313979 11.908132,2.91063658 L2.69498562,11.0040174 Z" id="Home"></path>
                <path d="M12,5.31707778 L6,10.4599349 L6,19 L18,19 L18,10.4599349 L12,5.31707778 Z" id="1" stroke-opacity="0.49756567"></path>
                <path d="M12,7.9501674 L8,11.3798793 L8,17 L16,17 L16,11.3798793 L12,7.9501674 Z" id="2" stroke-opacity="0.248103487"></path>
            </g>
        </g>
    </g>
</svg>