<?xml version="1.0" encoding="UTF-8"?>
<svg width="24px" height="24px" viewBox="0 0 24 24" version="1.1" xmlns="http://www.w3.org/2000/svg" xmlns:xlink="http://www.w3.org/1999/xlink">
    <!-- Generator: Sketch 44.1 (41455) - http://www.bohemiancoding.com/sketch -->
    <title>inspect</title>
    <desc>Created with Sketch.</desc>
    <defs></defs>
    <g id="Page-1" stroke="none" stroke-width="1" fill="none" fill-rule="evenodd">
        <g id="Artboard-4" transform="translate(-576.000000, -511.000000)">
            <g id="193" transform="translate(576.000000, 511.000000)">
                <circle id="Outer" stroke="#333333" stroke-width="2" cx="12" cy="12" r="8"></circle>
                <circle id="Centre" stroke="#333333" stroke-width="2" cx="12" cy="12" r="2"></circle>
                <path d="M11,1.99077797 C11,1.44358641 11.4438648,1 12,1 C12.5522847,1 13,1.45097518 13,1.99077797 L13,6.00922203 C13,6.55641359 12.5561352,7 12,7 C11.4477153,7 11,6.54902482 11,6.00922203 L11,1.99077797 Z M11,17.990778 C11,17.4435864 11.4438648,17 12,17 C12.5522847,17 13,17.4509752 13,17.990778 L13,22.009222 C13,22.5564136 12.5561352,23 12,23 C11.4477153,23 11,22.5490248 11,22.009222 L11,17.990778 Z M1.99077797,13 C1.44358641,13 1,12.5561352 1,12 C1,11.4477153 1.45097518,11 1.99077797,11 L6.00922203,11 C6.55641359,11 7,11.4438648 7,12 C7,12.5522847 6.54902482,13 6.00922203,13 L1.99077797,13 Z M17.990778,13 C17.4435864,13 17,12.5561352 17,12 C17,11.4477153 17.4509752,11 17.990778,11 L22.009222,11 C22.5564136,11 23,11.4438648 23,12 C23,12.5522847 22.5490248,13 22.009222,13 L17.990778,13 Z" id="Lines" fill="#333333"></path>
            </g>
        </g>
    </g>
</svg>