<?xml version="1.0" encoding="UTF-8"?>
<svg width="24px" height="24px" viewBox="0 0 24 24" version="1.1" xmlns="http://www.w3.org/2000/svg" xmlns:xlink="http://www.w3.org/1999/xlink">
    <!-- Generator: Sketch 44.1 (41455) - http://www.bohemiancoding.com/sketch -->
    <title>link-break</title>
    <desc>Created with Sketch.</desc>
    <defs></defs>
    <g id="Page-1" stroke="none" stroke-width="1" fill="none" fill-rule="evenodd" stroke-linecap="round" stroke-linejoin="round">
        <g id="Artboard-4" transform="translate(-92.000000, -291.000000)" stroke="#333333" stroke-width="2">
            <g id="82" transform="translate(89.000000, 287.000000)">
                <g id="Group" transform="translate(15.500000, 16.000000) rotate(45.000000) translate(-15.500000, -16.000000) translate(5.000000, 5.000000)">
                    <path d="M14,9 L14,4 C14,1.790861 12.209139,5.68434189e-14 10,5.68434189e-14 C7.790861,5.68434189e-14 6,1.790861 6,4 L6,7" id="Combined-Shape"></path>
                    <path d="M6,13 L6,18 C6,20.209139 7.790861,22 10,22 C12.209139,22 14,20.209139 14,18 L14,15" id="Combined-Shape"></path>
                    <path d="M19,12 L21,12" id="Path-11"></path>
                    <path d="M0,10 L2,10" id="Path-11"></path>
                    <path d="M17,15 L18,16" id="Path-11"></path>
                    <path d="M2,13 L3,14" id="Path-11" transform="translate(2.500000, 13.500000) scale(-1, 1) translate(-2.500000, -13.500000) "></path>
                    <path d="M17,9 L18,8" id="Path-11"></path>
                    <path d="M2,7 L3,6" id="Path-11" transform="translate(2.500000, 6.500000) scale(-1, 1) translate(-2.500000, -6.500000) "></path>
                </g>
            </g>
        </g>
    </g>
</svg>