<?xml version="1.0" encoding="UTF-8"?>
<svg width="24px" height="24px" viewBox="0 0 24 24" version="1.1" xmlns="http://www.w3.org/2000/svg" xmlns:xlink="http://www.w3.org/1999/xlink">
    <!-- Generator: Sketch 44.1 (41455) - http://www.bohemiancoding.com/sketch -->
    <title>lock</title>
    <desc>Created with Sketch.</desc>
    <defs></defs>
    <g id="Page-1" stroke="none" stroke-width="1" fill="none" fill-rule="evenodd">
        <g id="Artboard-4" transform="translate(-840.000000, -159.000000)">
            <g id="39" transform="translate(840.000000, 159.000000)">
                <rect id="Body" stroke="#333333" stroke-width="2" x="3" y="10" width="18" height="12" rx="1"></rect>
                <path d="M13,16.7324356 L13,18 C13,18.5522847 12.5522847,19 12,19 C11.4477153,19 11,18.5522847 11,18 L11,16.7324356 C10.4021986,16.3866262 10,15.7402824 10,15 C10,13.8954305 10.8954305,13 12,13 C13.1045695,13 14,13.8954305 14,15 C14,15.7402824 13.5978014,16.3866262 13,16.7324356 Z" id="Keyhole" fill="#333333"></path>
                <path d="M17,10 L17,7 C17,4.23857625 14.7614237,2 12,2 C9.23857625,2 7,4.23857625 7,7 L7,10" id="Lock" stroke="#333333" stroke-width="2"></path>
            </g>
        </g>
    </g>
</svg>