<?xml version="1.0" encoding="UTF-8"?>
<svg width="24px" height="24px" viewBox="0 0 24 24" version="1.1" xmlns="http://www.w3.org/2000/svg" xmlns:xlink="http://www.w3.org/1999/xlink">
    <!-- Generator: Sketch 44.1 (41455) - http://www.bohemiancoding.com/sketch -->
    <title>magic-hat</title>
    <desc>Created with Sketch.</desc>
    <defs></defs>
    <g id="Page-1" stroke="none" stroke-width="1" fill="none" fill-rule="evenodd">
        <g id="Artboard-4" transform="translate(-708.000000, -379.000000)">
            <g id="135" transform="translate(708.000000, 379.000000)">
                <rect id="Rim" fill="#333333" x="2" y="6" width="20" height="2" rx="1"></rect>
                <path d="M7,7 L17,7 L18.7176907,19.0238352 C18.8736058,20.1152409 18.1029399,21 16.9941413,21 L7.00585866,21 C5.89805351,21 5.12662623,20.1136164 5.28230926,19.0238352 L7,7 Z" id="Hat" stroke="#333333" stroke-width="2"></path>
                <rect id="Ribbon" fill="#333333" x="7" y="10" width="10" height="2"></rect>
                <path d="M13,0.497698784 L13,1.00630944 C13,1.55738551 13.4448904,2 13.9936906,2 L14.5023012,2 C14.7771727,2 15,2.23193359 15,2.5 C15,2.77614237 14.7851562,3 14.5023012,3 L13.9936906,3 C13.4426145,3 13,3.44489042 13,3.99369056 L13,4.50230122 C13,4.77717266 12.7680664,5 12.5,5 C12.2238576,5 12,4.78515625 12,4.50230122 L12,3.99369056 C12,3.44261449 11.5551096,3 11.0063094,3 L10.4976988,3 C10.2228273,3 10,2.76806641 10,2.5 C10,2.22385763 10.2148438,2 10.4976988,2 L11.0063094,2 C11.5573855,2 12,1.55510958 12,1.00630944 L12,0.497698784 C12,0.222827336 12.2319336,0 12.5,0 C12.7761424,0 13,0.21484375 13,0.497698784 Z M18,5 C17.4477153,5 17,4.55228475 17,4 C17,3.44771525 17.4477153,3 18,3 C18.5522847,3 19,3.44771525 19,4 C19,4.55228475 18.5522847,5 18,5 Z M7,2.49538898 L7,2.501056 C7,2.77131733 7.22338484,3 7.498944,3 L7.50461102,3 C7.7782068,3 8,3.23193359 8,3.5 C8,3.77614237 7.7842474,4 7.50461102,4 L7.498944,4 C7.22868267,4 7,4.22338484 7,4.498944 L7,4.50461102 C7,4.7782068 6.76806641,5 6.5,5 C6.22385763,5 6,4.7842474 6,4.50461102 L6,4.498944 C6,4.22868267 5.77661516,4 5.501056,4 L5.49538898,4 C5.2217932,4 5,3.76806641 5,3.5 C5,3.22385763 5.2157526,3 5.49538898,3 L5.501056,3 C5.77131733,3 6,2.77661516 6,2.501056 L6,2.49538898 C6,2.2217932 6.23193359,2 6.5,2 C6.77614237,2 7,2.2157526 7,2.49538898 Z" id="Sparkles" fill="#333333"></path>
            </g>
        </g>
    </g>
</svg>