<?xml version="1.0" encoding="UTF-8"?>
<svg width="24px" height="24px" viewBox="0 0 24 24" version="1.1" xmlns="http://www.w3.org/2000/svg" xmlns:xlink="http://www.w3.org/1999/xlink">
    <!-- Generator: Sketch 44.1 (41455) - http://www.bohemiancoding.com/sketch -->
    <title>mic</title>
    <desc>Created with Sketch.</desc>
    <defs></defs>
    <g id="Page-1" stroke="none" stroke-width="1" fill="none" fill-rule="evenodd">
        <g id="Artboard-4" transform="translate(-576.000000, -247.000000)">
            <g id="73" transform="translate(576.000000, 247.000000)">
                <rect id="Mic" stroke="#333333" stroke-width="2" x="9" y="2" width="6" height="12" rx="3"></rect>
                <path d="M18,8.02514648 L18,11.0011767 C18,14.3142353 15.3069658,17 12,17 L12,17 C8.6862915,17 6,14.3225826 6,10.9935314 L6,7.99499512 L6,7.99499512" id="Stand" stroke="#333333" stroke-width="2" stroke-linecap="round" stroke-linejoin="round"></path>
                <path d="M11,21.0004057 L7.4955775,21.0004057 C6.94483697,21.0004057 6.5,21.4480301 6.5,22.0002028 C6.5,22.5562252 6.94573523,23 7.4955775,23 L11,23 L13,23.0002028 L16.5044225,23 C17.055163,23 17.5,22.5523756 17.5,22.0002028 C17.5,21.4441805 17.0542648,21.0004057 16.5044225,21.0004057 L13,21.0004057 L13,17.0016228 L11,17.0016228 L11,21.0004057 Z" id="Base" fill="#333333"></path>
            </g>
        </g>
    </g>
</svg>