<?xml version="1.0" encoding="UTF-8"?>
<svg width="24px" height="24px" viewBox="0 0 24 24" version="1.1" xmlns="http://www.w3.org/2000/svg" xmlns:xlink="http://www.w3.org/1999/xlink">
    <!-- Generator: Sketch 44.1 (41455) - http://www.bohemiancoding.com/sketch -->
    <title>money-notes</title>
    <desc>Created with Sketch.</desc>
    <defs></defs>
    <g id="Page-1" stroke="none" stroke-width="1" fill="none" fill-rule="evenodd">
        <g id="Artboard-4" transform="translate(-576.000000, -599.000000)" stroke="#333333" stroke-width="2">
            <g id="233" transform="translate(576.000000, 599.000000)">
                <g id="Group-5" transform="translate(11.708656, 8.176566) rotate(-15.000000) translate(-11.708656, -8.176566) translate(1.208656, 5.176566)">
                    <path d="M-1.4321877e-13,4.74401339 L-1.4321877e-13,1.00608322 C-1.4321877e-13,0.450438802 0.455305576,6.83897383e-14 0.99180311,6.83897383e-14 L19.0081969,6.83897383e-14 C19.5559546,6.83897383e-14 20,0.45114915 20,1.00587566 L20,4.53235134 L20.0034103,5.36363682" id="Body" stroke-linejoin="round"></path>
                    <path d="M16,1 C16,2.5 17.5,4 19,4" id="Corner" opacity="0.5"></path>
                </g>
                <g id="Group-5" transform="translate(2.000000, 8.000000)">
                    <path d="M0,1.00247329 C0,0.448822582 0.455305576,0 0.99180311,0 L19.0081969,0 C19.5559546,0 20,0.455760956 20,1.00247329 L20,10.9975267 C20,11.5511774 19.5446944,12 19.0081969,12 L0.99180311,12 C0.444045377,12 0,11.544239 0,10.9975267 L0,1.00247329 Z M10,8 C11.1045695,8 12,7.1045695 12,6 C12,4.8954305 11.1045695,4 10,4 C8.8954305,4 8,4.8954305 8,6 C8,7.1045695 8.8954305,8 10,8 Z" id="Body" stroke-linejoin="round"></path>
                    <path d="M16,1 C16,2.5 17.5,4 19,4" id="Corner-4"></path>
                    <path d="M1,1 C1,2.5 2.5,4 4,4" id="Corner-3" transform="translate(2.500000, 2.500000) scale(-1, 1) translate(-2.500000, -2.500000) "></path>
                    <path d="M16,8 C16,9.5 17.5,11 19,11" id="Corner-2" transform="translate(17.500000, 9.500000) scale(1, -1) translate(-17.500000, -9.500000) "></path>
                    <path d="M1,8 C1,9.5 2.5,11 4,11" id="Corner-1" transform="translate(2.500000, 9.500000) scale(-1, -1) translate(-2.500000, -9.500000) "></path>
                </g>
            </g>
        </g>
    </g>
</svg>