<?xml version="1.0" encoding="UTF-8"?>
<svg width="24px" height="24px" viewBox="0 0 24 24" version="1.1" xmlns="http://www.w3.org/2000/svg" xmlns:xlink="http://www.w3.org/1999/xlink">
    <!-- Generator: Sketch 44.1 (41455) - http://www.bohemiancoding.com/sketch -->
    <title>money-note</title>
    <desc>Created with Sketch.</desc>
    <defs></defs>
    <g id="Page-1" stroke="none" stroke-width="1" fill="none" fill-rule="evenodd">
        <g id="Artboard-4" transform="translate(-532.000000, -599.000000)" stroke="#333333" stroke-width="2">
            <g id="232" transform="translate(532.000000, 599.000000)">
                <path d="M2,7.00247329 C2,6.44882258 2.45530558,6 2.99180311,6 L21.0081969,6 C21.5559546,6 22,6.45576096 22,7.00247329 L22,16.9975267 C22,17.5511774 21.5446944,18 21.0081969,18 L2.99180311,18 C2.44404538,18 2,17.544239 2,16.9975267 L2,7.00247329 Z M12,14 C13.1045695,14 14,13.1045695 14,12 C14,10.8954305 13.1045695,10 12,10 C10.8954305,10 10,10.8954305 10,12 C10,13.1045695 10.8954305,14 12,14 Z" id="Body" stroke-linejoin="round"></path>
                <path d="M18,7 C18,8.5 19.5,10 21,10" id="Corner-4"></path>
                <path d="M3,7 C3,8.5 4.5,10 6,10" id="Corner-3" transform="translate(4.500000, 8.500000) scale(-1, 1) translate(-4.500000, -8.500000) "></path>
                <path d="M18,14 C18,15.5 19.5,17 21,17" id="Corner-2" transform="translate(19.500000, 15.500000) scale(1, -1) translate(-19.500000, -15.500000) "></path>
                <path d="M3,14 C3,15.5 4.5,17 6,17" id="Corner-1" transform="translate(4.500000, 15.500000) scale(-1, -1) translate(-4.500000, -15.500000) "></path>
            </g>
        </g>
    </g>
</svg>