<?xml version="1.0" encoding="UTF-8"?>
<svg width="24px" height="24px" viewBox="0 0 24 24" version="1.1" xmlns="http://www.w3.org/2000/svg" xmlns:xlink="http://www.w3.org/1999/xlink">
    <!-- Generator: Sketch 44.1 (41455) - http://www.bohemiancoding.com/sketch -->
    <title>mug</title>
    <desc>Created with Sketch.</desc>
    <defs></defs>
    <g id="Page-1" stroke="none" stroke-width="1" fill="none" fill-rule="evenodd">
        <g id="Artboard-4" transform="translate(-884.000000, -555.000000)" stroke="#333333" stroke-width="2">
            <g id="220" transform="translate(884.000000, 555.000000)">
                <path d="M17,7 L17,19.0014977 C17,19.5529553 16.6575356,20.2780914 16.1969355,20.5784829 C16.1969355,20.5784829 15,22 10,22 C5,22 3.80306453,20.5784829 3.80306453,20.5784829 C3.35954423,20.2589956 3,19.5525106 3,19.0014977 L3,7" id="Body" stroke-linecap="round" stroke-linejoin="round"></path>
                <ellipse id="Rim" cx="10" cy="7" rx="7" ry="2"></ellipse>
                <path d="M17,11 C17,11 17.5,9 19.5,9 C21.5,9 22,10.5 22,12 C22,15 17,17 17,17" id="Handle"></path>
                <path d="M6,2 C6,3.25 5,3.25 5,4.5 C5,5.75 6,5.75 6,7" id="Path-8" opacity="0.5" stroke-linecap="round" stroke-linejoin="round"></path>
                <path d="M10,2 C10,3.25 9,3.25 9,4.5 C9,5.75 10,5.75 10,7" id="Path-8" opacity="0.5" stroke-linecap="round" stroke-linejoin="round"></path>
                <path d="M14,2 C14,3.25 13,3.25 13,4.5 C13,5.75 14,5.75 14,7" id="Path-8" opacity="0.5" stroke-linecap="round" stroke-linejoin="round"></path>
            </g>
        </g>
    </g>
</svg>