<?xml version="1.0" encoding="UTF-8"?>
<svg width="24px" height="24px" viewBox="0 0 24 24" version="1.1" xmlns="http://www.w3.org/2000/svg" xmlns:xlink="http://www.w3.org/1999/xlink">
    <!-- Generator: Sketch 44.1 (41455) - http://www.bohemiancoding.com/sketch -->
    <title>nintendo-switch-controller</title>
    <desc>Created with Sketch.</desc>
    <defs>
        <rect id="path-1" x="10" y="6" width="4" height="12"></rect>
    </defs>
    <g id="Page-1" stroke="none" stroke-width="1" fill="none" fill-rule="evenodd">
        <g id="Artboard-4" transform="translate(-268.000000, -775.000000)">
            <g id="306" transform="translate(268.000000, 775.000000)">
                <rect id="Body" stroke="#333333" stroke-width="2" x="5" y="6" width="14" height="12" rx="2"></rect>
                <path d="M4,8 C4,8 1,13 1,16.5 C1,20 5,19.5 5,17 C5,14.5 4,8 4,8 Z" id="Left-Handle" fill="#333333"></path>
                <path d="M22,8 C22,8 19,13 19,16.5 C19,20 23,19.5 23,17 C23,14.5 22,8 22,8 Z" id="Right-Handle" fill="#333333" transform="translate(21.000000, 13.500000) scale(-1, 1) translate(-21.000000, -13.500000) "></path>
                <path d="M6.5,13 C6.22385763,13 6,12.7761424 6,12.5 C6,12.2238576 6.22385763,12 6.5,12 C6.77614237,12 7,12.2238576 7,12.5 C7,12.7761424 6.77614237,13 6.5,13 Z M7.5,14 C7.22385763,14 7,13.7761424 7,13.5 C7,13.2238576 7.22385763,13 7.5,13 C7.77614237,13 8,13.2238576 8,13.5 C8,13.7761424 7.77614237,14 7.5,14 Z M8.5,13 C8.22385763,13 8,12.7761424 8,12.5 C8,12.2238576 8.22385763,12 8.5,12 C8.77614237,12 9,12.2238576 9,12.5 C9,12.7761424 8.77614237,13 8.5,13 Z M7.5,12 C7.22385763,12 7,11.7761424 7,11.5 C7,11.2238576 7.22385763,11 7.5,11 C7.77614237,11 8,11.2238576 8,11.5 C8,11.7761424 7.77614237,12 7.5,12 Z" id="Left-Buttons" fill="#333333"></path>
                <path d="M15.5,10 C15.2238576,10 15,9.77614237 15,9.5 C15,9.22385763 15.2238576,9 15.5,9 C15.7761424,9 16,9.22385763 16,9.5 C16,9.77614237 15.7761424,10 15.5,10 Z M16.5,11 C16.2238576,11 16,10.7761424 16,10.5 C16,10.2238576 16.2238576,10 16.5,10 C16.7761424,10 17,10.2238576 17,10.5 C17,10.7761424 16.7761424,11 16.5,11 Z M17.5,10 C17.2238576,10 17,9.77614237 17,9.5 C17,9.22385763 17.2238576,9 17.5,9 C17.7761424,9 18,9.22385763 18,9.5 C18,9.77614237 17.7761424,10 17.5,10 Z M16.5,9 C16.2238576,9 16,8.77614237 16,8.5 C16,8.22385763 16.2238576,8 16.5,8 C16.7761424,8 17,8.22385763 17,8.5 C17,8.77614237 16.7761424,9 16.5,9 Z" id="Right-Buttons" fill="#333333"></path>
                <path d="M16.5,14 C15.9477153,14 15.5,13.5522847 15.5,13 C15.5,12.4477153 15.9477153,12 16.5,12 C17.0522847,12 17.5,12.4477153 17.5,13 C17.5,13.5522847 17.0522847,14 16.5,14 Z M7.5,10 C6.94771525,10 6.5,9.55228475 6.5,9 C6.5,8.44771525 6.94771525,8 7.5,8 C8.05228475,8 8.5,8.44771525 8.5,9 C8.5,9.55228475 8.05228475,10 7.5,10 Z" id="Combined-Shape" fill="#333333"></path>
                <g id="Centre">
                    <use fill-opacity="0.2" fill="#333333" fill-rule="evenodd" xlink:href="#path-1"></use>
                    <rect stroke="#333333" stroke-width="1" x="9.5" y="5.5" width="5" height="13"></rect>
                </g>
            </g>
        </g>
    </g>
</svg>