<?xml version="1.0" encoding="UTF-8"?>
<svg width="24px" height="24px" viewBox="0 0 24 24" version="1.1" xmlns="http://www.w3.org/2000/svg" xmlns:xlink="http://www.w3.org/1999/xlink">
    <!-- Generator: Sketch 44.1 (41455) - http://www.bohemiancoding.com/sketch -->
    <title>party-popper</title>
    <desc>Created with Sketch.</desc>
    <defs></defs>
    <g id="Page-1" stroke="none" stroke-width="1" fill="none" fill-rule="evenodd">
        <g id="Artboard-4" transform="translate(-532.000000, -731.000000)">
            <g id="292" transform="translate(532.000000, 731.000000)">
                <path d="M16,17 L5.47390664,21.5671526 C2.45075148,22.9107771 1.08724134,21.553707 2.4328474,18.5260934 L7,8" id="Body" stroke="#333333" stroke-width="2" stroke-linecap="round" stroke-linejoin="round"></path>
                <path d="M11.5184001,14.3381155 C15.0257109,14.3381155 17.8372032,13.5356435 17.8372032,12.5021418 C17.8372032,11.4686401 15.0257109,10.5954748 11.5184001,10.5954748 C8.01108921,10.5954748 5.16785199,11.4332934 5.16785199,12.4667951 C5.16785199,13.5002968 8.01108921,14.3381155 11.5184001,14.3381155 Z" id="Rim" stroke="#333333" stroke-width="2" transform="translate(11.502528, 12.466795) rotate(-315.000000) translate(-11.502528, -12.466795) "></path>
                <path d="M9,12.5 C9,12.5 12,7.75 10,3" id="Streamer-1" stroke="#333333" stroke-width="2" stroke-linecap="round" stroke-linejoin="round"></path>
                <path d="M12,15 C12.9522223,13.7303703 15.717899,13.2667204 17.9946146,13.3532263 C19.3043236,13.4029899 20.4522223,13.6348148 21,14" id="Streamer-2" stroke="#333333" stroke-width="2" stroke-linecap="round" stroke-linejoin="round"></path>
                <path d="M16,10 C16,10 13.6638302,6.16808491 15,5.5 C16,5 18,7.5 19,8 C20,8.5 17.5,4 18.5,3 C19.5,2 22,5 22,5" id="Streamer-3" stroke="#333333" stroke-width="2" stroke-linecap="round"></path>
                <path d="M22,12 C21.4477153,12 21,11.5522847 21,11 C21,10.4477153 21.4477153,10 22,10 C22.5522847,10 23,10.4477153 23,11 C23,11.5522847 22.5522847,12 22,12 Z M19,19 C18.4477153,19 18,18.5522847 18,18 C18,17.4477153 18.4477153,17 19,17 C19.5522847,17 20,17.4477153 20,18 C20,18.5522847 19.5522847,19 19,19 Z M22.5,17 C22.2238576,17 22,16.7761424 22,16.5 C22,16.2238576 22.2238576,16 22.5,16 C22.7761424,16 23,16.2238576 23,16.5 C23,16.7761424 22.7761424,17 22.5,17 Z M22.5,2 C22.2238576,2 22,1.77614237 22,1.5 C22,1.22385763 22.2238576,1 22.5,1 C22.7761424,1 23,1.22385763 23,1.5 C23,1.77614237 22.7761424,2 22.5,2 Z M7.5,6 C7.22385763,6 7,5.77614237 7,5.5 C7,5.22385763 7.22385763,5 7.5,5 C7.77614237,5 8,5.22385763 8,5.5 C8,5.77614237 7.77614237,6 7.5,6 Z M14,3 C13.4477153,3 13,2.55228475 13,2 C13,1.44771525 13.4477153,1 14,1 C14.5522847,1 15,1.44771525 15,2 C15,2.55228475 14.5522847,3 14,3 Z M4.70001221,5 C4.14772746,5 3.70001221,4.55228475 3.70001221,4 C3.70001221,3.44771525 4.14772746,3 4.70001221,3 C5.25229696,3 5.70001221,3.44771525 5.70001221,4 C5.70001221,4.55228475 5.25229696,5 4.70001221,5 Z" id="Confetti" fill="#333333"></path>
            </g>
        </g>
    </g>
</svg>