<?xml version="1.0" encoding="UTF-8"?>
<svg width="24px" height="24px" viewBox="0 0 24 24" version="1.1" xmlns="http://www.w3.org/2000/svg" xmlns:xlink="http://www.w3.org/1999/xlink">
    <!-- Generator: Sketch 44.1 (41455) - http://www.bohemiancoding.com/sketch -->
    <title>photo-straighten</title>
    <desc>Created with Sketch.</desc>
    <defs></defs>
    <g id="Page-1" stroke="none" stroke-width="1" fill="none" fill-rule="evenodd">
        <g id="Artboard-4" transform="translate(-840.000000, -731.000000)">
            <g id="299" transform="translate(840.000000, 731.000000)">
                <path d="M21.4914935,10 L21.9061903,7.6481376 C22.1931088,6.02094165 21.1055227,4.46670981 19.4775296,4.17965071 L7.6481376,2.09380973 C6.02094165,1.80689119 4.46670981,2.89447732 4.17965071,4.5224704 L3.21381445,10 L5.24466768,10 L6.14926622,4.86976675 C6.24447191,4.32982844 6.76116793,3.96826628 7.30084124,4.06342524 L19.1302332,6.14926622 C19.6701716,6.24447191 20.0317337,6.76116793 19.9365748,7.30084124 L19.4606402,10 L21.4914935,10 Z M20.7861855,14 L19.8203493,19.4775296 C19.5332902,21.1055227 17.9790583,22.1931088 16.3518624,21.9061903 L4.5224704,19.8203493 C2.89447732,19.5332902 1.80689119,17.9790583 2.09380973,16.3518624 L2.50850653,14 L4.53935976,14 L4.06342524,16.6991588 C3.96826628,17.2388321 4.32982844,17.7555281 4.86976675,17.8507338 L16.6991588,19.9365748 C17.2388321,20.0317337 17.7555281,19.6701716 17.8507338,19.1302332 L18.7553323,14 L20.7861855,14 Z" id="Photo" fill="#333333" fill-rule="nonzero"></path>
                <path d="M1,12 L23.0056811,12" id="Line" stroke="#333333" stroke-width="2" stroke-linecap="round" stroke-linejoin="round" stroke-dasharray="2,3"></path>
            </g>
        </g>
    </g>
</svg>