<?xml version="1.0" encoding="UTF-8"?>
<svg width="24px" height="24px" viewBox="0 0 24 24" version="1.1" xmlns="http://www.w3.org/2000/svg" xmlns:xlink="http://www.w3.org/1999/xlink">
    <!-- Generator: Sketch 44.1 (41455) - http://www.bohemiancoding.com/sketch -->
    <title>poop</title>
    <desc>Created with Sketch.</desc>
    <defs></defs>
    <g id="Page-1" stroke="none" stroke-width="1" fill="none" fill-rule="evenodd" stroke-linecap="round" stroke-linejoin="round">
        <g id="Artboard-4" transform="translate(-224.000000, -467.000000)" stroke="#333333" stroke-width="2">
            <g id="165" transform="translate(224.000000, 467.000000)">
                <path d="M17,16 L18.5150489,16 C19.8915697,16 21.0074602,17.1096621 21.0074602,18.5 L21.0074602,18.5 C21.0074602,19.8807119 19.8805463,21 18.5025627,21 L5.49743726,21 C4.11402057,21 2.99452393,19.8903379 2.99700998,18.5 L2.99700998,18.5 C2.99947881,17.1192881 4.12295463,16 5.50806964,16 L12,16 L7.50738893,16 C6.12259626,16 5,14.8903379 5,13.5 L5,13.5 C5,12.1192881 6.10966206,11 7.5,11 L10,11 C10,11 8,10.5 8,8 C8,5.5 13,3 13,3 C13,3 11,4 12,6 C13,8 15,7 15,9 C15,11 13,11 13,11 L16.4902248,11 C17.8763354,11 19,12.1096621 19,13.5 L19,13.5 C19,14.8807119 17.8830509,16 17,16 L17,16 Z" id="💩"></path>
            </g>
        </g>
    </g>
</svg>