<?xml version="1.0" encoding="UTF-8"?>
<svg width="24px" height="24px" viewBox="0 0 24 24" version="1.1" xmlns="http://www.w3.org/2000/svg" xmlns:xlink="http://www.w3.org/1999/xlink">
    <!-- Generator: Sketch 44.1 (41455) - http://www.bohemiancoding.com/sketch -->
    <title>pumpkin</title>
    <desc>Created with Sketch.</desc>
    <defs></defs>
    <g id="Page-1" stroke="none" stroke-width="1" fill="none" fill-rule="evenodd">
        <g id="Artboard-4" transform="translate(-312.000000, -467.000000)" stroke="#333333" stroke-width="2">
            <g id="167" transform="translate(312.000000, 467.000000)">
                <path d="M6,6 C6.62934235,6 7.80110576,6.5 8.5,6.5 C9.45309003,6.5 9.91308594,6 11.956543,6 C14,6 14.5156466,6.5 15.5,6.5 C16.1944843,6.5 17.3743592,6 18,6 C21,6 23,10 23,14 C23,18 20,22 17,22 C16.3685694,22 15.7013832,21.5 15,21.5 C14.0284271,21.5 13.5,22 11.9786377,22 C10.4572754,22 10.0603147,21.5 9,21.5 C8.42221649,21.5 7.52692126,22 7,22 C4,22 1,18 1,14 C1,10 3,6 6,6 Z" id="Body"></path>
                <path d="M9,16 L15,16 C15,17 14,18 12,18 C10,18 9,17 9,16 Z M16.5,10 L18,12 L15,12 L16.5,10 Z M7.5,10 L9,12 L6,12 L7.5,10 Z" id="Face" stroke-linecap="round" stroke-linejoin="round"></path>
                <path d="M10,6 C10,2 14,1 14,2 C14,2.5 13.0828446,2.81268644 13,4 C12.9088088,5.30693618 13.5,6 13.5,6" id="what-is-this-called" stroke-linecap="round"></path>
            </g>
        </g>
    </g>
</svg>