<?xml version="1.0" encoding="UTF-8"?>
<svg width="24px" height="24px" viewBox="0 0 24 24" version="1.1" xmlns="http://www.w3.org/2000/svg" xmlns:xlink="http://www.w3.org/1999/xlink">
    <!-- Generator: Sketch 44.1 (41455) - http://www.bohemiancoding.com/sketch -->
    <title>puzzle</title>
    <desc>Created with Sketch.</desc>
    <defs></defs>
    <g id="Page-1" stroke="none" stroke-width="1" fill="none" fill-rule="evenodd" stroke-linecap="round" stroke-linejoin="round">
        <g id="Artboard-4" transform="translate(-796.000000, -775.000000)" stroke="#333333" stroke-width="2">
            <g id="318" transform="translate(796.000000, 775.000000)">
                <path d="M6,7.99547146 C6,6.893403 6.89106354,6 8.00520578,6 C8.00520578,6 8.5,6 9,6 C9.5,6 10.5,6 10.5,5.5 C10.5,5 9.5,4.5 9.5,3.5 C9.5,2.5 10.5,2 12,2 C13.5,2 14.5,2.5 14.5,3.5 C14.5,4.5 13.5,5 13.5,5.5 C13.5,6 14.5,6 15,6 C15.5,6 17.9915933,6 17.9915933,6 C19.1008057,6 20,6.89948106 20,8.0054406 C20,8.0054406 20,8.52685547 20,9.01342773 C20,9.5 20,10.5 19.5,10.5 C19,10.5 18.5,9.5 17.5,9.5 C16.5,9.5 16,10.5 16,12 C16,13.5 16.5,14.5 17.5,14.5 C18.5,14.5 19,13.5 19.5,13.5 C20,13.5 20,14.5 20,15 C20,15.5 20,17.9915933 20,17.9915933 C20,19.1008057 19.0993512,20 17.9915933,20 L15,20 C14.5,20 13.5,20 13.5,19.5 C13.5,19 14.5,18.5 14.5,17.5 C14.5,16.5 13.5,16 12,16 C10.5,16 9.5,16.5 9.5,17.5 C9.5,18.5 10.5,19 10.5,19.5 C10.5,20 9.5,20 9,20 C8.5,20 8.00520578,20 8.00520578,20 C6.89776121,20 6,19.0993512 6,17.9915933 C6,17.9915933 6,15.5 6,15 C6,14.5 5.7310045,13.5 5.5,13.5 C4.94132665,13.5 4.5,14.5 3.5,14.5 C2.5,14.5 2,13.5 2,12 C2,10.5 2.5,9.5 3.5,9.5 C4.5,9.5 5.35135223,10.5 5.5,10.5 C6,10.5 6,9.5402832 6,9.0201416 C6,8.5 6,7.99547146 6,7.99547146 Z" id="Combined-Shape"></path>
            </g>
        </g>
    </g>
</svg>