<?xml version="1.0" encoding="UTF-8"?>
<svg width="24px" height="24px" viewBox="0 0 24 24" version="1.1" xmlns="http://www.w3.org/2000/svg" xmlns:xlink="http://www.w3.org/1999/xlink">
    <!-- Generator: Sketch 44.1 (41455) - http://www.bohemiancoding.com/sketch -->
    <title>radar</title>
    <desc>Created with Sketch.</desc>
    <defs>
        <linearGradient x1="100%" y1="50%" x2="18.0695603%" y2="50%" id="linearGradient-1">
            <stop stop-color="#333333" stop-opacity="0" offset="0%"></stop>
            <stop stop-color="#333333" stop-opacity="0" offset="25.4064096%"></stop>
            <stop stop-color="#333333" offset="100%"></stop>
        </linearGradient>
        <linearGradient x1="100%" y1="50%" x2="15.9469039%" y2="50%" id="linearGradient-2">
            <stop stop-color="#333333" stop-opacity="0" offset="0%"></stop>
            <stop stop-color="#333333" stop-opacity="0" offset="26.1865829%"></stop>
            <stop stop-color="#333333" offset="100%"></stop>
        </linearGradient>
        <linearGradient x1="100%" y1="50%" x2="18.0695603%" y2="50%" id="linearGradient-3">
            <stop stop-color="#333333" stop-opacity="0" offset="0%"></stop>
            <stop stop-color="#333333" stop-opacity="0" offset="31.4995241%"></stop>
            <stop stop-color="#333333" offset="100%"></stop>
        </linearGradient>
    </defs>
    <g id="Page-1" stroke="none" stroke-width="1" fill="none" fill-rule="evenodd">
        <g id="Artboard-4" transform="translate(-136.000000, -687.000000)">
            <g id="263" transform="translate(136.000000, 687.000000)">
                <path d="M19.7697421,19.793872 C21.8263932,17.743554 23.0042666,14.964888 23.0042666,12.0021333 C23.0042666,5.92582286 18.0784437,1 12.0021333,1 C5.92582286,1 1,5.92582286 1,12.0021333 C1,14.9836136 2.19288257,17.778316 4.27256029,19.8316075 L5.67771641,18.4083942 C3.97485721,16.7271403 3,14.4432307 3,12.0021333 C3,7.03039236 7.03039236,3 12.0021333,3 C16.9738742,3 21.0042666,7.03039236 21.0042666,12.0021333 C21.0042666,14.4279167 20.0416901,16.6986857 18.357711,18.3774794 L19.7697421,19.793872 Z" id="3" fill="url(#linearGradient-1)" fill-rule="nonzero"></path>
                <path d="M16.7359425,16.8097155 C18.0155724,15.549605 18.75,13.8321577 18.75,12 C18.75,8.27207794 15.7279221,5.25 12,5.25 C8.27207794,5.25 5.25,8.27207794 5.25,12 C5.25,13.8202401 5.97486047,15.5274871 7.23982721,16.7857347 L8.29765918,15.7222539 C7.31291524,14.7427406 6.75,13.4169194 6.75,12 C6.75,9.10050506 9.10050506,6.75 12,6.75 C14.8994949,6.75 17.25,9.10050506 17.25,12 C17.25,13.4261829 16.6796435,14.7599524 15.6834652,15.7409352 L16.7359425,16.8097155 Z" id="2" fill="url(#linearGradient-2)" fill-rule="nonzero"></path>
                <path d="M13.42447,13.44032 L14.1095752,14.1330011 C14.6750102,13.5737503 15,12.8113989 15,12 C15,10.3431458 13.6568542,9 12,9 C10.3431458,9 9,10.3431458 9,12 C9,12.824788 9.33582591,13.5985481 9.91776039,14.1596969 L10.5863788,13.466312 C10.2851192,12.9965602 10,12.3825991 10,12 C10,10.8954305 10.8954305,10 12,10 C13.1045695,10 14,10.8954305 14,12 C14,12.3698813 13.7199196,12.9718614 13.42447,13.44032 Z" id="1" fill="url(#linearGradient-3)" fill-rule="nonzero"></path>
                <path d="M5,19.0827625 L12,12.0827625" id="Line" stroke="#333333" stroke-width="2" stroke-linecap="round" stroke-linejoin="bevel"></path>
            </g>
        </g>
    </g>
</svg>