<?xml version="1.0" encoding="UTF-8"?>
<svg width="24px" height="24px" viewBox="0 0 24 24" version="1.1" xmlns="http://www.w3.org/2000/svg" xmlns:xlink="http://www.w3.org/1999/xlink">
    <!-- Generator: Sketch 44.1 (41455) - http://www.bohemiancoding.com/sketch -->
    <title>rainbow</title>
    <desc>Created with Sketch.</desc>
    <defs></defs>
    <g id="Page-1" stroke="none" stroke-width="1" fill="none" fill-rule="evenodd" stroke-linecap="round">
        <g id="Artboard-4" transform="translate(-180.000000, -863.000000)" stroke="#333333" stroke-width="2">
            <g id="344" transform="translate(180.000000, 863.000000)">
                <path d="M23,17 C23,10.9248678 18.0751322,6 12,6 C5.92486775,6 1,10.9248678 1,17" id="1"></path>
                <path d="M20,17 C20,12.581722 16.418278,9 12,9 C7.581722,9 4,12.581722 4,17" id="2" opacity="0.75"></path>
                <path d="M17,17 C17,14.2385763 14.7614237,12 12,12 C9.23857625,12 7,14.2385763 7,17" id="3" opacity="0.5"></path>
                <path d="M14,17 C14,15.8954305 13.1045695,15 12,15 C10.8954305,15 10,15.8954305 10,17" id="4" opacity="0.25"></path>
            </g>
        </g>
    </g>
</svg>