<?xml version="1.0" encoding="UTF-8"?>
<svg width="24px" height="24px" viewBox="0 0 24 24" version="1.1" xmlns="http://www.w3.org/2000/svg" xmlns:xlink="http://www.w3.org/1999/xlink">
    <!-- Generator: Sketch 44.1 (41455) - http://www.bohemiancoding.com/sketch -->
    <title>receipt</title>
    <desc>Created with Sketch.</desc>
    <defs></defs>
    <g id="Page-1" stroke="none" stroke-width="1" fill="none" fill-rule="evenodd">
        <g id="Artboard-4" transform="translate(-444.000000, -599.000000)">
            <g id="230" transform="translate(444.000000, 599.000000)">
                <polygon id="Paper" stroke="#333333" stroke-width="2" stroke-linecap="round" stroke-linejoin="round" points="5 3 6 4 8 3 10 4 12 3 14 4 16 3 18 4 19 3 19 21 18 20 16 21 14 20 12 21 10 20 8 21 6 20 5 21"></polygon>
                <path d="M7,8.5 C7,8.22385763 7.21505737,8 7.49047852,8 L10.5095215,8 C10.7804053,8 11,8.23193359 11,8.5 C11,8.77614237 10.7849426,9 10.5095215,9 L7.49047852,9 C7.21959471,9 7,8.76806641 7,8.5 Z M7,10.5 C7,10.2238576 7.22788048,10 7.49100518,10 L12.5089948,10 C12.7801695,10 13,10.2319336 13,10.5 C13,10.7761424 12.7721195,11 12.5089948,11 L7.49100518,11 C7.21983051,11 7,10.7680664 7,10.5 Z M7,12.5 C7,12.2238576 7.2157526,12 7.49538898,12 L9.50461102,12 C9.7782068,12 10,12.2319336 10,12.5 C10,12.7761424 9.7842474,13 9.50461102,13 L7.49538898,13 C7.2217932,13 7,12.7680664 7,12.5 Z M7,14.5 C7,14.2238576 7.21484375,14 7.49769878,14 L11.5023012,14 C11.7771727,14 12,14.2319336 12,14.5 C12,14.7761424 11.7851562,15 11.5023012,15 L7.49769878,15 C7.22282734,15 7,14.7680664 7,14.5 Z M15,8.5 C15,8.22385763 15.214035,8 15.5046844,8 L16.4953156,8 C16.7740451,8 17,8.23193359 17,8.5 C17,8.77614237 16.785965,9 16.4953156,9 L15.5046844,9 C15.2259549,9 15,8.76806641 15,8.5 Z M15,10.5 C15,10.2238576 15.214035,10 15.5046844,10 L16.4953156,10 C16.7740451,10 17,10.2319336 17,10.5 C17,10.7761424 16.785965,11 16.4953156,11 L15.5046844,11 C15.2259549,11 15,10.7680664 15,10.5 Z M15,12.5 C15,12.2238576 15.214035,12 15.5046844,12 L16.4953156,12 C16.7740451,12 17,12.2319336 17,12.5 C17,12.7761424 16.785965,13 16.4953156,13 L15.5046844,13 C15.2259549,13 15,12.7680664 15,12.5 Z M15,14.5 C15,14.2238576 15.214035,14 15.5046844,14 L16.4953156,14 C16.7740451,14 17,14.2319336 17,14.5 C17,14.7761424 16.785965,15 16.4953156,15 L15.5046844,15 C15.2259549,15 15,14.7680664 15,14.5 Z" id="Info" fill="#333333" opacity="0.75999999"></path>
            </g>
        </g>
    </g>
</svg>