<?xml version="1.0" encoding="UTF-8"?>
<svg width="24px" height="24px" viewBox="0 0 24 24" version="1.1" xmlns="http://www.w3.org/2000/svg" xmlns:xlink="http://www.w3.org/1999/xlink">
    <!-- Generator: Sketch 44.1 (41455) - http://www.bohemiancoding.com/sketch -->
    <title>redo</title>
    <desc>Created with Sketch.</desc>
    <defs></defs>
    <g id="Page-1" stroke="none" stroke-width="1" fill="none" fill-rule="evenodd">
        <g id="Artboard-4" transform="translate(-180.000000, -1046.000000)" fill="#333333">
            <g id="Extras" transform="translate(48.000000, 1046.000000)">
                <g id="redo" transform="translate(132.000000, 0.000000)">
                    <path d="M11,19 C11.5522847,19 12,19.4477153 12,20 C12,20.5522847 11.5522847,21 11,21 C10.9940429,21 10.9880979,20.9999479 10.9821656,20.9998442 C6.01980239,20.990358 2,16.9646166 2,12 C2,7.02943725 6.02943725,3 11,3 C15.9705627,3 20,7.02943725 20,12 L18,12 C18,8.13400675 14.8659932,5 11,5 C7.13400675,5 4,8.13400675 4,12 C4,15.8659932 7.13400675,19 11,19 Z M15,12 L23,12 L19,16 L15,12 Z" id="Arrow"></path>
                </g>
            </g>
        </g>
    </g>
</svg>