<?xml version="1.0" encoding="UTF-8"?>
<svg width="24px" height="24px" viewBox="0 0 24 24" version="1.1" xmlns="http://www.w3.org/2000/svg" xmlns:xlink="http://www.w3.org/1999/xlink">
    <!-- Generator: Sketch 44.1 (41455) - http://www.bohemiancoding.com/sketch -->
    <title>reply</title>
    <desc>Created with Sketch.</desc>
    <defs></defs>
    <g id="Page-1" stroke="none" stroke-width="1" fill="none" fill-rule="evenodd">
        <g id="Artboard-4" transform="translate(-400.000000, -335.000000)" fill-rule="nonzero" fill="#333333">
            <g id="109" transform="translate(400.000000, 335.000000)">
                <path d="M9,6 L4,11.0296054 L9,16 L9,11.999579 L15,11.999579 C18,11.999579 19,13.9583764 19,17 C21,13.9583764 19,10 15,10 L9,10 L9,6 Z M11,8 L15,8 C20.5007525,8 23.5952407,13.6517611 20.6711036,18.0988234 C19.5803123,19.7577116 17,18.9853804 17,17 C17,14.6641564 16.5225201,13.999579 15,13.999579 L11,13.999579 L11,16 C11,17.7789478 8.85162753,18.6725719 7.58999192,17.4184066 L2.58999192,12.448012 C1.80661789,11.6692764 1.8028688,10.4029328 2.58161814,9.61957244 L7.58161814,4.58996706 C8.83983111,3.32430411 11,4.21534246 11,6 L11,8 Z" id="Path-36"></path>
            </g>
        </g>
    </g>
</svg>