<?xml version="1.0" encoding="UTF-8"?>
<svg width="24px" height="24px" viewBox="0 0 24 24" version="1.1" xmlns="http://www.w3.org/2000/svg" xmlns:xlink="http://www.w3.org/1999/xlink">
    <!-- Generator: Sketch 44.1 (41455) - http://www.bohemiancoding.com/sketch -->
    <title>rocket</title>
    <desc>Created with Sketch.</desc>
    <defs>
        <linearGradient x1="50%" y1="0%" x2="50%" y2="99.7847577%" id="linearGradient-1">
            <stop stop-color="#333333" offset="0%"></stop>
            <stop stop-color="#333333" stop-opacity="0" offset="100%"></stop>
        </linearGradient>
    </defs>
    <g id="Page-1" stroke="none" stroke-width="1" fill="none" fill-rule="evenodd">
        <g id="Artboard-4" transform="translate(-48.000000, -863.000000)">
            <g id="341" transform="translate(48.000000, 863.000000)">
                <path d="M10,7.00684547 C10,6.45078007 10.2131486,5.61633253 10.4820251,5.13235474 L12.0179749,2.36764526 C12.28419,1.88845802 12.7131486,1.88366747 12.9820251,2.36764526 L14.5179749,5.13235474 C14.78419,5.61154198 15,6.44994876 15,7.00684547 L15,20 L10,20 L10,7.00684547 Z" id="Body" stroke="#333333" stroke-width="2" stroke-linejoin="round"></path>
                <polygon id="Bottom" fill="#333333" fill-rule="nonzero" points="10 20 15 20 15 18 10 18"></polygon>
                <polygon id="Right-Wing-Bottom" fill="#333333" fill-rule="nonzero" points="15 19 21 19 21 17 15 17"></polygon>
                <path d="M15,8 C15,12 21,13 21,18 C21,18.5 21,19 21,19 L15,19 C15,19 15,9 15,8 Z" id="Right-Wing" stroke="#333333" stroke-width="2" fill-opacity="0.200000003" fill="#333333" stroke-linejoin="round"></path>
                <polygon id="Left-Wing-Bottom" fill="#333333" fill-rule="nonzero" points="4 19 10 19 10 17 4 17"></polygon>
                <path d="M4,8 C4,12 10,13 10,18 C10,18.5 10,19 10,19 L4,19 C4,19 4,9 4,8 Z" id="Left-Wing-Bottom" stroke="#333333" stroke-width="2" fill-opacity="0.200000003" fill="#333333" stroke-linejoin="round" transform="translate(7.000000, 13.500000) scale(-1, 1) translate(-7.000000, -13.500000) "></path>
                <path d="M12.5,8 C12.2238576,8 12,7.77614237 12,7.5 C12,7.22385763 12.2238576,7 12.5,7 C12.7761424,7 13,7.22385763 13,7.5 C13,7.77614237 12.7761424,8 12.5,8 Z M12.5,10 C12.2238576,10 12,9.77614237 12,9.5 C12,9.22385763 12.2238576,9 12.5,9 C12.7761424,9 13,9.22385763 13,9.5 C13,9.77614237 12.7761424,10 12.5,10 Z M12.5,12 C12.2238576,12 12,11.7761424 12,11.5 C12,11.2238576 12.2238576,11 12.5,11 C12.7761424,11 13,11.2238576 13,11.5 C13,11.7761424 12.7761424,12 12.5,12 Z" id="Windows" fill="#333333"></path>
                <polygon id="Engine" fill="url(#linearGradient-1)" opacity="0.5" points="11 20 14 20 13.5 24 11.5 24"></polygon>
            </g>
        </g>
    </g>
</svg>