<?xml version="1.0" encoding="UTF-8"?>
<svg width="24px" height="24px" viewBox="0 0 24 24" version="1.1" xmlns="http://www.w3.org/2000/svg" xmlns:xlink="http://www.w3.org/1999/xlink">
    <!-- Generator: Sketch 44.1 (41455) - http://www.bohemiancoding.com/sketch -->
    <title>shooting-star</title>
    <desc>Created with Sketch.</desc>
    <defs></defs>
    <g id="Page-1" stroke="none" stroke-width="1" fill="none" fill-rule="evenodd">
        <g id="Artboard-4" transform="translate(-840.000000, -819.000000)" stroke="#333333" stroke-width="2">
            <g id="339" transform="translate(840.000000, 819.000000)">
                <polygon id="Star-2" stroke-linejoin="round" transform="translate(16.693763, 7.419206) rotate(-15.000000) translate(-16.693763, -7.419206) " points="16.6937631 10.3966631 13.7548368 11.9417481 14.3161218 8.66920561 11.9384805 6.35157815 15.2242999 5.87412064 16.6937631 2.89666312 18.1632262 5.87412064 21.4490456 6.35157815 19.0714044 8.66920561 19.6326893 11.9417481"></polygon>
                <path d="M12.5,14.5 C12.5,14.5 11.3218878,15.5753763 10.5,16.5 C8.5,18.75 7.5,21 7.5,21" id="3" stroke-linecap="round"></path>
                <path d="M11.5,11 C11.5,11 9,12 6,15.5 C3,19 2,22 2,22" id="2" stroke-linecap="round"></path>
                <path d="M9,8 C9,8 7.5,8.5 5.5,10 C3.5,11.5 2,13.5 2,13.5" id="1" stroke-linecap="round"></path>
            </g>
        </g>
    </g>
</svg>