<?xml version="1.0" encoding="UTF-8"?>
<svg width="24px" height="24px" viewBox="0 0 24 24" version="1.1" xmlns="http://www.w3.org/2000/svg" xmlns:xlink="http://www.w3.org/1999/xlink">
    <!-- Generator: Sketch 44.1 (41455) - http://www.bohemiancoding.com/sketch -->
    <title>siri</title>
    <desc>Created with Sketch.</desc>
    <defs>
        <circle id="path-1" cx="12" cy="12" r="10"></circle>
    </defs>
    <g id="Page-1" stroke="none" stroke-width="1" fill="none" fill-rule="evenodd">
        <g id="Artboard-4" transform="translate(-796.000000, -379.000000)">
            <g id="137" transform="translate(796.000000, 379.000000)">
                <mask id="mask-2" fill="white">
                    <use xlink:href="#path-1"></use>
                </mask>
                <use id="Oval-72" stroke="#333333" stroke-width="2" xlink:href="#path-1"></use>
                <path d="M2.5,15 C2.5,15 3.75,14 6.5,14 C9.25,14 12,18 16.5,18 C21,18 23,16.5 23,16.5" id="Path-64" stroke="#333333" stroke-width="2" mask="url(#mask-2)"></path>
                <path d="M0.5,17 C0.5,17 3,18 6.5,18 C10,18 12.5,12 17.5,12 C22.5,12 24,14.5 24,14.5" id="Path-65" stroke="#333333" stroke-width="2" mask="url(#mask-2)"></path>
                <path d="M-2,15 C5.5,15 5,10.5 15,10 C25,9.5 33,13.5 33,13.5" id="Path-66" stroke="#333333" stroke-width="2" opacity="0.200000003" mask="url(#mask-2)"></path>
                <path d="M2,24 C5,24 10.5,18.5 17,18.5 C23.5,18.5 27.5,23.5 27.5,23.5" id="Path-67" stroke="#333333" stroke-width="2" opacity="0.449999988" mask="url(#mask-2)"></path>
                <path d="M-5.5,12.5 C-5.5,12.5 -2,10 4.5,10 C11,10 11.5,15 18,15 C24.5,15 27,12.5 27,12.5" id="Path-68" stroke="#333333" stroke-width="2" opacity="0.400000006" mask="url(#mask-2)"></path>
            </g>
        </g>
    </g>
</svg>