<?xml version="1.0" encoding="UTF-8"?>
<svg width="24px" height="24px" viewBox="0 0 24 24" version="1.1" xmlns="http://www.w3.org/2000/svg" xmlns:xlink="http://www.w3.org/1999/xlink">
    <!-- Generator: Sketch 44.1 (41455) - http://www.bohemiancoding.com/sketch -->
    <title>stamp</title>
    <desc>Created with Sketch.</desc>
    <defs>
        <linearGradient x1="0%" y1="100%" x2="100%" y2="0%" id="linearGradient-1">
            <stop stop-color="#333333" stop-opacity="0" offset="0%"></stop>
            <stop stop-color="#333333" stop-opacity="0.247480752" offset="100%"></stop>
        </linearGradient>
    </defs>
    <g id="Page-1" stroke="none" stroke-width="1" fill="none" fill-rule="evenodd">
        <g id="Artboard-4" transform="translate(-136.000000, -467.000000)">
            <g id="163" transform="translate(136.000000, 467.000000)">
                <path d="M3,3 L3,2.00246167 C3,1.44881738 3.44494629,1 3.99339768,1 L5,1 C5,1.55228475 5.44771525,2 6,2 C6.55228475,2 7,1.55228475 7,1 L9,1 C9,1.55228475 9.44771525,2 10,2 C10.5522847,2 11,1.55228475 11,1 L13,1 C13,1.55228475 13.4477153,2 14,2 C14.5522847,2 15,1.55228475 15,1 L17,1 C17,1.55228475 17.4477153,2 18,2 C18.5522847,2 19,1.55228475 19,1 L20.0066023,1 C20.5552407,1 21,1.43945834 21,2.00246167 L21,3 C20.4477153,3 20,3.44771525 20,4 C20,4.55228475 20.4477153,5 21,5 L21,7 C20.4477153,7 20,7.44771525 20,8 C20,8.55228475 20.4477153,9 21,9 L21,11 C20.4477153,11 20,11.4477153 20,12 C20,12.5522847 20.4477153,13 21,13 L21,15 C20.4477153,15 20,15.4477153 20,16 C20,16.5522847 20.4477153,17 21,17 L21,19 C20.4477153,19 20,19.4477153 20,20 C20,20.5522847 20.4477153,21 21,21 L21,21.9975383 C21,22.5511826 20.5550537,23 20.0066023,23 L19,23 C19,22.4477153 18.5522847,22 18,22 C17.4477153,22 17,22.4477153 17,23 L15,23 C15,22.4477153 14.5522847,22 14,22 C13.4477153,22 13,22.4477153 13,23 L11,23 C11,22.4477153 10.5522847,22 10,22 C9.44771525,22 9,22.4477153 9,23 L7,23 C7,22.4477153 6.55228475,22 6,22 C5.44771525,22 5,22.4477153 5,23 L3.99339768,23 C3.44475929,23 3,22.5605417 3,21.9975383 L3,21 C3.55228475,21 4,20.5522847 4,20 C4,19.4477153 3.55228475,19 3,19 L3,17 C3.55228475,17 4,16.5522847 4,16 C4,15.4477153 3.55228475,15 3,15 L3,13 C3.55228475,13 4,12.5522847 4,12 C4,11.4477153 3.55228475,11 3,11 L3,9 C3.55228475,9 4,8.55228475 4,8 C4,7.44771525 3.55228475,7 3,7 L3,5 C3.55228475,5 4,4.55228475 4,4 C4,3.44771525 3.55228475,3 3,3 Z M6,5.00087166 L6,18.9991283 C6,19.5553691 6.44882258,20 7.00247329,20 L16.9975267,20 C17.544239,20 18,19.5518945 18,18.9991283 L18,5.00087166 C18,4.44463086 17.5511774,4 16.9975267,4 L7.00247329,4 C6.45576096,4 6,4.4481055 6,5.00087166 Z" id="Edge" fill="#333333"></path>
                <rect id="Centre" fill="url(#linearGradient-1)" x="8" y="6" width="8" height="12"></rect>
            </g>
        </g>
    </g>
</svg>