<?xml version="1.0" encoding="UTF-8"?>
<svg width="24px" height="24px" viewBox="0 0 24 24" version="1.1" xmlns="http://www.w3.org/2000/svg" xmlns:xlink="http://www.w3.org/1999/xlink">
    <!-- Generator: Sketch 44.1 (41455) - http://www.bohemiancoding.com/sketch -->
    <title>store</title>
    <desc>Created with Sketch.</desc>
    <defs></defs>
    <g id="Page-1" stroke="none" stroke-width="1" fill="none" fill-rule="evenodd" stroke-linecap="round">
        <g id="Artboard-4" transform="translate(-532.000000, -511.000000)" stroke="#333333" stroke-width="2">
            <g id="192" transform="translate(532.000000, 511.000000)">
                <path d="M4,15 L4,19.015959 C4,20.1232006 4.89451376,21.0196346 5.99406028,21.0182053 L18.0059397,21.0025919 C19.1072288,21.0011605 20,20.1017394 20,19.0020869 L20,15" id="Walls" stroke-linejoin="round"></path>
                <path d="M4.5,12 C5.88071187,12 7,10.8807119 7,9.5 M22,9.5 L20.2951069,3.95909739 C20.1321239,3.42940253 19.5553691,3 18.9991283,3 L5.00087166,3 C4.4481055,3 3.86877441,3.42648315 3.70489311,3.95909739 L2,9.5 C2,10.8807119 3.11928813,12 4.5,12 M9.5,12 C10.8807119,12 12,10.8807119 12,9.5 M7,9.5 C7,10.8807119 8.11928813,12 9.5,12 M14.5,12 C15.8807119,12 17,10.8807119 17,9.5 M12,9.5 C12,10.8807119 13.1192881,12 14.5,12 M19.5,12 C20.8807119,12 22,10.8807119 22,9.5 M17,9.5 C17,10.8807119 18.1192881,12 19.5,12" id="Canopy"></path>
            </g>
        </g>
    </g>
</svg>