<?xml version="1.0" encoding="UTF-8"?>
<svg width="24px" height="24px" viewBox="0 0 24 24" version="1.1" xmlns="http://www.w3.org/2000/svg" xmlns:xlink="http://www.w3.org/1999/xlink">
    <!-- Generator: Sketch 44.1 (41455) - http://www.bohemiancoding.com/sketch -->
    <title>team</title>
    <desc>Created with Sketch.</desc>
    <defs></defs>
    <g id="Page-1" stroke="none" stroke-width="1" fill="none" fill-rule="evenodd">
        <g id="Artboard-4" transform="translate(-752.000000, -467.000000)" stroke="#333333" stroke-width="2">
            <g id="177" transform="translate(752.000000, 467.000000)">
                <path d="M12,11 C9.790861,11 8,9.209139 8,7 C8,4.790861 9.790861,3 12,3 C14.209139,3 16,4.790861 16,7 C16,9.209139 14.209139,11 12,11 Z M6,21 C3.790861,21 2,19.209139 2,17 C2,14.790861 3.790861,13 6,13 C8.209139,13 10,14.790861 10,17 C10,19.209139 8.209139,21 6,21 Z M18,21 C15.790861,21 14,19.209139 14,17 C14,14.790861 15.790861,13 18,13 C20.209139,13 22,14.790861 22,17 C22,19.209139 20.209139,21 18,21 Z" id="heads"></path>
            </g>
        </g>
    </g>
</svg>