<?xml version="1.0" encoding="UTF-8"?>
<svg width="24px" height="24px" viewBox="0 0 24 24" version="1.1" xmlns="http://www.w3.org/2000/svg" xmlns:xlink="http://www.w3.org/1999/xlink">
    <!-- Generator: Sketch 44.1 (41455) - http://www.bohemiancoding.com/sketch -->
    <title>truck-fast</title>
    <desc>Created with Sketch.</desc>
    <defs></defs>
    <g id="Page-1" stroke="none" stroke-width="1" fill="none" fill-rule="evenodd">
        <g id="Artboard-4" transform="translate(-224.000000, -643.000000)">
            <g id="245" transform="translate(224.000000, 643.000000)">
                <path d="M4,16 L4.90949295,5.9955775 C4.95947862,5.44573523 5.44748943,5 5.99850233,5 L17.0014977,5 C17.5529553,5 17.9595603,5.44483697 17.909493,5.9955775 L17,16" id="Body" stroke="#333333" stroke-width="2" stroke-linecap="round" stroke-linejoin="round"></path>
                <path d="M18,7 L20.9951185,7 C22.102384,7 22.9004602,7.89585781 22.7780676,8.9973917 L22,16 L23,16 L21,16 M17,16 L10,16 M6,16 L3,16" id="Cab" stroke="#333333" stroke-width="2" stroke-linecap="round" stroke-linejoin="round"></path>
                <path d="M17,9.99895656 C17,9.44724809 17.4433532,9 18.0093689,9 L19.9906311,9 C20.5480902,9 20.9262233,9.44266033 20.8362813,9.9823122 L20.6637187,11.0176878 C20.5732994,11.5602038 20.0424361,12 19.5064025,12 L17.9935975,12 C17.4448488,12 17,11.5573397 17,11.0010434 L17,9.99895656 Z" id="Window" fill="#333333"></path>
                <path d="M6.03112887,5 L2,5" id="Wind-4" stroke="#333333" stroke-width="2" stroke-linecap="round" stroke-linejoin="round"></path>
                <path d="M8.03112887,8 L4,8" id="Wind-3" stroke="#333333" stroke-width="2" stroke-linecap="round" stroke-linejoin="round"></path>
                <path d="M6.03112887,12 L2,12" id="Wind-2" stroke="#333333" stroke-width="2" stroke-linecap="round" stroke-linejoin="round"></path>
                <circle id="Wind-1" fill="#333333" cx="1" cy="8" r="1"></circle>
                <path d="M8,19 C6.8954305,19 6,18.1045695 6,17 C6,15.8954305 6.8954305,15 8,15 C9.1045695,15 10,15.8954305 10,17 C10,18.1045695 9.1045695,19 8,19 Z M19,19 C17.8954305,19 17,18.1045695 17,17 C17,15.8954305 17.8954305,15 19,15 C20.1045695,15 21,15.8954305 21,17 C21,18.1045695 20.1045695,19 19,19 Z" id="Wheels" stroke="#333333" stroke-width="2"></path>
            </g>
        </g>
    </g>
</svg>