<?xml version="1.0" encoding="UTF-8"?>
<svg width="24px" height="24px" viewBox="0 0 24 24" version="1.1" xmlns="http://www.w3.org/2000/svg" xmlns:xlink="http://www.w3.org/1999/xlink">
    <!-- Generator: Sketch 44.1 (41455) - http://www.bohemiancoding.com/sketch -->
    <title>twitter</title>
    <desc>Created with Sketch.</desc>
    <defs></defs>
    <g id="Page-1" stroke="none" stroke-width="1" fill="none" fill-rule="evenodd" stroke-linejoin="round">
        <g id="Artboard-4" transform="translate(-752.000000, -863.000000)" stroke="#333333" stroke-width="2" fill-rule="nonzero">
            <g id="357" transform="translate(752.000000, 863.000000)">
                <path d="M19.9648,8.50524978 C19.9648,8.33039473 20,7.5 20,7 C20.8565952,6.49511161 21.1936988,5.41413699 21.5,4.4786058 C20.694526,4.94918272 19.7605169,5.09519202 18.8416,5.27358196 C17.5696662,3.94200114 15.5485755,3.61609205 13.9116394,4.4786058 C12.2747034,5.34111954 11.42902,7.17755314 11.8488,8.9581401 C8.54951659,8.79529613 5.47558062,7.26104056 3.392,4.73720229 C2.30289821,6.58313971 2.85919031,8.94463962 4.6624,10.1301415 C4.00939296,10.1110867 3.3706235,9.9376538 2.8,9.6244796 L2.8,9.6756759 C2.80053451,11.5987608 4.17740119,13.2551124 6.092,13.6359064 C5.48789568,13.7981121 4.85406447,13.8218232 4.2392,13.7052183 C4.77675834,15.3509216 6.31725965,16.4783121 8.0728,16.5107754 C6.61978803,17.6350713 4.82484761,18.2454066 2.9768,18.2435732 C2.65032286,18.2429561 2.32416325,18.2234944 2,18.1852882 C3.87650876,19.3708972 6.05993072,19.999777 8.2896,19.9968495 C15.8368,20 19.9648,13.8438421 19.9648,8.50524978 Z" id="birb"></path>
            </g>
        </g>
    </g>
</svg>