<?xml version="1.0" encoding="UTF-8"?>
<svg width="24px" height="24px" viewBox="0 0 24 24" version="1.1" xmlns="http://www.w3.org/2000/svg" xmlns:xlink="http://www.w3.org/1999/xlink">
    <!-- Generator: Sketch 44.1 (41455) - http://www.bohemiancoding.com/sketch -->
    <title>vinyl</title>
    <desc>Created with Sketch.</desc>
    <defs>
        <linearGradient x1="6.68334961%" y1="4.94689941%" x2="93.1610107%" y2="94.2169189%" id="linearGradient-1">
            <stop stop-color="#333333" stop-opacity="0" offset="0%"></stop>
            <stop stop-color="#333333" stop-opacity="0" offset="28.0527827%"></stop>
            <stop stop-color="#333333" offset="49.658143%"></stop>
            <stop stop-color="#333333" stop-opacity="0" offset="70.1285382%"></stop>
            <stop stop-color="#333333" stop-opacity="0" offset="100%"></stop>
        </linearGradient>
    </defs>
    <g id="Page-1" stroke="none" stroke-width="1" fill="none" fill-rule="evenodd">
        <g id="Artboard-4" transform="translate(-664.000000, -423.000000)">
            <g id="155" transform="translate(664.000000, 423.000000)">
                <circle id="Base" stroke="#333333" stroke-width="2" cx="12" cy="12" r="10"></circle>
                <circle id="Centre" fill="#333333" cx="12" cy="12" r="1"></circle>
                <circle id="Label" fill="#333333" opacity="0.300000012" cx="12" cy="12" r="4"></circle>
                <path d="M4,12 C4,7.581722 7.581722,4 12,4 C16.418278,4 20,7.581722 20,12 C20,16.418278 16.418278,20 12,20 C7.581722,20 4,16.418278 4,12 Z M19,12 C19,8.13400675 15.8659932,5 12,5 C8.13400675,5 5,8.13400675 5,12 C5,15.8659932 8.13400675,19 12,19 C15.8659932,19 19,15.8659932 19,12 Z M6,12 C6,8.6862915 8.6862915,6 12,6 C15.3137085,6 18,8.6862915 18,12 C18,15.3137085 15.3137085,18 12,18 C8.6862915,18 6,15.3137085 6,12 Z M17,12 C17,9.23857625 14.7614237,7 12,7 C9.23857625,7 7,9.23857625 7,12 C7,14.7614237 9.23857625,17 12,17 C14.7614237,17 17,14.7614237 17,12 Z" id="Grooves" fill="url(#linearGradient-1)" fill-rule="nonzero" opacity="0.5"></path>
            </g>
        </g>
    </g>
</svg>