<?xml version="1.0" encoding="UTF-8"?>
<svg width="24px" height="24px" viewBox="0 0 24 24" version="1.1" xmlns="http://www.w3.org/2000/svg" xmlns:xlink="http://www.w3.org/1999/xlink">
    <!-- Generator: Sketch 44.1 (41455) - http://www.bohemiancoding.com/sketch -->
    <title>wifi-error</title>
    <desc>Created with Sketch.</desc>
    <defs></defs>
    <g id="Page-1" stroke="none" stroke-width="1" fill="none" fill-rule="evenodd">
        <g id="Artboard-4" transform="translate(-620.000000, -511.000000)">
            <g id="194" transform="translate(620.000000, 511.000000)">
                <circle id="0" fill="#333333" cx="12" cy="19.5" r="1.5"></circle>
                <path d="M16.2374836,15.7522084 C15.1521071,14.6694493 13.6542327,14 12,14 C10.3371761,14 8.83233881,14.6764209 7.74563922,15.7691117" id="1" stroke="#333333" stroke-width="2" opacity="0.200000003" stroke-linecap="round" stroke-linejoin="round"></path>
                <path d="M19.7973964,12.2410945 C17.805288,10.2391654 15.0473553,9 12,9 C8.95750451,9 6.20350923,10.2352162 4.21214033,12.2315225" id="2" stroke="#333333" stroke-width="2" opacity="0.200000003" stroke-linecap="round" stroke-linejoin="round"></path>
                <path d="M23.0164048,8.39655662 C20.1474472,5.67186502 16.2689661,4 12,4 C7.7372404,4 3.86383121,5.66700723 0.996114792,8.38467932" id="3" stroke="#333333" stroke-width="2" opacity="0.200000003" stroke-linecap="round" stroke-linejoin="round"></path>
                <path d="M12,15 C11.4477153,15 10.9240398,14.5556326 10.8329211,14.0225875 L9.16707888,4.27740028 C9.07480376,3.73759027 9.43963623,3.20176057 9.97576904,3.11856312 C9.97576904,3.11856312 10,3 12,3 C14,3 14.024231,3.11856312 14.024231,3.11856312 C14.5631333,3.2187612 14.9240398,3.74435519 14.8329211,4.27740028 L13.1670789,14.0225875 C13.0748038,14.5623975 12.5561352,15 12,15 L12,15 Z" id="Exclamation-Point" fill="#333333"></path>
            </g>
        </g>
    </g>
</svg>