<?xml version="1.0" encoding="UTF-8"?>
<svg width="24px" height="24px" viewBox="0 0 24 24" version="1.1" xmlns="http://www.w3.org/2000/svg" xmlns:xlink="http://www.w3.org/1999/xlink">
    <!-- Generator: Sketch 44.1 (41455) - http://www.bohemiancoding.com/sketch -->
    <title>wrench</title>
    <desc>Created with Sketch.</desc>
    <defs></defs>
    <g id="Page-1" stroke="none" stroke-width="1" fill="none" fill-rule="evenodd">
        <g id="Artboard-4" transform="translate(-796.000000, -599.000000)">
            <g id="238" transform="translate(794.000000, 598.000000)">
                <g id="wrench" transform="translate(13.427934, 13.607927) rotate(-315.000000) translate(-13.427934, -13.607927) translate(8.427934, 0.607927)">
                    <g>
                        <path d="M3,-4.44028495e-14 C1.23409522,0.771556622 0,2.53363728 0,4.58395631 C0,7.34538006 2.23857625,9.58395631 5,9.58395631 C7.76142375,9.58395631 10,7.34538006 10,4.58395631 C10,2.53363728 8.76590478,0.771556622 7,-4.41530493e-14 L7,4.00922203 C7,4.55641359 6.55664682,5 5.9906311,5 L5,5 C3.8954305,5 3,4.10173938 3,3.00208688 L3,-4.6598142e-14 Z" id="Combined-Shape" stroke="#333333" stroke-width="2" stroke-linecap="round" stroke-linejoin="round"></path>
                        <path d="M3,10 L7,10 L7.81190765,22.1786147 C7.91578819,23.7368228 6.74220338,25 5.17569184,25 L4.82430816,25 C3.26448583,25 2.08353944,23.7469084 2.18809235,22.1786147 L3,10 Z" id="Combined-Shape" stroke="#333333" stroke-width="2"></path>
                        <circle id="Oval-137" fill="#333333" cx="5" cy="22" r="1"></circle>
                    </g>
                </g>
            </g>
        </g>
    </g>
</svg>