<?xml version="1.0" encoding="UTF-8"?>
<svg width="24px" height="24px" viewBox="0 0 24 24" version="1.1" xmlns="http://www.w3.org/2000/svg" xmlns:xlink="http://www.w3.org/1999/xlink">
    <!-- Generator: Sketch 44.1 (41455) - http://www.bohemiancoding.com/sketch -->
    <title>airplay-audio</title>
    <desc>Created with Sketch.</desc>
    <defs></defs>
    <g id="Page-1" stroke="none" stroke-width="1" fill="none" fill-rule="evenodd">
        <g id="Artboard-4" transform="translate(-796.000000, -423.000000)" fill="#333333">
            <g id="158" transform="translate(796.000000, 423.000000)">
                <path d="M4.98310243,19.1248288 C3.14165118,17.3111002 2,14.7888735 2,12 C2,6.4771525 6.4771525,2 12,2 C17.5228475,2 22,6.4771525 22,12 C22,14.7888735 20.8583488,17.3111002 19.0168976,19.1248288 L17.7061531,17.6071247 C19.1248701,16.1635092 20,14.1839534 20,12 C20,7.581722 16.418278,4 12,4 C7.581722,4 4,7.581722 4,12 C4,14.1839534 4.87512988,16.1635092 6.29384687,17.6071247 L4.98310243,19.1248288 Z M6.94996964,16.8474036 C5.74228051,15.5895525 5,13.8814607 5,12 C5,8.13400675 8.13400675,5 12,5 C15.8659932,5 19,8.13400675 19,12 C19,13.8814607 18.2577195,15.5895525 17.0500304,16.8474036 L15.734764,15.3244636 C16.5217867,14.4409376 17,13.2763152 17,12 C17,9.23857625 14.7614237,7 12,7 C9.23857625,7 7,9.23857625 7,12 C7,13.2763152 7.47821329,14.4409376 8.26523602,15.3244636 L6.94996964,16.8474036 Z M8.92592029,14.5594607 C8.34779754,13.8658545 8,12.9735435 8,12 C8,9.790861 9.790861,8 12,8 C14.209139,8 16,9.790861 16,12 C16,12.9735435 15.6522025,13.8658545 15.0740797,14.5594607 L13.7303617,13.0035767 C13.9018142,12.7085964 14,12.3657645 14,12 C14,10.8954305 13.1045695,10 12,10 C10.8954305,10 10,10.8954305 10,12 C10,12.3657645 10.0981858,12.7085964 10.2696383,13.0035767 L8.92592029,14.5594607 Z" id="audio" fill-rule="nonzero"></path>
                <polygon id="Arrow" stroke="#333333" stroke-width="2" stroke-linejoin="round" points="12 15 17 21 7 21"></polygon>
            </g>
        </g>
    </g>
</svg>