<?xml version="1.0" encoding="UTF-8"?>
<svg width="24px" height="24px" viewBox="0 0 24 24" version="1.1" xmlns="http://www.w3.org/2000/svg" xmlns:xlink="http://www.w3.org/1999/xlink">
    <!-- Generator: Sketch 44.1 (41455) - http://www.bohemiancoding.com/sketch -->
    <title>airpods</title>
    <desc>Created with Sketch.</desc>
    <defs></defs>
    <g id="Page-1" stroke="none" stroke-width="1" fill="none" fill-rule="evenodd">
        <g id="Artboard-4" transform="translate(-180.000000, -643.000000)" stroke="#333333">
            <g id="244" transform="translate(180.000000, 643.000000)">
                <g id="Left" transform="translate(1.000000, 2.000000)">
                    <path d="M6,8 C6,8 5,9.5 3,9 C1,8.5 0,6 0,6 L0,3 C0,3 0.896249403,7.60199647e-16 4,0 C9,0 9,5 9,8 L9,18.9938347 C9,19.5495244 8.55733967,20 8.00104344,20 L6.99895656,20 C6.44724809,20 6,19.544239 6,18.9975267 L6,8 Z" id="Body" stroke-width="2" stroke-linecap="round" stroke-linejoin="round"></path>
                    <path d="M1,1 L2.19645262,2.59527016 C2.36409721,2.81879628 2.5,3.2157526 2.5,3.49538898 L2.5,5.50461102 C2.5,5.7782068 2.36157227,6.18457031 2.19645262,6.40472984 L1,8" id="Speaker" stroke-width="2"></path>
                    <path d="M7,17.5 L8,17.5" id="Tip"></path>
                </g>
                <g id="Right" transform="translate(18.500000, 12.000000) scale(-1, 1) translate(-18.500000, -12.000000) translate(14.000000, 2.000000)">
                    <path d="M6,8 C6,8 5,9.5 3,9 C1,8.5 0,6 0,6 L0,3 C0,3 0.896249403,7.60199647e-16 4,0 C9,0 9,5 9,8 L9,18.9938347 C9,19.5495244 8.55733967,20 8.00104344,20 L6.99895656,20 C6.44724809,20 6,19.544239 6,18.9975267 L6,8 Z" id="Body" stroke-width="2" stroke-linecap="round" stroke-linejoin="round"></path>
                    <path d="M1,1 L2.19645262,2.59527016 C2.36409721,2.81879628 2.5,3.2157526 2.5,3.49538898 L2.5,5.50461102 C2.5,5.7782068 2.36157227,6.18457031 2.19645262,6.40472984 L1,8" id="Speaker" stroke-width="2"></path>
                    <path d="M7,17.5 L8,17.5" id="Tip"></path>
                </g>
            </g>
        </g>
    </g>
</svg>