<?xml version="1.0" encoding="UTF-8"?>
<svg width="24px" height="24px" viewBox="0 0 24 24" version="1.1" xmlns="http://www.w3.org/2000/svg" xmlns:xlink="http://www.w3.org/1999/xlink">
    <!-- Generator: Sketch 44.1 (41455) - http://www.bohemiancoding.com/sketch -->
    <title>barcode</title>
    <desc>Created with Sketch.</desc>
    <defs></defs>
    <g id="Page-1" stroke="none" stroke-width="1" fill="none" fill-rule="evenodd">
        <g id="Artboard-4" transform="translate(-224.000000, -599.000000)" fill="#333333">
            <g id="225" transform="translate(224.000000, 599.000000)">
                <path d="M2,3.99339768 C2,3.44475929 2.44386482,3 3,3 C3.55228475,3 4,3.44494629 4,3.99339768 L4,20.0066023 C4,20.5552407 3.55613518,21 3,21 C2.44771525,21 2,20.5550537 2,20.0066023 L2,3.99339768 Z M20,3.99339768 C20,3.44475929 20.4438648,3 21,3 C21.5522847,3 22,3.44494629 22,3.99339768 L22,20.0066023 C22,20.5552407 21.5561352,21 21,21 C20.4477153,21 20,20.5550537 20,20.0066023 L20,3.99339768 Z M15,4.00748397 C15,3.45106594 15.4438648,3 16,3 C16.5522847,3 17,3.44892021 17,4.00748397 L17,16.992516 C17,17.5489341 16.5561352,18 16,18 C15.4477153,18 15,17.5510798 15,16.992516 L15,4.00748397 Z M10,4.00748397 C10,3.45106594 10.4438648,3 11,3 C11.5522847,3 12,3.44892021 12,4.00748397 L12,16.992516 C12,17.5489341 11.5561352,18 11,18 C10.4477153,18 10,17.5510798 10,16.992516 L10,4.00748397 Z M5,3.49907684 C5,3.22344431 5.23193359,3 5.5,3 C5.77614237,3 6,3.2236826 6,3.49907684 L6,17.5009232 C6,17.7765557 5.76806641,18 5.5,18 C5.22385763,18 5,17.7763174 5,17.5009232 L5,3.49907684 Z M13,3.49907684 C13,3.22344431 13.2319336,3 13.5,3 C13.7761424,3 14,3.2236826 14,3.49907684 L14,17.5009232 C14,17.7765557 13.7680664,18 13.5,18 C13.2238576,18 13,17.7763174 13,17.5009232 L13,3.49907684 Z M18,3.49907684 C18,3.22344431 18.2319336,3 18.5,3 C18.7761424,3 19,3.2236826 19,3.49907684 L19,17.5009232 C19,17.7765557 18.7680664,18 18.5,18 C18.2238576,18 18,17.7763174 18,17.5009232 L18,3.49907684 Z M7,4.00748397 C7,3.45106594 7.44386482,3 8,3 C8.55228475,3 9,3.44892021 9,4.00748397 L9,16.992516 C9,17.5489341 8.55613518,18 8,18 C7.44771525,18 7,17.5510798 7,16.992516 L7,4.00748397 Z M5,19 L9,19 L9,20 L5,20 L5,19 Z M11,19 L13,19 L13,20 L11,20 L11,19 Z M14,19 L19,19 L19,20 L14,20 L14,19 Z" id="Barcode"></path>
            </g>
        </g>
    </g>
</svg>