<?xml version="1.0" encoding="UTF-8"?>
<svg width="24px" height="24px" viewBox="0 0 24 24" version="1.1" xmlns="http://www.w3.org/2000/svg" xmlns:xlink="http://www.w3.org/1999/xlink">
    <!-- Generator: Sketch 44.1 (41455) - http://www.bohemiancoding.com/sketch -->
    <title>bell</title>
    <desc>Created with Sketch.</desc>
    <defs></defs>
    <g id="Page-1" stroke="none" stroke-width="1" fill="none" fill-rule="evenodd">
        <g id="Artboard-4" transform="translate(-884.000000, -291.000000)">
            <g id="100" transform="translate(884.000000, 291.000000)">
                <path d="M9,21 C9,22.6568542 10.3431458,24 12,24 C13.6568542,24 15,22.6568542 15,21 L9,21 Z" id="Ding" fill="#333333"></path>
                <path d="M4.29289321,15.2928932 C5.96179386,13.6239926 6,13.5001465 6,10 C6,5.72810928 8.08620121,3 12,3 C15.9137988,3 18,5.72810928 18,10 L17.9999994,10.0212457 C17.9999347,11.5350211 18.1040732,12.4589418 18.5288785,13.5051137 C18.8010848,14.1754789 19.1866334,14.7724198 19.7071068,15.2928932 C21.1098059,16.6955923 20.725738,19 19,19 L4.99999999,19 C3.27426205,19 2.8901941,16.6955923 4.29289321,15.2928932 Z" id="Body" stroke="#333333" stroke-width="2" stroke-linecap="round" stroke-linejoin="round"></path>
            </g>
        </g>
    </g>
</svg>