<?xml version="1.0" encoding="UTF-8"?>
<svg width="24px" height="24px" viewBox="0 0 24 24" version="1.1" xmlns="http://www.w3.org/2000/svg" xmlns:xlink="http://www.w3.org/1999/xlink">
    <!-- Generator: Sketch 44.1 (41455) - http://www.bohemiancoding.com/sketch -->
    <title>black-hole</title>
    <desc>Created with Sketch.</desc>
    <defs></defs>
    <g id="Page-1" stroke="none" stroke-width="1" fill="none" fill-rule="evenodd" stroke-linecap="round">
        <g id="Artboard-4" transform="translate(-884.000000, -819.000000)" stroke="#333333" stroke-width="2">
            <g id="340" transform="translate(884.000000, 819.000000)">
                <path d="M12,11.974256 C12,8.40414075 10.4744072,5.19816026 8,3" id="Oval-192"></path>
                <path d="M11.0917382,20.4756148 C11.0917382,16.9054995 9.56614538,13.6995191 7.09173821,11.5013588" id="Oval-192" transform="translate(9.091738, 15.988487) rotate(-120.000000) translate(-9.091738, -15.988487) "></path>
                <path d="M13.4756148,21.3953898 C13.4756148,17.8252745 11.950022,14.619294 9.47561481,12.4211338" id="Oval-192" transform="translate(11.475615, 16.908262) rotate(-150.000000) translate(-11.475615, -16.908262) "></path>
                <path d="M17.9884868,19.3953898 C17.9884868,15.8252745 16.462894,12.619294 13.9884868,10.4211338" id="Oval-192" transform="translate(15.988487, 14.908262) rotate(-210.000000) translate(-15.988487, -14.908262) "></path>
                <path d="M18.9082618,17.0115132 C18.9082618,13.4413979 17.382669,10.2354174 14.9082618,8.03725718" id="Oval-192" transform="translate(16.908262, 12.524385) rotate(-240.000000) translate(-16.908262, -12.524385) "></path>
                <path d="M16.9082618,12.4986412 C16.9082618,8.92852594 15.382669,5.72254545 12.9082618,3.52438519" id="Oval-192" transform="translate(14.908262, 8.011513) rotate(-300.000000) translate(-14.908262, -8.011513) "></path>
                <path d="M14.5243852,11.5788662 C14.5243852,8.00875095 12.9987924,4.80277046 10.5243852,2.6046102" id="Oval-192" transform="translate(12.524385, 7.091738) rotate(-330.000000) translate(-12.524385, -7.091738) "></path>
                <path d="M9.48712801,18.487128 C9.48712801,14.9170127 7.96153517,11.7110323 5.48712801,9.51287199" id="Oval-192" transform="translate(7.487128, 14.000000) rotate(-90.000000) translate(-7.487128, -14.000000) "></path>
                <path d="M18.487128,14.487128 C18.487128,10.9170127 16.9615352,7.71103225 14.487128,5.51287199" id="Oval-192" transform="translate(16.487128, 10.000000) scale(-1, -1) rotate(-90.000000) translate(-16.487128, -10.000000) "></path>
                <path d="M10.0115132,13.5788662 C10.0115132,10.008751 8.48592036,6.80277046 6.0115132,4.6046102" id="Oval-192" transform="translate(8.011513, 9.091738) rotate(-30.000000) translate(-8.011513, -9.091738) "></path>
                <path d="M9.09173821,15.9627428 C9.09173821,12.3926276 7.56614538,9.18664707 5.09173821,6.9884868" id="Oval-192" transform="translate(7.091738, 11.475615) rotate(-60.000000) translate(-7.091738, -11.475615) "></path>
                <path d="M16,21 C16,17.4298847 14.4744072,14.1981603 12,12" id="Oval-192" transform="translate(14.000000, 16.500000) scale(-1, -1) translate(-14.000000, -16.500000) "></path>
            </g>
        </g>
    </g>
</svg>