<?xml version="1.0" encoding="UTF-8"?>
<svg width="24px" height="24px" viewBox="0 0 24 24" version="1.1" xmlns="http://www.w3.org/2000/svg" xmlns:xlink="http://www.w3.org/1999/xlink">
    <!-- Generator: Sketch 44.1 (41455) - http://www.bohemiancoding.com/sketch -->
    <title>bluetooth-connected</title>
    <desc>Created with Sketch.</desc>
    <defs></defs>
    <g id="Page-1" stroke="none" stroke-width="1" fill="none" fill-rule="evenodd">
        <g id="Artboard-4" transform="translate(-400.000000, -423.000000)">
            <g id="149" transform="translate(400.000000, 423.000000)">
                <path d="M15.616237,10.2881775 L18.6401844,7.76822128 C19.1199385,7.36842617 19.1199385,6.63157383 18.6401844,6.23177872 L12.6401844,1.23177872 C11.9888575,0.689006285 11,1.15216235 11,2 L11,8.12601749 C11.3196199,8.043753 11.6547004,8 12,8 C12.3452996,8 12.6803801,8.043753 13,8.12601749 L13,2 L11.3598156,2.76822128 L17.3598156,7.76822128 L17.3598156,6.23177872 L14.3353608,8.75215771 C14.8818518,9.14580446 15.3249784,9.67397891 15.616237,10.2881775 Z M9.66463919,15.2478423 L6.6401844,17.7682213 C6.2159075,18.1217854 5.5853428,18.0644613 5.23177872,17.6401844 C4.87821464,17.2159075 4.9355387,16.5853428 5.3598156,16.2317787 L8.38376301,13.7118225 C8.67502157,14.3260211 9.11814817,14.8541955 9.66463919,15.2478423 Z M13,15.8739825 L13,22 L11.3598156,21.2317787 L17.3598156,16.2317787 L17.3598156,17.7682213 L14.3353608,15.2478423 C14.8818518,14.8541955 15.3249784,14.3260211 15.616237,13.7118225 L18.6401844,16.2317787 C19.1199385,16.6315738 19.1199385,17.3684262 18.6401844,17.7682213 L12.6401844,22.7682213 C11.9888575,23.3109937 11,22.8478376 11,22 L11,15.8739825 C11.3196199,15.956247 11.6547004,16 12,16 C12.3452996,16 12.6803801,15.956247 13,15.8739825 Z M8.38376301,10.2881775 L5.3598156,7.76822128 C4.9355387,7.4146572 4.87821464,6.7840925 5.23177872,6.3598156 C5.5853428,5.9355387 6.2159075,5.87821464 6.6401844,6.23177872 L9.66463919,8.75215771 C9.11814817,9.14580446 8.67502157,9.67397891 8.38376301,10.2881775 Z" id="Bluetooth" fill="#333333" fill-rule="nonzero" opacity="0.75"></path>
                <path d="M3.99997493,13.9981014 C2.8953985,13.9981014 1.99996239,13.1026653 1.99996239,11.9980888 C1.99996239,10.8935124 2.8953985,9.99807631 3.99997493,9.99807631 C5.10455135,9.99807631 5.99998746,10.8935124 5.99998746,11.9980888 C5.99998746,13.1026653 5.10455135,13.9981014 3.99997493,13.9981014 Z M19.9999749,13.9981014 C18.8953985,13.9981014 17.9999624,13.1026653 17.9999624,11.9980888 C17.9999624,10.8935124 18.8953985,9.99807631 19.9999749,9.99807631 C21.1045513,9.99807631 21.9999875,10.8935124 21.9999875,11.9980888 C21.9999875,13.1026653 21.1045513,13.9981014 19.9999749,13.9981014 Z M11.9999749,13.9981014 C10.8953985,13.9981014 9.99996239,13.1026653 9.99996239,11.9980888 C9.99996239,10.8935124 10.8953985,9.99807631 11.9999749,9.99807631 C13.1045513,9.99807631 13.9999875,10.8935124 13.9999875,11.9980888 C13.9999875,13.1026653 13.1045513,13.9981014 11.9999749,13.9981014 Z" id="Dots" stroke="#333333" stroke-width="2"></path>
            </g>
        </g>
    </g>
</svg>