<?xml version="1.0" encoding="UTF-8"?>
<svg width="24px" height="24px" viewBox="0 0 24 24" version="1.1" xmlns="http://www.w3.org/2000/svg" xmlns:xlink="http://www.w3.org/1999/xlink">
    <!-- Generator: Sketch 44.1 (41455) - http://www.bohemiancoding.com/sketch -->
    <title>brush</title>
    <desc>Created with Sketch.</desc>
    <defs></defs>
    <g id="Page-1" stroke="none" stroke-width="1" fill="none" fill-rule="evenodd">
        <g id="Artboard-4" transform="translate(-488.000000, -687.000000)" stroke="#333333">
            <g id="271" transform="translate(488.000000, 687.000000)">
                <g id="brush" transform="translate(12.697261, 12.197291) rotate(-315.000000) translate(-12.697261, -12.197291) translate(9.697261, -1.302709)">
                    <g id="Group-7">
                        <path d="M3,0.5 C1,0.5 1,15.5 1,15.5 C1,15.5 2,15 3,15 C4,15 5,15.5 5,15.5 C5,15.5 5,0.5 3,0.5 Z" id="Path-208" stroke-width="2" stroke-linejoin="round"></path>
                        <path d="M1,26 C4,26 6,23 6,21 C6,19.5 5,18 3,18 C1,18 9.18485099e-17,19 0,21 C0,23 1.5,23 1,26 Z" id="Oval-150" stroke-width="2"></path>
                    </g>
                </g>
            </g>
        </g>
    </g>
</svg>