<?xml version="1.0" encoding="UTF-8"?>
<svg width="24px" height="24px" viewBox="0 0 24 24" version="1.1" xmlns="http://www.w3.org/2000/svg" xmlns:xlink="http://www.w3.org/1999/xlink">
    <!-- Generator: Sketch 44.1 (41455) - http://www.bohemiancoding.com/sketch -->
    <title>bulb</title>
    <desc>Created with Sketch.</desc>
    <defs></defs>
    <g id="Page-1" stroke="none" stroke-width="1" fill="none" fill-rule="evenodd">
        <g id="Artboard-4" transform="translate(-92.000000, -335.000000)">
            <g id="102" transform="translate(92.000000, 335.000000)">
                <path d="M9,18 L15,18 C15,14.5 19,14 19,9 C19,5.13400675 15.8659932,2 12,2 C8.13400675,2 5,5.13400675 5,9 C5,14 9,15 9,18 Z" id="Glass" stroke="#333333" stroke-width="2" stroke-linejoin="round"></path>
                <path d="M9,20.5 C9,20.2238576 9.22788048,20 9.49100518,20 L14.5089948,20 C14.7801695,20 15,20.2319336 15,20.5 C15,20.7761424 14.7721195,21 14.5089948,21 L9.49100518,21 C9.21983051,21 9,20.7680664 9,20.5 Z M10,22.5 C10,22.2238576 10.2150574,22 10.4904785,22 L13.5095215,22 C13.7804053,22 14,22.2319336 14,22.5 C14,22.7761424 13.7849426,23 13.5095215,23 L10.4904785,23 C10.2195947,23 10,22.7680664 10,22.5 Z" id="Screw" fill="#333333"></path>
                <path d="M11,13 L11,18 L13,18 L13,13 L14,13 C15.1045695,13 16,12.1045695 16,11 C16,9.8954305 15.1045695,9 14,9 C12.8954305,9 12,9.8954305 12,11 C12,9.8954305 11.1045695,9 10,9 C8.8954305,9 8,9.8954305 8,11 C8,12.1045695 8.8954305,13 10,13 L11,13 Z" id="Filament" fill="#333333" opacity="0.5"></path>
            </g>
        </g>
    </g>
</svg>