<?xml version="1.0" encoding="UTF-8"?>
<svg width="24px" height="24px" viewBox="0 0 24 24" version="1.1" xmlns="http://www.w3.org/2000/svg" xmlns:xlink="http://www.w3.org/1999/xlink">
    <!-- Generator: Sketch 44.1 (41455) - http://www.bohemiancoding.com/sketch -->
    <title>calculator</title>
    <desc>Created with Sketch.</desc>
    <defs></defs>
    <g id="Page-1" stroke="none" stroke-width="1" fill="none" fill-rule="evenodd">
        <g id="Artboard-4" transform="translate(-708.000000, -599.000000)">
            <g id="235" transform="translate(708.000000, 599.000000)">
                <rect id="Body" stroke="#333333" stroke-width="2" x="4" y="3" width="16" height="18" rx="2"></rect>
                <path d="M7,6.49538898 C7,6.2217932 7.22765279,6 7.50964952,6 L16.4903505,6 C16.7718221,6 17,6.2157526 17,6.49538898 L17,8.50461102 C17,8.7782068 16.7723472,9 16.4903505,9 L7.50964952,9 C7.22817786,9 7,8.7842474 7,8.50461102 L7,6.49538898 Z M7,10.5046844 C7,10.2259549 7.2157526,10 7.49538898,10 L9.50461102,10 C9.7782068,10 10,10.214035 10,10.5046844 L10,11.4953156 C10,11.7740451 9.7842474,12 9.50461102,12 L7.49538898,12 C7.2217932,12 7,11.785965 7,11.4953156 L7,10.5046844 Z M7,13.5046844 C7,13.2259549 7.2157526,13 7.49538898,13 L9.50461102,13 C9.7782068,13 10,13.214035 10,13.5046844 L10,14.4953156 C10,14.7740451 9.7842474,15 9.50461102,15 L7.49538898,15 C7.2217932,15 7,14.785965 7,14.4953156 L7,13.5046844 Z M7,16.5046844 C7,16.2259549 7.2157526,16 7.49538898,16 L9.50461102,16 C9.7782068,16 10,16.214035 10,16.5046844 L10,17.4953156 C10,17.7740451 9.7842474,18 9.50461102,18 L7.49538898,18 C7.2217932,18 7,17.785965 7,17.4953156 L7,16.5046844 Z M11,10.5046844 C11,10.2259549 11.2157526,10 11.495389,10 L13.504611,10 C13.7782068,10 14,10.214035 14,10.5046844 L14,11.4953156 C14,11.7740451 13.7842474,12 13.504611,12 L11.495389,12 C11.2217932,12 11,11.785965 11,11.4953156 L11,10.5046844 Z M11,13.5046844 C11,13.2259549 11.2157526,13 11.495389,13 L13.504611,13 C13.7782068,13 14,13.214035 14,13.5046844 L14,14.4953156 C14,14.7740451 13.7842474,15 13.504611,15 L11.495389,15 C11.2217932,15 11,14.785965 11,14.4953156 L11,13.5046844 Z M11,16.5046844 C11,16.2259549 11.2157526,16 11.495389,16 L13.504611,16 C13.7782068,16 14,16.214035 14,16.5046844 L14,17.4953156 C14,17.7740451 13.7842474,18 13.504611,18 L11.495389,18 C11.2217932,18 11,17.785965 11,17.4953156 L11,16.5046844 Z M15,10.5046844 C15,10.2259549 15.214035,10 15.5046844,10 L16.4953156,10 C16.7740451,10 17,10.214035 17,10.5046844 L17,11.4953156 C17,11.7740451 16.785965,12 16.4953156,12 L15.5046844,12 C15.2259549,12 15,11.785965 15,11.4953156 L15,10.5046844 Z M15,13.5046844 C15,13.2259549 15.214035,13 15.5046844,13 L16.4953156,13 C16.7740451,13 17,13.214035 17,13.5046844 L17,14.4953156 C17,14.7740451 16.785965,15 16.4953156,15 L15.5046844,15 C15.2259549,15 15,14.785965 15,14.4953156 L15,13.5046844 Z M15,16.5046844 C15,16.2259549 15.214035,16 15.5046844,16 L16.4953156,16 C16.7740451,16 17,16.214035 17,16.5046844 L17,17.4953156 C17,17.7740451 16.785965,18 16.4953156,18 L15.5046844,18 C15.2259549,18 15,17.785965 15,17.4953156 L15,16.5046844 Z" id="Buttons" fill="#333333"></path>
            </g>
        </g>
    </g>
</svg>