<?xml version="1.0" encoding="UTF-8"?>
<svg width="24px" height="24px" viewBox="0 0 24 24" version="1.1" xmlns="http://www.w3.org/2000/svg" xmlns:xlink="http://www.w3.org/1999/xlink">
    <!-- Generator: Sketch 44.1 (41455) - http://www.bohemiancoding.com/sketch -->
    <title>camera-flip</title>
    <desc>Created with Sketch.</desc>
    <defs></defs>
    <g id="Page-1" stroke="none" stroke-width="1" fill="none" fill-rule="evenodd">
        <g id="Artboard-4" transform="translate(-796.000000, -467.000000)">
            <g id="178" transform="translate(796.000000, 467.000000)">
                <path d="M5.58578644,6 L8.58578644,3 L15.4142136,3 L18.4142136,6 L20,6 C21.6580002,6 23,7.34240412 23,9.00276013 L23,17.9972399 C23,19.6524215 21.6572639,21 20.0092049,21 L3.99079514,21 C2.336848,21 1,19.6565662 1,17.9972399 L1,9.00276013 C1,7.34261395 2.33719763,6 4,6 L5.58578644,6 Z" id="Body" stroke="#333333" stroke-width="2" stroke-linejoin="round"></path>
                <path d="M17,13 L18.009222,13 C18.5490248,13 18.7314226,13.3581032 18.4001155,13.799846 L16.5998845,16.200154 C16.3389292,16.5480944 15.9549287,16.6219918 15.6414764,16.4263383 C15.6294885,16.439074 15.6174346,16.4517469 15.6053152,16.4643563 L15.480061,16.2943685 C15.4523296,16.2655657 15.4256196,16.2341595 15.4001155,16.200154 L13.5998845,13.799846 C13.26623,13.3549733 13.4435864,13 13.990778,13 L15,13 C15,11.3431458 13.6568542,10 12,10 C11.6398532,10 11.2945287,10.063462 10.9745993,10.1798133 L9.75848525,8.52937284 C10.4326883,8.19067465 11.1940769,8 12,8 C14.7614237,8 17,10.2385763 17,13 Z M7,13 L5.99077797,13 C5.44358641,13 5.26622999,12.6450267 5.5998845,12.200154 L7.4001155,9.79984599 C7.73142256,9.35810325 8.26622999,9.35497332 8.5998845,9.79984599 L10.4001155,12.200154 C10.7314226,12.6418968 10.5490248,13 10.009222,13 L9,13 C9,14.6568542 10.3431458,16 12,16 C12.3865382,16 12.7560021,15.9268963 13.0953203,15.7937604 L14.3219683,17.4292911 C13.6281291,17.7937722 12.8381481,18 12,18 C9.23857625,18 7,15.7614237 7,13 Z" id="Arrow" fill="#333333"></path>
            </g>
        </g>
    </g>
</svg>