<?xml version="1.0" encoding="UTF-8"?>
<svg width="24px" height="24px" viewBox="0 0 24 24" version="1.1" xmlns="http://www.w3.org/2000/svg" xmlns:xlink="http://www.w3.org/1999/xlink">
    <!-- Generator: Sketch 44.1 (41455) - http://www.bohemiancoding.com/sketch -->
    <title>candy-corn</title>
    <desc>Created with Sketch.</desc>
    <defs></defs>
    <g id="Page-1" stroke="none" stroke-width="1" fill="none" fill-rule="evenodd">
        <g id="Artboard-4" transform="translate(-356.000000, -467.000000)">
            <g id="168" transform="translate(356.000000, 467.000000)">
                <path d="M9.58690373,4.34351809 C10.7424395,1.45527444 13.2624894,1.45968638 14.415837,4.3436502 L19.8163669,17.8477611 C20.6949807,20.044749 19.3661914,22 16.9905224,22 L7.00947762,22 C4.64339363,22 3.30798586,20.0375749 4.18414495,17.847629 L9.58690373,4.34351809 Z" id="Body" stroke="#333333" stroke-width="2" stroke-linecap="round" stroke-linejoin="round"></path>
                <path d="M8,7 L4.5,15 C4.5,15 7,16 12,16 C17,16 19.5,15 19.5,15 L15.5,7 C15.5,7 15,8 12,8 C9,8 8,7 8,7 Z" id="Mid-Stripe" fill="#333333" opacity="0.200000003"></path>
                <path d="M4,21 L4.5,15 C4.5,15 7,16 12,16 C17,16 19.5,15 19.5,15 L20,21 L4,21 Z" id="Bottom-Stripe" fill="#333333" opacity="0.100000001"></path>
                <path d="M9.5,17 C8.67157288,17 8,16.3284271 8,15.5 C8,14.6715729 8.67157288,14 9.5,14 C10.3284271,14 11,14.6715729 11,15.5 C11,16.3284271 10.3284271,17 9.5,17 Z M14.5,17 C13.6715729,17 13,16.3284271 13,15.5 C13,14.6715729 13.6715729,14 14.5,14 C15.3284271,14 16,14.6715729 16,15.5 C16,16.3284271 15.3284271,17 14.5,17 Z" id="eyes" fill="#333333"></path>
                <path d="M10.4904785,18 C10.2195947,18 10.0167618,18.214035 10.0657282,18.4841442 C10.0657282,18.4841442 10,20 12,20 C14,20 13.9342718,18.4841442 13.9342718,18.4841442 C13.9705725,18.2167587 13.7849426,18 13.5095215,18 L10.4904785,18 Z" id="mouth" fill="#333333"></path>
            </g>
        </g>
    </g>
</svg>