<?xml version="1.0" encoding="UTF-8"?>
<svg width="24px" height="24px" viewBox="0 0 24 24" version="1.1" xmlns="http://www.w3.org/2000/svg" xmlns:xlink="http://www.w3.org/1999/xlink">
    <!-- Generator: Sketch 44.1 (41455) - http://www.bohemiancoding.com/sketch -->
    <title>candy</title>
    <desc>Created with Sketch.</desc>
    <defs></defs>
    <g id="Page-1" stroke="none" stroke-width="1" fill="none" fill-rule="evenodd">
        <g id="Artboard-4" transform="translate(-840.000000, -555.000000)" stroke="#333333" stroke-width="2">
            <g id="219" transform="translate(839.000000, 554.000000)">
                <g id="Group-4" transform="translate(13.000000, 13.000000) rotate(-45.000000) translate(-13.000000, -13.000000) translate(2.000000, 7.000000)">
                    <circle id="Candy" cx="11" cy="6" r="6"></circle>
                    <polyline id="Right-Wrapper" stroke-linejoin="round" points="16.5751474 4.00464222 21.5751474 1.00464222 20.5751474 3.00464222 21.5751474 4.50464222 20.5751474 6.00464222 21.5751474 7.50464222 20.5751474 9.00464222 21.5751474 11.0046422 16.5751474 8.00464222"></polyline>
                    <polyline id="Left-Wrapper" stroke-linejoin="round" transform="translate(2.924853, 6.004642) scale(-1, 1) translate(-2.924853, -6.004642) " points="0.424852643 4.00464222 5.42485264 1.00464222 4.42485264 3.00464222 5.42485264 4.50464222 4.42485264 6.00464222 5.42485264 7.50464222 4.42485264 9.00464222 5.42485264 11.0046422 0.424852643 8.00464222"></polyline>
                    <path d="M11,9 C12.5,9 14,7.5 14,6" id="Highlight" stroke-linecap="round"></path>
                </g>
            </g>
        </g>
    </g>
</svg>