<?xml version="1.0" encoding="UTF-8"?>
<svg width="24px" height="24px" viewBox="0 0 24 24" version="1.1" xmlns="http://www.w3.org/2000/svg" xmlns:xlink="http://www.w3.org/1999/xlink">
    <!-- Generator: Sketch 44.1 (41455) - http://www.bohemiancoding.com/sketch -->
    <title>candy-cane</title>
    <desc>Created with Sketch.</desc>
    <defs></defs>
    <g id="Page-1" stroke="none" stroke-width="1" fill="none" fill-rule="evenodd">
        <g id="Artboard-4" transform="translate(-180.000000, -555.000000)" stroke="#333333">
            <g id="204" transform="translate(180.000000, 555.000000)">
                <path d="M16.9999998,7.00086237 L16.9999998,7.00000618 L17,7.00087166 L17,20.9991283 C17,22.1047241 16.1078829,23 15,23 C13.8945707,23 13,22.1067965 13,20.9991283 L13,7.00087166 L13.0000002,7.00086237 L13,7 C13,5.8954305 12.1045695,5 11,5 C9.8954305,5 9,5.8954305 9,7 L9,9 C9,10.1045695 8.1045695,11 7,11 C5.8954305,11 5,10.1045695 5,9 L5,7 C5,3.6862915 7.6862915,1 11,1 C14.3137085,1 17,3.6862915 17,7 L16.9999998,7.00086237 Z" id="Cane" stroke-width="2" fill-rule="nonzero"></path>
                <path d="M14,20 L16.0615528,17.9384472" id="Path-143" stroke-linecap="square"></path>
                <path d="M14,16 L16.0615528,13.9384472" id="Path-143" stroke-linecap="square"></path>
                <path d="M14,12 L16.0615528,9.93844719" id="Path-143" stroke-linecap="square"></path>
                <path d="M14,8 L16.0615528,5.93844719" id="Path-143" stroke-linecap="square"></path>
                <path d="M6,9 L8.06155281,6.93844719" id="Path-143" stroke-linecap="square" transform="translate(7.030776, 7.969224) scale(-1, 1) translate(-7.030776, -7.969224) "></path>
                <path d="M13,5 L14,3" id="Path-143" stroke-linecap="square"></path>
                <path d="M10.5,4 L10.5,2" id="Path-145" stroke-linecap="square"></path>
                <path d="M8.5,5.5 L7,3.5" id="Path-145" stroke-linecap="square"></path>
            </g>
        </g>
    </g>
</svg>