<?xml version="1.0" encoding="UTF-8"?>
<svg width="24px" height="24px" viewBox="0 0 24 24" version="1.1" xmlns="http://www.w3.org/2000/svg" xmlns:xlink="http://www.w3.org/1999/xlink">
    <!-- Generator: Sketch 44.1 (41455) - http://www.bohemiancoding.com/sketch -->
    <title>caps</title>
    <desc>Created with Sketch.</desc>
    <defs></defs>
    <g id="Page-1" stroke="none" stroke-width="1" fill="none" fill-rule="evenodd" stroke-linejoin="round">
        <g id="Artboard-4" transform="translate(-136.000000, -731.000000)" stroke="#333333" stroke-width="2">
            <g id="283" transform="translate(136.000000, 731.000000)">
                <path d="M12,2 L21,11 L16,11 L16,13.9906311 C16,14.5566468 15.5536144,15 15.0029699,15 L8.99703014,15 C8.45303631,15 8,14.5480902 8,13.9906311 L8,11 L3,11 L12,2 Z M8,19.0093689 C8,18.4519098 8.45303631,18 8.99703014,18 L15.0029699,18 C15.5536144,18 16,18.4433532 16,19.0093689 L16,20.9906311 C16,21.5480902 15.5469637,22 15.0029699,22 L8.99703014,22 C8.4463856,22 8,21.5566468 8,20.9906311 L8,19.0093689 Z" id="Arrow"></path>
            </g>
        </g>
    </g>
</svg>