<?xml version="1.0" encoding="UTF-8"?>
<svg width="24px" height="24px" viewBox="0 0 24 24" version="1.1" xmlns="http://www.w3.org/2000/svg" xmlns:xlink="http://www.w3.org/1999/xlink">
    <!-- Generator: Sketch 44.1 (41455) - http://www.bohemiancoding.com/sketch -->
    <title>car</title>
    <desc>Created with Sketch.</desc>
    <defs></defs>
    <g id="Page-1" stroke="none" stroke-width="1" fill="none" fill-rule="evenodd">
        <g id="Artboard-4" transform="translate(-576.000000, -731.000000)">
            <g id="293" transform="translate(576.000000, 731.000000)">
                <path d="M2.4428885,9.83566725 C2.75057268,9.37414097 3.44494629,9 3.99339768,9 L20.0066023,9 C20.5552407,9 21.2452393,9.36785889 21.5571115,9.83566725 L21.8947051,10.3420576 C22.5051426,11.2577139 23,12.8982606 23,13.9979131 L23,17.009222 C23,17.5564136 22.5621443,18.0995398 22.019805,18.2072006 C22.019805,18.2072006 19.1352752,19 12,19 C4.8647248,19 1.95442469,18.2023649 1.95442469,18.2023649 C1.42731049,18.0906019 1,17.5490248 1,17.009222 L1,13.9979131 C1,12.8944962 1.49438214,11.2584268 2.10529494,10.3420576 L2.4428885,9.83566725 Z" id="Body" stroke="#333333" stroke-width="2" stroke-linecap="round" stroke-linejoin="round"></path>
                <path d="M8.5,14 C9.5,14 14.5,14 15.5,14 C16.5,14 17.5,15 17.5,15.5 C17.5,16 17,17 16.5,17 C16,17 8,17 7.5,17 C7,17 6.5,16 6.5,15.5 C6.5,15 7.5,14 8.5,14 Z" id="Grill" fill="#333333"></path>
                <path d="M19.1718043,15.1997033 C18.3559629,15.3435581 17.5391028,14.5783486 17.3472964,13.49056 C17.1554899,12.4027714 17.6613702,11.4043271 18.4772116,11.2604723 C19.2930531,11.1166174 20.1099131,11.8818269 20.3017196,12.9696155 C20.4935261,14.0574041 19.9876458,15.0558484 19.1718043,15.1997033 Z M4.82718722,15.1997033 C4.01134576,15.0558484 3.50546546,14.0574041 3.69727194,12.9696155 C3.88907842,11.8818269 4.70593847,11.1166174 5.52177993,11.2604723 C6.33762138,11.4043271 6.84350168,12.4027714 6.6516952,13.49056 C6.45988872,14.5783486 5.64302867,15.3435581 4.82718722,15.1997033 Z" id="Headlights" fill="#333333"></path>
                <path d="M20,18 L24,17 L24,21.0001925 C24,21.5523709 23.5566468,22 22.9906311,22 L21.0093689,22 C20.4519098,22 20,21.5566468 20,20.9906311 L20,18 Z M0,17 L4,19 L4,21.0010434 C4,21.5527519 3.55664682,22 2.9906311,22 L1.0093689,22 C0.451909848,22 0,21.5562834 0,21.0001925 L0,17 Z" id="Wheels" fill="#333333"></path>
                <path d="M3.80243218,4.9878391 C3.91154587,4.44227063 4.42796135,3.90046024 4.97678638,3.78301489 C4.97678638,3.78301489 8,3 12,3 C16,3 19.0470428,3.78792572 19.0470428,3.78792572 C19.5733465,3.90505111 20.0887433,4.44371665 20.1975678,4.9878391 L21,9 L3,9 L3.80243218,4.9878391 Z" id="Windscreen" stroke="#333333" stroke-width="2"></path>
                <path d="M24,8.5 C24,9.5 22.5,10 21,10 C21,8.5 21.5,7 22.5,7 C23.5,7 24,7.5 24,8.5 Z M0,8.5 C0,7.5 0.5,7 1.5,7 C2.5,7 3,8.5 3,10 C1.5,10 0,9.5 0,8.5 Z" id="Mirros" fill="#333333"></path>
            </g>
        </g>
    </g>
</svg>