<?xml version="1.0" encoding="UTF-8"?>
<svg width="24px" height="24px" viewBox="0 0 24 24" version="1.1" xmlns="http://www.w3.org/2000/svg" xmlns:xlink="http://www.w3.org/1999/xlink">
    <!-- Generator: Sketch 44.1 (41455) - http://www.bohemiancoding.com/sketch -->
    <title>chart-pie</title>
    <desc>Created with Sketch.</desc>
    <defs></defs>
    <g id="Page-1" stroke="none" stroke-width="1" fill="none" fill-rule="evenodd" stroke-linecap="round" stroke-linejoin="round">
        <g id="Artboard-4" transform="translate(-488.000000, -291.000000)" stroke="#333333" stroke-width="2">
            <g id="91" transform="translate(485.000000, 288.000000)">
                <g id="Group-2" transform="translate(15.353553, 14.646447) rotate(-315.000000) translate(-15.353553, -14.646447) translate(5.353553, 4.146447)">
                    <path d="M2.93106996,3.92679506 C1.12016966,5.73660772 1.77635684e-15,8.23748904 1.77635684e-15,11 C1.77635684e-15,16.5228475 4.4771525,21 10,21 C15.5228475,21 20,16.5228475 20,11 C20,8.23966441 18.8815938,5.74054658 17.0732068,3.93107182 L10.0104122,11 L2.93106996,3.92679506 Z" id="Pie"></path>
                    <path d="M4.73763737,1.49499676 C6.26620244,0.547206672 8.06919774,2.73558953e-13 10,2.73558953e-13 C11.9308021,2.73558953e-13 13.7337973,0.547206602 15.2623623,1.49499657 L10,6.7573595 L4.73763737,1.49499676 Z" id="Slice"></path>
                </g>
            </g>
        </g>
    </g>
</svg>