<?xml version="1.0" encoding="UTF-8"?>
<svg width="24px" height="24px" viewBox="0 0 24 24" version="1.1" xmlns="http://www.w3.org/2000/svg" xmlns:xlink="http://www.w3.org/1999/xlink">
    <!-- Generator: Sketch 44.1 (41455) - http://www.bohemiancoding.com/sketch -->
    <title>chats</title>
    <desc>Created with Sketch.</desc>
    <defs></defs>
    <g id="Page-1" stroke="none" stroke-width="1" fill="none" fill-rule="evenodd">
        <g id="Artboard-4" transform="translate(-180.000000, -599.000000)">
            <g id="224" transform="translate(180.000000, 599.000000)">
                <path d="M15.2928932,22.7071068 C15.6834175,23.0976311 16.3165825,23.0976311 16.7071068,22.7071068 L19.4142136,20 L20,20 C21.5522847,20 23,18.5522847 23,17 L23,11 C23,9.44771525 21.5522847,8 20,8 L20,10 C20.4477153,10 21,10.5522847 21,11 L21,17 C21,17.4477153 20.4477153,18 20,18 L19,18 C18.7347835,18 18.4804296,18.1053568 18.2928932,18.2928932 L16,20.5857864 L13.7071068,18.2928932 C13.5195704,18.1053568 13.2652165,18 13,18 L8,18 C7.55228475,18 7,17.4477153 7,17 L5,15.5 L5,17 C5,18.5522847 6.44771525,20 8,20 L10.3877551,20 L11.9259259,20 C12.4492636,20 12.6510872,20 12.7804477,20 L15.2928932,22.7071068 Z" id="Reply" fill="#333333" fill-rule="nonzero"></path>
                <path d="M4.00042708,10 C4.0010501,9.99858629 4.00193647,10 4,10 L4.00042708,10 Z M11.4142136,12 L8,15.4142136 L4.58578644,12 L4,12 C2.89736015,12 2,11.1011825 2,10.0029699 L2,3.99703014 C2,2.8917406 2.90000582,2 4.00684547,2 L15.9931545,2 C17.0980352,2 18,2.89728733 18,3.99703014 L18,10.0029699 C18,11.1030865 17.1041196,12 16.009222,12 L11.4142136,12 Z" id="Message" stroke="#333333" stroke-width="2" stroke-linejoin="round"></path>
            </g>
        </g>
    </g>
</svg>