<?xml version="1.0" encoding="UTF-8"?>
<svg width="24px" height="24px" viewBox="0 0 24 24" version="1.1" xmlns="http://www.w3.org/2000/svg" xmlns:xlink="http://www.w3.org/1999/xlink">
    <!-- Generator: Sketch 44.1 (41455) - http://www.bohemiancoding.com/sketch -->
    <title>checkbox-on-alt</title>
    <desc>Created with Sketch.</desc>
    <defs></defs>
    <g id="Page-1" stroke="none" stroke-width="1" fill="none" fill-rule="evenodd">
        <g id="Artboard-4" transform="translate(-620.000000, -1090.000000)" fill="#333333">
            <g id="Extras" transform="translate(48.000000, 1046.000000)">
                <g id="checkbox-alt" transform="translate(572.000000, 44.000000)">
                    <path d="M2,4.99420208 C2,3.34054993 3.34331197,2 4.99420208,2 L19.0057979,2 C20.6594501,2 22,3.34331197 22,4.99420208 L22,19.0057979 C22,20.6594501 20.656688,22 19.0057979,22 L4.99420208,22 C3.34054993,22 2,20.656688 2,19.0057979 L2,4.99420208 Z M8.76822128,12.3598156 C8.4146572,11.9355387 7.7840925,11.8782146 7.3598156,12.2317787 C6.9355387,12.5853428 6.87821464,13.2159075 7.23177872,13.6401844 L9.73177872,16.6401844 C10.1557881,17.1489956 10.9483569,17.1124967 11.3238078,16.5668692 L16.8394176,8.55125944 C17.1524908,8.09628295 17.0374555,7.47365564 16.582479,7.16058242 C16.1275025,6.8475092 15.5048752,6.96254453 15.191802,7.41752102 L10.4238576,14.3465792 L8.76822128,12.3598156 Z" id="Box"></path>
                </g>
            </g>
        </g>
    </g>
</svg>