<?xml version="1.0" encoding="UTF-8"?>
<svg width="24px" height="24px" viewBox="0 0 24 24" version="1.1" xmlns="http://www.w3.org/2000/svg" xmlns:xlink="http://www.w3.org/1999/xlink">
    <!-- Generator: Sketch 44.1 (41455) - http://www.bohemiancoding.com/sketch -->
    <title>circle-cross</title>
    <desc>Created with Sketch.</desc>
    <defs></defs>
    <g id="Page-1" stroke="none" stroke-width="1" fill="none" fill-rule="evenodd">
        <g id="Artboard-4" transform="translate(-356.000000, -1134.000000)">
            <g id="Extras" transform="translate(48.000000, 1046.000000)">
                <g id="no" transform="translate(308.000000, 88.000000)">
                    <circle id="Circle" stroke="#333333" stroke-width="2" cx="12" cy="12" r="10"></circle>
                    <path d="M13,11 L13,7.99539757 C13,7.4556644 12.5522847,7 12,7 C11.4438648,7 11,7.44565467 11,7.99539757 L11,11 L7.99539757,11 C7.4556644,11 7,11.4477153 7,12 C7,12.5561352 7.44565467,13 7.99539757,13 L11,13 L11,16.0046024 C11,16.5443356 11.4477153,17 12,17 C12.5561352,17 13,16.5543453 13,16.0046024 L13,13 L16.0046024,13 C16.5443356,13 17,12.5522847 17,12 C17,11.4438648 16.5543453,11 16.0046024,11 L13,11 Z" id="x" fill="#333333" transform="translate(12.000000, 12.000000) rotate(-45.000000) translate(-12.000000, -12.000000) "></path>
                </g>
            </g>
        </g>
    </g>
</svg>