<?xml version="1.0" encoding="UTF-8"?>
<svg width="24px" height="24px" viewBox="0 0 24 24" version="1.1" xmlns="http://www.w3.org/2000/svg" xmlns:xlink="http://www.w3.org/1999/xlink">
    <!-- Generator: Sketch 44.1 (41455) - http://www.bohemiancoding.com/sketch -->
    <title>city</title>
    <desc>Created with Sketch.</desc>
    <defs></defs>
    <g id="Page-1" stroke="none" stroke-width="1" fill="none" fill-rule="evenodd">
        <g id="Artboard-4" transform="translate(-708.000000, -775.000000)">
            <g id="316" transform="translate(708.000000, 775.000000)">
                <path d="M4,2.99180311 C4,2.44404538 4.4463114,2 4.99754465,2 L12.0024554,2 C12.553384,2 13,2.45530558 13,2.99180311 L13,22 L4.99754465,22 C4.44661595,22 4,21.5446944 4,21.0081969 L4,2.99180311 Z" id="Left-Building" stroke="#333333" stroke-width="2" stroke-linejoin="round"></path>
                <path d="M13,11.0024733 C13,10.4488226 13.3964068,9.77348185 13.8724014,9.50148493 L19.1275986,6.49851507 C19.6094126,6.2231928 20,6.44463086 20,7.00087166 L20,20.9991283 C20,21.5518945 19.5621186,22 18.9970707,22 L13,22 L13,11.0024733 Z" id="Right-Building" stroke="#333333" stroke-width="2" stroke-linejoin="round"></path>
                <path d="M6,4.49047852 C6,4.21959471 6.23193359,4 6.5,4 C6.77614237,4 7,4.21505737 7,4.49047852 L7,7.50952148 C7,7.78040529 6.76806641,8 6.5,8 C6.22385763,8 6,7.78494263 6,7.50952148 L6,4.49047852 Z M6,9.49047852 C6,9.21959471 6.23193359,9 6.5,9 C6.77614237,9 7,9.21505737 7,9.49047852 L7,12.5095215 C7,12.7804053 6.76806641,13 6.5,13 C6.22385763,13 6,12.7849426 6,12.5095215 L6,9.49047852 Z M6,14.4904785 C6,14.2195947 6.23193359,14 6.5,14 C6.77614237,14 7,14.2150574 7,14.4904785 L7,17.5095215 C7,17.7804053 6.76806641,18 6.5,18 C6.22385763,18 6,17.7849426 6,17.5095215 L6,14.4904785 Z M8,4.49047852 C8,4.21959471 8.23193359,4 8.5,4 C8.77614237,4 9,4.21505737 9,4.49047852 L9,7.50952148 C9,7.78040529 8.76806641,8 8.5,8 C8.22385763,8 8,7.78494263 8,7.50952148 L8,4.49047852 Z M8,9.49047852 C8,9.21959471 8.23193359,9 8.5,9 C8.77614237,9 9,9.21505737 9,9.49047852 L9,12.5095215 C9,12.7804053 8.76806641,13 8.5,13 C8.22385763,13 8,12.7849426 8,12.5095215 L8,9.49047852 Z M8,14.4904785 C8,14.2195947 8.23193359,14 8.5,14 C8.77614237,14 9,14.2150574 9,14.4904785 L9,17.5095215 C9,17.7804053 8.76806641,18 8.5,18 C8.22385763,18 8,17.7849426 8,17.5095215 L8,14.4904785 Z M10,4.49047852 C10,4.21959471 10.2319336,4 10.5,4 C10.7761424,4 11,4.21505737 11,4.49047852 L11,7.50952148 C11,7.78040529 10.7680664,8 10.5,8 C10.2238576,8 10,7.78494263 10,7.50952148 L10,4.49047852 Z M10,9.49047852 C10,9.21959471 10.2319336,9 10.5,9 C10.7761424,9 11,9.21505737 11,9.49047852 L11,12.5095215 C11,12.7804053 10.7680664,13 10.5,13 C10.2238576,13 10,12.7849426 10,12.5095215 L10,9.49047852 Z M10,14.4904785 C10,14.2195947 10.2319336,14 10.5,14 C10.7761424,14 11,14.2150574 11,14.4904785 L11,17.5095215 C11,17.7804053 10.7680664,18 10.5,18 C10.2238576,18 10,17.7849426 10,17.5095215 L10,14.4904785 Z M7,19.9989566 C7,19.4472481 7.44266033,19 7.99895656,19 L9.00104344,19 C9.55275191,19 10,19.4426603 10,19.9989566 L10,22 L7,22 L7,19.9989566 Z" id="Left-Windows" fill="#333333"></path>
                <path d="M15,16.5046844 C15,16.2259549 15.2319336,16 15.5,16 C15.7761424,16 16,16.214035 16,16.5046844 L16,17.4953156 C16,17.7740451 15.7680664,18 15.5,18 C15.2238576,18 15,17.785965 15,17.4953156 L15,16.5046844 Z M17,16.5046844 C17,16.2259549 17.2319336,16 17.5,16 C17.7761424,16 18,16.214035 18,16.5046844 L18,17.4953156 C18,17.7740451 17.7680664,18 17.5,18 C17.2238576,18 17,17.785965 17,17.4953156 L17,16.5046844 Z M15,13.5046844 C15,13.2259549 15.2319336,13 15.5,13 C15.7761424,13 16,13.214035 16,13.5046844 L16,14.4953156 C16,14.7740451 15.7680664,15 15.5,15 C15.2238576,15 15,14.785965 15,14.4953156 L15,13.5046844 Z M15,11.5 C15,11.2238576 15.2319336,11 15.5,11 C15.7761424,11 16,11.2319336 16,11.5 C16,11.7761424 15.7680664,12 15.5,12 C15.2238576,12 15,11.7680664 15,11.5 Z M17,13.5046844 C17,13.2259549 17.2319336,13 17.5,13 C17.7761424,13 18,13.214035 18,13.5046844 L18,14.4953156 C18,14.7740451 17.7680664,15 17.5,15 C17.2238576,15 17,14.785965 17,14.4953156 L17,13.5046844 Z M17,10.5046844 C17,10.2259549 17.2319336,10 17.5,10 C17.7761424,10 18,10.214035 18,10.5046844 L18,11.4953156 C18,11.7740451 17.7680664,12 17.5,12 C17.2238576,12 17,11.785965 17,11.4953156 L17,10.5046844 Z M15,19.9989566 C15,19.4472481 15.4426603,19 15.9989566,19 L17.0010434,19 C17.5527519,19 18,19.4426603 18,19.9989566 L18,22 L15,22 L15,19.9989566 Z" id="Right-Windows" fill="#333333"></path>
            </g>
        </g>
    </g>
</svg>