<?xml version="1.0" encoding="UTF-8"?>
<svg width="24px" height="24px" viewBox="0 0 24 24" version="1.1" xmlns="http://www.w3.org/2000/svg" xmlns:xlink="http://www.w3.org/1999/xlink">
    <!-- Generator: Sketch 44.1 (41455) - http://www.bohemiancoding.com/sketch -->
    <title>coffin</title>
    <desc>Created with Sketch.</desc>
    <defs></defs>
    <g id="Page-1" stroke="none" stroke-width="1" fill="none" fill-rule="evenodd">
        <g id="Artboard-4" transform="translate(-400.000000, -467.000000)">
            <g id="169" transform="translate(400.000000, 467.000000)">
                <polygon id="Body" stroke="#333333" stroke-width="2" stroke-linecap="round" stroke-linejoin="round" points="8 1 16 1 19 8 15 23 9 23 5 8"></polygon>
                <path d="M13,8 L13,5.99539757 C13,5.4556644 12.5522847,5 12,5 C11.4438648,5 11,5.44565467 11,5.99539757 L11,8 L8.99703014,8 C8.45303631,8 8,8.44771525 8,9 C8,9.55613518 8.4463856,10 8.99703014,10 L11,10 L11,14.0046024 C11,14.5443356 11.4477153,15 12,15 C12.5561352,15 13,14.5543453 13,14.0046024 L13,10 L15.0029699,10 C15.5469637,10 16,9.55228475 16,9 C16,8.44386482 15.5536144,8 15.0029699,8 L13,8 Z" id="cross" fill="#333333"></path>
            </g>
        </g>
    </g>
</svg>