<?xml version="1.0" encoding="UTF-8"?>
<svg width="24px" height="24px" viewBox="0 0 24 24" version="1.1" xmlns="http://www.w3.org/2000/svg" xmlns:xlink="http://www.w3.org/1999/xlink">
    <!-- Generator: Sketch 44.1 (41455) - http://www.bohemiancoding.com/sketch -->
    <title>coin-pound</title>
    <desc>Created with Sketch.</desc>
    <defs></defs>
    <g id="Page-1" stroke="none" stroke-width="1" fill="none" fill-rule="evenodd">
        <g id="Artboard-4" transform="translate(-532.000000, -1134.000000)">
            <g id="Extras" transform="translate(48.000000, 1046.000000)">
                <g id="pound-coin" transform="translate(484.000000, 88.000000)">
                    <circle id="Coin" stroke="#333333" stroke-width="2" cx="12" cy="12" r="10"></circle>
                    <circle id="Inset" stroke="#333333" cx="12" cy="12" r="7.5"></circle>
                    <path d="M9.486,14.496 C9.486,14.775 9.711,15 10.044,15 L13.815,15 C14.148,15 14.418,14.739 14.418,14.406 C14.418,14.073 14.148,13.803 13.815,13.803 L11.628,13.803 L11.628,12.597 L13.158,12.597 C13.473,12.597 13.734,12.345 13.734,12.03 C13.734,11.715 13.473,11.454 13.158,11.454 L11.628,11.454 L11.628,10.761 C11.628,10.473 11.718,10.239 11.862,10.095 C11.997,9.96 12.159,9.897 12.375,9.897 C12.672,9.897 12.888,10.014 13.122,10.257 C13.212,10.347 13.374,10.464 13.617,10.464 C13.995,10.464 14.301,10.167 14.301,9.789 C14.301,9.564 14.211,9.42 14.085,9.294 C13.689,8.889 13.158,8.61 12.357,8.61 C11.664,8.61 11.133,8.817 10.764,9.186 C10.413,9.537 10.224,10.077 10.224,10.725 L10.224,11.454 L10.062,11.454 C9.747,11.454 9.486,11.715 9.486,12.03 C9.486,12.345 9.747,12.597 10.062,12.597 L10.224,12.597 L10.224,13.866 L9.864,13.983 C9.621,14.064 9.486,14.271 9.486,14.496 Z" id="Pound-Sign" fill="#333333"></path>
                </g>
            </g>
        </g>
    </g>
</svg>