<?xml version="1.0" encoding="UTF-8"?>
<svg width="24px" height="24px" viewBox="0 0 24 24" version="1.1" xmlns="http://www.w3.org/2000/svg" xmlns:xlink="http://www.w3.org/1999/xlink">
    <!-- Generator: Sketch 44.1 (41455) - http://www.bohemiancoding.com/sketch -->
    <title>coin-dollar</title>
    <desc>Created with Sketch.</desc>
    <defs></defs>
    <g id="Page-1" stroke="none" stroke-width="1" fill="none" fill-rule="evenodd">
        <g id="Artboard-4" transform="translate(-576.000000, -1134.000000)">
            <g id="Extras" transform="translate(48.000000, 1046.000000)">
                <g id="dollar-coin" transform="translate(528.000000, 88.000000)">
                    <circle id="Coin" stroke="#333333" stroke-width="2" cx="12" cy="12" r="10"></circle>
                    <circle id="Inset" stroke="#333333" cx="12" cy="12" r="7.5"></circle>
                    <path d="M11.618978,8.592 C11.618978,8.331 11.825978,8.124 12.086978,8.124 C12.347978,8.124 12.554978,8.331 12.554978,8.592 L12.554978,8.718 C13.040978,8.79 13.472978,8.934 13.859978,9.15 C14.030978,9.249 14.183978,9.42 14.183978,9.69 C14.183978,10.032 13.913978,10.293 13.571978,10.293 C13.463978,10.293 13.355978,10.266 13.256978,10.212 C13.004978,10.077 12.752978,9.969 12.509978,9.906 L12.509978,11.274 C13.877978,11.643 14.462978,12.201 14.462978,13.209 C14.462978,14.217 13.688978,14.865 12.554978,14.991 L12.554978,15.468 C12.554978,15.729 12.347978,15.936 12.086978,15.936 C11.825978,15.936 11.618978,15.729 11.618978,15.468 L11.618978,14.982 C10.979978,14.901 10.376978,14.676 9.84597803,14.352 C9.65697803,14.235 9.53997803,14.055 9.53997803,13.812 C9.53997803,13.461 9.80997803,13.2 10.160978,13.2 C10.277978,13.2 10.403978,13.245 10.511978,13.317 C10.889978,13.56 11.249978,13.731 11.663978,13.821 L11.663978,12.39 C10.367978,12.039 9.72897803,11.544 9.72897803,10.473 C9.72897803,9.483 10.484978,8.817 11.618978,8.7 L11.618978,8.592 Z M13.148978,13.281 C13.148978,12.984 12.995978,12.786 12.509978,12.615 L12.509978,13.866 C12.932978,13.803 13.148978,13.605 13.148978,13.281 Z M11.042978,10.392 C11.042978,10.671 11.168978,10.86 11.663978,11.04 L11.663978,9.825 C11.231978,9.888 11.042978,10.104 11.042978,10.392 Z" id="Dollar-Sign" fill="#333333"></path>
                </g>
            </g>
        </g>
    </g>
</svg>