<?xml version="1.0" encoding="UTF-8"?>
<svg width="24px" height="24px" viewBox="0 0 24 24" version="1.1" xmlns="http://www.w3.org/2000/svg" xmlns:xlink="http://www.w3.org/1999/xlink">
    <!-- Generator: Sketch 44.1 (41455) - http://www.bohemiancoding.com/sketch -->
    <title>command</title>
    <desc>Created with Sketch.</desc>
    <defs></defs>
    <g id="Page-1" stroke="none" stroke-width="1" fill="none" fill-rule="evenodd">
        <g id="Artboard-4" transform="translate(-884.000000, -687.000000)" stroke="#333333" stroke-width="2">
            <g id="280" transform="translate(884.000000, 687.000000)">
                <path d="M15,18 C15,19.6568542 16.3431458,21 18,21 C19.6568542,21 21,19.6568542 21,18 C21,16.3431458 19.6568542,15 18,15 L6,15 C4.34314575,15 3,16.3431458 3,18 C3,19.6568542 4.34314575,21 6,21 C7.65685425,21 9,19.6568542 9,18.0104121 L9,6 C9,4.34314575 7.65685425,3 6,3 C4.34314575,3 3,4.34314575 3,6 C3,7.65685425 4.34314575,9 6,9 L18,9 C19.6568542,9 21,7.65685425 21,6 C21,4.34314575 19.6568542,3 18,3 C16.3431458,3 15,4.34314575 15,6 L15,18 Z" id="Oval-151"></path>
            </g>
        </g>
    </g>
</svg>