<?xml version="1.0" encoding="UTF-8"?>
<svg width="24px" height="24px" viewBox="0 0 24 24" version="1.1" xmlns="http://www.w3.org/2000/svg" xmlns:xlink="http://www.w3.org/1999/xlink">
    <!-- Generator: Sketch 44.1 (41455) - http://www.bohemiancoding.com/sketch -->
    <title>controller</title>
    <desc>Created with Sketch.</desc>
    <defs></defs>
    <g id="Page-1" stroke="none" stroke-width="1" fill="none" fill-rule="evenodd">
        <g id="Artboard-4" transform="translate(-664.000000, -511.000000)">
            <g id="195" transform="translate(664.000000, 511.000000)">
                <path d="M6,11 C3.23857625,11 1,13.2385763 1,16 C1,18.7614237 3.23857625,21 6,21 C7.63581783,21 9.08815986,20.2144467 10.0003662,19 L13.9996338,19 C14.9118401,20.2144467 16.3641822,21 18,21 C20.7614237,21 23,18.7614237 23,16 C23,13.2385763 20.7614237,11 18,11 L6,11 Z" id="Body" stroke="#333333" stroke-width="2"></path>
                <path d="M18,15 C17.4477153,15 17,14.5522847 17,14 C17,13.4477153 17.4477153,13 18,13 C18.5522847,13 19,13.4477153 19,14 C19,14.5522847 18.5522847,15 18,15 Z M20,17 C19.4477153,17 19,16.5522847 19,16 C19,15.4477153 19.4477153,15 20,15 C20.5522847,15 21,15.4477153 21,16 C21,16.5522847 20.5522847,17 20,17 Z M16,17 C15.4477153,17 15,16.5522847 15,16 C15,15.4477153 15.4477153,15 16,15 C16.5522847,15 17,15.4477153 17,16 C17,16.5522847 16.5522847,17 16,17 Z M18,19 C17.4477153,19 17,18.5522847 17,18 C17,17.4477153 17.4477153,17 18,17 C18.5522847,17 19,17.4477153 19,18 C19,18.5522847 18.5522847,19 18,19 Z" id="Buttons" fill="#333333"></path>
                <path d="M7,15 L7,13.990778 C7,13.4509752 6.55228475,13 6,13 C5.44386482,13 5,13.4435864 5,13.990778 L5,15 L3.99077797,15 C3.45097518,15 3,15.4477153 3,16 C3,16.5561352 3.44358641,17 3.99077797,17 L5,17 L5,18.009222 C5,18.5490248 5.44771525,19 6,19 C6.55613518,19 7,18.5564136 7,18.009222 L7,17 L8.00922203,17 C8.54902482,17 9,16.5522847 9,16 C9,15.4438648 8.55641359,15 8.00922203,15 L7,15 Z" id="Arrows" fill="#333333"></path>
                <path d="M12,11 L12,10.0010434 C12,8.89589766 11.1017394,8 10.0020869,8 L7.49857602,8 C6.67093534,8 6,7.33420277 6,6.5 L6,6.5 C6,5.67157288 6.67955446,5 7.49554521,5 L15.9914698,5 C17.1007504,5 18,4.10529494 18,3 L18,3" id="Cable" stroke="#333333" stroke-width="2" stroke-linecap="round" stroke-linejoin="round"></path>
            </g>
        </g>
    </g>
</svg>