<?xml version="1.0" encoding="UTF-8"?>
<svg width="24px" height="24px" viewBox="0 0 24 24" version="1.1" xmlns="http://www.w3.org/2000/svg" xmlns:xlink="http://www.w3.org/1999/xlink">
    <!-- Generator: Sketch 44.1 (41455) - http://www.bohemiancoding.com/sketch -->
    <title>cutlery</title>
    <desc>Created with Sketch.</desc>
    <defs></defs>
    <g id="Page-1" stroke="none" stroke-width="1" fill="none" fill-rule="evenodd">
        <g id="Artboard-4" transform="translate(-136.000000, -775.000000)" fill-rule="nonzero" fill="#333333">
            <g id="303" transform="translate(136.000000, 775.000000)">
                <path d="M6.49691952,0.208122692 C6.80425333,0.074116772 7.14364742,7.84068858e-14 7.5,4.57411886e-14 C7.8532183,1.35576557e-14 8.19065301,0.0742123517 8.49691952,0.208122692 C8.80425333,0.074116772 9.14364742,8.46940321e-14 9.5,6.75015599e-14 C10.872827,-7.26795328e-16 12,1.12062984 12,2.50264359 L12,7 C12,8.65668024 11.6642436,9.73856188 10.9649859,10.9039915 C10.9205298,10.978085 10.7720298,11.220585 10.7429859,11.2689915 C10.5380212,11.6105993 10.5,11.7214944 10.5,12 C10.5,12.6882583 10.55373,14.0527112 10.6469734,15.8641764 C10.664138,16.1976388 10.6824521,16.5425289 10.7017619,16.8967581 C10.746337,17.7144673 10.794122,18.5443804 10.8419076,19.3431802 C10.8586314,19.6227415 10.8741571,19.8783865 10.8880843,20.1047195 C10.9023901,20.3360943 10.9023901,20.3360943 10.9058292,20.3908871 C11.0249242,22.3663724 9.47788483,24 7.5,24 C5.51693703,24 3.97406319,22.3656884 4.09448895,20.3857212 C4.09760993,20.3360943 4.09760993,20.3360943 4.11191567,20.1047195 C4.12584286,19.8783865 4.14136862,19.6227415 4.15809243,19.3431802 C4.20587796,18.5443804 4.25366301,17.7144673 4.29823808,16.8967581 C4.31754787,16.5425289 4.33586201,16.1976388 4.35302665,15.8641764 C4.44626996,14.0527112 4.5,12.6882583 4.5,12 C4.5,11.7214944 4.46197882,11.6105993 4.25701415,11.2689915 C4.22797024,11.220585 4.07947024,10.978085 4.03501415,10.9039915 C3.33575637,9.73856188 3,8.65668024 3,7 L3,2.50264359 C3,1.11824284 4.11790737,1.15578661e-13 5.5,0 C5.8532183,-2.98429123e-14 6.19065301,0.0742123517 6.49691952,0.208122692 Z M5,7 C5,10 6.5,10 6.5,12 C6.5,14 6.09054623,20.5112415 6.09054623,20.5112415 C6.04053893,21.3334601 6.66579723,22 7.5,22 C8.32842712,22 8.9590829,21.3344635 8.90945377,20.5112415 C8.90945377,20.5112415 8.5,14 8.5,12 C8.5,10 10,10 10,7 L10,2.50264359 C10,2.2250412 9.76806641,2 9.5,2 C9.22385763,2 9,2.21484375 9,2.49769878 L9,6.50230122 C9,6.77717266 8.76806641,7 8.5,7 C8.22385763,7 8,6.78515625 8,6.50230122 L8,2.49769878 C8,2.22282734 7.76806641,2 7.5,2 C7.22385763,2 7,2.21484375 7,2.49769878 L7,6.50230122 C7,6.77717266 6.76806641,7 6.5,7 C6.22385763,7 6,6.78515625 6,6.50230122 L6,2.49769878 C6,2.22282734 5.76806641,2 5.5,2 C5.22385763,2 5,2.22143126 5,2.50264359 L5,7 Z" id="Fork"></path>
                <path d="M17.4496076,21.999182 C17.4662897,21.999726 17.4830884,22 17.5,22 L17.5,24 L17.3974865,24 L17.3974865,22 C17.4149739,22 17.4323487,21.999726 17.4496076,21.999182 Z M17.1689647,2.86829415 C15.8367791,4.06726118 15,6.32656486 15,10 C15,10.5804628 15.2553237,11.0911101 15.7071068,11.5428932 C15.9957794,11.8315659 16.2855186,12.0247253 16.4472136,12.1055728 C16.8183468,12.2911394 17.0363252,12.6866234 16.9950372,13.0995037 L16.2435131,20.614745 C16.1666228,21.3836472 16.6859342,21.9742808 17.4496076,21.999182 C18.2703287,21.9733131 18.8286921,21.3367964 18.7461375,20.5112503 L18,13 L18,2.29842421 C17.7187271,2.43758745 17.439413,2.62489067 17.1689647,2.86829415 Z M14.2534387,20.4157376 L14.9433449,13.5166756 C14.7356971,13.3645346 14.5144181,13.1786317 14.2928932,12.9571068 C13.4946763,12.1588899 13,11.1695372 13,10 C13,5.79843514 14.0382209,2.99523882 15.8310353,1.38170585 C16.975302,0.351865792 18.148188,0 19,0 C19.5522847,0 20,0.44771525 20,1 L19.9950372,12.9004963 L20.7362119,20.3122429 C20.9298795,22.2489195 19.5515016,23.8621247 17.6456983,23.9916178 C17.5807747,23.9960291 17.515239,23.9987186 17.4491325,23.9996403 C17.4319554,23.9998798 17.4147399,24 17.3974865,24 C17.3451226,24 17.2948152,23.9969153 17.2465643,23.9909881 C16.0662096,23.8459931 16.116517,22 17.3974865,22 L17.5,22 C18.7828563,22 18.8314224,23.8514353 17.6456983,23.9916178 C17.5990432,23.9971336 17.5504771,24 17.5,24 C17.4830066,24 17.4660505,23.9998798 17.4491325,23.9996403 C17.3809756,23.9986755 17.3134366,23.9957736 17.2465643,23.9909881 C15.4026452,23.8590339 14.065522,22.2949043 14.2534387,20.4157376 Z" id="Knife"></path>
            </g>
        </g>
    </g>
</svg>