<?xml version="1.0" encoding="UTF-8"?>
<svg width="24px" height="24px" viewBox="0 0 24 24" version="1.1" xmlns="http://www.w3.org/2000/svg" xmlns:xlink="http://www.w3.org/1999/xlink">
    <!-- Generator: Sketch 44.1 (41455) - http://www.bohemiancoding.com/sketch -->
    <title>donut</title>
    <desc>Created with Sketch.</desc>
    <defs></defs>
    <g id="Page-1" stroke="none" stroke-width="1" fill="none" fill-rule="evenodd">
        <g id="Artboard-4" transform="translate(-92.000000, -423.000000)">
            <g id="142" transform="translate(92.000000, 423.000000)">
                <path d="M21.5583303,9.05186053 C20.300184,4.96799577 16.4966983,2 12,2 C6.4771525,2 2,6.4771525 2,12 C2,17.5228475 6.4771525,22 12,22 C13.7496148,22 15.3942841,21.5506749 16.8249099,20.7611227 C15.7520807,20.3039611 15,19.2398095 15,18 C15,17.9432668 15.0015748,17.8869014 15.0046831,17.8309451 C13.8370451,17.4204339 13,16.3079681 13,15 C13,14.942125 13.0016388,14.8846328 13.0048726,14.8275673 C12.6907178,14.9392192 12.3524569,15 12,15 C10.3431458,15 9,13.6568542 9,12 C9,10.3431458 10.3431458,9 12,9 C13.3230719,9 14.4461003,9.8564883 14.8448847,11.0452645 C15.486762,10.4053018 16.4381607,10 17.5,10 C17.8955627,10 18.275799,10.056246 18.6304168,10.1599163 C19.1793094,9.45409338 20.0366251,9 21,9 C21.190794,9 21.3774281,9.01781083 21.5583303,9.05186053 Z" id="donut" stroke="#333333" stroke-width="2" stroke-linecap="round" stroke-linejoin="round"></path>
                <path d="M6.5,7 C6.22385763,7 6,6.77614237 6,6.5 C6,6.22385763 6.22385763,6 6.5,6 C6.77614237,6 7,6.22385763 7,6.5 C7,6.77614237 6.77614237,7 6.5,7 Z M7.5,9 C7.22385763,9 7,8.77614237 7,8.5 C7,8.22385763 7.22385763,8 7.5,8 C7.77614237,8 8,8.22385763 8,8.5 C8,8.77614237 7.77614237,9 7.5,9 Z M9.5,5 C9.22385763,5 9,4.77614237 9,4.5 C9,4.22385763 9.22385763,4 9.5,4 C9.77614237,4 10,4.22385763 10,4.5 C10,4.77614237 9.77614237,5 9.5,5 Z M11.5,7 C11.2238576,7 11,6.77614237 11,6.5 C11,6.22385763 11.2238576,6 11.5,6 C11.7761424,6 12,6.22385763 12,6.5 C12,6.77614237 11.7761424,7 11.5,7 Z M14.5,5 C14.2238576,5 14,4.77614237 14,4.5 C14,4.22385763 14.2238576,4 14.5,4 C14.7761424,4 15,4.22385763 15,4.5 C15,4.77614237 14.7761424,5 14.5,5 Z M15.5,8 C15.2238576,8 15,7.77614237 15,7.5 C15,7.22385763 15.2238576,7 15.5,7 C15.7761424,7 16,7.22385763 16,7.5 C16,7.77614237 15.7761424,8 15.5,8 Z M18.5,9 C18.2238576,9 18,8.77614237 18,8.5 C18,8.22385763 18.2238576,8 18.5,8 C18.7761424,8 19,8.22385763 19,8.5 C19,8.77614237 18.7761424,9 18.5,9 Z M12.5,18 C12.2238576,18 12,17.7761424 12,17.5 C12,17.2238576 12.2238576,17 12.5,17 C12.7761424,17 13,17.2238576 13,17.5 C13,17.7761424 12.7761424,18 12.5,18 Z M9.5,17 C9.22385763,17 9,16.7761424 9,16.5 C9,16.2238576 9.22385763,16 9.5,16 C9.77614237,16 10,16.2238576 10,16.5 C10,16.7761424 9.77614237,17 9.5,17 Z M5.5,17 C5.22385763,17 5,16.7761424 5,16.5 C5,16.2238576 5.22385763,16 5.5,16 C5.77614237,16 6,16.2238576 6,16.5 C6,16.7761424 5.77614237,17 5.5,17 Z M5.5,14 C5.22385763,14 5,13.7761424 5,13.5 C5,13.2238576 5.22385763,13 5.5,13 C5.77614237,13 6,13.2238576 6,13.5 C6,13.7761424 5.77614237,14 5.5,14 Z M10.5,20 C10.2238576,20 10,19.7761424 10,19.5 C10,19.2238576 10.2238576,19 10.5,19 C10.7761424,19 11,19.2238576 11,19.5 C11,19.7761424 10.7761424,20 10.5,20 Z M7.5,12 C7.22385763,12 7,11.7761424 7,11.5 C7,11.2238576 7.22385763,11 7.5,11 C7.77614237,11 8,11.2238576 8,11.5 C8,11.7761424 7.77614237,12 7.5,12 Z M4.5,11 C4.22385763,11 4,10.7761424 4,10.5 C4,10.2238576 4.22385763,10 4.5,10 C4.77614237,10 5,10.2238576 5,10.5 C5,10.7761424 4.77614237,11 4.5,11 Z M17.5,6 C17.2238576,6 17,5.77614237 17,5.5 C17,5.22385763 17.2238576,5 17.5,5 C17.7761424,5 18,5.22385763 18,5.5 C18,5.77614237 17.7761424,6 17.5,6 Z" id="sugar" fill="#333333" opacity="0.5"></path>
                <path d="M20.5,13 C20.2238576,13 20,12.7761424 20,12.5 C20,12.2238576 20.2238576,12 20.5,12 C20.7761424,12 21,12.2238576 21,12.5 C21,12.7761424 20.7761424,13 20.5,13 Z M22.5,22 C22.2238576,22 22,21.7761424 22,21.5 C22,21.2238576 22.2238576,21 22.5,21 C22.7761424,21 23,21.2238576 23,21.5 C23,21.7761424 22.7761424,22 22.5,22 Z M17,15 C16.4477153,15 16,14.5522847 16,14 C16,13.4477153 16.4477153,13 17,13 C17.5522847,13 18,13.4477153 18,14 C18,14.5522847 17.5522847,15 17,15 Z M22,18 C21.4477153,18 21,17.5522847 21,17 C21,16.4477153 21.4477153,16 22,16 C22.5522847,16 23,16.4477153 23,17 C23,17.5522847 22.5522847,18 22,18 Z M18.5,19 C18.2238576,19 18,18.7761424 18,18.5 C18,18.2238576 18.2238576,18 18.5,18 C18.7761424,18 19,18.2238576 19,18.5 C19,18.7761424 18.7761424,19 18.5,19 Z" id="crumbs" fill="#333333"></path>
            </g>
        </g>
    </g>
</svg>