<?xml version="1.0" encoding="UTF-8"?>
<svg width="24px" height="24px" viewBox="0 0 24 24" version="1.1" xmlns="http://www.w3.org/2000/svg" xmlns:xlink="http://www.w3.org/1999/xlink">
    <!-- Generator: Sketch 44.1 (41455) - http://www.bohemiancoding.com/sketch -->
    <title>egg-timer</title>
    <desc>Created with Sketch.</desc>
    <defs></defs>
    <g id="Page-1" stroke="none" stroke-width="1" fill="none" fill-rule="evenodd">
        <g id="Artboard-4" transform="translate(-488.000000, -863.000000)">
            <g id="351" transform="translate(488.000000, 863.000000)">
                <rect id="Top" fill="#333333" x="3" y="1" width="18" height="3" rx="1.5"></rect>
                <rect id="Bottom" fill="#333333" x="3" y="20" width="18" height="3" rx="1.5"></rect>
                <path d="M6,3 C7,3 17,3 18,3 C18,3.14742588 17.9908674,3.29095201 17.9910923,3.43154396 C18,9 13,9.07371294 13,12 C13,15 18,15 18,21 C17,21 7,21 6,21 C6,15 11,15 11,12 C11,9 6,8 6,3 Z" id="Glass" stroke="#333333" stroke-width="2"></path>
                <path d="M7,6 L17,6 L13,12 L13,20 C13,20 11.1414197,20.5656786 11,20 C10.8585803,19.4343214 11,12 11,12 L7,6 Z" id="Sand" fill="#333333" opacity="0.200000003"></path>
            </g>
        </g>
    </g>
</svg>