<?xml version="1.0" encoding="UTF-8"?>
<svg width="24px" height="24px" viewBox="0 0 24 24" version="1.1" xmlns="http://www.w3.org/2000/svg" xmlns:xlink="http://www.w3.org/1999/xlink">
    <!-- Generator: Sketch 44.1 (41455) - http://www.bohemiancoding.com/sketch -->
    <title>emoji-happy</title>
    <desc>Created with Sketch.</desc>
    <defs></defs>
    <g id="Page-1" stroke="none" stroke-width="1" fill="none" fill-rule="evenodd">
        <g id="Artboard-4" transform="translate(-884.000000, -643.000000)">
            <g id="260" transform="translate(884.000000, 643.000000)">
                <path d="M12,23 C5.92486775,23 1,18.0751322 1,12 C1,5.92486775 5.92486775,1 12,1 C18.0751322,1 23,5.92486775 23,12 C23,18.0751322 18.0751322,23 12,23 Z M12,21 C16.9705627,21 21,16.9705627 21,12 C21,7.02943725 16.9705627,3 12,3 C7.02943725,3 3,7.02943725 3,12 C3,16.9705627 7.02943725,21 12,21 Z" id="Face" fill="#333333"></path>
                <path d="M7.11357013,12.9759199 C7.05084708,12.4369342 7.4556644,12 7.99539757,12 L16.0046024,12 C16.5543453,12 16.9690583,12.4437166 16.8840639,12.9878391 C16.8840639,12.9878391 17,17 12,17 C7,17 7.11357013,12.9759199 7.11357013,12.9759199 Z" id="Mouth" stroke="#333333" stroke-width="2" stroke-linecap="round" stroke-linejoin="round"></path>
                <path d="M17,8.5 C17,7.75 16.5,7 15.5,7 C14.5,7 14,7.75 14,8.5" id="Right-Eye" stroke="#333333" stroke-width="2" stroke-linecap="round" stroke-linejoin="round"></path>
                <path d="M10,8.5 C10,7.75 9.5,7 8.5,7 C7.5,7 7,7.75 7,8.5" id="Left-Eye" stroke="#333333" stroke-width="2" stroke-linecap="round" stroke-linejoin="round"></path>
            </g>
        </g>
    </g>
</svg>