<?xml version="1.0" encoding="UTF-8"?>
<svg width="24px" height="24px" viewBox="0 0 24 24" version="1.1" xmlns="http://www.w3.org/2000/svg" xmlns:xlink="http://www.w3.org/1999/xlink">
    <!-- Generator: Sketch 44.1 (41455) - http://www.bohemiancoding.com/sketch -->
    <title>emoji-angry</title>
    <desc>Created with Sketch.</desc>
    <defs></defs>
    <g id="Page-1" stroke="none" stroke-width="1" fill="none" fill-rule="evenodd">
        <g id="Artboard-4" transform="translate(-48.000000, -687.000000)">
            <g id="261" transform="translate(48.000000, 687.000000)">
                <path d="M12,23 C5.92486775,23 1,18.0751322 1,12 C1,5.92486775 5.92486775,1 12,1 C18.0751322,1 23,5.92486775 23,12 C23,18.0751322 18.0751322,23 12,23 Z M12,21 C16.9705627,21 21,16.9705627 21,12 C21,7.02943725 16.9705627,3 12,3 C7.02943725,3 3,7.02943725 3,12 C3,16.9705627 7.02943725,21 12,21 Z" id="Face" fill="#333333"></path>
                <path d="M9,17 C9.5,17.5 10,18 12,18 C14,18 14.5,17.5 15,17" id="Mouth" stroke="#333333" stroke-width="2" stroke-linecap="round" stroke-linejoin="round" transform="translate(12.000000, 17.500000) scale(1, -1) translate(-12.000000, -17.500000) "></path>
                <path d="M8.5,15 C7.67157288,15 7,14.3284271 7,13.5 C7,12.6715729 7.67157288,12 8.5,12 C9.32842712,12 10,12.6715729 10,13.5 C10,14.3284271 9.32842712,15 8.5,15 Z M15.5,15 C14.6715729,15 14,14.3284271 14,13.5 C14,12.6715729 14.6715729,12 15.5,12 C16.3284271,12 17,12.6715729 17,13.5 C17,14.3284271 16.3284271,15 15.5,15 Z" id="Eyes" fill="#333333"></path>
                <path d="M14,13 L18,11" id="Right-Eyebrow" stroke="#333333" stroke-width="2" stroke-linecap="round" stroke-linejoin="round"></path>
                <path d="M6,13 L10,11" id="Left-Eyebrow" stroke="#333333" stroke-width="2" stroke-linecap="round" stroke-linejoin="round" transform="translate(8.000000, 12.000000) scale(-1, 1) translate(-8.000000, -12.000000) "></path>
            </g>
        </g>
    </g>
</svg>