<?xml version="1.0" encoding="UTF-8"?>
<svg width="24px" height="24px" viewBox="0 0 24 24" version="1.1" xmlns="http://www.w3.org/2000/svg" xmlns:xlink="http://www.w3.org/1999/xlink">
    <!-- Generator: Sketch 44.1 (41455) - http://www.bohemiancoding.com/sketch -->
    <title>eye-dropper</title>
    <desc>Created with Sketch.</desc>
    <defs></defs>
    <g id="Page-1" stroke="none" stroke-width="1" fill="none" fill-rule="evenodd">
        <g id="Artboard-4" transform="translate(-400.000000, -687.000000)">
            <g id="269" transform="translate(399.000000, 687.000000)">
                <g id="eyedropper" transform="translate(12.900820, 12.100832) rotate(-315.000000) translate(-12.900820, -12.100832) translate(8.900820, -0.899168)">
                    <g id="Group-7" transform="translate(-1.000000, 0.000000)">
                        <path d="M2,2.99686968 C2,1.34174426 3.34651712,0 5,0 L5,0 C6.65685425,0 8,1.34739093 8,2.99686968 L8,9 L2,9 L2,2.99686968 Z" id="Rectangle-194" fill="#333333"></path>
                        <rect id="Rectangle-195" fill="#333333" x="0" y="6" width="10" height="3" rx="1.5"></rect>
                        <path d="M2,8 L2,20.9931545 C2,21.5492199 2.36785889,22.2609406 2.80394495,22.5948381 C2.80394495,22.5948381 5,24 5,25.5 C5,24 7.19605505,22.5948381 7.19605505,22.5948381 C7.64006159,22.2663181 8,21.5500512 8,20.9931545 L8,8" id="Path-207" stroke="#333333" stroke-width="2" stroke-linejoin="round"></path>
                    </g>
                </g>
            </g>
        </g>
    </g>
</svg>