<?xml version="1.0" encoding="UTF-8"?>
<svg width="24px" height="24px" viewBox="0 0 24 24" version="1.1" xmlns="http://www.w3.org/2000/svg" xmlns:xlink="http://www.w3.org/1999/xlink">
    <!-- Generator: Sketch 44.1 (41455) - http://www.bohemiancoding.com/sketch -->
    <title>eye</title>
    <desc>Created with Sketch.</desc>
    <defs></defs>
    <g id="Page-1" stroke="none" stroke-width="1" fill="none" fill-rule="evenodd">
        <g id="Artboard-4" transform="translate(-268.000000, -203.000000)" stroke="#333333" stroke-width="2">
            <g id="46" transform="translate(268.000000, 203.000000)">
                <path d="M2,12 C2,12 5,5 12,5 C19,5 22,12 22,12 C22,12 19,19 12,19 C5,19 2,12 2,12 Z" id="Eye" stroke-linejoin="round"></path>
                <circle id="Iris" cx="12" cy="12" r="3"></circle>
                <path d="M12,5 L12,3" id="Path-81" stroke-linecap="round"></path>
                <path d="M18,6.5 L19,5" id="Path-81" stroke-linecap="round"></path>
                <path d="M21,10 L22.5,9" id="Path-81" stroke-linecap="round"></path>
                <path d="M1.5,10 L3,9" id="Path-81" stroke-linecap="round" transform="translate(2.250000, 9.500000) scale(1, -1) translate(-2.250000, -9.500000) "></path>
                <path d="M5,6.5 L6,5" id="Path-81" stroke-linecap="round" transform="translate(5.500000, 5.750000) scale(-1, 1) translate(-5.500000, -5.750000) "></path>
            </g>
        </g>
    </g>
</svg>