<?xml version="1.0" encoding="UTF-8"?>
<svg width="24px" height="24px" viewBox="0 0 24 24" version="1.1" xmlns="http://www.w3.org/2000/svg" xmlns:xlink="http://www.w3.org/1999/xlink">
    <!-- Generator: Sketch 44.1 (41455) - http://www.bohemiancoding.com/sketch -->
    <title>facebook</title>
    <desc>Created with Sketch.</desc>
    <defs></defs>
    <g id="Page-1" stroke="none" stroke-width="1" fill="none" fill-rule="evenodd" stroke-linejoin="round">
        <g id="Artboard-4" transform="translate(-796.000000, -863.000000)" stroke="#333333" stroke-width="2">
            <g id="358" transform="translate(796.000000, 863.000000)">
                <path d="M18,1.5 C18,1.5 16.4999664,1 15.5,1 C12,1 9,3 9,6 L9,9 L6.0093689,9 C5.45190985,9 5,9.44335318 5,10.0093689 L5,11.9906311 C5,12.5480902 5.44335318,13 6.0093689,13 L9,13 L9,22.0046024 C9,22.5543453 9.44335318,23 10.0093689,23 L11.9906311,23 C12.5480902,23 13,22.5443356 13,22.0046024 L13,13 L15.9906311,13 C16.5480902,13 17.1070175,12.5719299 17.2420721,12.0317116 L17.7579279,9.96828842 C17.8916206,9.43351749 17.5562834,9 17.0001925,9 L13,9 L13,7 C13,5.8954305 13.8938998,5 15.0048815,5 L18,5 L18,1.5 Z" id="f"></path>
            </g>
        </g>
    </g>
</svg>