<?xml version="1.0" encoding="UTF-8"?>
<svg width="24px" height="24px" viewBox="0 0 24 24" version="1.1" xmlns="http://www.w3.org/2000/svg" xmlns:xlink="http://www.w3.org/1999/xlink">
    <!-- Generator: Sketch 44.1 (41455) - http://www.bohemiancoding.com/sketch -->
    <title>fingerprint</title>
    <desc>Created with Sketch.</desc>
    <defs></defs>
    <g id="Page-1" stroke="none" stroke-width="1" fill="none" fill-rule="evenodd" stroke-linecap="round">
        <g id="Artboard-4" transform="translate(-312.000000, -599.000000)" stroke="#333333" stroke-width="2">
            <g id="227" transform="translate(312.000000, 599.000000)">
                <path d="M20.5,15.5 C20.5,15.5 21,14 21,12 C21,11.163846 20.8859735,10.3543243 20.672622,9.58613647 M19.5084398,7.03602414 C17.8972498,4.60385304 15.1359249,3 12,3 M9.47876122,3.35792388 C5.73536732,4.44817614 3,7.90464844 3,12" id="Oval-132"></path>
                <path d="M16,19.5 C17,17.5 18,15.5 18,12 C18,8.6862915 15.3137085,6 12,6 C9.77321215,6 7.82974961,7.35472248 6.79438716,9.00207658 M6,11.5 C6,14.5 4,15 4,15" id="Oval-132"></path>
                <path d="M11,21 C13.1636329,18.8363671 14.2869753,16.6727342 14.7451616,14.5091013 M15,12 C15,10.3431458 13.6568542,9 12,9 C10.3431458,9 9,10.3431458 9,12 C9,16 5.5,18 5.5,18" id="Oval-132"></path>
                <path d="M12,12 C12,13.2189376 11.2906347,15.4427169 11.2906347,15.4427169 M10.0204534,17.6619834 C9.45282336,18.451229 8.77438551,19.2256145 8,20" id="Path-169" stroke-linejoin="round"></path>
            </g>
        </g>
    </g>
</svg>