<?xml version="1.0" encoding="UTF-8"?>
<svg width="24px" height="24px" viewBox="0 0 24 24" version="1.1" xmlns="http://www.w3.org/2000/svg" xmlns:xlink="http://www.w3.org/1999/xlink">
    <!-- Generator: Sketch 44.1 (41455) - http://www.bohemiancoding.com/sketch -->
    <title>flag-uk</title>
    <desc>Created with Sketch.</desc>
    <defs></defs>
    <g id="Page-1" stroke="none" stroke-width="1" fill="none" fill-rule="evenodd">
        <g id="Artboard-4" transform="translate(-620.000000, -1134.000000)">
            <g id="Extras" transform="translate(48.000000, 1046.000000)">
                <g id="uk-flag" transform="translate(572.000000, 88.000000)">
                    <rect id="Flag" stroke="#333333" stroke-width="2" x="1" y="4" width="22" height="16" rx="2"></rect>
                    <path d="M13,11 L23,11 L23,13 L13,13 L13,19 L11,19 L11,13 L1,13 L1,11 L11,11 L11,5 L13,5 L13,11 Z M14,10 L21,5 L22,5 L15,10 L14,10 Z M15,14 L16,14 L23,19 L22,19 L15,14 Z M2,19 L9,14 L10,14 L3,19 L2,19 Z M9,10 L8,10 L1,5 L2,5 L9,10 Z" id="red" fill="#333333" opacity="0.75"></path>
                    <path d="M14,5 L19.75,5 L14,9 L14,5 Z M22,6.375 L22,10 L17,10 L22,6.375 Z M14,19 L14,15 L19.75,19 L14,19 Z M22,17.625 L17,14 L22,14 L22,17.625 Z M2,14 L7.75,14 L2,18 L2,14 Z M10,15.375 L10,19 L5,19 L10,15.375 Z M10,5 L10,9 L4.25,5 L10,5 Z M2,6.375 L7,10 L2,10 L2,6.375 Z" id="blue" fill="#333333" opacity="0.5"></path>
                </g>
            </g>
        </g>
    </g>
</svg>