<?xml version="1.0" encoding="UTF-8"?>
<svg width="24px" height="24px" viewBox="0 0 24 24" version="1.1" xmlns="http://www.w3.org/2000/svg" xmlns:xlink="http://www.w3.org/1999/xlink">
    <!-- Generator: Sketch 44.1 (41455) - http://www.bohemiancoding.com/sketch -->
    <title>flower</title>
    <desc>Created with Sketch.</desc>
    <defs></defs>
    <g id="Page-1" stroke="none" stroke-width="1" fill="none" fill-rule="evenodd">
        <g id="Artboard-4" transform="translate(-840.000000, -335.000000)">
            <g id="118" transform="translate(840.000000, 335.000000)">
                <path d="M9.00258131,5.8744071 C9.06841478,4.2757993 10.3852179,3 12,3 C13.6147821,3 14.9315852,4.2757993 14.9974187,5.8744071 C16.5381287,5.44302148 18.1584005,6.30113204 18.6573956,7.83688104 C19.1563907,9.37263003 18.349948,11.0192279 16.8499253,11.5758363 C17.736303,12.9078331 17.4208829,14.7139739 16.1144968,15.663119 C14.8081106,16.612264 12.9928985,16.3541182 12,15.0995133 C11.0071015,16.3541182 9.19188936,16.612264 7.88550323,15.663119 C6.57911711,14.7139739 6.26369699,12.9078331 7.15007468,11.5758363 C5.65005197,11.0192279 4.84360929,9.37263003 5.34260439,7.83688104 C5.84159948,6.30113204 7.46187127,5.44302148 9.00258131,5.8744071 Z M12,12 C13.1584073,12 14.097482,11.1045695 14.097482,10 C14.097482,8.8954305 13.1584073,8 12,8 C10.8415927,8 9.90251803,8.8954305 9.90251803,10 C9.90251803,11.1045695 10.8415927,12 12,12 Z" id="Petals" stroke="#333333" stroke-width="2"></path>
                <rect id="Stem" fill="#333333" x="11" y="15" width="2" height="7" rx="1"></rect>
            </g>
        </g>
    </g>
</svg>