<?xml version="1.0" encoding="UTF-8"?>
<svg width="24px" height="24px" viewBox="0 0 24 24" version="1.1" xmlns="http://www.w3.org/2000/svg" xmlns:xlink="http://www.w3.org/1999/xlink">
    <!-- Generator: Sketch 44.1 (41455) - http://www.bohemiancoding.com/sketch -->
    <title>forward</title>
    <desc>Created with Sketch.</desc>
    <defs></defs>
    <g id="Page-1" stroke="none" stroke-width="1" fill="none" fill-rule="evenodd">
        <g id="Artboard-4" transform="translate(-488.000000, -335.000000)" fill-rule="nonzero" fill="#333333">
            <g id="110" transform="translate(488.000000, 335.000000)">
                <path d="M15,7 L15,11 L8,11 L4,12.0296054 L8,12.999579 L15,12.999579 L15,17 L20,12.0296054 L15,7 Z M8,14.999579 C7.8412119,14.999579 7.68298879,14.9806689 7.52867301,14.9432484 L3.52867301,13.9732748 C1.50511572,13.4825756 1.48497509,10.6117833 3.50144833,10.0927403 L7.50144833,9.06313495 C7.66431677,9.02121239 7.83182262,9 8,9 L13,9 L13,7 C13,5.21534246 15.1601689,4.32430411 16.4183819,5.58996706 L21.4183819,10.6195724 C22.1971312,11.4029328 22.1933821,12.6692764 21.4100081,13.448012 L16.4100081,18.4184066 C15.1483725,19.6725719 13,18.7789478 13,17 L13,14.999579 L8,14.999579 Z" id="Path-36"></path>
            </g>
        </g>
    </g>
</svg>