<?xml version="1.0" encoding="UTF-8"?>
<svg width="24px" height="24px" viewBox="0 0 24 24" version="1.1" xmlns="http://www.w3.org/2000/svg" xmlns:xlink="http://www.w3.org/1999/xlink">
    <!-- Generator: Sketch 44.1 (41455) - http://www.bohemiancoding.com/sketch -->
    <title>gas</title>
    <desc>Created with Sketch.</desc>
    <defs></defs>
    <g id="Page-1" stroke="none" stroke-width="1" fill="none" fill-rule="evenodd">
        <g id="Artboard-4" transform="translate(-400.000000, -863.000000)" stroke="#333333" stroke-width="2">
            <g id="349" transform="translate(400.000000, 863.000000)">
                <path d="M3,3.99079514 C3,2.89130934 3.90195036,2 5.0085302,2 L12.9914698,2 C14.1007504,2 15,2.89821238 15,3.99079514 L15,21.0081969 C15,21.5559546 14.544239,22 13.9975267,22 L4.00247329,22 C3.44882258,22 3,21.5446944 3,21.0081969 L3,3.99079514 Z" id="Pump"></path>
                <rect id="Display" stroke-linecap="round" stroke-linejoin="round" x="6" y="5" width="6" height="4"></rect>
                <path d="M15,12 L15.9989566,12 C17.1041023,12 18,12.8958578 18,13.9973917 L18,19.4936024 C18,20.3255628 18.6657972,21 19.5,21 L19.5,21 C20.3284271,21 21,20.3242162 21,19.4951143 L21,12.0090332 L22,10 L22,6 L19.5,2" id="Pipe" stroke-linecap="round" stroke-linejoin="round"></path>
                <rect id="Handle" fill="#F2E2E4" x="19" y="6" width="3" height="5" rx="1.5"></rect>
            </g>
        </g>
    </g>
</svg>