<?xml version="1.0" encoding="UTF-8"?>
<svg width="24px" height="24px" viewBox="0 0 24 24" version="1.1" xmlns="http://www.w3.org/2000/svg" xmlns:xlink="http://www.w3.org/1999/xlink">
    <!-- Generator: Sketch 44.1 (41455) - http://www.bohemiancoding.com/sketch -->
    <title>gift</title>
    <desc>Created with Sketch.</desc>
    <defs></defs>
    <g id="Page-1" stroke="none" stroke-width="1" fill="none" fill-rule="evenodd">
        <g id="Artboard-4" transform="translate(-48.000000, -291.000000)">
            <g id="81" transform="translate(48.000000, 291.000000)">
                <rect id="Lid" stroke="#333333" stroke-width="2" stroke-linejoin="round" x="3" y="9" width="18" height="4" rx="1"></rect>
                <rect id="Body" stroke="#333333" stroke-width="2" stroke-linejoin="round" x="4" y="13" width="16" height="8" rx="1"></rect>
                <rect id="Ribbon" fill="#333333" x="11" y="10" width="2" height="10"></rect>
                <path d="M12,9 L12,6 C12,4.34314575 13.3431458,3 15,3 C16.6568542,3 18,4.34314575 18,6 C18,7.65685425 16.6568542,9 15,9 L12,9 Z" id="Right-Bow" stroke="#333333" stroke-width="2"></path>
                <path d="M6,9 L6,6 C6,4.34314575 7.34314575,3 9,3 C10.6568542,3 12,4.34314575 12,6 C12,7.65685425 10.6568542,9 9,9 L6,9 Z" id="Left-Bow" stroke="#333333" stroke-width="2" transform="translate(9.000000, 6.000000) scale(-1, 1) translate(-9.000000, -6.000000) "></path>
            </g>
        </g>
    </g>
</svg>