<?xml version="1.0" encoding="UTF-8"?>
<svg width="24px" height="24px" viewBox="0 0 24 24" version="1.1" xmlns="http://www.w3.org/2000/svg" xmlns:xlink="http://www.w3.org/1999/xlink">
    <!-- Generator: Sketch 44.1 (41455) - http://www.bohemiancoding.com/sketch -->
    <title>gingerbread-man</title>
    <desc>Created with Sketch.</desc>
    <defs></defs>
    <g id="Page-1" stroke="none" stroke-width="1" fill="none" fill-rule="evenodd">
        <g id="Artboard-4" transform="translate(-620.000000, -555.000000)">
            <g id="214" transform="translate(620.000000, 555.000000)">
                <path d="M7.95983499,15.6183274 L7.95983499,15.035153 L3.93254166,13.956043 C2.60014248,13.5990277 1.8072212,12.2377584 2.16706714,10.894795 C2.52442167,9.56112978 3.90337814,8.77184771 5.22663688,9.12641382 L8.48690488,10 L8.99951255,10 C7.7853431,9.08777121 7,7.63559896 7,6 C7,3.23857625 9.23857625,1 12,1 C14.7614237,1 17,3.23857625 17,6 C17,7.63559896 16.2146569,9.08777121 15.0004875,10 L15.616473,10 L18.876741,9.12641382 C20.2091402,8.76939854 21.5764648,9.55183171 21.9363108,10.894795 C22.2936653,12.2284603 21.494095,13.6014768 20.1708362,13.956043 L16.040165,15.062853 L16.040165,15.6046067 L19.1987447,18.7631864 C20.1735208,19.7379625 20.1790833,21.3128242 19.195966,22.2959415 C18.2196552,23.2722523 16.6395816,23.2750911 15.6632108,22.2987203 L12.3644905,19 L11.6492302,19 L8.35050991,22.2987203 C7.37413915,23.2750911 5.79406548,23.2722523 4.81775475,22.2959415 C3.83463736,21.3128242 3.84019993,19.7379625 4.814976,18.7631864 L7.95983499,15.6183274 Z" id="Body" stroke="#333333" stroke-width="2" stroke-linecap="round" stroke-linejoin="round"></path>
                <path d="M10.5,7.5 C10.5,7.5 10.5555556,8.5 12,8.5 C13.4444444,8.5 13.5,7.5 13.5,7.5" id="Smile" stroke="#333333" stroke-linecap="round" stroke-linejoin="round"></path>
                <path d="M10,6 C9.44771525,6 9,5.55228475 9,5 C9,4.44771525 9.44771525,4 10,4 C10.5522847,4 11,4.44771525 11,5 C11,5.55228475 10.5522847,6 10,6 Z M14,6 C13.4477153,6 13,5.55228475 13,5 C13,4.44771525 13.4477153,4 14,4 C14.5522847,4 15,4.44771525 15,5 C15,5.55228475 14.5522847,6 14,6 Z" id="Eyes" fill="#333333"></path>
                <path d="M12,13 C11.4477153,13 11,12.5522847 11,12 C11,11.4477153 11.4477153,11 12,11 C12.5522847,11 13,11.4477153 13,12 C13,12.5522847 12.5522847,13 12,13 Z M12,17 C11.4477153,17 11,16.5522847 11,16 C11,15.4477153 11.4477153,15 12,15 C12.5522847,15 13,15.4477153 13,16 C13,16.5522847 12.5522847,17 12,17 Z" id="Buttons" fill="#333333"></path>
            </g>
        </g>
    </g>
</svg>