<?xml version="1.0" encoding="UTF-8"?>
<svg width="24px" height="24px" viewBox="0 0 24 24" version="1.1" xmlns="http://www.w3.org/2000/svg" xmlns:xlink="http://www.w3.org/1999/xlink">
    <!-- Generator: Sketch 44.1 (41455) - http://www.bohemiancoding.com/sketch -->
    <title>glasses</title>
    <desc>Created with Sketch.</desc>
    <defs></defs>
    <g id="Page-1" stroke="none" stroke-width="1" fill="none" fill-rule="evenodd">
        <g id="Artboard-4" transform="translate(-664.000000, -863.000000)">
            <g id="355" transform="translate(664.000000, 863.000000)">
                <path d="M14.1830584,11.9785957 C14.0165308,10.8858475 14.7682399,10 15.8796349,10 L19.8834322,10 C20.9869531,10 21.9405145,10.8896751 21.9607896,11.9939156 C21.9607896,11.9939156 22.3815335,15 20.8815335,16 C19.3815335,17 17.3815335,17 15.8815335,16 C14.3815335,15 14.1830584,11.9785957 14.1830584,11.9785957 Z" id="Right-Lens" stroke="#333333" stroke-width="2"></path>
                <path d="M2.02308527,11.9785957 C1.85655766,10.8858475 2.60826672,10 3.71966172,10 L7.72345901,10 C8.82697992,10 9.78054131,10.8896751 9.80081642,11.9939156 C9.80081642,11.9939156 10.2215604,15 8.72156036,16 C7.22156036,17 5.22156036,17 3.72156036,16 C2.22156036,15 2.02308527,11.9785957 2.02308527,11.9785957 Z" id="Left-Lens" stroke="#333333" stroke-width="2" transform="translate(5.927579, 13.375000) scale(-1, 1) translate(-5.927579, -13.375000) "></path>
                <path d="M10,11 C10,11 11,10.5 12,10.5 C13,10.5 14,11 14,11" id="Bridge" stroke="#333333" stroke-width="2"></path>
                <path d="M22,10 L23,10 L17.7721119,5.64342655 C17.3456863,5.28807188 16.6875,5.3125 16.2892435,5.71075654 L15,7" id="Right-Arm" stroke="#333333" stroke-width="2" stroke-linecap="round" stroke-linejoin="round"></path>
                <path d="M8,10 L9,10 L3.77211186,5.64342655 C3.34568626,5.28807188 2.6875,5.3125 2.28924346,5.71075654 L1,7" id="Left-Arm" stroke="#333333" stroke-width="2" stroke-linecap="round" stroke-linejoin="round" transform="translate(5.000000, 7.696720) scale(-1, 1) translate(-5.000000, -7.696720) "></path>
                <path d="M19.5,12 L16.5,14 L16.2441411,12.9765644 C16.1093057,12.4372228 16.4575639,12 16.9935975,12 L19.5,12 Z M7.30496255,12 L4.30496255,14 L4.04910365,12.9765644 C3.91426824,12.4372228 4.26252642,12 4.79856005,12 L7.30496255,12 Z" id="Highlight" fill="#333333" opacity="0.200000003"></path>
            </g>
        </g>
    </g>
</svg>