<?xml version="1.0" encoding="UTF-8"?>
<svg width="24px" height="24px" viewBox="0 0 24 24" version="1.1" xmlns="http://www.w3.org/2000/svg" xmlns:xlink="http://www.w3.org/1999/xlink">
    <!-- Generator: Sketch 44.1 (41455) - http://www.bohemiancoding.com/sketch -->
    <title>glass-beer</title>
    <desc>Created with Sketch.</desc>
    <defs></defs>
    <g id="Page-1" stroke="none" stroke-width="1" fill="none" fill-rule="evenodd">
        <g id="Artboard-4" transform="translate(-752.000000, -643.000000)" stroke="#333333" stroke-width="2">
            <g id="257" transform="translate(752.000000, 643.000000)">
                <path d="M17,5 L17,18.992516 C17,19.5489341 16.6575356,20.2780914 16.1969355,20.5784829 C16.1969355,20.5784829 15,22 10,22 C5,22 3.80306453,20.5784829 3.80306453,20.5784829 C3.35954423,20.2589956 3,19.5510798 3,18.992516 L3,5" id="Glass" stroke-linecap="round" stroke-linejoin="round"></path>
                <ellipse id="Rim" cx="10" cy="5" rx="7" ry="2"></ellipse>
                <path d="M6,10 L6,18 L6,10 Z M10,10 L10,18 L10,10 Z M14,10 L14,18 L14,10 Z" id="Indents" opacity="0.5" stroke-linecap="round" stroke-linejoin="round"></path>
                <path d="M18,8 L20,8 C21.1045695,8 22,8.89185942 22,10.0095882 L22,16.0402874 C22,17.1501523 21.1122013,18.0498756 19.9998445,18.0498756 L17.9996891,18.0498756" id="Handle"></path>
            </g>
        </g>
    </g>
</svg>