<?xml version="1.0" encoding="UTF-8"?>
<svg width="24px" height="24px" viewBox="0 0 24 24" version="1.1" xmlns="http://www.w3.org/2000/svg" xmlns:xlink="http://www.w3.org/1999/xlink">
    <!-- Generator: Sketch 44.1 (41455) - http://www.bohemiancoding.com/sketch -->
    <title>globe-2</title>
    <desc>Created with Sketch.</desc>
    <defs></defs>
    <g id="Page-1" stroke="none" stroke-width="1" fill="none" fill-rule="evenodd">
        <g id="Artboard-4" transform="translate(-268.000000, -687.000000)" stroke="#333333">
            <g id="266" transform="translate(265.000000, 686.000000)">
                <path d="M15.7033666,3.125 C9.90437676,3.125 5.20336663,7.82601013 5.20336663,13.625 C5.20336663,19.4239899 9.90437676,24.125 15.7033666,24.125 L15.7033666,24.125" id="holder" stroke-linecap="round" transform="translate(10.453367, 13.625000) rotate(-30.000000) translate(-10.453367, -13.625000) "></path>
                <polyline id="stand" stroke-width="2" stroke-linecap="round" stroke-linejoin="round" points="15 22 15 24 12 24 18 24"></polyline>
                <g id="globe" transform="translate(15.298198, 11.401194) rotate(-30.000000) translate(-15.298198, -11.401194) translate(7.298198, 2.901194)" stroke-width="2">
                    <circle id="Circle" cx="8" cy="8" r="8"></circle>
                    <path d="M8,3.01980663e-14 C8,3.01980663e-14 4,3 4,8 C4,13 8,16.0078106 8,16.0078106" id="1"></path>
                    <path d="M8,-7.10542736e-15 L8,8.0039053 L8,16.0078106" id="2"></path>
                    <path d="M12,-7.10542736e-15 C12,-7.10542736e-15 8,3 8,8 C8,13 12,16.0078106 12,16.0078106" id="3" transform="translate(10.000000, 8.003905) scale(-1, 1) translate(-10.000000, -8.003905) "></path>
                    <path d="M-5.19584376e-14,8 L16,8" id="Mid"></path>
                </g>
            </g>
        </g>
    </g>
</svg>