<?xml version="1.0" encoding="UTF-8"?>
<svg width="24px" height="24px" viewBox="0 0 24 24" version="1.1" xmlns="http://www.w3.org/2000/svg" xmlns:xlink="http://www.w3.org/1999/xlink">
    <!-- Generator: Sketch 44.1 (41455) - http://www.bohemiancoding.com/sketch -->
    <title>gravestone</title>
    <desc>Created with Sketch.</desc>
    <defs></defs>
    <g id="Page-1" stroke="none" stroke-width="1" fill="none" fill-rule="evenodd">
        <g id="Artboard-4" transform="translate(-488.000000, -467.000000)">
            <g id="171" transform="translate(488.000000, 467.000000)">
                <path d="M4,21 L2.88305092,10.9474583 L2.88305092,10.9474583 C2.39535536,6.55819827 5.56375708,2.58073446 9.95248561,2.06441346 L10.0519425,2.05271265 C14.9938182,1.47131551 19.4011229,5.01122888 19.8947051,9.94705057 L21,21" id="Gravestone" stroke="#333333" stroke-width="2" stroke-linejoin="round"></path>
                <polyline id="Ground" stroke="#333333" stroke-width="2" stroke-linecap="round" stroke-linejoin="round" points="2 21.5 3.5 22 5.5 21.25 8 22 11 21.25 13.5 22 15 21 16.5 22 20 21.25 22 22"></polyline>
                <path d="M6.74453807,15.0419407 L6.74453807,11.7299407 C6.74453807,11.4719407 6.94853807,11.2679407 7.20653807,11.2679407 L8.66453807,11.2679407 C9.19853807,11.2679407 9.61253807,11.4179407 9.88853807,11.6939407 C10.1225381,11.9279407 10.2485381,12.2579407 10.2485381,12.6539407 L10.2485381,12.6659407 C10.2485381,13.3259407 9.91853807,13.7339407 9.40853807,13.9439407 L10.0505381,14.7239407 C10.1405381,14.8379407 10.2005381,14.9339407 10.2005381,15.0779407 C10.2005381,15.3359407 9.98453807,15.5039407 9.76253807,15.5039407 C9.55253807,15.5039407 9.41453807,15.4019407 9.30653807,15.2639407 L8.40653807,14.1239407 L7.66853807,14.1239407 L7.66853807,15.0419407 C7.66853807,15.2999407 7.46453807,15.5039407 7.20653807,15.5039407 C6.94853807,15.5039407 6.74453807,15.2999407 6.74453807,15.0419407 Z M7.66853807,13.3079407 L8.60453807,13.3079407 C9.05453807,13.3079407 9.31253807,13.0679407 9.31253807,12.7139407 L9.31253807,12.7019407 C9.31253807,12.3059407 9.03653807,12.1019407 8.58653807,12.1019407 L7.66853807,12.1019407 L7.66853807,13.3079407 Z M11.1245381,15.0419407 C11.1245381,15.2999407 11.3285381,15.5039407 11.5865381,15.5039407 C11.8445381,15.5039407 12.0485381,15.2999407 12.0485381,15.0419407 L12.0485381,11.6939407 C12.0485381,11.4359407 11.8445381,11.2319407 11.5865381,11.2319407 C11.3285381,11.2319407 11.1245381,11.4359407 11.1245381,11.6939407 L11.1245381,15.0419407 Z M13.0985381,15.0419407 L13.0985381,11.7299407 C13.0985381,11.4719407 13.3025381,11.2679407 13.5605381,11.2679407 L14.8145381,11.2679407 C15.8165381,11.2679407 16.4225381,11.8619407 16.4225381,12.7199407 L16.4225381,12.7319407 C16.4225381,13.7039407 15.6665381,14.2079407 14.7245381,14.2079407 L14.0225381,14.2079407 L14.0225381,15.0419407 C14.0225381,15.2999407 13.8185381,15.5039407 13.5605381,15.5039407 C13.3025381,15.5039407 13.0985381,15.2999407 13.0985381,15.0419407 Z M14.0225381,13.3859407 L14.7545381,13.3859407 C15.2165381,13.3859407 15.4865381,13.1099407 15.4865381,12.7499407 L15.4865381,12.7379407 C15.4865381,12.3239407 15.1985381,12.1019407 14.7365381,12.1019407 L14.0225381,12.1019407 L14.0225381,13.3859407 Z" id="RIP" fill="#333333" opacity="0.75" transform="translate(11.583538, 13.367941) rotate(-5.000000) translate(-11.583538, -13.367941) "></path>
                <polyline id="Crack" stroke="#333333" stroke-width="2" stroke-linecap="round" stroke-linejoin="round" points="13 2.5 12 4.5 13.5 5.5 12 8"></polyline>
            </g>
        </g>
    </g>
</svg>