<?xml version="1.0" encoding="UTF-8"?>
<svg width="24px" height="24px" viewBox="0 0 24 24" version="1.1" xmlns="http://www.w3.org/2000/svg" xmlns:xlink="http://www.w3.org/1999/xlink">
    <!-- Generator: Sketch 44.1 (41455) - http://www.bohemiancoding.com/sketch -->
    <title>grid</title>
    <desc>Created with Sketch.</desc>
    <defs></defs>
    <g id="Page-1" stroke="none" stroke-width="1" fill="none" fill-rule="evenodd">
        <g id="Artboard-4" transform="translate(-752.000000, -203.000000)">
            <g id="57" transform="translate(752.000000, 203.000000)">
                <rect id="Box" stroke="#333333" stroke-width="2" x="3" y="3" width="18" height="18" rx="1"></rect>
                <path d="M6,6.99980749 C6,6.44762906 6.44371665,6 6.99980749,6 L10.0001925,6 C10.5523709,6 11,6.44371665 11,6.99980749 L11,10.0001925 C11,10.5523709 10.5562834,11 10.0001925,11 L6.99980749,11 C6.44762906,11 6,10.5562834 6,10.0001925 L6,6.99980749 Z M13,6.99980749 C13,6.44762906 13.4437166,6 13.9998075,6 L17.0001925,6 C17.5523709,6 18,6.44371665 18,6.99980749 L18,10.0001925 C18,10.5523709 17.5562834,11 17.0001925,11 L13.9998075,11 C13.4476291,11 13,10.5562834 13,10.0001925 L13,6.99980749 Z M13,13.9998075 C13,13.4476291 13.4437166,13 13.9998075,13 L17.0001925,13 C17.5523709,13 18,13.4437166 18,13.9998075 L18,17.0001925 C18,17.5523709 17.5562834,18 17.0001925,18 L13.9998075,18 C13.4476291,18 13,17.5562834 13,17.0001925 L13,13.9998075 Z M6,13.9998075 C6,13.4476291 6.44371665,13 6.99980749,13 L10.0001925,13 C10.5523709,13 11,13.4437166 11,13.9998075 L11,17.0001925 C11,17.5523709 10.5562834,18 10.0001925,18 L6.99980749,18 C6.44762906,18 6,17.5562834 6,17.0001925 L6,13.9998075 Z" id="Items" fill="#333333"></path>
            </g>
        </g>
    </g>
</svg>