<?xml version="1.0" encoding="UTF-8"?>
<svg width="24px" height="24px" viewBox="0 0 24 24" version="1.1" xmlns="http://www.w3.org/2000/svg" xmlns:xlink="http://www.w3.org/1999/xlink">
    <!-- Generator: Sketch 44.1 (41455) - http://www.bohemiancoding.com/sketch -->
    <title>heartbeat</title>
    <desc>Created with Sketch.</desc>
    <defs></defs>
    <g id="Page-1" stroke="none" stroke-width="1" fill="none" fill-rule="evenodd">
        <g id="Artboard-4" transform="translate(-180.000000, -819.000000)">
            <g id="324" transform="translate(180.000000, 819.000000)">
                <path d="M2,15 C0.8954305,15 0,14.1045695 0,13 C0,11.8954305 0.8954305,11 2,11 C3.1045695,11 4,11.8954305 4,13 C4,14.1045695 3.1045695,15 2,15 Z M22,15 C20.8954305,15 20,14.1045695 20,13 C20,11.8954305 20.8954305,11 22,11 C23.1045695,11 24,11.8954305 24,13 C24,14.1045695 23.1045695,15 22,15 Z" id="Ends" fill="#333333"></path>
                <polyline id="Line" stroke="#333333" stroke-width="2" stroke-linejoin="round" points="2 13 7 13 10 4 14 18 17 13 22 13"></polyline>
            </g>
        </g>
    </g>
</svg>