<?xml version="1.0" encoding="UTF-8"?>
<svg width="24px" height="24px" viewBox="0 0 24 24" version="1.1" xmlns="http://www.w3.org/2000/svg" xmlns:xlink="http://www.w3.org/1999/xlink">
    <!-- Generator: Sketch 44.1 (41455) - http://www.bohemiancoding.com/sketch -->
    <title>ice-pop</title>
    <desc>Created with Sketch.</desc>
    <defs></defs>
    <g id="Page-1" stroke="none" stroke-width="1" fill="none" fill-rule="evenodd">
        <g id="Artboard-4" transform="translate(-356.000000, -203.000000)" stroke="#333333">
            <g id="48" transform="translate(356.000000, 203.000000)">
                <path d="M7,7.50027192 C7,4.46255562 9.46861471,2 12.5,2 L12.5,2 C15.5375661,2 18,4.46014829 18,7.50027192 L18,15.0081158 C18,16.1082031 17.0998238,17 16.007983,17 L8.99201702,17 C7.8918564,17 7,16.1066027 7,15.0081158 L7,7.50027192 Z" id="Lolly" stroke-width="2"></path>
                <path d="M11,17 L14,17 L14,20.5 L14,20.5 C14,21.3284271 13.3284271,22 12.5,22 L12.5,22 L12.5,22 C11.6715729,22 11,21.3284271 11,20.5 L11,17 Z" id="Stick" stroke-width="2"></path>
                <path d="M12.5,4.5 C12.5,4.5 11.4174805,4.38916016 10.4492188,5.36328125 C9.48095703,6.33740234 9.5,7.5 9.5,7.5" id="Highlight" stroke-linecap="round" stroke-linejoin="round"></path>
            </g>
        </g>
    </g>
</svg>