<?xml version="1.0" encoding="UTF-8"?>
<svg width="24px" height="24px" viewBox="0 0 24 24" version="1.1" xmlns="http://www.w3.org/2000/svg" xmlns:xlink="http://www.w3.org/1999/xlink">
    <!-- Generator: Sketch 44.1 (41455) - http://www.bohemiancoding.com/sketch -->
    <title>instagram</title>
    <desc>Created with Sketch.</desc>
    <defs></defs>
    <g id="Page-1" stroke="none" stroke-width="1" fill="none" fill-rule="evenodd">
        <g id="Artboard-4" transform="translate(-708.000000, -863.000000)">
            <g id="356" transform="translate(708.000000, 863.000000)">
                <path d="M11.9968631,3.00315476 C9.55259199,3.00315476 9.24610244,3.01351517 8.28615675,3.05731471 C7.32821168,3.10100706 6.67396957,3.2531622 6.10150326,3.47566097 C5.50967369,3.70562637 5.00776535,4.01336632 4.50739321,4.51370273 C4.00705679,5.01407487 3.69931685,5.51598321 3.46935145,6.10781278 C3.24685268,6.68027909 3.09469754,7.3345212 3.05100518,8.29246627 C3.00720565,9.25241197 2.99684524,9.55890152 2.99684524,12.0031726 C2.99684524,14.447408 3.00720565,14.7538976 3.05100518,15.7138433 C3.09469754,16.6717883 3.24685268,17.3260304 3.46935145,17.8984967 C3.69931685,18.4903263 4.00705679,18.9922347 4.50739321,19.4926068 C5.00776535,19.9929432 5.50967369,20.3006831 6.10150326,20.5306843 C6.67396957,20.7531473 7.32821168,20.9053025 8.28615675,20.9489948 C9.24610244,20.9927944 9.55259199,21.0031548 11.9968631,21.0031548 C14.4410985,21.0031548 14.747588,20.9927944 15.7075337,20.9489948 C16.6654788,20.9053025 17.3197209,20.7531473 17.8921872,20.5306843 C18.4840168,20.3006831 18.9859251,19.9929432 19.4862973,19.4926068 C19.9866337,18.9922347 20.2943736,18.4903263 20.5243748,17.8984967 C20.7468378,17.3260304 20.8989929,16.6717883 20.9426853,15.7138433 C20.9864848,14.7538976 20.9968452,14.447408 20.9968452,12.0031726 C20.9968452,9.55890152 20.9864848,9.25241197 20.9426853,8.29246627 C20.8989929,7.3345212 20.7468378,6.68027909 20.5243748,6.10781278 C20.2943736,5.51598321 19.9866337,5.01407487 19.4862973,4.51370273 C18.9859251,4.01336632 18.4840168,3.70562637 17.8921872,3.47566097 C17.3197209,3.2531622 16.6654788,3.10100706 15.7075337,3.05731471 C14.747588,3.01351517 14.4410985,3.00315476 11.9968631,3.00315476 Z" id="Body" stroke="#333333" stroke-width="2"></path>
                <circle id="Lens" stroke="#333333" stroke-width="2" cx="12" cy="12" r="4"></circle>
                <circle id="Flash" fill="#333333" cx="17.25" cy="6.75" r="1.25"></circle>
            </g>
        </g>
    </g>
</svg>