<?xml version="1.0" encoding="UTF-8"?>
<svg width="24px" height="24px" viewBox="0 0 24 24" version="1.1" xmlns="http://www.w3.org/2000/svg" xmlns:xlink="http://www.w3.org/1999/xlink">
    <!-- Generator: Sketch 44.1 (41455) - http://www.bohemiancoding.com/sketch -->
    <title>key-2</title>
    <desc>Created with Sketch.</desc>
    <defs></defs>
    <g id="Page-1" stroke="none" stroke-width="1" fill="none" fill-rule="evenodd">
        <g id="Artboard-4" transform="translate(-488.000000, -379.000000)" fill="#333333">
            <g id="130" transform="translate(487.000000, 378.000000)">
                <path d="M13.7779099,18.227963 C13.781029,18.2279357 13.784152,18.2279221 13.7872788,18.2279221 L15.768541,18.2279221 C16.326,18.2279221 16.7779099,18.6717869 16.7779099,19.2279221 C16.7779099,19.7802068 16.3345567,20.2279221 15.768541,20.2279221 L13.7872788,20.2279221 C13.7841524,20.2279221 13.7810295,20.2279081 13.7779099,20.2278802 L13.7779099,22.227963 C13.781029,22.2279357 13.784152,22.2279221 13.7872788,22.2279221 L15.768541,22.2279221 C16.326,22.2279221 16.7779099,22.6717869 16.7779099,23.2279221 C16.7779099,23.7802068 16.3345567,24.2279221 15.768541,24.2279221 L13.7872788,24.2279221 C13.7841524,24.2279221 13.7810295,24.2279081 13.7779099,24.2278802 L13.7779099,24.2294197 C13.7779099,24.7808773 13.334045,25.2279221 12.7779099,25.2279221 C12.2256251,25.2279221 11.7779099,24.7804326 11.7779099,24.2294197 L11.7779099,13.2264244 C11.7779099,13.1991814 11.7789931,13.1721933 11.7811197,13.1455012 C8.94182723,12.6707464 6.77790985,10.2020392 6.77790985,7.22792206 C6.77790985,3.91421356 9.46420136,1.22792206 12.7779099,1.22792206 C16.0916184,1.22792206 18.7779099,3.91421356 18.7779099,7.22792206 C18.7779099,10.2020501 16.6139766,12.6707644 13.7746689,13.1455064 C13.7768157,13.1721984 13.7779099,13.1991849 13.7779099,13.2264244 L13.7779099,18.227963 Z M12.7779099,3.22785866 C10.5687358,3.22785866 8.77784645,5.01874805 8.77784645,7.22792206 C8.77784645,9.43709608 10.5687358,11.2279855 12.7779099,11.2279855 C14.9870839,11.2279855 16.7779733,9.43709608 16.7779733,7.22792206 C16.7779733,5.01874805 14.9870839,3.22785866 12.7779099,3.22785866 Z" id="Old-Key" transform="translate(12.777910, 13.227922) rotate(-315.000000) translate(-12.777910, -13.227922) "></path>
            </g>
        </g>
    </g>
</svg>