<?xml version="1.0" encoding="UTF-8"?>
<svg width="24px" height="24px" viewBox="0 0 24 24" version="1.1" xmlns="http://www.w3.org/2000/svg" xmlns:xlink="http://www.w3.org/1999/xlink">
    <!-- Generator: Sketch 44.1 (41455) - http://www.bohemiancoding.com/sketch -->
    <title>keypad</title>
    <desc>Created with Sketch.</desc>
    <defs></defs>
    <g id="Page-1" stroke="none" stroke-width="1" fill="none" fill-rule="evenodd">
        <g id="Artboard-4" transform="translate(-356.000000, -511.000000)" stroke="#333333" stroke-width="2">
            <g id="188" transform="translate(356.000000, 511.000000)">
                <path d="M5,6 C3.8954305,6 3,5.1045695 3,4 C3,2.8954305 3.8954305,2 5,2 C6.1045695,2 7,2.8954305 7,4 C7,5.1045695 6.1045695,6 5,6 Z M5,14 C3.8954305,14 3,13.1045695 3,12 C3,10.8954305 3.8954305,10 5,10 C6.1045695,10 7,10.8954305 7,12 C7,13.1045695 6.1045695,14 5,14 Z M5,22 C3.8954305,22 3,21.1045695 3,20 C3,18.8954305 3.8954305,18 5,18 C6.1045695,18 7,18.8954305 7,20 C7,21.1045695 6.1045695,22 5,22 Z M12,6 C10.8954305,6 10,5.1045695 10,4 C10,2.8954305 10.8954305,2 12,2 C13.1045695,2 14,2.8954305 14,4 C14,5.1045695 13.1045695,6 12,6 Z M12,14 C10.8954305,14 10,13.1045695 10,12 C10,10.8954305 10.8954305,10 12,10 C13.1045695,10 14,10.8954305 14,12 C14,13.1045695 13.1045695,14 12,14 Z M12,22 C10.8954305,22 10,21.1045695 10,20 C10,18.8954305 10.8954305,18 12,18 C13.1045695,18 14,18.8954305 14,20 C14,21.1045695 13.1045695,22 12,22 Z M19,6 C17.8954305,6 17,5.1045695 17,4 C17,2.8954305 17.8954305,2 19,2 C20.1045695,2 21,2.8954305 21,4 C21,5.1045695 20.1045695,6 19,6 Z M19,14 C17.8954305,14 17,13.1045695 17,12 C17,10.8954305 17.8954305,10 19,10 C20.1045695,10 21,10.8954305 21,12 C21,13.1045695 20.1045695,14 19,14 Z M19,22 C17.8954305,22 17,21.1045695 17,20 C17,18.8954305 17.8954305,18 19,18 C20.1045695,18 21,18.8954305 21,20 C21,21.1045695 20.1045695,22 19,22 Z" id="Buttons"></path>
            </g>
        </g>
    </g>
</svg>