<?xml version="1.0" encoding="UTF-8"?>
<svg width="24px" height="24px" viewBox="0 0 24 24" version="1.1" xmlns="http://www.w3.org/2000/svg" xmlns:xlink="http://www.w3.org/1999/xlink">
    <!-- Generator: Sketch 44.1 (41455) - http://www.bohemiancoding.com/sketch -->
    <title>knob</title>
    <desc>Created with Sketch.</desc>
    <defs></defs>
    <g id="Page-1" stroke="none" stroke-width="1" fill="none" fill-rule="evenodd">
        <g id="Artboard-4" transform="translate(-532.000000, -863.000000)">
            <g id="352" transform="translate(532.000000, 863.000000)">
                <circle id="knob" stroke="#333333" stroke-width="2" stroke-linecap="round" stroke-linejoin="round" transform="translate(12.000000, 13.000000) rotate(-360.000000) translate(-12.000000, -13.000000) " cx="12" cy="13" r="8"></circle>
                <rect id="line" fill="#333333" transform="translate(14.000000, 9.535898) rotate(-330.000000) translate(-14.000000, -9.535898) " x="13" y="7.53589838" width="2" height="4" rx="1"></rect>
                <path d="M12,3 C11.4477153,3 11,2.55228475 11,2 C11,1.44771525 11.4477153,1 12,1 C12.5522847,1 13,1.44771525 13,2 C13,2.55228475 12.5522847,3 12,3 Z M17,4.33974596 C16.5217074,4.06360359 16.3578322,3.45201318 16.6339746,2.97372056 C16.910117,2.49542793 17.5217074,2.33155278 18,2.60769515 C18.4782926,2.88383753 18.6421678,3.49542793 18.3660254,3.97372056 C18.089883,4.45201318 17.4782926,4.61588834 17,4.33974596 Z M20.660254,8 C20.3841117,7.52170738 20.5479868,6.91011697 21.0262794,6.6339746 C21.5045721,6.35783222 22.1161625,6.52170738 22.3923048,7 C22.6684472,7.47829262 22.5045721,8.08988303 22.0262794,8.3660254 C21.5479868,8.64216778 20.9363964,8.47829262 20.660254,8 Z M22,13 C22,12.4477153 22.4477153,12 23,12 C23.5522847,12 24,12.4477153 24,13 C24,13.5522847 23.5522847,14 23,14 C22.4477153,14 22,13.5522847 22,13 Z M20.660254,18 C20.9363964,17.5217074 21.5479868,17.3578322 22.0262794,17.6339746 C22.5045721,17.910117 22.6684472,18.5217074 22.3923048,19 C22.1161625,19.4782926 21.5045721,19.6421678 21.0262794,19.3660254 C20.5479868,19.089883 20.3841117,18.4782926 20.660254,18 Z M3.33974596,18 C3.61588834,18.4782926 3.45201318,19.089883 2.97372056,19.3660254 C2.49542793,19.6421678 1.88383753,19.4782926 1.60769515,19 C1.33155278,18.5217074 1.49542793,17.910117 1.97372056,17.6339746 C2.45201318,17.3578322 3.06360359,17.5217074 3.33974596,18 Z M2,13 C2,13.5522847 1.55228475,14 1,14 C0.44771525,14 1.39800648e-16,13.5522847 3.83475851e-17,13 C-6.31054776e-17,12.4477153 0.44771525,12 1,12 C1.55228475,12 2,12.4477153 2,13 Z M3.33974596,8 C3.06360359,8.47829262 2.45201318,8.64216778 1.97372056,8.3660254 C1.49542793,8.08988303 1.33155278,7.47829262 1.60769515,7 C1.88383753,6.52170738 2.49542793,6.35783222 2.97372056,6.6339746 C3.45201318,6.91011697 3.61588834,7.52170738 3.33974596,8 Z M7,4.33974596 C6.52170738,4.61588834 5.91011697,4.45201318 5.6339746,3.97372056 C5.35783222,3.49542793 5.52170738,2.88383753 6,2.60769515 C6.47829262,2.33155278 7.08988303,2.49542793 7.3660254,2.97372056 C7.64216778,3.45201318 7.47829262,4.06360359 7,4.33974596 Z" id="points" fill="#333333" opacity="0.5"></path>
            </g>
        </g>
    </g>
</svg>