<?xml version="1.0" encoding="UTF-8"?>
<svg width="24px" height="24px" viewBox="0 0 24 24" version="1.1" xmlns="http://www.w3.org/2000/svg" xmlns:xlink="http://www.w3.org/1999/xlink">
    <!-- Generator: Sketch 44.1 (41455) - http://www.bohemiancoding.com/sketch -->
    <title>layers</title>
    <desc>Created with Sketch.</desc>
    <defs></defs>
    <g id="Page-1" stroke="none" stroke-width="1" fill="none" fill-rule="evenodd">
        <g id="Artboard-4" transform="translate(-620.000000, -643.000000)">
            <g id="254" transform="translate(620.000000, 643.000000)">
                <path d="M19.459126,14 L21.4856429,15.1258427 C22.1714524,15.506848 22.1714524,16.493152 21.4856429,16.8741573 L12.4856429,21.8741573 C12.1836204,22.0419476 11.8163796,22.0419476 11.5143571,21.8741573 L2.51435707,16.8741573 C1.82854764,16.493152 1.82854764,15.506848 2.51435707,15.1258427 L4.54087397,14 L6.6,15.1439589 L5.05912603,16 L12,19.8560411 L18.940874,16 L17.4,15.1439589 L19.459126,14 Z" id="Bottom" fill="#333333" fill-rule="nonzero" opacity="0.400000006"></path>
                <path d="M16.9811747,10.9112782 L17.9524605,9.16296361 L21.4856429,11.1258427 C22.1714524,11.506848 22.1714524,12.493152 21.4856429,12.8741573 L12.4856429,17.8741573 C12.1836204,18.0419476 11.8163796,18.0419476 11.5143571,17.8741573 L2.51435707,12.8741573 C1.82854764,12.493152 1.82854764,11.506848 2.51435707,11.1258427 L6.10996461,9.12828298 L7.08125047,10.8765975 L5.05912603,12 L12,15.8560411 L18.940874,12 L16.9811747,10.9112782 Z" id="Mid" fill="#333333" fill-rule="nonzero" opacity="0.699999988"></path>
                <polygon id="Top" stroke="#333333" stroke-width="2" stroke-linejoin="round" points="12 3 3 8 12 13 21 8"></polygon>
            </g>
        </g>
    </g>
</svg>