<?xml version="1.0" encoding="UTF-8"?>
<svg width="24px" height="24px" viewBox="0 0 24 24" version="1.1" xmlns="http://www.w3.org/2000/svg" xmlns:xlink="http://www.w3.org/1999/xlink">
    <!-- Generator: Sketch 44.1 (41455) - http://www.bohemiancoding.com/sketch -->
    <title>library</title>
    <desc>Created with Sketch.</desc>
    <defs></defs>
    <g id="Page-1" stroke="none" stroke-width="1" fill="none" fill-rule="evenodd">
        <g id="Artboard-4" transform="translate(-92.000000, -687.000000)">
            <g id="262" transform="translate(92.000000, 687.000000)">
                <path d="M1,21 L23,21 L24,23 L0,23 L1,21 Z M2.5,18 L21.5,18 L22.5,20 L1.5,20 L2.5,18 Z" id="Base" fill="#333333"></path>
                <path d="M11,11 L13,11 L13,18 L11,18 L11,11 Z M15,11 L17,11 L17,18 L15,18 L15,11 Z M3,11 L5,11 L5,18 L3,18 L3,11 Z M19,11 L21,11 L21,18 L19,18 L19,11 Z M7,11 L9,11 L9,18 L7,18 L7,11 Z" id="Columns" fill="#333333"></path>
                <circle id="Badge" fill="#333333" cx="12" cy="6" r="1"></circle>
                <polygon id="Roof" stroke="#333333" stroke-width="2" stroke-linejoin="round" points="12 2 2 9 22 9"></polygon>
            </g>
        </g>
    </g>
</svg>