<?xml version="1.0" encoding="UTF-8"?>
<svg width="24px" height="24px" viewBox="0 0 24 24" version="1.1" xmlns="http://www.w3.org/2000/svg" xmlns:xlink="http://www.w3.org/1999/xlink">
    <!-- Generator: Sketch 44.1 (41455) - http://www.bohemiancoding.com/sketch -->
    <title>lighthouse</title>
    <desc>Created with Sketch.</desc>
    <defs>
        <linearGradient x1="3.061617e-15%" y1="50%" x2="100%" y2="50%" id="linearGradient-1">
            <stop stop-color="#333333" stop-opacity="0.504132699" offset="0%"></stop>
            <stop stop-color="#333333" stop-opacity="0" offset="100%"></stop>
        </linearGradient>
    </defs>
    <g id="Page-1" stroke="none" stroke-width="1" fill="none" fill-rule="evenodd">
        <g id="Artboard-4" transform="translate(-180.000000, -335.000000)">
            <g id="104" transform="translate(180.000000, 335.000000)">
                <rect id="Base" fill="#333333" x="4" y="22" width="16" height="2" rx="1"></rect>
                <polyline id="Body" stroke="#333333" stroke-width="2" stroke-linejoin="round" points="7 23 9 10 9 5.00000019 12 2 15 5 15 10 17 23"></polyline>
                <circle id="Tip" fill="#333333" cx="12" cy="1" r="1"></circle>
                <path d="M9,15 C9,15 10.5,15 12,15 C13.5,15 15,15 15,15" id="Bottom-Stripe" stroke="#333333" stroke-width="2" opacity="0.5"></path>
                <path d="M8,19 C8,19 10.25,19 12.5,19 C14.75,19 17,19 17,19" id="Top-Stripe" stroke="#333333" stroke-width="2" opacity="0.5"></path>
                <rect id="Light" stroke="#333333" stroke-width="2" fill-opacity="0.2" fill="#333333" x="9" y="6" width="6" height="4"></rect>
                <polygon id="Right-Ray" fill="url(#linearGradient-1)" points="14 7 24 6 24 10 14 9"></polygon>
                <polygon id="Left-Ray" fill="url(#linearGradient-1)" transform="translate(5.000000, 8.000000) scale(-1, 1) translate(-5.000000, -8.000000) " points="0 7 10 6 10 10 0 9"></polygon>
            </g>
        </g>
    </g>
</svg>