<?xml version="1.0" encoding="UTF-8"?>
<svg width="24px" height="24px" viewBox="0 0 24 24" version="1.1" xmlns="http://www.w3.org/2000/svg" xmlns:xlink="http://www.w3.org/1999/xlink">
    <!-- Generator: Sketch 44.1 (41455) - http://www.bohemiancoding.com/sketch -->
    <title>link</title>
    <desc>Created with Sketch.</desc>
    <defs></defs>
    <g id="Page-1" stroke="none" stroke-width="1" fill="none" fill-rule="evenodd" stroke-linecap="round" stroke-linejoin="round">
        <g id="Artboard-4" transform="translate(-884.000000, -247.000000)" stroke="#333333" stroke-width="2">
            <g id="80" transform="translate(884.000000, 247.000000)">
                <g id="Group" transform="translate(12.000000, 12.000000) rotate(45.000000) translate(-12.000000, -12.000000) translate(8.000000, 1.000000)">
                    <path d="M4,13 C6.209139,13 8,11.209139 8,9 L8,4 C8,1.790861 6.209139,1.13686838e-13 4,1.13686838e-13 C1.790861,1.13686838e-13 -1.13686838e-13,1.790861 -1.13686838e-13,4 L-1.13686838e-13,7" id="Combined-Shape"></path>
                    <path d="M4,9 C1.790861,9 -1.13686838e-13,10.790861 -1.13686838e-13,13 L-1.13686838e-13,18 C-1.13686838e-13,20.209139 1.790861,22 4,22 C6.209139,22 8,20.209139 8,18 L8,15" id="Combined-Shape"></path>
                </g>
            </g>
        </g>
    </g>
</svg>