<?xml version="1.0" encoding="UTF-8"?>
<svg width="24px" height="24px" viewBox="0 0 24 24" version="1.1" xmlns="http://www.w3.org/2000/svg" xmlns:xlink="http://www.w3.org/1999/xlink">
    <!-- Generator: Sketch 44.1 (41455) - http://www.bohemiancoding.com/sketch -->
    <title>list</title>
    <desc>Created with Sketch.</desc>
    <defs></defs>
    <g id="Page-1" stroke="none" stroke-width="1" fill="none" fill-rule="evenodd">
        <g id="Artboard-4" transform="translate(-752.000000, -1046.000000)" stroke="#333333">
            <g id="Extras" transform="translate(48.000000, 1046.000000)">
                <g id="list" transform="translate(704.000000, 0.000000)">
                    <path d="M7.5,7 C7.5,7.27759576 7.72452386,7.5 8.00684547,7.5 L19.9931545,7.5 C20.2743191,7.5 20.5,7.27572555 20.5,7 C20.5,6.72240424 20.2754761,6.5 19.9931545,6.5 L8.00684547,6.5 C7.72568093,6.5 7.5,6.72427445 7.5,7 Z M7.5,12 C7.5,12.2775958 7.72452386,12.5 8.00684547,12.5 L19.9931545,12.5 C20.2743191,12.5 20.5,12.2757255 20.5,12 C20.5,11.7224042 20.2754761,11.5 19.9931545,11.5 L8.00684547,11.5 C7.72568093,11.5 7.5,11.7242745 7.5,12 Z M7.5,17 C7.5,17.2775958 7.72452386,17.5 8.00684547,17.5 L19.9931545,17.5 C20.2743191,17.5 20.5,17.2757255 20.5,17 C20.5,16.7224042 20.2754761,16.5 19.9931545,16.5 L8.00684547,16.5 C7.72568093,16.5 7.5,16.7242745 7.5,17 Z M4,7.5 C4.27614237,7.5 4.5,7.27614237 4.5,7 C4.5,6.72385763 4.27614237,6.5 4,6.5 C3.72385763,6.5 3.5,6.72385763 3.5,7 C3.5,7.27614237 3.72385763,7.5 4,7.5 Z M4,12.5 C4.27614237,12.5 4.5,12.2761424 4.5,12 C4.5,11.7238576 4.27614237,11.5 4,11.5 C3.72385763,11.5 3.5,11.7238576 3.5,12 C3.5,12.2761424 3.72385763,12.5 4,12.5 Z M4,17.5 C4.27614237,17.5 4.5,17.2761424 4.5,17 C4.5,16.7238576 4.27614237,16.5 4,16.5 C3.72385763,16.5 3.5,16.7238576 3.5,17 C3.5,17.2761424 3.72385763,17.5 4,17.5 Z" id="Combined-Shape"></path>
                </g>
            </g>
        </g>
    </g>
</svg>