<?xml version="1.0" encoding="UTF-8"?>
<svg width="24px" height="24px" viewBox="0 0 24 24" version="1.1" xmlns="http://www.w3.org/2000/svg" xmlns:xlink="http://www.w3.org/1999/xlink">
    <!-- Generator: Sketch 44.1 (41455) - http://www.bohemiancoding.com/sketch -->
    <title>lock-round-open</title>
    <desc>Created with Sketch.</desc>
    <defs></defs>
    <g id="Page-1" stroke="none" stroke-width="1" fill="none" fill-rule="evenodd">
        <g id="Artboard-4" transform="translate(-488.000000, -1090.000000)">
            <g id="Extras" transform="translate(48.000000, 1046.000000)">
                <g id="round-lock-opened" transform="translate(440.000000, 44.000000)">
                    <circle id="Body" stroke="#333333" stroke-width="2" cx="12" cy="15" r="7"></circle>
                    <path d="M13,15.7324356 L13,17 C13,17.5522847 12.5522847,18 12,18 C11.4477153,18 11,17.5522847 11,17 L11,15.7324356 C10.4021986,15.3866262 10,14.7402824 10,14 C10,12.8954305 10.8954305,12 12,12 C13.1045695,12 14,12.8954305 14,14 C14,14.7402824 13.5978014,15.3866262 13,15.7324356 Z" id="Keyhole" fill="#333333"></path>
                    <path d="M16,5 C16,2.790861 14.209139,1 12,1 C9.790861,1 8,2.790861 8,5 L8,9" id="Lock" stroke="#333333" stroke-width="2" stroke-linecap="round"></path>
                </g>
            </g>
        </g>
    </g>
</svg>