<?xml version="1.0" encoding="UTF-8"?>
<svg width="24px" height="24px" viewBox="0 0 24 24" version="1.1" xmlns="http://www.w3.org/2000/svg" xmlns:xlink="http://www.w3.org/1999/xlink">
    <!-- Generator: Sketch 44.1 (41455) - http://www.bohemiancoding.com/sketch -->
    <title>magic-wand</title>
    <desc>Created with Sketch.</desc>
    <defs></defs>
    <g id="Page-1" stroke="none" stroke-width="1" fill="none" fill-rule="evenodd">
        <g id="Artboard-4" transform="translate(-664.000000, -379.000000)">
            <g id="134" transform="translate(664.000000, 379.000000)">
                <rect id="Wand" stroke="#333333" stroke-width="2" transform="translate(9.981477, 14.003305) rotate(-315.000000) translate(-9.981477, -14.003305) " x="7.98147698" y="2.70503199" width="4" height="22.5965469" rx="1"></rect>
                <path d="M12,9 L15,12" id="Tip" stroke="#333333" stroke-width="2"></path>
                <path d="M22,0.497698784 L22,1.00630944 C22,1.55738551 22.4448904,2 22.9936906,2 L23.5023012,2 C23.7771727,2 24,2.23193359 24,2.5 C24,2.77614237 23.7851562,3 23.5023012,3 L22.9936906,3 C22.4426145,3 22,3.44489042 22,3.99369056 L22,4.50230122 C22,4.77717266 21.7680664,5 21.5,5 C21.2238576,5 21,4.78515625 21,4.50230122 L21,3.99369056 C21,3.44261449 20.5551096,3 20.0063094,3 L19.4976988,3 C19.2228273,3 19,2.76806641 19,2.5 C19,2.22385763 19.2148438,2 19.4976988,2 L20.0063094,2 C20.5573855,2 21,1.55510958 21,1.00630944 L21,0.497698784 C21,0.222827336 21.2319336,0 21.5,0 C21.7761424,0 22,0.21484375 22,0.497698784 Z M23,10 C22.4477153,10 22,9.55228475 22,9 C22,8.44771525 22.4477153,8 23,8 C23.5522847,8 24,8.44771525 24,9 C24,9.55228475 23.5522847,10 23,10 Z M12.5,3 C11.6715729,3 11,2.32842712 11,1.5 C11,0.671572875 11.6715729,0 12.5,0 C13.3284271,0 14,0.671572875 14,1.5 C14,2.32842712 13.3284271,3 12.5,3 Z M21,12.495389 L21,12.501056 C21,12.7713173 21.2233848,13 21.498944,13 L21.504611,13 C21.7782068,13 22,13.2319336 22,13.5 C22,13.7761424 21.7842474,14 21.504611,14 L21.498944,14 C21.2286827,14 21,14.2233848 21,14.498944 L21,14.504611 C21,14.7782068 20.7680664,15 20.5,15 C20.2238576,15 20,14.7842474 20,14.504611 L20,14.498944 C20,14.2286827 19.7766152,14 19.501056,14 L19.495389,14 C19.2217932,14 19,13.7680664 19,13.5 C19,13.2238576 19.2157526,13 19.495389,13 L19.501056,13 C19.7713173,13 20,12.7766152 20,12.501056 L20,12.495389 C20,12.2217932 20.2319336,12 20.5,12 C20.7761424,12 21,12.2157526 21,12.495389 Z M8,4.49538898 L8,4.501056 C8,4.77131733 8.22338484,5 8.498944,5 L8.50461102,5 C8.7782068,5 9,5.23193359 9,5.5 C9,5.77614237 8.7842474,6 8.50461102,6 L8.498944,6 C8.22868267,6 8,6.22338484 8,6.498944 L8,6.50461102 C8,6.7782068 7.76806641,7 7.5,7 C7.22385763,7 7,6.7842474 7,6.50461102 L7,6.498944 C7,6.22868267 6.77661516,6 6.501056,6 L6.49538898,6 C6.2217932,6 6,5.76806641 6,5.5 C6,5.22385763 6.2157526,5 6.49538898,5 L6.501056,5 C6.77131733,5 7,4.77661516 7,4.501056 L7,4.49538898 C7,4.2217932 7.23193359,4 7.5,4 C7.77614237,4 8,4.2157526 8,4.49538898 Z" id="Sparkles" fill="#333333"></path>
            </g>
        </g>
    </g>
</svg>