<?xml version="1.0" encoding="UTF-8"?>
<svg width="24px" height="24px" viewBox="0 0 24 24" version="1.1" xmlns="http://www.w3.org/2000/svg" xmlns:xlink="http://www.w3.org/1999/xlink">
    <!-- Generator: Sketch 44.1 (41455) - http://www.bohemiancoding.com/sketch -->
    <title>mallet</title>
    <desc>Created with Sketch.</desc>
    <defs></defs>
    <g id="Page-1" stroke="none" stroke-width="1" fill="none" fill-rule="evenodd">
        <g id="Artboard-4" transform="translate(-92.000000, -643.000000)">
            <g id="242" transform="translate(86.000000, 642.000000)">
                <g id="mallet" transform="translate(15.702796, 15.402808) rotate(-315.000000) translate(-15.702796, -15.402808) translate(7.202796, 2.402808)">
                    <g>
                        <path d="M7,1.49125692 C7,0.667658464 7.66579723,0 8.5,0 C9.32842712,0 10,0.6688281 10,1.49125692 L10,24.5087431 C10,25.3323415 9.33420277,26 8.5,26 C7.67157288,26 7,25.3311719 7,24.5087431 L7,1.49125692 Z M7,3 L7,11 L10,11 L10,3 L7,3 Z" id="Combined-Shape" fill="#333333"></path>
                        <path d="M1,3.99703014 C1,3.4463856 1.44892021,3 2.00748397,3 L14.992516,3 C15.5489341,3 16,3.45303631 16,3.99703014 L16,10.0029699 C16,10.5536144 15.5510798,11 14.992516,11 L2.00748397,11 C1.45106594,11 1,10.5469637 1,10.0029699 L1,3.99703014 Z" id="Rectangle-186" stroke="#333333" stroke-width="2"></path>
                        <rect id="Rectangle-187" fill="#333333" x="14" y="1" width="3" height="12" rx="1.5"></rect>
                        <rect id="Rectangle-187" fill="#333333" x="0" y="1" width="3" height="12" rx="1.5"></rect>
                    </g>
                </g>
            </g>
        </g>
    </g>
</svg>