<?xml version="1.0" encoding="UTF-8"?>
<svg width="24px" height="24px" viewBox="0 0 24 24" version="1.1" xmlns="http://www.w3.org/2000/svg" xmlns:xlink="http://www.w3.org/1999/xlink">
    <!-- Generator: Sketch 44.1 (41455) - http://www.bohemiancoding.com/sketch -->
    <title>money-stack</title>
    <desc>Created with Sketch.</desc>
    <defs>
        <linearGradient x1="50%" y1="0%" x2="50%" y2="14.4287109%" id="linearGradient-1">
            <stop stop-color="#333333" stop-opacity="0" offset="0%"></stop>
            <stop stop-color="#333333" offset="100%"></stop>
        </linearGradient>
    </defs>
    <g id="Page-1" stroke="none" stroke-width="1" fill="none" fill-rule="evenodd">
        <g id="Artboard-4" transform="translate(-620.000000, -599.000000)">
            <g id="234" transform="translate(620.000000, 599.000000)">
                <path d="M22,14 L22,16.9975267 C22,17.5511774 21.5446944,18 21.0081969,18 L16,18 M8,18 L2.99180311,18 C2.44404538,18 2,17.544239 2,16.9975267 L2,14" id="Bottom" stroke="#333333" stroke-width="2"></path>
                <path d="M22,17 L22,19.9975267 C22,20.5511774 21.5446944,21 21.0081969,21 L16,21 M8,21 L2.99180311,21 C2.44404538,21 2,20.544239 2,19.9975267 L2,17" id="Mid" stroke="#333333" stroke-width="2"></path>
                <path d="M8.04052734,15 L2.99747024,15 C2.44658264,15 2,14.544239 2,13.9975267 L2,4.00247329 L2,4.00247329 C2,3.44882258 2.45519573,3 3.00005039,3 L8.05615234,3 M15.9989014,3 L21.0090406,3 C21.5563324,3 22,3.45576096 22,4.00247329 L22,13.9975267 C22,14.5511774 21.5486945,15 21.0084964,15 L15.9956055,15" id="Top" stroke="#333333" stroke-width="2" stroke-linejoin="round"></path>
                <path d="M18,4 C18,5.5 19.5,7 21,7" id="Corner-4" stroke="#333333" stroke-width="2"></path>
                <path d="M3,4 C3,5.5 4.5,7 6,7" id="Corner-3" stroke="#333333" stroke-width="2" transform="translate(4.500000, 5.500000) scale(-1, 1) translate(-4.500000, -5.500000) "></path>
                <path d="M18,11 C18,12.5 19.5,14 21,14" id="Corner-2" stroke="#333333" stroke-width="2" transform="translate(19.500000, 12.500000) scale(1, -1) translate(-19.500000, -12.500000) "></path>
                <path d="M3,11 C3,12.5 4.5,14 6,14" id="Corner-1" stroke="#333333" stroke-width="2" transform="translate(4.500000, 12.500000) scale(-1, -1) translate(-4.500000, -12.500000) "></path>
                <rect id="Strap" stroke="#333333" stroke-width="2" stroke-linecap="round" stroke-linejoin="round" x="8" y="2" width="8" height="20"></rect>
                <circle id="Seal" fill="#333333" cx="12" cy="8" r="2"></circle>
                <rect id="Tint" fill="url(#linearGradient-1)" opacity="0.25" x="2" y="15" width="20" height="6"></rect>
            </g>
        </g>
    </g>
</svg>