<?xml version="1.0" encoding="UTF-8"?>
<svg width="24px" height="24px" viewBox="0 0 24 24" version="1.1" xmlns="http://www.w3.org/2000/svg" xmlns:xlink="http://www.w3.org/1999/xlink">
    <!-- Generator: Sketch 44.1 (41455) - http://www.bohemiancoding.com/sketch -->
    <title>music</title>
    <desc>Created with Sketch.</desc>
    <defs></defs>
    <g id="Page-1" stroke="none" stroke-width="1" fill="none" fill-rule="evenodd">
        <g id="Artboard-4" transform="translate(-752.000000, -159.000000)" stroke="#333333" stroke-width="2">
            <g id="37" transform="translate(752.000000, 159.000000)">
                <path d="M20,16.5 L20,1.99810135 C20,1.52153048 19.7030695,1.27919 19.2351281,1.37277828 L8.15710418,3.58838307 C7.53739194,3.71232551 7,4.36865504 7,4.99810135 L7,17 L4.5,17 C3.12168932,17 2,18.1208193 2,19.5 C2,20.8783107 3.12081929,22 4.5,22 C5.87831068,22 7,20.8791807 7,19.5 L7,9.7801961 L20,7.1801961 L20,14 L17.5,14 C16.1216893,14 15,15.1208193 15,16.5 C15,17.8783107 16.1208193,19 17.5,19 C18.8783107,19 20,17.8791807 20,16.5 Z" id="Combined-Shape"></path>
            </g>
        </g>
    </g>
</svg>