<?xml version="1.0" encoding="UTF-8"?>
<svg width="24px" height="24px" viewBox="0 0 24 24" version="1.1" xmlns="http://www.w3.org/2000/svg" xmlns:xlink="http://www.w3.org/1999/xlink">
    <!-- Generator: Sketch 44.1 (41455) - http://www.bohemiancoding.com/sketch -->
    <title>newspaper</title>
    <desc>Created with Sketch.</desc>
    <defs></defs>
    <g id="Page-1" stroke="none" stroke-width="1" fill="none" fill-rule="evenodd">
        <g id="Artboard-4" transform="translate(-400.000000, -379.000000)">
            <g id="128" transform="translate(400.000000, 379.000000)">
                <path d="M4,12 L4,5.99791312 C4,4.89449617 4.8926228,4 5.99508929,4 L20.0049107,4 C21.1067681,4 22,4.89706013 22,6.00585866 L22,17.9941413 C22,19.1019465 21.1073772,20 20.0049107,20 L2.5,20" id="Front-Page" stroke="#333333" stroke-width="2"></path>
                <path d="M4,6 L4,18.5017548 C4,19.3292128 3.33420277,20 2.5,20 L2.5,20 C1.67157288,20 1,19.3247509 1,18.5017548 L1,7.49824524 C1,6.67078724 1.66579723,6 2.5,6 L4,6 Z" id="Fold" stroke="#333333" stroke-width="2" stroke-linecap="round" stroke-linejoin="round"></path>
                <rect id="Title" stroke="#333333" x="7.5" y="7.5" width="11" height="1" rx="0.5"></rect>
                <path d="M7,11 L12,11 L12,16 L7,16 L7,11 Z M13,11.5 C13,11.2238576 13.2278805,11 13.4910052,11 L18.5089948,11 C18.7801695,11 19,11.2319336 19,11.5 C19,11.7761424 18.7721195,12 18.5089948,12 L13.4910052,12 C13.2198305,12 13,11.7680664 13,11.5 Z M13,13.5 C13,13.2238576 13.2278805,13 13.4910052,13 L18.5089948,13 C18.7801695,13 19,13.2319336 19,13.5 C19,13.7761424 18.7721195,14 18.5089948,14 L13.4910052,14 C13.2198305,14 13,13.7680664 13,13.5 Z M13,15.5 C13,15.2238576 13.2278805,15 13.4910052,15 L18.5089948,15 C18.7801695,15 19,15.2319336 19,15.5 C19,15.7761424 18.7721195,16 18.5089948,16 L13.4910052,16 C13.2198305,16 13,15.7680664 13,15.5 Z" id="Content" fill="#333333" opacity="0.5"></path>
                <rect id="Crease" fill="#333333" opacity="0.200000003" x="4" y="17.5" width="18" height="2"></rect>
            </g>
        </g>
    </g>
</svg>