<?xml version="1.0" encoding="UTF-8"?>
<svg width="24px" height="24px" viewBox="0 0 24 24" version="1.1" xmlns="http://www.w3.org/2000/svg" xmlns:xlink="http://www.w3.org/1999/xlink">
    <!-- Generator: Sketch 44.1 (41455) - http://www.bohemiancoding.com/sketch -->
    <title>night-shift</title>
    <desc>Created with Sketch.</desc>
    <defs></defs>
    <g id="Page-1" stroke="none" stroke-width="1" fill="none" fill-rule="evenodd">
        <g id="Artboard-4" transform="translate(-840.000000, -423.000000)">
            <g id="159" transform="translate(840.000000, 423.000000)">
                <path d="M17,12 C17,14.7614237 14.7614237,17 12,17 C9.23857625,17 7,14.7614237 7,12 C7,9.23857625 9.23857625,7 12,7 C14.7614237,7 17,9.23857625 17,12 Z M9,12 C9,13.6568542 10.3431458,15 12,15 C13.6568542,15 15,13.6568542 15,12 C15,10.3431458 13.6568542,9 12,9 C10.3431458,9 9,10.3431458 9,12 Z" id="Sun" fill="#333333" fill-rule="nonzero"></path>
                <path d="M11,10.5 C11,9.11928813 12.1192881,8 13.5,8 C14.8807119,8 16,9.11928813 16,10.5 C16,11.8807119 14.8807119,13 13.5,13 C12.1192881,13 11,11.8807119 11,10.5 Z" id="Moon" fill="#333333"></path>
                <path d="M12,5 L12,3 M16.9497475,7.05025253 L18.363961,5.63603897 M19,12 L21,12 M16.9497475,16.9497475 L18.363961,18.363961 M12,19 L12,21 M7.05025253,16.9497475 L5.63603897,18.363961 M5,12 L3,12 M7.05025253,7.05025253 L5.63603897,5.63603897" id="Rays" stroke="#333333" stroke-width="2" stroke-linecap="round" stroke-linejoin="round"></path>
            </g>
        </g>
    </g>
</svg>