<?xml version="1.0" encoding="UTF-8"?>
<svg width="24px" height="24px" viewBox="0 0 24 24" version="1.1" xmlns="http://www.w3.org/2000/svg" xmlns:xlink="http://www.w3.org/1999/xlink">
    <!-- Generator: Sketch 44.1 (41455) - http://www.bohemiancoding.com/sketch -->
    <title>nintendo-switch</title>
    <desc>Created with Sketch.</desc>
    <defs>
        <rect id="path-1" x="6" y="6" width="12" height="12"></rect>
    </defs>
    <g id="Page-1" stroke="none" stroke-width="1" fill="none" fill-rule="evenodd">
        <g id="Artboard-4" transform="translate(-224.000000, -775.000000)">
            <g id="305" transform="translate(224.000000, 775.000000)">
                <rect id="Body" stroke="#333333" stroke-width="2" x="1" y="6" width="22" height="12" rx="2"></rect>
                <g id="Screen">
                    <use fill-opacity="0.199247056" fill="#333333" fill-rule="evenodd" xlink:href="#path-1"></use>
                    <rect stroke="#333333" stroke-width="1" x="5.5" y="5.5" width="13" height="13"></rect>
                </g>
                <path d="M2.5,13 C2.22385763,13 2,12.7761424 2,12.5 C2,12.2238576 2.22385763,12 2.5,12 C2.77614237,12 3,12.2238576 3,12.5 C3,12.7761424 2.77614237,13 2.5,13 Z M3.5,14 C3.22385763,14 3,13.7761424 3,13.5 C3,13.2238576 3.22385763,13 3.5,13 C3.77614237,13 4,13.2238576 4,13.5 C4,13.7761424 3.77614237,14 3.5,14 Z M4.5,13 C4.22385763,13 4,12.7761424 4,12.5 C4,12.2238576 4.22385763,12 4.5,12 C4.77614237,12 5,12.2238576 5,12.5 C5,12.7761424 4.77614237,13 4.5,13 Z M3.5,12 C3.22385763,12 3,11.7761424 3,11.5 C3,11.2238576 3.22385763,11 3.5,11 C3.77614237,11 4,11.2238576 4,11.5 C4,11.7761424 3.77614237,12 3.5,12 Z" id="Left-Buttons" fill="#333333"></path>
                <path d="M19.5,10 C19.2238576,10 19,9.77614237 19,9.5 C19,9.22385763 19.2238576,9 19.5,9 C19.7761424,9 20,9.22385763 20,9.5 C20,9.77614237 19.7761424,10 19.5,10 Z M20.5,11 C20.2238576,11 20,10.7761424 20,10.5 C20,10.2238576 20.2238576,10 20.5,10 C20.7761424,10 21,10.2238576 21,10.5 C21,10.7761424 20.7761424,11 20.5,11 Z M21.5,10 C21.2238576,10 21,9.77614237 21,9.5 C21,9.22385763 21.2238576,9 21.5,9 C21.7761424,9 22,9.22385763 22,9.5 C22,9.77614237 21.7761424,10 21.5,10 Z M20.5,9 C20.2238576,9 20,8.77614237 20,8.5 C20,8.22385763 20.2238576,8 20.5,8 C20.7761424,8 21,8.22385763 21,8.5 C21,8.77614237 20.7761424,9 20.5,9 Z" id="Right-Buttons" fill="#333333"></path>
                <path d="M20.5,14 C19.9477153,14 19.5,13.5522847 19.5,13 C19.5,12.4477153 19.9477153,12 20.5,12 C21.0522847,12 21.5,12.4477153 21.5,13 C21.5,13.5522847 21.0522847,14 20.5,14 Z M3.5,10 C2.94771525,10 2.5,9.55228475 2.5,9 C2.5,8.44771525 2.94771525,8 3.5,8 C4.05228475,8 4.5,8.44771525 4.5,9 C4.5,9.55228475 4.05228475,10 3.5,10 Z" id="Sticks" fill="#333333"></path>
            </g>
        </g>
    </g>
</svg>