<?xml version="1.0" encoding="UTF-8"?>
<svg width="24px" height="24px" viewBox="0 0 24 24" version="1.1" xmlns="http://www.w3.org/2000/svg" xmlns:xlink="http://www.w3.org/1999/xlink">
    <!-- Generator: Sketch 44.1 (41455) - http://www.bohemiancoding.com/sketch -->
    <title>paperclip</title>
    <desc>Created with Sketch.</desc>
    <defs></defs>
    <g id="Page-1" stroke="none" stroke-width="1" fill="none" fill-rule="evenodd">
        <g id="Artboard-4" transform="translate(-224.000000, -247.000000)" fill="#333333">
            <g id="65" transform="translate(223.000000, 246.000000)">
                <path d="M14,10.4146471 L14,16.7577745 L14,18.6242371 L14,20.4906997 C14,21.876548 12.8903379,23 11.5,23 C10.1192881,23 9,21.8876343 9,20.4906996 L9,15.8788873 L9,12.2361065 L9,7.009763 C9,4.79523205 10.7953562,3 13,3 C15.209139,3 17,4.7877996 17,7.009763 L17,12.2361065 L17,17.9975267 C17,18.544239 17.4477153,19 18,19 C18.5561352,19 19,18.5511774 19,17.9975267 L19,7 C19,3.6862915 16.3137085,1 13,1 C9.6862915,1 7,3.6862915 7,7 L7,21 L7.02746439,21 C7.27618653,23.2499752 9.18372317,25 11.5,25 C13.8162768,25 15.7238135,23.2499752 15.9725356,21 L16,21 L16,7 C16,5.34314575 14.6568542,4 13,4 C11.3431458,4 10,5.34314575 10,7 L10,17.9975267 C10,18.544239 10.4477153,19 11,19 C11.5561352,19 12,18.5511774 12,17.9975267 L12,10.4146471 L12,6.99980749 C12,6.44762906 12.4438648,6 13,6 C13.5522847,6 14,6.44371665 14,6.99980749 L14,10.4146471 Z" id="Combined-Shape" transform="translate(13.000000, 13.000000) scale(1, -1) rotate(-315.000000) translate(-13.000000, -13.000000) "></path>
            </g>
        </g>
    </g>
</svg>