<?xml version="1.0" encoding="UTF-8"?>
<svg width="24px" height="24px" viewBox="0 0 24 24" version="1.1" xmlns="http://www.w3.org/2000/svg" xmlns:xlink="http://www.w3.org/1999/xlink">
    <!-- Generator: Sketch 44.1 (41455) - http://www.bohemiancoding.com/sketch -->
    <title>paste</title>
    <desc>Created with Sketch.</desc>
    <defs></defs>
    <g id="Page-1" stroke="none" stroke-width="1" fill="none" fill-rule="evenodd">
        <g id="Artboard-4" transform="translate(-136.000000, -247.000000)">
            <g id="63" transform="translate(136.000000, 247.000000)">
                <path d="M8.38318339,5 L7.00247329,5 C6.45576096,5 6,5.45106594 6,6.00748397 L6,18.992516 C6,19.5510798 6.44882258,20 7.00247329,20 L16.9975267,20 C17.544239,20 18,19.5489341 18,18.992516 L18,6.00748397 C18,5.44892021 17.5511774,5 16.9975267,5 L15.6168166,5 L17,5 L17,5.5 C17,5.77614237 16.7723472,6 16.4903505,6 L7.50964952,6 C7.22817786,6 7,5.76806641 7,5.5 L7,5 L8.38318339,5 Z M9,3 C9,1.34314575 10.3431458,0 12,0 C13.6568542,0 15,1.34314575 15,3 L16.9905224,3 C18.652611,3 20,4.3360431 20,6.00012207 L20,18.9998779 C20,20.6567996 18.6633689,22 16.9905224,22 L7.00947762,22 C5.34738902,22 4,20.6639569 4,18.9998779 L4,6.00012207 C4,4.3432004 5.33663106,3 7.00947762,3 L9,3 Z M12,4 C12.5522847,4 13,3.55228475 13,3 C13,2.44771525 12.5522847,2 12,2 C11.4477153,2 11,2.44771525 11,3 C11,3.55228475 11.4477153,4 12,4 Z" id="Combined-Shape" fill="#333333"></path>
                <path d="M9,9 L15.0207973,9" id="Path-153" stroke="#333333" stroke-width="2" stroke-linecap="round" stroke-linejoin="round"></path>
                <path d="M9,13 L15.0207973,13" id="Path-153" stroke="#333333" stroke-width="2" stroke-linecap="round" stroke-linejoin="round"></path>
                <path d="M9,17 L15.0207973,17" id="Path-153" stroke="#333333" stroke-width="2" stroke-linecap="round" stroke-linejoin="round"></path>
            </g>
        </g>
    </g>
</svg>