<?xml version="1.0" encoding="UTF-8"?>
<svg width="24px" height="24px" viewBox="0 0 24 24" version="1.1" xmlns="http://www.w3.org/2000/svg" xmlns:xlink="http://www.w3.org/1999/xlink">
    <!-- Generator: Sketch 44.1 (41455) - http://www.bohemiancoding.com/sketch -->
    <title>pause</title>
    <desc>Created with Sketch.</desc>
    <defs></defs>
    <g id="Page-1" stroke="none" stroke-width="1" fill="none" fill-rule="evenodd">
        <g id="Artboard-4" transform="translate(-576.000000, -115.000000)" stroke="#333333" stroke-width="2">
            <g id="13" transform="translate(576.000000, 115.000000)">
                <path d="M5,3.99339768 C5,3.44475929 5.44371665,3 5.99980749,3 L9.00019251,3 C9.55237094,3 10,3.44494629 10,3.99339768 L10,20.0066023 C10,20.5552407 9.55628335,21 9.00019251,21 L5.99980749,21 C5.44762906,21 5,20.5550537 5,20.0066023 L5,3.99339768 Z M14,3.99339768 C14,3.44475929 14.4437166,3 14.9998075,3 L18.0001925,3 C18.5523709,3 19,3.44494629 19,3.99339768 L19,20.0066023 C19,20.5552407 18.5562834,21 18.0001925,21 L14.9998075,21 C14.4476291,21 14,20.5550537 14,20.0066023 L14,3.99339768 Z" id="Combined-Shape"></path>
            </g>
        </g>
    </g>
</svg>