<?xml version="1.0" encoding="UTF-8"?>
<svg width="24px" height="24px" viewBox="0 0 24 24" version="1.1" xmlns="http://www.w3.org/2000/svg" xmlns:xlink="http://www.w3.org/1999/xlink">
    <!-- Generator: Sketch 44.1 (41455) - http://www.bohemiancoding.com/sketch -->
    <title>personal-hotspot</title>
    <desc>Created with Sketch.</desc>
    <defs></defs>
    <g id="Page-1" stroke="none" stroke-width="1" fill="none" fill-rule="evenodd">
        <g id="Artboard-4" transform="translate(-444.000000, -511.000000)" fill-rule="nonzero" fill="#333333">
            <g id="190" transform="translate(444.000000, 511.000000)">
                <path d="M8.16542774,15 L13.0033142,15 C16.3122652,15 19,12.3121494 19,9 C19,5.69029169 16.3135769,3 13.0033142,3 L6.99668583,3 C3.68773478,3 1,5.68785059 1,9 C1,11.2192709 2.20785732,13.1600426 4.00173952,14.1979828 C4.00058067,14.1321792 4,14.0661818 4,14 C4,13.2617154 4.07211803,12.5467889 4.21286136,11.8680284 C3.46503873,11.1407385 3,10.1237823 3,9 C3,6.7924008 4.79232357,5 6.99668583,5 L13.0033142,5 C15.2083626,5 17,6.79421744 17,9 C17,11.2075992 15.2076764,13 13.0033142,13 L8.17515752,13 C8.06393981,13.2996598 8,13.6329932 8,14 C8,14.3670068 8.06024721,14.7003402 8.16542774,15 Z" id="Ring-2"></path>
                <path d="M15.8230855,8 L10.9966858,8 C7.68773478,8 5,10.6878506 5,14 C5,17.3097083 7.68642314,20 10.9966858,20 L17.0033142,20 C20.3122652,20 23,17.3121494 23,14 C23,11.7805399 21.7919368,9.83962653 19.9978018,8.80175177 C19.9992537,8.86564308 20,8.93170203 20,9 C20,9.93084534 19.8613643,10.5844193 19.6873316,11.0381509 C20.4933607,11.7704414 21,12.8270295 21,14 C21,16.2075992 19.2076764,18 17.0033142,18 L10.9966858,18 C8.79163742,18 7,16.2057826 7,14 C7,11.7924008 8.79232357,10 10.9966858,10 L15.869781,10 C15.9488907,9.67822114 16,9.33911057 16,9 C16,8.59807621 15.9282032,8.26794919 15.8230855,8 Z" id="Ring-1"></path>
            </g>
        </g>
    </g>
</svg>