<?xml version="1.0" encoding="UTF-8"?>
<svg width="24px" height="24px" viewBox="0 0 24 24" version="1.1" xmlns="http://www.w3.org/2000/svg" xmlns:xlink="http://www.w3.org/1999/xlink">
    <!-- Generator: Sketch 44.1 (41455) - http://www.bohemiancoding.com/sketch -->
    <title>phone-alt</title>
    <desc>Created with Sketch.</desc>
    <defs></defs>
    <g id="Page-1" stroke="none" stroke-width="1" fill="none" fill-rule="evenodd" stroke-linecap="round" stroke-linejoin="round">
        <g id="Artboard-4" transform="translate(-136.000000, -511.000000)" stroke="#333333" stroke-width="2">
            <g id="183" transform="translate(136.000000, 511.000000)">
                <path d="M15.8303475,4.04479665 C15.9381433,3.50181004 15.6178094,2.87821702 15.1078273,2.67786626 C15.1078273,2.67786626 14.025529,2.06163243 12.025529,2.06163243 C10.025529,2.06163243 6.52552899,5.56163243 6.52552899,13.0616324 C6.52552899,20.5616324 10.025529,24.0616324 12.025529,24.0616324 C14.025529,24.0616324 15.1078273,23.4453986 15.1078273,23.4453986 C15.6146599,23.2334504 15.9116778,22.6338827 15.7703536,22.1029147 L14.8894616,18.7933209 C14.7485321,18.2638357 14.1888771,17.867131 13.6335439,17.9076863 L12.5262713,17.9885493 C11.9735766,18.028912 11.4451953,17.6219845 11.3562518,17.0719233 C11.3562518,17.0719233 11.025529,15.5820248 11.025529,13.0616324 C11.025529,10.5412401 11.3562518,9.05134155 11.3562518,9.05134155 C11.449741,8.5047403 11.9781656,8.09131254 12.5269727,8.12729869 L13.9863959,8.2229954 C14.539478,8.25926187 15.0763124,7.84300808 15.183021,7.30549744 L15.8303475,4.04479665 Z" id="Path-120" transform="translate(11.188368, 13.061632) rotate(-45.000000) translate(-11.188368, -13.061632) "></path>
            </g>
        </g>
    </g>
</svg>