<?xml version="1.0" encoding="UTF-8"?>
<svg width="24px" height="24px" viewBox="0 0 24 24" version="1.1" xmlns="http://www.w3.org/2000/svg" xmlns:xlink="http://www.w3.org/1999/xlink">
    <!-- Generator: Sketch 44.1 (41455) - http://www.bohemiancoding.com/sketch -->
    <title>photos</title>
    <desc>Created with Sketch.</desc>
    <defs></defs>
    <g id="Page-1" stroke="none" stroke-width="1" fill="none" fill-rule="evenodd">
        <g id="Artboard-4" transform="translate(-224.000000, -863.000000)" fill="#333333">
            <g id="345" transform="translate(224.000000, 863.000000)">
                <g id="Group-7" transform="translate(1.000000, 1.000000)">
                    <rect id="Path" opacity="0.600000024" transform="translate(6.706857, 6.706842) scale(-1, 1) rotate(-315.000000) translate(-6.706857, -6.706842) " x="3.7068573" y="1.70684204" width="6" height="10" rx="3"></rect>
                    <rect id="Path" opacity="0.400000006" transform="translate(5.000000, 11.000000) rotate(-90.000000) translate(-5.000000, -11.000000) " x="2" y="6" width="6" height="10" rx="3"></rect>
                    <rect id="Path" opacity="0.200000003" transform="translate(6.706857, 15.206842) scale(-1, -1) rotate(-315.000000) translate(-6.706857, -15.206842) " x="3.7068573" y="10.206842" width="6" height="10" rx="3"></rect>
                    <rect id="Path" opacity="0.400000006" x="8" y="12" width="6" height="10" rx="3"></rect>
                    <rect id="Path" opacity="0.600000024" transform="translate(15.306848, 15.206842) scale(1, -1) rotate(-315.000000) translate(-15.306848, -15.206842) " x="12.3068481" y="10.206842" width="6" height="10" rx="3"></rect>
                    <rect id="Path" transform="translate(15.306848, 6.706842) rotate(-315.000000) translate(-15.306848, -6.706842) " x="12.3068481" y="1.70684204" width="6" height="10" rx="3"></rect>
                    <rect id="Path" opacity="0.800000012" x="8" y="0" width="6" height="10" rx="3"></rect>
                    <rect id="Path" opacity="0.800000012" transform="translate(17.000000, 11.000000) rotate(-270.000000) translate(-17.000000, -11.000000) " x="14" y="6" width="6" height="10" rx="3"></rect>
                </g>
            </g>
        </g>
    </g>
</svg>