<?xml version="1.0" encoding="UTF-8"?>
<svg width="24px" height="24px" viewBox="0 0 24 24" version="1.1" xmlns="http://www.w3.org/2000/svg" xmlns:xlink="http://www.w3.org/1999/xlink">
    <!-- Generator: Sketch 44.1 (41455) - http://www.bohemiancoding.com/sketch -->
    <title>photo-vignette</title>
    <desc>Created with Sketch.</desc>
    <defs></defs>
    <g id="Page-1" stroke="none" stroke-width="1" fill="none" fill-rule="evenodd">
        <g id="Artboard-4" transform="translate(-92.000000, -775.000000)">
            <g id="302" transform="translate(92.000000, 775.000000)">
                <path d="M3,5.99406028 C3,4.8927712 3.8926228,4 4.99508929,4 L19.0049107,4 C20.1067681,4 21,4.89451376 21,5.99406028 L21,18.0059397 C21,19.1072288 20.1073772,20 19.0049107,20 L4.99508929,20 C3.8932319,20 3,19.1054862 3,18.0059397 L3,5.99406028 Z M12,19 C15.8659932,19 19,15.8659932 19,12 C19,8.13400675 15.8659932,5 12,5 C8.13400675,5 5,8.13400675 5,12 C5,15.8659932 8.13400675,19 12,19 Z" id="1" fill="#333333" opacity="0.400000006"></path>
                <path d="M12,19 C8.13400675,19 5,15.8659932 5,12 C5,8.13400675 8.13400675,5 12,5 C15.8659932,5 19,8.13400675 19,12 C19,15.8659932 15.8659932,19 12,19 Z M12,17 C14.7614237,17 17,14.7614237 17,12 C17,9.23857625 14.7614237,7 12,7 C9.23857625,7 7,9.23857625 7,12 C7,14.7614237 9.23857625,17 12,17 Z" id="2" fill="#333333" opacity="0.200000003"></path>
                <path d="M12,17 C9.23857625,17 7,14.7614237 7,12 C7,9.23857625 9.23857625,7 12,7 C14.7614237,7 17,9.23857625 17,12 C17,14.7614237 14.7614237,17 12,17 Z M12,15 C13.6568542,15 15,13.6568542 15,12 C15,10.3431458 13.6568542,9 12,9 C10.3431458,9 9,10.3431458 9,12 C9,13.6568542 10.3431458,15 12,15 Z" id="3" fill="#333333" opacity="0.100000001"></path>
                <rect id="Photo" stroke="#333333" stroke-width="2" stroke-linecap="round" x="3" y="4" width="18" height="16" rx="2"></rect>
            </g>
        </g>
    </g>
</svg>