<?xml version="1.0" encoding="UTF-8"?>
<svg width="24px" height="24px" viewBox="0 0 24 24" version="1.1" xmlns="http://www.w3.org/2000/svg" xmlns:xlink="http://www.w3.org/1999/xlink">
    <!-- Generator: Sketch 44.1 (41455) - http://www.bohemiancoding.com/sketch -->
    <title>piggy-bank</title>
    <desc>Created with Sketch.</desc>
    <defs></defs>
    <g id="Page-1" stroke="none" stroke-width="1" fill="none" fill-rule="evenodd">
        <g id="Artboard-4" transform="translate(-488.000000, -775.000000)">
            <g id="311" transform="translate(488.000000, 775.000000)">
                <path d="M10,18 L8.89410734,20.5804162 C8.6779601,21.0847598 8.08828831,21.3235521 7.5804162,21.1058927 L5.9195838,20.3941073 C5.41524023,20.1779601 5.1416599,19.5750203 5.31640625,19.0507812 L5.68359375,17.9492188 C5.86095428,17.4171371 6,16.5 5.59159748,15.9902274 C4.59012035,14.7401725 4,13.1840239 4,11.5 C4,7.35786438 7.581722,4 12,4 C12.694035,4 13.3653951,4.08215734 14.0042485,4.23677429 M18.3769217,7.00999439 C18.8497679,7.60959483 19.2303855,8.27910278 19.5,9 M19.5,14 C19.2513988,14.7122766 18.9774125,15.4052454 18.5,16 C18,16.5 18.1390457,17.4171371 18.3164062,17.9492188 L18.6835938,19.0507812 C18.8583401,19.5750203 18.5847598,20.1779601 18.0804162,20.3941073 L16.4195838,21.1058927 C15.9117117,21.3235521 15.3220399,21.0847598 15.1058927,20.5804162 L14,18" id="Pig" stroke="#333333" stroke-width="2"></path>
                <circle id="Eye" fill="#333333" cx="16" cy="9" r="1"></circle>
                <path d="M8.98893545,18.4506198 C9.91836622,18.8048544 10.9348745,19 12,19 L12,19 C13.0664552,19 14.0841717,18.8043669 15.0145449,18.4492924" id="Tummy" stroke="#333333" stroke-width="2" stroke-linecap="round"></path>
                <path d="M19.5,9 L20.5,9 C21.3284271,9 22,9.67432225 22,10.5001649 L22,12.4998351 C22,13.3283533 21.3342028,14 20.5,14 L19.5,14" id="Snout" stroke="#333333" stroke-width="2" stroke-linecap="round"></path>
                <path d="M10.9889297,7.10227837 C9.02062679,7.50648122 7.47425299,9.0673877 7.09140992,11.0433962" id="Highlight" stroke="#333333" stroke-width="2" stroke-linecap="round"></path>
                <path d="M18.3800049,7 C17.5,6 17,5 18,3 C15.5,2 14,4.23999023 14,4.23999023" id="Ear" stroke="#333333" stroke-width="2" stroke-linecap="round" stroke-linejoin="round"></path>
                <path d="M5,7.5 C4.5,7 3,6.5 2,7 C1,7.5 1,9 2,9.5 C3,10 4,9.5 4,8 C4,6.5 2.5,5.5 1,5" id="Tail" stroke="#333333" stroke-width="2" stroke-linecap="round"></path>
            </g>
        </g>
    </g>
</svg>