<?xml version="1.0" encoding="UTF-8"?>
<svg width="24px" height="24px" viewBox="0 0 24 24" version="1.1" xmlns="http://www.w3.org/2000/svg" xmlns:xlink="http://www.w3.org/1999/xlink">
    <!-- Generator: Sketch 44.1 (41455) - http://www.bohemiancoding.com/sketch -->
    <title>planet</title>
    <desc>Created with Sketch.</desc>
    <defs></defs>
    <g id="Page-1" stroke="none" stroke-width="1" fill="none" fill-rule="evenodd">
        <g id="Artboard-4" transform="translate(-752.000000, -819.000000)">
            <g id="337" transform="translate(752.000000, 819.000000)">
                <circle id="Planet" stroke="#333333" stroke-width="2" cx="12" cy="12" r="7"></circle>
                <path d="M5.24591211,10.4212846 C2.66195812,10.7872541 1,11.3583388 1,12 C1,13.1045695 5.92486775,14 12,14 L12,14 C18.0751322,14 23,13.1045695 23,12 C23,11.3592967 21.3430003,10.7889594 18.7656541,10.422925" id="Ring" stroke="#333333" stroke-width="2" transform="translate(12.000000, 12.210642) rotate(-15.000000) translate(-12.000000, -12.210642) "></path>
                <path d="M10,10 C9.44771525,10 9,9.55228475 9,9 C9,8.44771525 9.44771525,8 10,8 C10.5522847,8 11,8.44771525 11,9 C11,9.55228475 10.5522847,10 10,10 Z M12.5,9 C12.2238576,9 12,8.77614237 12,8.5 C12,8.22385763 12.2238576,8 12.5,8 C12.7761424,8 13,8.22385763 13,8.5 C13,8.77614237 12.7761424,9 12.5,9 Z M11.5,11 C11.2238576,11 11,10.7761424 11,10.5 C11,10.2238576 11.2238576,10 11.5,10 C11.7761424,10 12,10.2238576 12,10.5 C12,10.7761424 11.7761424,11 11.5,11 Z" id="Craters" fill="#333333" opacity="0.5"></path>
            </g>
        </g>
    </g>
</svg>