<?xml version="1.0" encoding="UTF-8"?>
<svg width="24px" height="24px" viewBox="0 0 24 24" version="1.1" xmlns="http://www.w3.org/2000/svg" xmlns:xlink="http://www.w3.org/1999/xlink">
    <!-- Generator: Sketch 44.1 (41455) - http://www.bohemiancoding.com/sketch -->
    <title>plant</title>
    <desc>Created with Sketch.</desc>
    <defs></defs>
    <g id="Page-1" stroke="none" stroke-width="1" fill="none" fill-rule="evenodd">
        <g id="Artboard-4" transform="translate(-752.000000, -335.000000)">
            <g id="116" transform="translate(752.000000, 335.000000)">
                <rect id="Stem" fill="#333333" x="11" y="2" width="2" height="20" rx="1"></rect>
                <g id="Right-Leaf" transform="translate(13.000000, 13.000000)" stroke="#333333" stroke-linecap="round" stroke-linejoin="round">
                    <path d="M0,8 C0,2 2,0 8,0 C8,6 6,8 0,8 Z" id="Path-39" stroke-width="2"></path>
                    <path d="M0,8 L5,3" id="Path-43"></path>
                </g>
                <g id="Left-Leaf" transform="translate(3.000000, 8.000000)" stroke="#333333" stroke-linecap="round" stroke-linejoin="round">
                    <path d="M0,8 C0,2 2,0 8,0 C8,6 6,8 0,8 Z" id="Path-39" stroke-width="2" transform="translate(4.000000, 4.000000) scale(-1, 1) translate(-4.000000, -4.000000) "></path>
                    <path d="M3,8 L8,3" id="Path-43" transform="translate(5.500000, 5.500000) scale(-1, 1) translate(-5.500000, -5.500000) "></path>
                </g>
                <g id="smol-leaf" transform="translate(13.000000, 4.000000)" stroke="#333333" stroke-width="2" stroke-linecap="round" stroke-linejoin="round">
                    <path d="M0,6 C0,2 2,0 6,0 C6,4 4,6 0,6 Z" id="Path-39"></path>
                </g>
            </g>
        </g>
    </g>
</svg>