<?xml version="1.0" encoding="UTF-8"?>
<svg width="24px" height="24px" viewBox="0 0 24 24" version="1.1" xmlns="http://www.w3.org/2000/svg" xmlns:xlink="http://www.w3.org/1999/xlink">
    <!-- Generator: Sketch 44.1 (41455) - http://www.bohemiancoding.com/sketch -->
    <title>playlist</title>
    <desc>Created with Sketch.</desc>
    <defs></defs>
    <g id="Page-1" stroke="none" stroke-width="1" fill="none" fill-rule="evenodd">
        <g id="Artboard-4" transform="translate(-268.000000, -511.000000)">
            <g id="186" transform="translate(268.000000, 511.000000)">
                <path d="M15,19.5 L15,9.71922359 L19.8208875,8.51400171 C20.4425158,8.35859463 21,7.64491617 21,7.00189865 L21,2.99810135 C21,2.54055298 20.7475351,2.34389263 20.3059588,2.45428671 L16.1791125,3.48599829 C15.5574842,3.64140537 15,4.35508383 15,4.99810135 L15,17 L12.5,17 C11.1216893,17 10,18.1208193 10,19.5 C10,20.8783107 11.1208193,22 12.5,22 C13.8783107,22 15,20.8791807 15,19.5 Z" id="Note" stroke="#333333" stroke-width="2"></path>
                <path d="M2,6 C2,5.44771525 2.4556644,5 2.99539757,5 L11.0046024,5 C11.5543453,5 12,5.44386482 12,6 C12,6.55228475 11.5443356,7 11.0046024,7 L2.99539757,7 C2.44565467,7 2,6.55613518 2,6 Z M2,10 C2,9.44771525 2.4556644,9 2.99539757,9 L11.0046024,9 C11.5543453,9 12,9.44386482 12,10 C12,10.5522847 11.5443356,11 11.0046024,11 L2.99539757,11 C2.44565467,11 2,10.5561352 2,10 Z M2,14 C2,13.4477153 2.45303631,13 2.99703014,13 L9.00296986,13 C9.5536144,13 10,13.4438648 10,14 C10,14.5522847 9.54696369,15 9.00296986,15 L2.99703014,15 C2.4463856,15 2,14.5561352 2,14 Z M2,18 C2,17.4477153 2.44371665,17 2.99980749,17 L6.00019251,17 C6.55237094,17 7,17.4438648 7,18 C7,18.5522847 6.55628335,19 6.00019251,19 L2.99980749,19 C2.44762906,19 2,18.5561352 2,18 Z" id="List" fill="#333333"></path>
            </g>
        </g>
    </g>
</svg>