<?xml version="1.0" encoding="UTF-8"?>
<svg width="24px" height="24px" viewBox="0 0 24 24" version="1.1" xmlns="http://www.w3.org/2000/svg" xmlns:xlink="http://www.w3.org/1999/xlink">
    <!-- Generator: Sketch 44.1 (41455) - http://www.bohemiancoding.com/sketch -->
    <title>polaroids</title>
    <desc>Created with Sketch.</desc>
    <defs></defs>
    <g id="Page-1" stroke="none" stroke-width="1" fill="none" fill-rule="evenodd">
        <g id="Artboard-4" transform="translate(-884.000000, -379.000000)">
            <g id="140" transform="translate(884.000000, 379.000000)">
                <g id="2" transform="translate(0.068124, 1.974212)" fill="#333333">
                    <path d="M3.93187648,2.60283088 L2.09644494,3.09350651 L3.93187648,9.94343026 L3.93187648,17.4076278 L0.230395558,3.59351294 C-0.0541723055,2.53149121 0.577347276,1.43952472 1.64224814,1.15418539 L3.93187648,0.540681329 L3.93187648,2.60283088 Z" id="Frame"></path>
                </g>
                <g id="1" transform="translate(6.000000, 2.000000)">
                    <path d="M0,1.99079514 C0,0.891309342 0.892622799,0 1.99508929,0 L16.0049107,0 C17.1067681,0 18,0.898212381 18,1.99079514 L18,18.0092049 C18,19.1086907 17.1073772,20 16.0049107,20 L1.99508929,20 C0.893231902,20 0,19.1017876 0,18.0092049 L0,1.99079514 Z M2,2 L2,16 L16,16 L16,2 L2,2 Z" id="Frame" fill="#333333"></path>
                    <circle id="Sun" fill="#333333" cx="6" cy="6" r="2"></circle>
                    <path d="M15,8 C14,8 12.5,8.5 11,10 C9.5,11.5 9,14 9,15" id="Big-Hill" stroke="#333333" stroke-width="2" stroke-linejoin="round"></path>
                    <path d="M4,15 C4,14 4.5,12 7,11 C9.5,10 11,10.5 11,10.5" id="Little-Hill" stroke="#333333" stroke-width="2" stroke-linejoin="round"></path>
                </g>
            </g>
        </g>
    </g>
</svg>