<?xml version="1.0" encoding="UTF-8"?>
<svg width="24px" height="24px" viewBox="0 0 24 24" version="1.1" xmlns="http://www.w3.org/2000/svg" xmlns:xlink="http://www.w3.org/1999/xlink">
    <!-- Generator: Sketch 44.1 (41455) - http://www.bohemiancoding.com/sketch -->
    <title>printer</title>
    <desc>Created with Sketch.</desc>
    <defs></defs>
    <g id="Page-1" stroke="none" stroke-width="1" fill="none" fill-rule="evenodd">
        <g id="Artboard-4" transform="translate(-136.000000, -335.000000)">
            <g id="103" transform="translate(136.000000, 335.000000)">
                <path d="M6.01757812,18 L4.99596383,18 C3.89362344,18 3,17.1125667 3,16.000385 L3,9.99961498 L3,9.99961498 C3,8.89525812 3.8926228,8 4.99508929,8 L19.0049107,8 C20.1067681,8 21,8.88743329 21,9.99961498 L21,16.000385 C21,17.1047419 20.1024307,18 18.9913592,18 L18.0616455,18" id="Body" stroke="#333333" stroke-width="2"></path>
                <path d="M6,3.99980749 C6,3.44762906 6.45576096,3 7.00247329,3 L16.9975267,3 C17.5511774,3 18,3.44371665 18,3.99980749 L18,8 L6,8 L6,3.99980749 Z" id="Feed" stroke="#333333" stroke-width="2"></path>
                <path d="M6,14 L18,14 L18,19.9970707 C18,20.5509732 17.544239,21 16.9975267,21 L7.00247329,21 C6.44882258,21 6,20.5621186 6,19.9970707 L6,14 Z" id="Paper" stroke="#333333" stroke-width="2"></path>
                <path d="M9,16 L15,16 L15,17 L9,17 L9,16 Z M9,18 L15,18 L15,19 L9,19 L9,18 Z" id="Lines" fill="#333333"></path>
                <path d="M7,12 C6.44771525,12 6,11.5522847 6,11 C6,10.4477153 6.44771525,10 7,10 C7.55228475,10 8,10.4477153 8,11 C8,11.5522847 7.55228475,12 7,12 Z M10,12 C9.44771525,12 9,11.5522847 9,11 C9,10.4477153 9.44771525,10 10,10 C10.5522847,10 11,10.4477153 11,11 C11,11.5522847 10.5522847,12 10,12 Z" id="Lights" fill="#333333" opacity="0.5"></path>
            </g>
        </g>
    </g>
</svg>