<?xml version="1.0" encoding="UTF-8"?>
<svg width="24px" height="24px" viewBox="0 0 24 24" version="1.1" xmlns="http://www.w3.org/2000/svg" xmlns:xlink="http://www.w3.org/1999/xlink">
    <!-- Generator: Sketch 44.1 (41455) - http://www.bohemiancoding.com/sketch -->
    <title>qr-code</title>
    <desc>Created with Sketch.</desc>
    <defs></defs>
    <g id="Page-1" stroke="none" stroke-width="1" fill="none" fill-rule="evenodd">
        <g id="Artboard-4" transform="translate(-268.000000, -599.000000)">
            <g id="226" transform="translate(268.000000, 599.000000)">
                <path d="M3,3 L8,3 L8,8 L3,8 L3,3 Z M16,3 L21,3 L21,8 L16,8 L16,3 Z M3,16 L8,16 L8,21 L3,21 L3,16 Z" id="Squares" stroke="#333333" stroke-width="2" stroke-linejoin="round"></path>
                <path d="M12,2.99980749 C12,2.44371665 11.5522847,2 11,2 C10.4438648,2 10,2.44762906 10,2.99980749 L10,6.00019251 C10,6.55628335 10.4477153,7 11,7 C11.5561352,7 12,6.55237094 12,6.00019251 L12,5 L12.9906311,5 C13.5566468,5 14,4.55228475 14,4 C14,3.44386482 13.5480902,3 12.9906311,3 L12,3 Z M21.7085674,21.7071699 C21.5281317,21.8880972 21.2782056,22 21.0001925,22 L17.9998075,22 C17.4476291,22 17,21.5561352 17,21 C17,20.4477153 17.4437166,20 17.9998075,20 L20,20 L20,17.9998075 C20,17.4476291 20.4438648,17 21,17 C21.5522847,17 22,17.4437166 22,17.9998075 L22,21.0001925 C22,21.2762499 21.8890594,21.5261759 21.7086132,21.7071005 Z M10.0000105,18.0046821 C10.0000035,18.0062435 10,18.0078058 10,18.0093689 L10,19.9906311 C10,20.5566468 10.4477153,21 11,21 C11.5561352,21 12,20.5480902 12,19.9906311 L12,19 L14,19 L14,21.0001925 C14,21.5562834 14.4477153,22 15,22 C15.5561352,22 16,21.5523709 16,21.0001925 L16,17.9998075 C16,17.7233097 15.8893137,17.4745935 15.7101221,17.2943891 C15.5304624,17.1109439 15.2827903,17 15.009222,17 L10.990778,17 C10.4509752,17 10,17.4477153 10,18 C10,18.0015632 10.0000035,18.0031255 10.0000105,18.0046869 Z M10.2898779,15.7056109 C10.1106863,15.5254065 10,15.2766903 10,15.0001925 L10,12 L8.99077797,12 C8.44358641,12 8,11.5561352 8,11 C8,10.4477153 8.45097518,10 8.99077797,10 L12,10 L12,7.99980749 C12,7.44762906 12.4438648,7 13,7 C13.5522847,7 14,7.44371665 14,7.99980749 L14,11.0001925 C14,11.2747557 13.8902571,11.5234696 13.7115371,11.7041566 C13.5267675,11.888094 13.2790959,12 13.009222,12 L12,12 L12,14 L15.009222,14 C15.5564136,14 16,14.4438648 16,15 C16,15.5522847 15.5490248,16 15.009222,16 L10.990778,16 C10.7172097,16 10.4695376,15.8890561 10.2902463,15.7086052 Z M2,11 C2,10.4477153 2.44335318,10 3.0093689,10 L4.9906311,10 C5.54809015,10 6,10.4438648 6,11 C6,11.5522847 5.55664682,12 4.9906311,12 L3.0093689,12 C2.45190985,12 2,11.5561352 2,11 Z M6,13 C6,12.4477153 6.44386482,12 7,12 C7.55228475,12 8,12.4438648 8,13 C8,13.5522847 7.55613518,14 7,14 C6.44771525,14 6,13.5561352 6,13 Z M17,15 C17,14.4477153 17.4438648,14 18,14 C18.5522847,14 19,14.4438648 19,15 C19,15.5522847 18.5561352,16 18,16 C17.4477153,16 17,15.5561352 17,15 Z M17,18 C17,17.4477153 17.4438648,17 18,17 C18.5522847,17 19,17.4438648 19,18 C19,18.5522847 18.5561352,19 18,19 C17.4477153,19 17,18.5561352 17,18 Z M20,15 C20,14.4477153 20.4438648,14 21,14 C21.5522847,14 22,14.4438648 22,15 C22,15.5522847 21.5561352,16 21,16 C20.4477153,16 20,15.5561352 20,15 Z M15,11 C15,10.4477153 15.4433532,10 16.0093689,10 L17.9906311,10 C18.5480902,10 19,10.4438648 19,11 C19,11.5522847 18.5566468,12 17.9906311,12 L16.0093689,12 C15.4519098,12 15,11.5561352 15,11 Z" id="Lines/Dots" fill="#333333"></path>
            </g>
        </g>
    </g>
</svg>