<?xml version="1.0" encoding="UTF-8"?>
<svg width="24px" height="24px" viewBox="0 0 24 24" version="1.1" xmlns="http://www.w3.org/2000/svg" xmlns:xlink="http://www.w3.org/1999/xlink">
    <defs>
        <linearGradient x1="50%" y1="0%" x2="50%" y2="22.4697537%" id="linearGradient-1">
            <stop stop-color="#333333" stop-opacity="0.246886322" offset="0%"></stop>
            <stop stop-color="#333333" stop-opacity="0" offset="100%"></stop>
        </linearGradient>
    </defs>
    <g id="Page-1" stroke="none" stroke-width="1" fill="none" fill-rule="evenodd">
        <g id="Artboard-4" transform="translate(-488.000000, -599.000000)">
            <g id="231" transform="translate(488.000000, 599.000000)">
                <polygon id="Paper" stroke="#333333" stroke-width="2" fill="url(#linearGradient-1)" stroke-linecap="round" stroke-linejoin="round" points="5 3 19 3 19 21 18 20 16 21 14 20 12 21 10 20 8 21 6 20 5 21"></polygon>
                <path d="M7,9.5 C7,9.22385763 7.21505737,9 7.49047852,9 L10.5095215,9 C10.7804053,9 11,9.23193359 11,9.5 C11,9.77614237 10.7849426,10 10.5095215,10 L7.49047852,10 C7.21959471,10 7,9.76806641 7,9.5 Z M7,11.5 C7,11.2238576 7.22788048,11 7.49100518,11 L12.5089948,11 C12.7801695,11 13,11.2319336 13,11.5 C13,11.7761424 12.7721195,12 12.5089948,12 L7.49100518,12 C7.21983051,12 7,11.7680664 7,11.5 Z M7,13.5 C7,13.2238576 7.2157526,13 7.49538898,13 L9.50461102,13 C9.7782068,13 10,13.2319336 10,13.5 C10,13.7761424 9.7842474,14 9.50461102,14 L7.49538898,14 C7.2217932,14 7,13.7680664 7,13.5 Z M7,15.5 C7,15.2238576 7.21484375,15 7.49769878,15 L11.5023012,15 C11.7771727,15 12,15.2319336 12,15.5 C12,15.7761424 11.7851562,16 11.5023012,16 L7.49769878,16 C7.22282734,16 7,15.7680664 7,15.5 Z M15,9.5 C15,9.22385763 15.214035,9 15.5046844,9 L16.4953156,9 C16.7740451,9 17,9.23193359 17,9.5 C17,9.77614237 16.785965,10 16.4953156,10 L15.5046844,10 C15.2259549,10 15,9.76806641 15,9.5 Z M15,11.5 C15,11.2238576 15.214035,11 15.5046844,11 L16.4953156,11 C16.7740451,11 17,11.2319336 17,11.5 C17,11.7761424 16.785965,12 16.4953156,12 L15.5046844,12 C15.2259549,12 15,11.7680664 15,11.5 Z M15,13.5 C15,13.2238576 15.214035,13 15.5046844,13 L16.4953156,13 C16.7740451,13 17,13.2319336 17,13.5 C17,13.7761424 16.785965,14 16.4953156,14 L15.5046844,14 C15.2259549,14 15,13.7680664 15,13.5 Z M15,15.5 C15,15.2238576 15.214035,15 15.5046844,15 L16.4953156,15 C16.7740451,15 17,15.2319336 17,15.5 C17,15.7761424 16.785965,16 16.4953156,16 L15.5046844,16 C15.2259549,16 15,15.7680664 15,15.5 Z" id="Info" fill="#333333" opacity="0.75999999" transform="translate(12.000000, 12.500000) scale(-1, -1) translate(-12.000000, -12.500000) "></path>
                <path d="M5,7 L4.00104344,7 C2.89589766,7 2,6.11227036 2,5 L2,5 L2,5 C2,3.8954305 2.89821238,3 3.99079514,3 L20.0092049,3 C21.1086907,3 22,3.88772964 22,5 L22,5 C22,6.1045695 21.0961289,7 20.0098978,7 L19.0410156,7" id="Slot" stroke="#333333" stroke-width="2"></path>
            </g>
        </g>
    </g>
</svg>