<?xml version="1.0" encoding="UTF-8"?>
<svg width="24px" height="24px" viewBox="0 0 24 24" version="1.1" xmlns="http://www.w3.org/2000/svg" xmlns:xlink="http://www.w3.org/1999/xlink">
    <!-- Generator: Sketch 44.1 (41455) - http://www.bohemiancoding.com/sketch -->
    <title>rosette</title>
    <desc>Created with Sketch.</desc>
    <defs></defs>
    <g id="Page-1" stroke="none" stroke-width="1" fill="none" fill-rule="evenodd">
        <g id="Artboard-4" transform="translate(-312.000000, -423.000000)" stroke="#333333" stroke-width="2">
            <g id="147" transform="translate(312.000000, 423.000000)">
                <circle id="Medal" cx="12" cy="9" r="7"></circle>
                <polygon id="Star" stroke-linejoin="round" points="12 10.4908497 10.2366442 11.427051 10.5821176 9.46069791 9.14683045 8.07294902 11.1237005 7.79387722 12 6 12.8762995 7.79387722 14.8531695 8.07294902 13.4178824 9.46069791 13.7633558 11.427051"></polygon>
                <path d="M6.37415189,13.1660576 L3,19.0102601 L7.09807621,17.9121839 L8.19615242,22.0102601 L11.670574,15.9923854 C9.50050287,15.8918514 7.58849733,14.8032107 6.37415189,13.1660576 Z M12.3256662,15.9925585 L15.7999878,22.0102601 L16.898064,17.9121839 L20.9961402,19.0102601 L17.6236772,13.1689828 C16.4085228,14.8054524 14.4959957,15.8931678 12.3256662,15.9925585 Z" id="Ribbons" stroke-linecap="round" stroke-linejoin="round"></path>
            </g>
        </g>
    </g>
</svg>