<?xml version="1.0" encoding="UTF-8"?>
<svg width="24px" height="24px" viewBox="0 0 24 24" version="1.1" xmlns="http://www.w3.org/2000/svg" xmlns:xlink="http://www.w3.org/1999/xlink">
    <!-- Generator: Sketch 44.1 (41455) - http://www.bohemiancoding.com/sketch -->
    <title>scales-2</title>
    <desc>Created with Sketch.</desc>
    <defs></defs>
    <g id="Page-1" stroke="none" stroke-width="1" fill="none" fill-rule="evenodd">
        <g id="Artboard-4" transform="translate(-268.000000, -819.000000)">
            <g id="326" transform="translate(268.000000, 819.000000)">
                <path d="M16,5 L19,5 C20.6568542,5 21.8329211,6.33663106 21.6285025,7.97197986 L20.3714975,18.0280201 C20.1663251,19.6693993 18.6633689,21 16.9905224,21 L7.00947762,21 C5.34738902,21 3.83292112,19.6633689 3.62850252,18.0280201 L2.37149748,7.97197986 L2.37149748,7.97197986 C2.16632509,6.33060071 3.33993861,5 5.00111064,5 L8.03759766,5" id="Scales" stroke="#333333" stroke-width="2"></path>
                <circle id="Centre" fill="#333333" cx="12" cy="6" r="1"></circle>
                <path d="M12,8 C14.209139,8 16,8.209139 16,6 C16,3.790861 14.209139,2 12,2 C9.790861,2 8,3.790861 8,6 C8,8.209139 9.790861,8 12,8 Z" id="Dial" stroke="#333333" stroke-width="2"></path>
                <polygon id="needle" fill="#333333" points="12 5 10 4 11 6"></polygon>
                <path d="M6.08033091,13.2355853 C5.77557849,12.1689518 6.36385945,11.0005176 7.40593286,10.6215818 L8.7279006,10.1408662 C9.99850193,9.67882939 10.9682161,10.3898848 10.8932206,11.7398041 L10.6122166,16.7978769 C10.5659966,17.6298373 9.8627306,18.3042745 9.02852783,18.3042745 C8.20010071,18.3042745 7.34395752,17.6582784 7.11412654,16.85387 L6.08033091,13.2355853 Z M17.8059736,13.2355853 L16.772178,16.85387 C16.542347,17.6582784 15.6862038,18.3042745 14.8577767,18.3042745 C14.0235739,18.3042745 13.320308,17.6298373 13.274088,16.7978769 L12.9930839,11.7398041 C12.9180884,10.3898848 13.8878026,9.67882939 15.1584039,10.1408662 L16.4803717,10.6215818 C17.5224451,11.0005176 18.1107261,12.1689518 17.8059736,13.2355853 Z" id="Feet" fill="#333333" opacity="0.200000003"></path>
            </g>
        </g>
    </g>
</svg>