<?xml version="1.0" encoding="UTF-8"?>
<svg width="24px" height="24px" viewBox="0 0 24 24" version="1.1" xmlns="http://www.w3.org/2000/svg" xmlns:xlink="http://www.w3.org/1999/xlink">
    <!-- Generator: Sketch 44.1 (41455) - http://www.bohemiancoding.com/sketch -->
    <title>screwdriver</title>
    <desc>Created with Sketch.</desc>
    <defs></defs>
    <g id="Page-1" stroke="none" stroke-width="1" fill="none" fill-rule="evenodd">
        <g id="Artboard-4" transform="translate(-752.000000, -599.000000)">
            <g id="237" transform="translate(751.000000, 599.000000)">
                <g id="screwdriver" transform="translate(12.203723, 12.803699) rotate(-315.000000) translate(-12.203723, -12.803699) translate(10.203723, -1.196301)">
                    <g transform="translate(-1.000000, 0.000000)">
                        <polygon id="Rectangle-185" fill="#333333" points="2 15 4 15 4 24 5 25 4 28 2 28 1 25 2 24"></polygon>
                        <path d="M0,15 L6,15 L6,13 L5,11.5 L6,10 L6,3.00032973 C6,1.34329338 4.65348288,0 3,0 L3,0 C1.34314575,0 0,1.3486445 0,3.00032973 L0,10 L1,11.5 L0,13 L0,15 Z" id="Path-176" stroke="#333333" stroke-width="2" stroke-linecap="round" stroke-linejoin="round"></path>
                    </g>
                </g>
            </g>
        </g>
    </g>
</svg>