<?xml version="1.0" encoding="UTF-8"?>
<svg width="24px" height="24px" viewBox="0 0 24 24" version="1.1" xmlns="http://www.w3.org/2000/svg" xmlns:xlink="http://www.w3.org/1999/xlink">
    <!-- Generator: Sketch 44.1 (41455) - http://www.bohemiancoding.com/sketch -->
    <title>server</title>
    <desc>Created with Sketch.</desc>
    <defs></defs>
    <g id="Page-1" stroke="none" stroke-width="1" fill="none" fill-rule="evenodd">
        <g id="Artboard-4" transform="translate(-796.000000, -643.000000)">
            <g id="258" transform="translate(796.000000, 643.000000)">
                <ellipse id="Top" stroke="#333333" stroke-width="2" cx="12" cy="6" rx="9" ry="3"></ellipse>
                <path d="M3,10.5 C3,12.1568542 7.02943725,13.5 12,13.5 L12,13.5 C16.9705627,13.5 21,12.1568542 21,10.5" id="Mid" stroke="#333333"></path>
                <path d="M3,14.5 C3,16.1568542 7.02943725,17.5 12,17.5 C16.9705627,17.5 21,16.1568542 21,14.5" id="Bottom" stroke="#333333"></path>
                <path d="M3,5.98958785 L3,19 C3,20.6568542 7.02943725,22 12,22 C16.9705627,22 21,20.6568542 21,19 L21,5.98958785" id="Body" stroke="#333333" stroke-width="2"></path>
                <path d="M18.5,11 C18.2238576,11 18,10.7761424 18,10.5 C18,10.2238576 18.2238576,10 18.5,10 C18.7761424,10 19,10.2238576 19,10.5 C19,10.7761424 18.7761424,11 18.5,11 Z M18.5,15 C18.2238576,15 18,14.7761424 18,14.5 C18,14.2238576 18.2238576,14 18.5,14 C18.7761424,14 19,14.2238576 19,14.5 C19,14.7761424 18.7761424,15 18.5,15 Z M18.5,19 C18.2238576,19 18,18.7761424 18,18.5 C18,18.2238576 18.2238576,18 18.5,18 C18.7761424,18 19,18.2238576 19,18.5 C19,18.7761424 18.7761424,19 18.5,19 Z" id="Lights" fill="#333333"></path>
            </g>
        </g>
    </g>
</svg>