<?xml version="1.0" encoding="UTF-8"?>
<svg width="24px" height="24px" viewBox="0 0 24 24" version="1.1" xmlns="http://www.w3.org/2000/svg" xmlns:xlink="http://www.w3.org/1999/xlink">
    <!-- Generator: Sketch 44.1 (41455) - http://www.bohemiancoding.com/sketch -->
    <title>skull</title>
    <desc>Created with Sketch.</desc>
    <defs></defs>
    <g id="Page-1" stroke="none" stroke-width="1" fill="none" fill-rule="evenodd">
        <g id="Artboard-4" transform="translate(-224.000000, -203.000000)">
            <g id="45" transform="translate(224.000000, 203.000000)">
                <path d="M5,18.4428864 C2.94418487,16.5265543 2,14.6424291 2,12 C2,6.4771525 6.4771525,2 12,2 C17.5228475,2 22,6.4771525 22,12 C22,14.6304949 21.0513446,16.5193524 19,18.4412879 L19,19.9906311 C19,21.1001341 18.1053043,22 16.9975267,22 L7.00247329,22 C5.90061247,22 5,21.0975072 5,19.9906311 L5,18.4428864 Z" id="head" stroke="#333333" stroke-width="2" stroke-linecap="round" stroke-linejoin="round"></path>
                <path d="M11.1055728,14.5527864 C11.4740971,13.8157379 12.5259029,13.8157379 12.8944272,14.5527864 L13.8944272,16.5527864 C14.2268777,17.2176875 13.743382,18 13,18 L11,18 C10.256618,18 9.77312226,17.2176875 10.1055728,16.5527864 L11.1055728,14.5527864 Z" id="nose" fill="#333333" fill-rule="nonzero"></path>
                <path d="M8,20.0093689 C8,19.4519098 8.44386482,19 9,19 C9.55228475,19 10,19.4433532 10,20.0093689 L10,21.9906311 C10,22.5480902 9.55613518,23 9,23 C8.44771525,23 8,22.5566468 8,21.9906311 L8,20.0093689 Z M11,20.0093689 C11,19.4519098 11.4438648,19 12,19 C12.5522847,19 13,19.4433532 13,20.0093689 L13,21.9906311 C13,22.5480902 12.5561352,23 12,23 C11.4477153,23 11,22.5566468 11,21.9906311 L11,20.0093689 Z M14,20.0093689 C14,19.4519098 14.4438648,19 15,19 C15.5522847,19 16,19.4433532 16,20.0093689 L16,21.9906311 C16,22.5480902 15.5561352,23 15,23 C14.4477153,23 14,22.5566468 14,21.9906311 L14,20.0093689 Z" id="teeth" fill="#333333"></path>
                <path d="M17,14 C17.5522847,14 18,13.5522847 18,13 C18,12.4477153 17.5522847,12 17,12 C16.4477153,12 16,12.4477153 16,13 C16,13.5522847 16.4477153,14 17,14 Z M7,14 C7.55228475,14 8,13.5522847 8,13 C8,12.4477153 7.55228475,12 7,12 C6.44771525,12 6,12.4477153 6,13 C6,13.5522847 6.44771525,14 7,14 Z" id="eyes" stroke="#333333" stroke-width="2"></path>
            </g>
        </g>
    </g>
</svg>