<?xml version="1.0" encoding="UTF-8"?>
<svg width="24px" height="24px" viewBox="0 0 24 24" version="1.1" xmlns="http://www.w3.org/2000/svg" xmlns:xlink="http://www.w3.org/1999/xlink">
    <!-- Generator: Sketch 44.1 (41455) - http://www.bohemiancoding.com/sketch -->
    <title>snapchat</title>
    <desc>Created with Sketch.</desc>
    <defs></defs>
    <g id="Page-1" stroke="none" stroke-width="1" fill="none" fill-rule="evenodd">
        <g id="Artboard-4" transform="translate(-840.000000, -863.000000)" stroke="#333333" stroke-width="2">
            <g id="359" transform="translate(840.000000, 863.000000)">
                <path d="M12.1262113,21 C12.0746421,21 12.0240375,20.9985071 11.973376,20.9960381 L11.9732626,20.9960381 C11.9409822,20.9985645 11.9072269,21 11.8734715,21 C10.6886296,21 9.92814098,20.4558944 9.19278449,19.9296462 C8.68497892,19.5665263 8.20582285,19.2236755 7.64122883,19.1285317 C7.36573962,19.0823665 7.09155524,19.0589394 6.8265614,19.0589394 C6.34916402,19.0589394 5.97252217,19.1335271 5.69754354,19.1879607 C5.53046864,19.2210342 5.38631336,19.2494568 5.27676441,19.2494568 C5.16233655,19.2494568 5.03832102,19.224422 4.98442589,19.0380388 C4.93756549,18.8765756 4.90369666,18.7201654 4.87113265,18.5688654 C4.78711298,18.1795049 4.72748795,17.9400089 4.56625642,17.9149741 C2.6870751,17.6212167 2.14920171,17.2206021 2.02927086,16.9363764 C2.01230808,16.8957235 2.00266369,16.8550132 2.00033769,16.8147048 C1.99426739,16.7054932 2.07068501,16.6090862 2.17728391,16.5914584 C5.06606283,16.1099973 6.36153153,13.1216655 6.4153132,12.9947688 C6.41678822,12.9912662 6.41831998,12.9878785 6.41990847,12.9843759 C6.59674122,12.6217154 6.63134757,12.3069426 6.52316019,12.0489001 C6.32493958,11.5760519 5.67836822,11.3681939 5.25038417,11.2307895 C5.14565742,11.1972566 5.04637692,11.1655611 4.96808715,11.1342676 C4.11404792,10.7925077 4.04296308,10.4417904 4.07654826,10.2629866 C4.13379056,9.95837703 4.53596168,9.74609775 4.86126134,9.74609775 C4.95044359,9.74609775 5.02896028,9.76211775 5.094996,9.79329644 C5.47918317,9.97548799 5.82547356,10.0677609 6.12422277,10.0677609 C6.53700273,10.0677609 6.71718265,9.89217254 6.73919456,9.86914738 C6.72869919,9.67128036 6.71570763,9.46462818 6.70243241,9.25137278 C6.6163704,7.86905974 6.5097715,6.1514178 6.94184025,5.17098269 C8.2368551,2.23208895 10.983124,2.00378968 11.7939336,2.00378968 C11.8146974,2.00378968 12.1494145,2.00017226 12.1494145,2.00017226 L12.1974096,2 C13.0100914,2 15.7623171,2.2287012 17.0580694,5.16920269 C17.4902516,6.15015458 17.3833691,7.869232 17.2971936,9.25051149 L17.2936195,9.31057211 C17.2817059,9.50292687 17.2701326,9.68988422 17.2604882,9.86886029 C17.2811385,9.89016286 17.4468519,10.0516834 17.821111,10.0661531 L17.8215081,10.0661531 C18.1059042,10.0551286 18.4327924,9.96337251 18.791507,9.79329644 C18.8966309,9.74362872 19.0133847,9.7331784 19.0928659,9.7331784 C19.2142717,9.7331784 19.3373228,9.75695001 19.4394966,9.80007193 L19.4456804,9.8026558 C19.7358631,9.90669963 19.9259144,10.1125479 19.929999,10.3276408 C19.9337433,10.5301587 19.7810216,10.8346535 19.0316523,11.1342676 C18.9539866,11.1651592 18.8547061,11.1970843 18.7495822,11.2307895 C18.3211443,11.3684236 17.6747432,11.5760519 17.476636,12.0488427 C17.3683919,12.3067129 17.403055,12.6213135 17.5797743,12.9841462 C17.5813628,12.9876488 17.5831782,12.9910365 17.5845398,12.9947688 C17.6382647,13.1215507 18.9325988,16.1090212 21.8226258,16.5910565 C21.9293381,16.6088565 22.0055288,16.7051487 21.9996855,16.8144751 C21.997246,16.8554151 21.9874314,16.8966996 21.9701282,16.9367783 C21.8509349,17.2189943 21.3135154,17.6190922 19.4336533,17.9130792 C19.2800805,17.9369657 19.2205689,18.1394836 19.1288905,18.5642145 C19.095589,18.7187873 19.0618336,18.870604 19.0153703,19.0302872 C18.9753745,19.16884 18.89005,19.2336665 18.7465187,19.2336665 L18.7231453,19.2336665 C18.6235244,19.2336665 18.481922,19.2156368 18.3024796,19.1799794 C17.9842147,19.1169904 17.6273722,19.0589394 17.173405,19.0589394 C16.9082977,19.0589394 16.6339431,19.0823665 16.3582837,19.1285317 C15.7943138,19.2236755 15.3154414,19.5658373 14.8086002,19.9284978 C14.0717687,20.4558944 13.3113935,21 12.1262113,21" id="spoopy" transform="translate(12.000000, 11.500000) scale(-1, 1) translate(-12.000000, -11.500000) "></path>
            </g>
        </g>
    </g>
</svg>