<?xml version="1.0" encoding="UTF-8"?>
<svg width="24px" height="24px" viewBox="0 0 24 24" version="1.1" xmlns="http://www.w3.org/2000/svg" xmlns:xlink="http://www.w3.org/1999/xlink">
    <!-- Generator: Sketch 44.1 (41455) - http://www.bohemiancoding.com/sketch -->
    <title>snowglobe</title>
    <desc>Created with Sketch.</desc>
    <defs></defs>
    <g id="Page-1" stroke="none" stroke-width="1" fill="none" fill-rule="evenodd">
        <g id="Artboard-4" transform="translate(-444.000000, -555.000000)">
            <g id="210" transform="translate(444.000000, 555.000000)">
                <path d="M18.045844,17.6670058 C19.8604614,16.0204639 21,13.6433087 21,11 C21,6.02943725 16.9705627,2 12,2 C7.02943725,2 3,6.02943725 3,11 C3,13.6733982 4.1656296,16.0745489 6.01638659,17.7229501" id="Globe" stroke="#333333" stroke-width="2" stroke-linecap="round"></path>
                <rect id="Base" stroke="#333333" stroke-width="2" x="3" y="18" width="18" height="4" rx="2"></rect>
                <path d="M9,13.5193752 L12.5,10.7193752 L16,13.5193752 L16,18 L9,18 L9,13.5193752 Z" id="House" stroke="#333333" stroke-width="2" stroke-linejoin="round"></path>
                <path d="M11,15.5046844 C11,15.2259549 11.2319336,15 11.5,15 L11.5,15 C11.7761424,15 12,15.214035 12,15.5046844 L12,17 L11,17 L11,15.5046844 Z" id="Door" fill="#333333"></path>
                <rect id="Window" fill="#333333" x="13" y="15" width="1" height="1" rx="0.5"></rect>
                <path d="M12.5,5 C12.2238576,5 12,4.77614237 12,4.5 C12,4.22385763 12.2238576,4 12.5,4 C12.7761424,4 13,4.22385763 13,4.5 C13,4.77614237 12.7761424,5 12.5,5 Z M15.5,4 C15.2238576,4 15,3.77614237 15,3.5 C15,3.22385763 15.2238576,3 15.5,3 C15.7761424,3 16,3.22385763 16,3.5 C16,3.77614237 15.7761424,4 15.5,4 Z M9.5,7 C9.22385763,7 9,6.77614237 9,6.5 C9,6.22385763 9.22385763,6 9.5,6 C9.77614237,6 10,6.22385763 10,6.5 C10,6.77614237 9.77614237,7 9.5,7 Z M15.5,8 C15.2238576,8 15,7.77614237 15,7.5 C15,7.22385763 15.2238576,7 15.5,7 C15.7761424,7 16,7.22385763 16,7.5 C16,7.77614237 15.7761424,8 15.5,8 Z M5.5,10 C5.22385763,10 5,9.77614237 5,9.5 C5,9.22385763 5.22385763,9 5.5,9 C5.77614237,9 6,9.22385763 6,9.5 C6,9.77614237 5.77614237,10 5.5,10 Z M11.5,11 C11.2238576,11 11,10.7761424 11,10.5 C11,10.2238576 11.2238576,10 11.5,10 C11.7761424,10 12,10.2238576 12,10.5 C12,10.7761424 11.7761424,11 11.5,11 Z M12.5,8 C12.2238576,8 12,7.77614237 12,7.5 C12,7.22385763 12.2238576,7 12.5,7 C12.7761424,7 13,7.22385763 13,7.5 C13,7.77614237 12.7761424,8 12.5,8 Z M16.5,12 C16.2238576,12 16,11.7761424 16,11.5 C16,11.2238576 16.2238576,11 16.5,11 C16.7761424,11 17,11.2238576 17,11.5 C17,11.7761424 16.7761424,12 16.5,12 Z M18.5,10 C18.2238576,10 18,9.77614237 18,9.5 C18,9.22385763 18.2238576,9 18.5,9 C18.7761424,9 19,9.22385763 19,9.5 C19,9.77614237 18.7761424,10 18.5,10 Z M16.5,15 C16.2238576,15 16,14.7761424 16,14.5 C16,14.2238576 16.2238576,14 16.5,14 C16.7761424,14 17,14.2238576 17,14.5 C17,14.7761424 16.7761424,15 16.5,15 Z M12.5,14 C12.2238576,14 12,13.7761424 12,13.5 C12,13.2238576 12.2238576,13 12.5,13 C12.7761424,13 13,13.2238576 13,13.5 C13,13.7761424 12.7761424,14 12.5,14 Z M8.5,11 C8.22385763,11 8,10.7761424 8,10.5 C8,10.2238576 8.22385763,10 8.5,10 C8.77614237,10 9,10.2238576 9,10.5 C9,10.7761424 8.77614237,11 8.5,11 Z M6.5,13 C6.22385763,13 6,12.7761424 6,12.5 C6,12.2238576 6.22385763,12 6.5,12 C6.77614237,12 7,12.2238576 7,12.5 C7,12.7761424 6.77614237,13 6.5,13 Z M7.5,16 C7.22385763,16 7,15.7761424 7,15.5 C7,15.2238576 7.22385763,15 7.5,15 C7.77614237,15 8,15.2238576 8,15.5 C8,15.7761424 7.77614237,16 7.5,16 Z M6.5,6 C6.22385763,6 6,5.77614237 6,5.5 C6,5.22385763 6.22385763,5 6.5,5 C6.77614237,5 7,5.22385763 7,5.5 C7,5.77614237 6.77614237,6 6.5,6 Z" id="snow" fill="#333333" opacity="0.5"></path>
            </g>
        </g>
    </g>
</svg>