<?xml version="1.0" encoding="UTF-8"?>
<svg width="24px" height="24px" viewBox="0 0 24 24" version="1.1" xmlns="http://www.w3.org/2000/svg" xmlns:xlink="http://www.w3.org/1999/xlink">
    <!-- Generator: Sketch 44.1 (41455) - http://www.bohemiancoding.com/sketch -->
    <title>snowman</title>
    <desc>Created with Sketch.</desc>
    <defs></defs>
    <g id="Page-1" stroke="none" stroke-width="1" fill="none" fill-rule="evenodd">
        <g id="Artboard-4" transform="translate(-532.000000, -555.000000)">
            <g id="212" transform="translate(532.000000, 555.000000)">
                <path d="M8.34913277,10.0262929 C6.34030756,11.2566231 5,13.4717887 5,16 C5,19.8659932 8.13400675,23 12,23 L12,23 C15.8659932,23 19,19.8659932 19,16 C19,13.4357121 17.6211682,11.1934677 15.5644653,9.97422745" id="Body" stroke="#333333" stroke-width="2"></path>
                <circle id="Head" stroke="#333333" stroke-width="2" cx="12" cy="6" r="5"></circle>
                <path d="M10.5,7.5 C10.5,7.5 10.5555556,8.5 12,8.5 C13.4444444,8.5 13.5,7.5 13.5,7.5" id="Smile" stroke="#333333" stroke-linecap="round" stroke-linejoin="round"></path>
                <path d="M12,16 C11.4477153,16 11,15.5522847 11,15 C11,14.4477153 11.4477153,14 12,14 C12.5522847,14 13,14.4477153 13,15 C13,15.5522847 12.5522847,16 12,16 Z M12,20 C11.4477153,20 11,19.5522847 11,19 C11,18.4477153 11.4477153,18 12,18 C12.5522847,18 13,18.4477153 13,19 C13,19.5522847 12.5522847,20 12,20 Z" id="Buttons" fill="#333333"></path>
                <path d="M10,6 C9.44771525,6 9,5.55228475 9,5 C9,4.44771525 9.44771525,4 10,4 C10.5522847,4 11,4.44771525 11,5 C11,5.55228475 10.5522847,6 10,6 Z M14,6 C13.4477153,6 13,5.55228475 13,5 C13,4.44771525 13.4477153,4 14,4 C14.5522847,4 15,4.44771525 15,5 C15,5.55228475 14.5522847,6 14,6 Z" id="Eyes" fill="#333333"></path>
                <path d="M16,14 L22,8" id="Right-Arm" stroke="#333333" stroke-width="2" stroke-linecap="round"></path>
                <polyline id="Right-Hand" stroke="#333333" stroke-width="2" stroke-linecap="round" stroke-linejoin="round" points="20 7 20 10 23 10"></polyline>
                <path d="M2,14 L8,8" id="Left-Arm" stroke="#333333" stroke-width="2" stroke-linecap="round" transform="translate(5.000000, 11.000000) scale(-1, 1) translate(-5.000000, -11.000000) "></path>
                <polyline id="Left-Hand" stroke="#333333" stroke-width="2" stroke-linecap="round" stroke-linejoin="round" transform="translate(2.500000, 8.500000) scale(-1, 1) translate(-2.500000, -8.500000) " points="1 7 1 10 4 10"></polyline>
            </g>
        </g>
    </g>
</svg>