<?xml version="1.0" encoding="UTF-8"?>
<svg width="24px" height="24px" viewBox="0 0 24 24" version="1.1" xmlns="http://www.w3.org/2000/svg" xmlns:xlink="http://www.w3.org/1999/xlink">
    <!-- Generator: Sketch 44.1 (41455) - http://www.bohemiancoding.com/sketch -->
    <title>snowflake</title>
    <desc>Created with Sketch.</desc>
    <defs></defs>
    <g id="Page-1" stroke="none" stroke-width="1" fill="none" fill-rule="evenodd" stroke-linecap="round">
        <g id="Artboard-4" transform="translate(-840.000000, -511.000000)" stroke="#333333" stroke-width="2">
            <g id="199" transform="translate(840.000000, 511.000000)">
                <g id="Group-3" transform="translate(10.000000, 3.000000)">
                    <path d="M2,16 L2,2" id="Path-133"></path>
                    <polyline id="Path-134" stroke-linejoin="round" transform="translate(2.000000, 17.000000) scale(1, -1) translate(-2.000000, -17.000000) " points="0 16 2 18 4 16"></polyline>
                    <polyline id="Path-134" stroke-linejoin="round" points="0 0 2 2 4 1.11022302e-16"></polyline>
                </g>
                <g id="Group-3" transform="translate(12.000000, 11.292893) rotate(-45.000000) translate(-12.000000, -11.292893) translate(10.500000, 1.792893)">
                    <path d="M1,18.4852814 L1,1.51471863" id="Path-133"></path>
                </g>
                <g id="Group-3" transform="translate(12.353553, 11.646447) scale(-1, 1) rotate(-45.000000) translate(-12.353553, -11.646447) translate(11.353553, 2.146447)">
                    <path d="M1,18.4852814 L1,1.51471863" id="Path-133"></path>
                </g>
                <g id="Group-3" transform="translate(12.000000, 12.000000) rotate(-90.000000) translate(-12.000000, -12.000000) translate(10.000000, 3.000000)">
                    <path d="M2,16 L2,2" id="Path-133"></path>
                    <polyline id="Path-134" stroke-linejoin="round" transform="translate(2.000000, 17.000000) scale(1, -1) translate(-2.000000, -17.000000) " points="0 16 2 18 4 16"></polyline>
                    <polyline id="Path-134" stroke-linejoin="round" points="0 0 2 2 4 1.11022302e-16"></polyline>
                </g>
            </g>
        </g>
    </g>
</svg>