<?xml version="1.0" encoding="UTF-8"?>
<svg width="24px" height="24px" viewBox="0 0 24 24" version="1.1" xmlns="http://www.w3.org/2000/svg" xmlns:xlink="http://www.w3.org/1999/xlink">
    <!-- Generator: Sketch 44.1 (41455) - http://www.bohemiancoding.com/sketch -->
    <title>snowflake-2</title>
    <desc>Created with Sketch.</desc>
    <defs></defs>
    <g id="Page-1" stroke="none" stroke-width="1" fill="none" fill-rule="evenodd">
        <g id="Artboard-4" transform="translate(-884.000000, -511.000000)">
            <g id="200" transform="translate(884.000000, 511.000000)">
                <path d="M13,9.6 L13,7.41421356 L15.7071068,4.70710678 C16.0976311,4.31658249 16.0976311,3.68341751 15.7071068,3.29289322 C15.3165825,2.90236893 14.6834175,2.90236893 14.2928932,3.29289322 L13,4.58578644 L13,3 C13,2.44771525 12.5522847,2 12,2 C11.4477153,2 11,2.44771525 11,3 L11,4.58578644 L9.70710678,3.29289322 C9.31658249,2.90236893 8.68341751,2.90236893 8.29289322,3.29289322 C7.90236893,3.68341751 7.90236893,4.31658249 8.29289322,4.70710678 L11,7.41421356 L11,7.41421356 L11,9.6 L12,9 L13,9.6 Z M13,14.4 L13,16.5857864 L15.7071068,19.2928932 C16.0976311,19.6834175 16.0976311,20.3165825 15.7071068,20.7071068 C15.3165825,21.0976311 14.6834175,21.0976311 14.2928932,20.7071068 L13,19.4142136 L13,21 C13,21.5522847 12.5522847,22 12,22 C11.4477153,22 11,21.5522847 11,21 L11,19.4142136 L9.70710678,20.7071068 C9.31658249,21.0976311 8.68341751,21.0976311 8.29289322,20.7071068 C7.90236893,20.3165825 7.90236893,19.6834175 8.29289322,19.2928932 L11,16.5857864 L11,14.4 L12,15 L13,14.4 Z" id="Combined-Shape" fill="#333333" fill-rule="nonzero"></path>
                <path d="M13,9.61284993 L13,7.41421356 L15.7071068,4.70710678 C16.0976311,4.31658249 16.0976311,3.68341751 15.7071068,3.29289322 C15.3165825,2.90236893 14.6834175,2.90236893 14.2928932,3.29289322 L13,4.58578644 L13,3 C13,2.44771525 12.5522847,2 12,2 C11.4477153,2 11,2.44771525 11,3 L11,4.58578644 L9.70710678,3.29289322 C9.31658249,2.90236893 8.68341751,2.90236893 8.29289322,3.29289322 C7.90236893,3.68341751 7.90236893,4.31658249 8.29289322,4.70710678 L11,7.41421356 L11,7.41421356 L11,9.69059892 L12.0490381,9.08493649 L13,9.61284993 Z M13,14.3094011 L13,16.5857864 L15.7071068,19.2928932 C16.0976311,19.6834175 16.0976311,20.3165825 15.7071068,20.7071068 C15.3165825,21.0976311 14.6834175,21.0976311 14.2928932,20.7071068 L13,19.4142136 L13,21 C13,21.5522847 12.5522847,22 12,22 C11.4477153,22 11,21.5522847 11,21 L11,19.4142136 L9.70710678,20.7071068 C9.31658249,21.0976311 8.68341751,21.0976311 8.29289322,20.7071068 C7.90236893,20.3165825 7.90236893,19.6834175 8.29289322,19.2928932 L11,16.5857864 L11,14.3871501 L11.9509619,14.9150635 L13,14.3094011 Z" id="Combined-Shape" fill="#333333" fill-rule="nonzero" transform="translate(12.000000, 12.000000) rotate(-60.000000) translate(-12.000000, -12.000000) "></path>
                <path d="M13,9.69059892 L13,7.41421356 L15.7071068,4.70710678 C16.0976311,4.31658249 16.0976311,3.68341751 15.7071068,3.29289322 C15.3165825,2.90236893 14.6834175,2.90236893 14.2928932,3.29289322 L13,4.58578644 L13,3 C13,2.44771525 12.5522847,2 12,2 C11.4477153,2 11,2.44771525 11,3 L11,4.58578644 L9.70710678,3.29289322 C9.31658249,2.90236893 8.68341751,2.90236893 8.29289322,3.29289322 C7.90236893,3.68341751 7.90236893,4.31658249 8.29289322,4.70710678 L11,7.41421356 L11,7.41421356 L11,9.61284993 L11.9509619,9.08493649 L13,9.69059892 Z M13,14.3871501 L13,16.5857864 L15.7071068,19.2928932 C16.0976311,19.6834175 16.0976311,20.3165825 15.7071068,20.7071068 C15.3165825,21.0976311 14.6834175,21.0976311 14.2928932,20.7071068 L13,19.4142136 L13,21 C13,21.5522847 12.5522847,22 12,22 C11.4477153,22 11,21.5522847 11,21 L11,19.4142136 L9.70710678,20.7071068 C9.31658249,21.0976311 8.68341751,21.0976311 8.29289322,20.7071068 C7.90236893,20.3165825 7.90236893,19.6834175 8.29289322,19.2928932 L11,16.5857864 L11,14.3094011 L12.0490381,14.9150635 L13,14.3871501 Z" id="Combined-Shape" fill="#333333" fill-rule="nonzero" transform="translate(12.000000, 12.000000) rotate(-120.000000) translate(-12.000000, -12.000000) "></path>
                <polygon id="Polygon" stroke="#333333" stroke-width="2" points="12 9 14.5 10.5 14.5 13.5 12 15 9.5 13.5 9.5 10.5"></polygon>
            </g>
        </g>
    </g>
</svg>