<?xml version="1.0" encoding="UTF-8"?>
<svg width="24px" height="24px" viewBox="0 0 24 24" version="1.1" xmlns="http://www.w3.org/2000/svg" xmlns:xlink="http://www.w3.org/1999/xlink">
    <!-- Generator: Sketch 44.1 (41455) - http://www.bohemiancoding.com/sketch -->
    <title>sound</title>
    <desc>Created with Sketch.</desc>
    <defs></defs>
    <g id="Page-1" stroke="none" stroke-width="1" fill="none" fill-rule="evenodd">
        <g id="Artboard-4" transform="translate(-268.000000, -863.000000)" fill="#333333">
            <g id="346" transform="translate(268.000000, 863.000000)">
                <path d="M2,11.0093689 C2,10.4519098 2.44386482,10 3,10 C3.55228475,10 4,10.4433532 4,11.0093689 L4,12.9906311 C4,13.5480902 3.55613518,14 3,14 C2.44771525,14 2,13.5566468 2,12.9906311 L2,11.0093689 Z M5,9.99077797 C5,9.44358641 5.44386482,9 6,9 C6.55228475,9 7,9.45097518 7,9.99077797 L7,14.009222 C7,14.5564136 6.55613518,15 6,15 C5.44771525,15 5,14.5490248 5,14.009222 L5,9.99077797 Z M8,7.00247329 C8,6.44882258 8.44386482,6 9,6 C9.55228475,6 10,6.45576096 10,7.00247329 L10,16.9975267 C10,17.5511774 9.55613518,18 9,18 C8.44771525,18 8,17.544239 8,16.9975267 L8,7.00247329 Z M11,5.00087166 C11,4.4481055 11.4438648,4 12,4 C12.5522847,4 13,4.44463086 13,5.00087166 L13,18.9991283 C13,19.5518945 12.5561352,20 12,20 C11.4477153,20 11,19.5553691 11,18.9991283 L11,5.00087166 Z M14,8.99703014 C14,8.4463856 14.4438648,8 15,8 C15.5522847,8 16,8.45303631 16,8.99703014 L16,15.0029699 C16,15.5536144 15.5561352,16 15,16 C14.4477153,16 14,15.5469637 14,15.0029699 L14,8.99703014 Z M17,7.00247329 C17,6.44882258 17.4438648,6 18,6 C18.5522847,6 19,6.45576096 19,7.00247329 L19,16.9975267 C19,17.5511774 18.5561352,18 18,18 C17.4477153,18 17,17.544239 17,16.9975267 L17,7.00247329 Z M20,9.99077797 C20,9.44358641 20.4438648,9 21,9 C21.5522847,9 22,9.45097518 22,9.99077797 L22,14.009222 C22,14.5564136 21.5561352,15 21,15 C20.4477153,15 20,14.5490248 20,14.009222 L20,9.99077797 Z" id="Combined-Shape"></path>
            </g>
        </g>
    </g>
</svg>