<?xml version="1.0" encoding="UTF-8"?>
<svg width="24px" height="24px" viewBox="0 0 24 24" version="1.1" xmlns="http://www.w3.org/2000/svg" xmlns:xlink="http://www.w3.org/1999/xlink">
    <!-- Generator: Sketch 44.1 (41455) - http://www.bohemiancoding.com/sketch -->
    <title>spanner-alt</title>
    <desc>Created with Sketch.</desc>
    <defs></defs>
    <g id="Page-1" stroke="none" stroke-width="1" fill="none" fill-rule="evenodd">
        <g id="Artboard-4" transform="translate(-884.000000, -599.000000)" stroke="#333333">
            <g id="240" transform="translate(882.000000, 597.000000)">
                <g id="spanner-alt" transform="translate(13.685029, 14.385041) rotate(-315.000000) translate(-13.685029, -14.385041) translate(8.685029, 0.385041)">
                    <g id="wrench">
                        <path d="M3,0.430000007 C1.23409522,1.20155663 4.4408921e-15,2.96363728 4.4408921e-15,5.01395632 C4.4408921e-15,7.77538007 2.23857625,10.0139563 5,10.0139563 C7.76142375,10.0139563 10,7.77538007 10,5.01395632 C10,2.96363728 8.76590478,1.20155663 7,0.430000007 L7,4.43000001 C7,4.43000001 5.34396362,5.43000001 5,5.43000001 C4.65603638,5.43000001 3,4.43000001 3,4.43000001 L3,0.430000007 Z" id="Combined-Shape" stroke-width="2" stroke-linecap="round" stroke-linejoin="round" transform="translate(5.000000, 5.221978) rotate(-360.000000) translate(-5.000000, -5.221978) "></path>
                        <path d="M5,27 C2.790861,27 1,25.209139 1,23 C1,20.790861 2.790861,19 5,19 C7.209139,19 9,20.790861 9,23 C9,25.209139 7.209139,27 5,27 Z M3,20 L3,21 L2,21 L1,23 L2,25 L3,25 L3,26 L5,27 L7,26 L7,25 L8,25 L9,23 L8,21 L7,21 L7,20 L5,19 L3,20 Z" id="Combined-Shape" stroke-width="2" stroke-linecap="round" stroke-linejoin="round" transform="translate(5.000000, 23.000000) scale(-1, -1) translate(-5.000000, -23.000000) "></path>
                        <polygon id="Combined-Shape" stroke-width="2" points="3 10 7 10 7 19 3 19"></polygon>
                    </g>
                </g>
            </g>
        </g>
    </g>
</svg>