<?xml version="1.0" encoding="UTF-8"?>
<svg width="24px" height="24px" viewBox="0 0 24 24" version="1.1" xmlns="http://www.w3.org/2000/svg" xmlns:xlink="http://www.w3.org/1999/xlink">
    <!-- Generator: Sketch 44.1 (41455) - http://www.bohemiancoding.com/sketch -->
    <title>sparkle</title>
    <desc>Created with Sketch.</desc>
    <defs></defs>
    <g id="Page-1" stroke="none" stroke-width="1" fill="none" fill-rule="evenodd" stroke-linecap="round" stroke-linejoin="round">
        <g id="Artboard-4" transform="translate(-488.000000, -731.000000)" stroke="#333333" stroke-width="2">
            <g id="291" transform="translate(488.000000, 731.000000)">
                <path d="M10,9 C11.5,10.5 14,11 14,11 C14,11 11.5,11.5 10,13 C8.5,14.5 8,19 8,19 C8,19 7.5,14.5 6,13 C4.5,11.5 2,11 2,11 C2,11 4.5,10.5 6,9 C7.5,7.5 8,3 8,3 C8,3 8.5,7.5 10,9 Z M19.6666667,4.75 C20.5416667,5.6875 22,6 22,6 C22,6 20.5416667,6.3125 19.6666667,7.25 C18.7916667,8.1875 18.5,11 18.5,11 C18.5,11 18.2083333,8.1875 17.3333333,7.25 C16.4583333,6.3125 15,6 15,6 C15,6 16.4583333,5.6875 17.3333333,4.75 C18.2083333,3.8125 18.5,1 18.5,1 C18.5,1 18.7916667,3.8125 19.6666667,4.75 Z M17,17 C17.75,17.75 19,18 19,18 C19,18 17.75,18.25 17,19 C16.25,19.75 16,22 16,22 C16,22 15.75,19.75 15,19 C14.25,18.25 13,18 13,18 C13,18 14.25,17.75 15,17 C15.75,16.25 16,14 16,14 C16,14 16.25,16.25 17,17 Z" id="Sparkles"></path>
            </g>
        </g>
    </g>
</svg>