<?xml version="1.0" encoding="UTF-8"?>
<svg width="24px" height="24px" viewBox="0 0 24 24" version="1.1" xmlns="http://www.w3.org/2000/svg" xmlns:xlink="http://www.w3.org/1999/xlink">
    <!-- Generator: Sketch 44.1 (41455) - http://www.bohemiancoding.com/sketch -->
    <title>star-filled</title>
    <desc>Created with Sketch.</desc>
    <defs></defs>
    <g id="Page-1" stroke="none" stroke-width="1" fill="none" fill-rule="evenodd">
        <g id="Artboard-4" transform="translate(-840.000000, -1046.000000)" fill-rule="nonzero" fill="#333333">
            <g id="Extras" transform="translate(48.000000, 1046.000000)">
                <g id="star-filled" transform="translate(792.000000, 0.000000)">
                    <path d="M7.64061498,22.0514158 C6.17336022,22.8227973 4.45849536,21.576875 4.73871608,19.9430628 L5.57128453,15.0888163 L2.04446797,11.6510198 C0.857433933,10.4939476 1.51245402,8.47800301 3.15289472,8.23963302 L8.02683534,7.53140799 L10.2065278,3.11486858 C10.9401552,1.62837714 13.0598448,1.62837714 13.7934722,3.11486858 L15.9731647,7.53140799 L20.8471053,8.23963302 C22.487546,8.47800301 23.1425661,10.4939476 21.955532,11.6510198 L18.4287155,15.0888163 L19.2612839,19.9430628 C19.5415046,21.576875 17.8266398,22.8227973 16.359385,22.0514158 L12,19.7595515 L7.64061498,22.0514158 Z" id="Star-1"></path>
                </g>
            </g>
        </g>
    </g>
</svg>