<?xml version="1.0" encoding="UTF-8"?>
<svg width="24px" height="24px" viewBox="0 0 24 24" version="1.1" xmlns="http://www.w3.org/2000/svg" xmlns:xlink="http://www.w3.org/1999/xlink">
    <!-- Generator: Sketch 44.1 (41455) - http://www.bohemiancoding.com/sketch -->
    <title>succulent</title>
    <desc>Created with Sketch.</desc>
    <defs></defs>
    <g id="Page-1" stroke="none" stroke-width="1" fill="none" fill-rule="evenodd">
        <g id="Artboard-4" transform="translate(-884.000000, -775.000000)" stroke="#333333" stroke-width="2">
            <g id="320" transform="translate(884.000000, 775.000000)">
                <polygon id="Pot" stroke-linecap="round" stroke-linejoin="round" points="4 13 6 22 18 22 20 13"></polygon>
                <path d="M9,13 C5,7 12,4 12,4 C12,4 19,7 15,13" id="Leaf" stroke-linejoin="round"></path>
                <path d="M16,8.00017693 C16.115406,4.92286942 20.5,5.00017693 20.5,5.00017693 C20.5,5.00017693 23,9.00017693 18,13.0001769" id="Leaf" stroke-linejoin="round"></path>
                <path d="M3,8.00017693 C3.11540597,4.92286942 7.5,5.00017693 7.5,5.00017693 C7.5,5.00017693 10,9.00017693 5,13.0001769" id="Leaf" stroke-linejoin="round" transform="translate(5.562500, 9.000088) scale(-1, 1) translate(-5.562500, -9.000088) "></path>
                <path d="M6,5.5 C6,4 8,3 8,3 C8,3 10,4 10,5.5" id="Leaf"></path>
                <path d="M14,5.5 C14,4 16,3 16,3 C16,3 18,4 18,5.5" id="Leaf"></path>
            </g>
        </g>
    </g>
</svg>