<?xml version="1.0" encoding="UTF-8"?>
<svg width="24px" height="24px" viewBox="0 0 24 24" version="1.1" xmlns="http://www.w3.org/2000/svg" xmlns:xlink="http://www.w3.org/1999/xlink">
    <!-- Generator: Sketch 44.1 (41455) - http://www.bohemiancoding.com/sketch -->
    <title>sunset</title>
    <desc>Created with Sketch.</desc>
    <defs></defs>
    <g id="Page-1" stroke="none" stroke-width="1" fill="none" fill-rule="evenodd">
        <g id="Artboard-4" transform="translate(-708.000000, -819.000000)" stroke="#333333" stroke-width="2">
            <g id="336" transform="translate(708.000000, 819.000000)">
                <path d="M15.0030155,20.642404 C15.623583,19.9376971 16,19.012807 16,18 C16,15.790861 14.209139,14 12,14 C9.790861,14 8,15.790861 8,18 C8,19.0135675 8.37698243,19.9390859 8.99838271,20.6439909" id="Sun"></path>
                <path d="M12,11 L12,10 M16.9497475,13.0502525 L17.6568542,12.3431458 M19,18 L20,18 M5,18 L4,18 M7.05025253,13.0502525 L6.34314575,12.3431458" id="Rays" stroke-linecap="round"></path>
                <path d="M2,21 L22,21" id="Horizon" stroke-linecap="round"></path>
                <path d="M12,3 L12,6" id="Line" stroke-linecap="round"></path>
                <polyline id="Head" stroke-linecap="round" stroke-linejoin="round" transform="translate(12.000000, 3.000000) scale(1, -1) translate(-12.000000, -3.000000) " points="10 2 12 4 14 2"></polyline>
            </g>
        </g>
    </g>
</svg>