<?xml version="1.0" encoding="UTF-8"?>
<svg width="24px" height="24px" viewBox="0 0 24 24" version="1.1" xmlns="http://www.w3.org/2000/svg" xmlns:xlink="http://www.w3.org/1999/xlink">
    <!-- Generator: Sketch 44.1 (41455) - http://www.bohemiancoding.com/sketch -->
    <title>sync</title>
    <desc>Created with Sketch.</desc>
    <defs></defs>
    <g id="Page-1" stroke="none" stroke-width="1" fill="none" fill-rule="evenodd">
        <g id="Artboard-4" transform="translate(-268.000000, -115.000000)" fill="#333333">
            <g id="6" transform="translate(268.000000, 115.000000)">
                <path d="M3.0778693,10.8108091 C3.65980479,6.40232883 7.43257416,3 12,3 C14.7398171,3 17.1936911,4.22426776 18.8444094,6.15559061 L21,4 L21,10 L15,10 L17.4245823,7.57541768 C16.1409482,6.00355604 14.1876707,5 12,5 C8.47352809,5 5.55611852,7.60770586 5.07088886,11 L5.05999756,11 C5.05999756,11.5522847 4.61228231,12 4.05999756,12 C3.50771281,12 3.05999756,11.5522847 3.05999756,11 L3.05492878,11 C3.05714381,10.9799625 3.05942463,10.9599448 3.06177101,10.9399471 C3.06436925,10.8960803 3.06979526,10.8529744 3.0778693,10.8108091 Z M20.9221307,13.1891909 C20.3401952,17.5976712 16.5674258,21 12,21 C9.26018292,21 6.8063089,19.7757322 5.15559061,17.8444094 L3,20 L3,14 L9,14 L6.57541768,16.4245823 C7.85905176,17.996444 9.81232934,19 12,19 C15.5264719,19 18.4438815,16.3922941 18.9291111,13 L18.9400024,13 C18.9400024,12.4477153 19.3877177,12 19.9400024,12 C20.4922872,12 20.9400024,12.4477153 20.9400024,13 L20.9450712,13 C20.9428562,13.0200375 20.9405754,13.0400552 20.938229,13.0600529 C20.9356308,13.1039197 20.9302047,13.1470256 20.9221307,13.1891909 Z" id="Combined-Shape"></path>
            </g>
        </g>
    </g>
</svg>