<?xml version="1.0" encoding="UTF-8"?>
<svg width="24px" height="24px" viewBox="0 0 24 24" version="1.1" xmlns="http://www.w3.org/2000/svg" xmlns:xlink="http://www.w3.org/1999/xlink">
    <!-- Generator: Sketch 44.1 (41455) - http://www.bohemiancoding.com/sketch -->
    <title>the-monster</title>
    <desc>Created with Sketch.</desc>
    <defs></defs>
    <g id="Page-1" stroke="none" stroke-width="1" fill="none" fill-rule="evenodd">
        <g id="Artboard-4" transform="translate(-532.000000, -467.000000)">
            <g id="172" transform="translate(532.000000, 467.000000)">
                <path d="M4,5.99810135 C4,4.89458045 4.89451376,4 5.99406028,4 L18.0059397,4 C19.1072288,4 20,4.88670635 20,5.99810135 L20,12 L19,14 L19,18.9940809 C19,20.1019194 18.1029399,21 16.9941413,21 L7.00585866,21 C5.89805351,21 5,20.1134452 5,18.9940809 L5,14 L4,12 L4,5.99810135 Z" id="Head" stroke="#333333" stroke-width="2" stroke-linejoin="round"></path>
                <rect id="Mouth" fill="#333333" x="10" y="17" width="4" height="1" rx="0.5"></rect>
                <path d="M9.5,16 C8.67157288,16 8,15.3284271 8,14.5 C8,13.6715729 8.67157288,13 9.5,13 C10.3284271,13 11,13.6715729 11,14.5 C11,15.3284271 10.3284271,16 9.5,16 Z M14.5,16 C13.6715729,16 13,15.3284271 13,14.5 C13,13.6715729 13.6715729,13 14.5,13 C15.3284271,13 16,13.6715729 16,14.5 C16,15.3284271 15.3284271,16 14.5,16 Z" id="eyes" fill="#333333"></path>
                <path d="M12,9 L12,8 L11,8 L11,9 L10,9 L10,8 L9,8 L9,9 L8,9 L8,8 L7,8 L7,9 L4.4963932,9 C4.22618103,9 4,9.22385763 4,9.5 C4,9.76806641 4.22224281,10 4.4963932,10 L7,10 L7,11 L8,11 L8,10 L9,10 L9,11 L10,11 L10,10 L11,10 L11,11 L12,11 L12,10 L14,10 L14,11 L15,11 L15,10 L16,10 L16,11 L17,11 L17,10 L19.5036068,10 C19.773819,10 20,9.77614237 20,9.5 C20,9.23193359 19.7777572,9 19.5036068,9 L17,9 L17,8 L16,8 L16,9 L15,9 L15,8 L14,8 L14,9 L12,9 Z" id="Stitches" fill="#333333" opacity="0.75"></path>
                <path d="M3,5 C3,3.8954305 3.8926228,3 4.99508929,3 L19.0049107,3 C20.1067681,3 21,3.88772964 21,5 L21,7 L20,6 L18,8 L16,6 L14,8 L12,6 L10,8 L8,6 L6,8 L4,6 L3,7 L3,5 Z" id="Hair" fill="#333333"></path>
            </g>
        </g>
    </g>
</svg>