<?xml version="1.0" encoding="UTF-8"?>
<svg width="24px" height="24px" viewBox="0 0 24 24" version="1.1" xmlns="http://www.w3.org/2000/svg" xmlns:xlink="http://www.w3.org/1999/xlink">
    <!-- Generator: Sketch 44.1 (41455) - http://www.bohemiancoding.com/sketch -->
    <title>ticket</title>
    <desc>Created with Sketch.</desc>
    <defs></defs>
    <g id="Page-1" stroke="none" stroke-width="1" fill="none" fill-rule="evenodd">
        <g id="Artboard-4" transform="translate(-708.000000, -511.000000)">
            <g id="196" transform="translate(708.000000, 511.000000)">
                <path d="M14.2675644,19 L2.991155,19 C1.89147046,19 1,18.1029399 1,16.9941413 L1,13.7324356 C1.59780137,13.3866262 2,12.7402824 2,12 C2,11.2597176 1.59780137,10.6133738 1,10.2675644 L1,7.00585866 C1,5.89805351 1.88967395,5 2.991155,5 L14.2675644,5 C14.6133738,5.59780137 15.2597176,6 16,6 C16.7402824,6 17.3866262,5.59780137 17.7324356,5 L21.008845,5 C22.1085295,5 23,5.89706013 23,7.00585866 L23,10.2675644 C22.4021986,10.6133738 22,11.2597176 22,12 C22,12.7402824 22.4021986,13.3866262 23,13.7324356 L23,16.9941413 C23,18.1019465 22.1103261,19 21.008845,19 L17.7324356,19 C17.3866262,18.4021986 16.7402824,18 16,18 C15.2597176,18 14.6133738,18.4021986 14.2675644,19 Z" id="Ticket" stroke="#333333" stroke-width="2" stroke-linejoin="round"></path>
                <path d="M15,6.99895656 C15,6.44724809 15.4438648,6 16,6 C16.5522847,6 17,6.44266033 17,6.99895656 L17,8.00104344 C17,8.55275191 16.5561352,9 16,9 C15.4477153,9 15,8.55733967 15,8.00104344 L15,6.99895656 Z M15,11.0093689 C15,10.4519098 15.4438648,10 16,10 C16.5522847,10 17,10.4433532 17,11.0093689 L17,12.9906311 C17,13.5480902 16.5561352,14 16,14 C15.4477153,14 15,13.5566468 15,12.9906311 L15,11.0093689 Z M15,15.9989566 C15,15.4472481 15.4438648,15 16,15 C16.5522847,15 17,15.4426603 17,15.9989566 L17,17.0010434 C17,17.5527519 16.5561352,18 16,18 C15.4477153,18 15,17.5573397 15,17.0010434 L15,15.9989566 Z" id="Rip" fill="#333333"></path>
                <path d="M4,9 C4,8.44771525 4.45303631,8 4.99703014,8 L11.0029699,8 C11.5536144,8 12,8.44386482 12,9 C12,9.55228475 11.5469637,10 11.0029699,10 L4.99703014,10 C4.4463856,10 4,9.55613518 4,9 Z M4,12 C4,11.4477153 4.44335318,11 5.0093689,11 L6.9906311,11 C7.54809015,11 8,11.4438648 8,12 C8,12.5522847 7.55664682,13 6.9906311,13 L5.0093689,13 C4.45190985,13 4,12.5561352 4,12 Z" id="Info" fill="#333333" opacity="0.5"></path>
                <rect id="Info" fill="#333333" opacity="0.200000003" x="4" y="15" width="9" height="1" rx="0.5"></rect>
            </g>
        </g>
    </g>
</svg>