<?xml version="1.0" encoding="UTF-8"?>
<svg width="24px" height="24px" viewBox="0 0 24 24" version="1.1" xmlns="http://www.w3.org/2000/svg" xmlns:xlink="http://www.w3.org/1999/xlink">
    <!-- Generator: Sketch 44.1 (41455) - http://www.bohemiancoding.com/sketch -->
    <title>trash</title>
    <desc>Created with Sketch.</desc>
    <defs></defs>
    <g id="Page-1" stroke="none" stroke-width="1" fill="none" fill-rule="evenodd">
        <g id="Artboard-4" transform="translate(-576.000000, -423.000000)" stroke="#333333">
            <g id="153" transform="translate(576.000000, 423.000000)">
                <ellipse id="Rim" stroke-width="2" cx="12" cy="5" rx="9" ry="2"></ellipse>
                <path d="M3,5 L5.63214111,19.0380859 C5.83530397,20.1216212 6.90196064,21 8.00855308,21 L15.9915836,21 C17.1008769,21 18.165703,20.1165509 18.3679956,19.0371329 L21.0001367,4.99222774" id="Body" stroke-width="2"></path>
                <path d="M7,6 C7,7 5,9.04138127 3.95861873,9.04138127" id="Path-85"></path>
                <path d="M12,7 C12,8 6,14 5,14" id="Path-87"></path>
                <path d="M18,7 C18,8.5 7.5,19 6,19" id="Path-89"></path>
                <path d="M10,21 C11.5,21 20.0124922,12.5 20.0124922,10.9875078" id="Path-91"></path>
                <path d="M17.5,6.5 C17.5,7.5 19.5,9.5 20.5,9.5" id="Path-86"></path>
                <path d="M12,7 C12,8 18,14 19,14" id="Path-88"></path>
                <path d="M6,7 C6,8.5 16.5,19.0104121 18.0104121,19.0104121" id="Path-90"></path>
                <path d="M14,21 C12.5,21 4,12.5 4,11" id="Path-92"></path>
            </g>
        </g>
    </g>
</svg>