<?xml version="1.0" encoding="UTF-8"?>
<svg width="24px" height="24px" viewBox="0 0 24 24" version="1.1" xmlns="http://www.w3.org/2000/svg" xmlns:xlink="http://www.w3.org/1999/xlink">
    <!-- Generator: Sketch 44.1 (41455) - http://www.bohemiancoding.com/sketch -->
    <title>user-delete</title>
    <desc>Created with Sketch.</desc>
    <defs></defs>
    <g id="Page-1" stroke="none" stroke-width="1" fill="none" fill-rule="evenodd">
        <g id="Artboard-4" transform="translate(-268.000000, -1134.000000)">
            <g id="Extras" transform="translate(48.000000, 1046.000000)">
                <g id="delete-user" transform="translate(220.000000, 88.000000)">
                    <path d="M14.2571621,15 L7,15 C4.20063223,15 2.390348,16.1679253 1.5255785,18.0896353 C1.07423388,19.0926234 0.949016905,20.1108713 0.995546634,20.9698816 C0.998604759,21.0263393 1.0014872,21.0632937 1.00496281,21.0995037 C1.0599172,21.6490476 1.54995985,22.0499916 2.09950372,21.9950372 C2.64904758,21.9400828 3.04999158,21.4500401 2.99503719,20.9004963 C2.99555422,20.9071205 2.99399879,20.8871791 2.99261905,20.8617069 C2.96185588,20.2937714 3.05021139,19.575276 3.34942151,18.9103647 C3.890902,17.7070747 4.98686778,17 7,17 L12.0070975,17 L13.2070325,17 C13.4170071,16.2576107 13.7789623,15.5790321 14.2571621,15 Z" id="Body" fill="#333333" fill-rule="nonzero"></path>
                    <path d="M19.2071068,18.5 L20.2693942,17.4377126 C20.4694029,17.2377039 20.4630291,16.9274952 20.267767,16.732233 C20.0782154,16.5426815 19.7566508,16.5362424 19.5622874,16.7306058 L18.5,17.7928932 L17.4377126,16.7306058 C17.2377039,16.5305971 16.9274952,16.5369709 16.732233,16.732233 C16.5426815,16.9217846 16.5362424,17.2433492 16.7306058,17.4377126 L17.7928932,18.5 L16.7306058,19.5622874 C16.5305971,19.7622961 16.5369709,20.0725048 16.732233,20.267767 C16.9217846,20.4573185 17.2433492,20.4637576 17.4377126,20.2693942 L18.5,19.2071068 L19.5622874,20.2693942 C19.7622961,20.4694029 20.0725048,20.4630291 20.267767,20.267767 C20.4573185,20.0782154 20.4637576,19.7566508 20.2693942,19.5622874 L19.2071068,18.5 Z M18.5,23 C16.0147186,23 14,20.9852814 14,18.5 C14,16.0147186 16.0147186,14 18.5,14 C20.9852814,14 23,16.0147186 23,18.5 C23,20.9852814 20.9852814,23 18.5,23 Z" id="x" fill="#333333"></path>
                    <circle id="Head" stroke="#333333" stroke-width="2" cx="12" cy="8" r="5"></circle>
                </g>
            </g>
        </g>
    </g>
</svg>