<?xml version="1.0" encoding="UTF-8"?>
<svg width="24px" height="24px" viewBox="0 0 24 24" version="1.1" xmlns="http://www.w3.org/2000/svg" xmlns:xlink="http://www.w3.org/1999/xlink">
    <!-- Generator: Sketch 44.1 (41455) - http://www.bohemiancoding.com/sketch -->
    <title>voicemail</title>
    <desc>Created with Sketch.</desc>
    <defs></defs>
    <g id="Page-1" stroke="none" stroke-width="1" fill="none" fill-rule="evenodd">
        <g id="Artboard-4" transform="translate(-400.000000, -511.000000)">
            <g id="189" transform="translate(400.000000, 511.000000)">
                <path d="M5.5,16 C3.01471863,16 1,13.9852814 1,11.5 C1,9.01471863 3.01471863,7 5.5,7 C7.98528137,7 10,9.01471863 10,11.5 C10,13.9852814 7.98528137,16 5.5,16 Z M18.5,16 C16.0147186,16 14,13.9852814 14,11.5 C14,9.01471863 16.0147186,7 18.5,7 C20.9852814,7 23,9.01471863 23,11.5 C23,13.9852814 20.9852814,16 18.5,16 Z" id="Circles" stroke="#333333" stroke-width="2"></path>
                <rect id="Line" fill="#333333" x="5.5" y="15" width="13" height="2"></rect>
            </g>
        </g>
    </g>
</svg>