<?xml version="1.0" encoding="UTF-8"?>
<svg width="24px" height="24px" viewBox="0 0 24 24" version="1.1" xmlns="http://www.w3.org/2000/svg" xmlns:xlink="http://www.w3.org/1999/xlink">
    <!-- Generator: Sketch 44.1 (41455) - http://www.bohemiancoding.com/sketch -->
    <title>watch-smart</title>
    <desc>Created with Sketch.</desc>
    <defs></defs>
    <g id="Page-1" stroke="none" stroke-width="1" fill="none" fill-rule="evenodd">
        <g id="Artboard-4" transform="translate(-708.000000, -247.000000)" stroke="#333333">
            <g id="76" transform="translate(708.000000, 247.000000)">
                <path d="M8.39241339,18 L8,18 L8.80243218,22.0121609 C8.91154587,22.5577294 9.45097518,23 9.99077797,23 L14.009222,23 C14.5564136,23 15.0887433,22.5562834 15.1975678,22.0121609 L16,18 L15.6075866,18 C14.5540438,18.6348198 13.3196681,19 12,19 C10.6803319,19 9.44595619,18.6348198 8.39241339,18 Z M15.6075866,6 L16,6 L15.1975678,1.9878391 C15.0887433,1.44371665 14.5564136,1 14.009222,1 L9.99077797,1 C9.45097518,1 8.91154587,1.44227063 8.80243218,1.9878391 L8,6 L8.39241339,6 C9.44595619,5.36518017 10.6803319,5 12,5 C13.3196681,5 14.5540438,5.36518017 15.6075866,6 Z" id="Strap" stroke-width="2" stroke-linejoin="round"></path>
                <circle id="Body" stroke-width="2" cx="12" cy="12" r="7"></circle>
                <circle id="Screen" opacity="0.5" cx="12" cy="12" r="4.5"></circle>
            </g>
        </g>
    </g>
</svg>