<?xml version="1.0" encoding="UTF-8"?>
<svg width="24px" height="24px" viewBox="0 0 24 24" version="1.1" xmlns="http://www.w3.org/2000/svg" xmlns:xlink="http://www.w3.org/1999/xlink">
    <!-- Generator: Sketch 44.1 (41455) - http://www.bohemiancoding.com/sketch -->
    <title>wind</title>
    <desc>Created with Sketch.</desc>
    <defs></defs>
    <g id="Page-1" stroke="none" stroke-width="1" fill="none" fill-rule="evenodd" stroke-linecap="round">
        <g id="Artboard-4" transform="translate(-576.000000, -819.000000)" stroke="#333333" stroke-width="2">
            <g id="333" transform="translate(576.000000, 819.000000)">
                <path d="M2,10 L11,10" id="Path-264"></path>
                <path d="M17.2806829,16.0223426 C17.6295596,16.6078012 18.2689783,17 19,17 C20.1045695,17 21,16.1045695 21,15 C21,13.8954305 20.1045695,13 19,13 L5,13" id="Oval-185"></path>
                <path d="M9.28068294,19.0223426 C9.62955958,19.6078012 10.2689783,20 11,20 C12.1045695,20 13,19.1045695 13,18 C13,16.8954305 12.1045695,16 11,16 L3,16" id="Oval-185"></path>
                <path d="M14,10 L18,10" id="Path-264"></path>
                <path d="M21,10 L22,10" id="Path-264"></path>
                <path d="M4,7 L17,7 C18.1045695,7 19,6.1045695 19,5 C19,3.8954305 18.1045695,3 17,3 C16.2489103,3 15.594522,3.41402768 15.2526119,4.02630619" id="Oval-186"></path>
            </g>
        </g>
    </g>
</svg>