<?xml version="1.0" encoding="UTF-8"?>
<svg width="24px" height="24px" viewBox="0 0 24 24" version="1.1" xmlns="http://www.w3.org/2000/svg" xmlns:xlink="http://www.w3.org/1999/xlink">
    <!-- Generator: Sketch 44.1 (41455) - http://www.bohemiancoding.com/sketch -->
    <title>window</title>
    <desc>Created with Sketch.</desc>
    <defs></defs>
    <g id="Page-1" stroke="none" stroke-width="1" fill="none" fill-rule="evenodd">
        <g id="Artboard-4" transform="translate(-796.000000, -203.000000)">
            <g id="58" transform="translate(796.000000, 203.000000)">
                <rect id="Window" stroke="#333333" stroke-width="2" x="1" y="3" width="22" height="18" rx="1"></rect>
                <rect id="Title" fill="#333333" x="1" y="7" width="22" height="1"></rect>
                <path d="M3.5,6 C3.22385763,6 3,5.77614237 3,5.5 C3,5.22385763 3.22385763,5 3.5,5 C3.77614237,5 4,5.22385763 4,5.5 C4,5.77614237 3.77614237,6 3.5,6 Z M5.5,6 C5.22385763,6 5,5.77614237 5,5.5 C5,5.22385763 5.22385763,5 5.5,5 C5.77614237,5 6,5.22385763 6,5.5 C6,5.77614237 5.77614237,6 5.5,6 Z M7.5,6 C7.22385763,6 7,5.77614237 7,5.5 C7,5.22385763 7.22385763,5 7.5,5 C7.77614237,5 8,5.22385763 8,5.5 C8,5.77614237 7.77614237,6 7.5,6 Z" id="Controls" fill="#333333"></path>
            </g>
        </g>
    </g>
</svg>