<?xml version="1.0" encoding="UTF-8"?>
<svg width="24px" height="24px" viewBox="0 0 24 24" version="1.1" xmlns="http://www.w3.org/2000/svg" xmlns:xlink="http://www.w3.org/1999/xlink">
    <!-- Generator: Sketch 44.1 (41455) - http://www.bohemiancoding.com/sketch -->
    <title>witch-hat</title>
    <desc>Created with Sketch.</desc>
    <defs></defs>
    <g id="Page-1" stroke="none" stroke-width="1" fill="none" fill-rule="evenodd">
        <g id="Artboard-4" transform="translate(-444.000000, -467.000000)" stroke="#333333">
            <g id="170" transform="translate(444.000000, 467.000000)">
                <path d="M4.00697389,18.6259534 C2.14300376,18.9842742 1,19.4678677 1,20 C1,21.1045695 5.92486775,22 12,22 L12,22 C18.0751322,22 23,21.1045695 23,20 C23,19.4713519 21.8719151,18.990609 20.0295469,18.6330079" id="Rim" stroke-width="2" stroke-linecap="round"></path>
                <polyline id="Hat" stroke-width="2" stroke-linecap="round" stroke-linejoin="round" points="2 20 4 20 12 2 20 20 22 20"></polyline>
                <path d="M6,16 C6,16 6.73021321,16.7232613 10.021147,16.9395921 M14.0465686,16.9356599 C17.2853567,16.7146433 18,16 18,16" id="Strap" stroke-width="3"></path>
                <rect id="Buckle" stroke-width="2" x="10" y="15" width="4" height="4" rx="1"></rect>
            </g>
        </g>
    </g>
</svg>