<?xml version="1.0" encoding="UTF-8"?>
<svg width="24px" height="24px" viewBox="0 0 24 24" version="1.1" xmlns="http://www.w3.org/2000/svg" xmlns:xlink="http://www.w3.org/1999/xlink">
    <!-- Generator: Sketch 44.1 (41455) - http://www.bohemiancoding.com/sketch -->
    <title>wooly-hat</title>
    <desc>Created with Sketch.</desc>
    <defs></defs>
    <g id="Page-1" stroke="none" stroke-width="1" fill="none" fill-rule="evenodd">
        <g id="Artboard-4" transform="translate(-488.000000, -555.000000)" stroke="#333333">
            <g id="211" transform="translate(488.000000, 555.000000)">
                <rect id="Rim" stroke-width="2" x="2" y="17" width="20" height="5" rx="2"></rect>
                <path d="M10.0079806,7.22980908 C5.54848439,8.32383562 4,13.1123115 4,17 L20,17 L20,17 C20,13.1177952 18.4558809,8.33734243 14.0108728,7.2344606" id="Hat" stroke-width="2"></path>
                <path d="M11.5,8 C11.5,8 11,8 10.5,11.5 C10,15 10,18 10,18" id="Path-154" opacity="0.5"></path>
                <path d="M14,8 C14,8 13.5,8 13,11.5 C12.5,15 12.5,17 12.5,17" id="Path-154" opacity="0.5" transform="translate(13.250000, 12.500000) scale(-1, 1) translate(-13.250000, -12.500000) "></path>
                <path d="M13.5,7.5 C13.5,7.5 15,8.5 16,11.5 C17,14.5 17,17 17,17" id="Path-155" opacity="0.5"></path>
                <path d="M7,7.5 C7,7.5 8.5,8.5 9.5,11.5 C10.5,14.5 10.5,17 10.5,17" id="Path-155" opacity="0.5" transform="translate(8.750000, 12.250000) scale(-1, 1) translate(-8.750000, -12.250000) "></path>
                <circle id="Bobble" stroke-width="2" cx="12" cy="5" r="3"></circle>
            </g>
        </g>
    </g>
</svg>