<?xml version="1.0" encoding="UTF-8"?>
<svg width="24px" height="24px" viewBox="0 0 24 24" version="1.1" xmlns="http://www.w3.org/2000/svg" xmlns:xlink="http://www.w3.org/1999/xlink">
    <!-- Generator: Sketch 44.1 (41455) - http://www.bohemiancoding.com/sketch -->
    <title>wreath</title>
    <desc>Created with Sketch.</desc>
    <defs></defs>
    <g id="Page-1" stroke="none" stroke-width="1" fill="none" fill-rule="evenodd">
        <g id="Artboard-4" transform="translate(-312.000000, -555.000000)">
            <g id="207" transform="translate(312.000000, 555.000000)">
                <path d="M19.6816765,15.6920188 C20.5179645,14.3257866 21,12.719186 21,11 C21,9.95546497 20.5,9 20,8 C19.5,7 19.5669644,6.00530036 18.8593651,5.17313384 C17.8499725,3.98604564 16,3.5 15,3 C14,2.5 13.0677912,2 12,2 C10.9413063,2 9.94346255,2.66424304 9,3 C8.05653745,3.33575696 6.16593141,3.97231386 5.15267701,5.15900119 C4.43750165,5.99658901 4.37106609,6.93891883 4,8 C3.62893391,9.06108117 3,9.95857558 3,11 C3,12.6967749 3.46954988,14.2838805 4.28579907,15.6384663" id="Outer" stroke="#333333" stroke-width="2"></path>
                <path d="M12,15 C12.5840571,15 12.9997815,14.7249901 13.5,14.5 C14.0002185,14.2750099 14.4796602,14.1748499 14.818677,13.838144 C15.186751,13.4725789 15.2956884,12.9854612 15.5,12.5 C15.7043116,12.0145388 16,11.54977 16,11 C16,10.6552591 15.582007,9.81915276 15.5,9.5 C15.417993,9.18084724 15.3362011,8.68641672 14.8484269,8.19171421 C14.4902843,7.82848456 13.9748326,7.70565915 13.5,7.5 C13.0251674,7.29434085 12.5643788,7 12,7 C11.4325545,7 10.9889891,7.28694517 10.5,7.5 C10.0110109,7.71305483 9.54424849,7.80544116 9.19782594,8.14555976 C8.82866661,8.5080014 8.70701879,9.01759759 8.5,9.5 C8.29298121,9.98240241 8,10.4403496 8,11 C8,11.5757115 8.2810416,12.0053961 8.5,12.5 C8.7189584,12.9946039 8.81643691,13.4694282 9.1558736,13.8126408 C9.5480009,14.2091301 9.97098346,14.2943916 10.5,14.5 C11.0290165,14.7056084 11.4891246,15 12,15 Z" id="Inner" stroke="#333333" stroke-width="2"></path>
                <path d="M14,17.5 L18.1508441,15.7704816 C19.1721047,15.3449564 20,15.8867064 20,16.9981014 L20,21.0018986 C20,22.1054196 19.1657257,22.6523857 18.1508441,22.2295184 L14,20.5" id="Right-Bow" stroke="#333333" stroke-width="2" stroke-linejoin="round"></path>
                <path d="M4,17.5 L8.15084407,15.7468944 C9.17210469,15.3155658 10,15.8563903 10,16.972522 L10,20.993383 C10,22.101607 9.16572571,22.6523857 8.15084407,22.2295184 L4,20.5" id="Left-Bow" stroke="#333333" stroke-width="2" stroke-linejoin="round" transform="translate(7.000000, 18.985279) scale(-1, 1) translate(-7.000000, -18.985279) "></path>
                <path d="M10,18.4989566 C10,17.9472481 10.430191,17.3633728 10.9578888,17.2091479 C10.9578888,17.2091479 11.5,17 12,17 C12.5,17 13.0421112,17.2091479 13.0421112,17.2091479 C13.5711386,17.3697811 14,17.9426603 14,18.4989566 L14,19.5010434 C14,20.0527519 13.569809,20.6366272 13.0421112,20.7908521 C13.0421112,20.7908521 12.5,21 12,21 C11.5,21 10.9578888,20.7908521 10.9578888,20.7908521 C10.4288614,20.6302189 10,20.0573397 10,19.5010434 L10,18.4989566 Z" id="Bow-Middle" stroke="#333333" stroke-width="2"></path>
                <path d="M11,4.5 C11,3.94771525 11.4438648,3.5 12,3.5 C12.5522847,3.5 13,3.94386482 13,4.5 C13,5.05228475 12.5561352,5.5 12,5.5 C11.4477153,5.5 11,5.05613518 11,4.5 Z M15.5,6.5 C15.5,5.94771525 15.9438648,5.5 16.5,5.5 C17.0522847,5.5 17.5,5.94386482 17.5,6.5 C17.5,7.05228475 17.0561352,7.5 16.5,7.5 C15.9477153,7.5 15.5,7.05613518 15.5,6.5 Z M6.5,6.5 C6.5,5.94771525 6.94386482,5.5 7.5,5.5 C8.05228475,5.5 8.5,5.94386482 8.5,6.5 C8.5,7.05228475 8.05613518,7.5 7.5,7.5 C6.94771525,7.5 6.5,7.05613518 6.5,6.5 Z M15.5,15.5 C15.5,14.9477153 15.9438648,14.5 16.5,14.5 C17.0522847,14.5 17.5,14.9438648 17.5,15.5 C17.5,16.0522847 17.0561352,16.5 16.5,16.5 C15.9477153,16.5 15.5,16.0561352 15.5,15.5 Z M6.5,15.5 C6.5,14.9477153 6.94386482,14.5 7.5,14.5 C8.05228475,14.5 8.5,14.9438648 8.5,15.5 C8.5,16.0522847 8.05613518,16.5 7.5,16.5 C6.94771525,16.5 6.5,16.0561352 6.5,15.5 Z M4.5,11 C4.5,10.4477153 4.94386482,10 5.5,10 C6.05228475,10 6.5,10.4438648 6.5,11 C6.5,11.5522847 6.05613518,12 5.5,12 C4.94771525,12 4.5,11.5561352 4.5,11 Z M17.5,11 C17.5,10.4477153 17.9438648,10 18.5,10 C19.0522847,10 19.5,10.4438648 19.5,11 C19.5,11.5522847 19.0561352,12 18.5,12 C17.9477153,12 17.5,11.5561352 17.5,11 Z" id="Deocrations" fill="#333333" opacity="0.300000012"></path>
            </g>
        </g>
    </g>
</svg>