<?xml version="1.0" encoding="UTF-8"?>
<svg width="24px" height="24px" viewBox="0 0 24 24" version="1.1" xmlns="http://www.w3.org/2000/svg" xmlns:xlink="http://www.w3.org/1999/xlink">
    <!-- Generator: Sketch 44.1 (41455) - http://www.bohemiancoding.com/sketch -->
    <title>youtube</title>
    <desc>Created with Sketch.</desc>
    <defs></defs>
    <g id="Page-1" stroke="none" stroke-width="1" fill="none" fill-rule="evenodd">
        <g id="Artboard-4" transform="translate(-884.000000, -863.000000)">
            <g id="360" transform="translate(884.000000, 863.000000)">
                <path d="M22.7803123,7.45167123 C22.7803123,7.45167123 22.565363,5.88403768 21.9056968,5.19370343 C21.0691174,4.28765226 20.1313956,4.28315352 19.7013677,4.23012626 C16.6227892,4 12.0047599,4 12.0047599,4 L11.995197,4 C11.995197,4 7.37727544,4 4.29858926,4.23012626 C3.86853982,4.28315352 2.93116256,4.28765226 2.09428166,5.19370343 C1.43465857,5.88403768 1.22001077,7.45167123 1.22001077,7.45167123 C1.22001077,7.45167123 1,9.29259225 1,11.133491 L1,12.8593377 C1,14.7002142 1.22001077,16.541113 1.22001077,16.541113 C1.22001077,16.541113 1.43465857,18.1087688 2.09428166,18.799103 C2.93116256,19.7051765 4.03046258,19.6765137 4.52008615,19.7714772 C6.28010769,19.9459928 12,20 12,20 C12,20 16.6227892,19.9928065 19.7013677,19.7627025 C20.1313956,19.7096529 21.0691174,19.7051765 21.9056968,18.799103 C22.565363,18.1087688 22.7803123,16.541113 22.7803123,16.541113 C22.7803123,16.541113 23,14.7002142 23,12.8593377 L23,11.133491 C23,9.29259225 22.7803123,7.45167123 22.7803123,7.45167123 L22.7803123,7.45167123 Z" id="Badge" stroke="#333333" stroke-width="2"></path>
                <polygon id="Play" fill="#333333" points="9.5010681 15 9.5 9 15.77226 12.010453"></polygon>
            </g>
        </g>
    </g>
</svg>