<?xml version="1.0" encoding="UTF-8" standalone="no"?>
<svg
   xmlns:dc="http://purl.org/dc/elements/1.1/"
   xmlns:cc="http://creativecommons.org/ns#"
   xmlns:rdf="http://www.w3.org/1999/02/22-rdf-syntax-ns#"
   xmlns:svg="http://www.w3.org/2000/svg"
   xmlns="http://www.w3.org/2000/svg"
   xmlns:sodipodi="http://sodipodi.sourceforge.net/DTD/sodipodi-0.dtd"
   xmlns:inkscape="http://www.inkscape.org/namespaces/inkscape"
   height="56"
   width="56"
   id="svg14"
   xml:space="preserve"
   enable-background="new 0 0 1000 1000"
   viewBox="0 0 56 56"
   y="0px"
   x="0px"
   version="1.1"
   sodipodi:docname="icon-56-56.svg"
   inkscape:version="1.0.2 (394de47547, 2021-03-26)"
   inkscape:export-filename="/home/strukturart/Desktop/Pages/rss-reader/application/icons/icon-112-112.png"
   inkscape:export-xdpi="192"
   inkscape:export-ydpi="192"><rect
   style="fill:#d4d9d9;fill-opacity:0.741929;stroke:#000000;stroke-width:0"
   id="rect2154"
   width="55.462234"
   height="56.313179"
   x="0.24146669"
   y="-0.29098091"
   ry="10.077024" /><path
   d="m 14.544531,4.8437917 c -1.242891,0.267696 -2.237211,1.481904 -2.9925,3.680865 -0.468477,1.357623 -0.602325,2.3232513 -0.659691,4.8759573 l -0.05733,2.294577 -0.258139,0.33462 c -1.3480555,1.749609 -2.8204104,4.503096 -3.6043824,6.788106 -0.9465121,2.724795 -0.9465121,2.753478 0.133848,3.872079 0.573642,0.602325 1.348056,1.520154 2.4762239,2.925576 0.5736415,0.717057 1.1472835,1.424547 1.2620075,1.57752 0.946512,1.1664 5.095854,6.807222 6.424794,8.738478 0.05733,0.0765 0.382428,0.554526 0.736173,1.051677 0.841347,1.20465 2.437983,3.547026 3.929454,5.77467 0.736173,1.099476 1.32894,1.873899 1.501029,1.988622 0.334629,0.200781 1.405422,0.611883 1.816533,0.688374 0.277263,0.05733 0.49716,0.105165 0.927387,0.200772 0.439794,0.09561 1.883457,0.181656 2.858652,0.172098 1.854783,-0.02871 3.566142,-0.363312 4.675185,-0.917829 l 0.621441,-0.305946 1.558395,-2.342367 c 4.206717,-6.310071 9.493785,-13.624011 12.333312,-17.065863 0.554526,-0.669249 1.864341,-2.179836 2.256327,-2.600505 0.841338,-0.898713 0.879588,-1.042119 0.5832,-2.084238 -0.745731,-2.610072 -1.873899,-5.009814 -3.547017,-7.505154 L 46.65897,15.685624 46.63989,13.802167 c 0,-1.042119 -0.02871,-2.045988 -0.05733,-2.24676 -0.02871,-0.191214 -0.0765,-0.592767 -0.105165,-0.879588 -0.08604,-0.8030973 -0.382428,-1.9025823 -0.764856,-2.8395273 -0.831798,-1.998189 -1.950399,-3.040308 -3.260214,-3.021183 -0.449361,0 -0.659691,0.08604 -1.644444,0.621441 -0.611883,0.334629 -1.682685,0.994311 -2.380617,1.443672 l -1.252449,0.83178 h -8.432541 -8.422983 l -0.975195,-0.650133 c -2.849085,-1.91214 -3.919887,-2.399733 -4.799466,-2.218077 z m 0.764856,2.03643 c 0.05733,0.01908 0.200772,0.095607 0.33462,0.172089 0.133848,0.08604 0.478035,0.296379 0.764856,0.45891 0.286821,0.172098 1.137726,0.707499 1.883457,1.185534 l 1.357623,0.879579 -0.04779,0.4302363 c -0.0765,0.717048 -0.420678,1.845216 -0.659691,2.218086 -0.152973,0.239013 -0.344187,0.382428 -0.573642,0.449352 -0.37287,0.105165 -0.439794,0.08604 -1.634886,-0.286821 -1.032552,-0.315504 -1.577511,-0.305946 -2.179836,0.04779 -0.439794,0.258138 -0.994311,0.841347 -1.434105,1.520154 -0.219897,0.33462 -0.334629,0.325062 -0.296379,-0.0095 0.01908,-0.143415 0.05733,-0.812664 0.08604,-1.491471 0.09561,-2.055555 0.315504,-3.1167903 0.908271,-4.3214403 0.439794,-0.917829 0.898704,-1.424547 1.195083,-1.32894 0.114732,0.02871 0.24858,0.06696 0.296388,0.0765 z m 27.697356,0.181647 c 0.487593,0.49716 1.20465,2.179845 1.367181,3.1837143 0.12429,0.774423 0.210339,1.864341 0.286821,3.346254 l 0.02871,0.764847 -0.200772,-0.248571 c -0.114732,-0.143415 -0.382437,-0.487602 -0.602325,-0.774423 -0.478035,-0.630999 -1.156851,-1.099476 -1.720926,-1.185525 -0.315504,-0.04779 -0.640575,0.0095 -1.434105,0.24858 -0.564084,0.172089 -1.11861,0.325062 -1.223775,0.325062 -0.382428,0.02871 -0.736173,-0.162531 -0.965628,-0.506718 -0.239022,-0.363303 -0.573642,-1.491471 -0.659691,-2.208519 l -0.04779,-0.4302363 0.592767,-0.372861 c 3.040308,-1.931265 3.910329,-2.447541 4.158909,-2.447541 0.06696,0 0.258138,0.133848 0.420669,0.305937 z m -9.063549,2.715246 c -0.0095,0.04779 -0.152973,0.5162763 -0.305937,1.0421103 -0.420678,1.348065 -1.013436,3.939012 -1.118601,4.828158 -0.02871,0.239022 -0.06696,0.49716 -0.09562,0.573642 -0.01917,0.0765 -0.06696,0.334629 -0.09561,0.573642 -0.02871,0.239022 -0.0765,0.535401 -0.09561,0.669249 -0.01908,0.133848 -0.06696,0.516276 -0.105165,0.860463 -0.02871,0.344187 -0.06696,0.688374 -0.08604,0.774414 -0.05733,0.267705 -0.248571,2.982942 -0.296379,4.053744 -0.03825,1.089918 -0.03825,5.048055 0.0095,5.784228 0.01917,0.344187 0.06696,0.879579 0.09561,1.195083 0.02871,0.315504 0.0765,0.812664 0.105174,1.099485 0.09561,1.032552 0.525834,3.317562 0.812655,4.32144 0.736173,2.61963 1.673127,4.40748 3.002058,5.745978 0.344187,0.353745 0.62145,0.678816 0.602325,0.717057 -0.01908,0.04779 -0.630999,0.975186 -1.367181,2.074671 l -1.338498,1.998189 -0.04779,-0.774423 c -0.03825,-0.592758 -0.09561,-0.822222 -0.239022,-0.984753 -0.267696,-0.305937 -1.185525,-0.70749 -2.294568,-1.013427 -1.20465,-0.334629 -3.002058,-0.401553 -4.015494,-0.16254 -0.611883,0.152973 -0.602325,0.152973 -1.051677,0.267705 -0.631008,0.162531 -1.826091,0.736173 -1.959948,0.936945 -0.08604,0.114732 -0.162531,0.535401 -0.191214,0.965637 l -0.04779,0.755289 -1.147284,-1.711359 c -0.62145,-0.936954 -1.166409,-1.730493 -1.195092,-1.759176 -0.02871,-0.02871 -0.12429,-0.191214 -0.219897,-0.363303 l -0.181647,-0.315504 0.640566,-0.640566 c 2.313693,-2.304135 3.69999,-6.635133 4.015494,-12.495843 0.04779,-0.755289 0.04779,-4.875957 0.0095,-5.73642 -0.0765,-1.443663 -0.229455,-3.470535 -0.296379,-3.872088 -0.01908,-0.133848 -0.06696,-0.497151 -0.09561,-0.812655 -0.04779,-0.49716 -0.181656,-1.434105 -0.382428,-2.772603 -0.219897,-1.424547 -1.061235,-4.837716 -1.434105,-5.8033533 -0.03825,-0.105165 0.860463,-0.12429 5.181903,-0.114723 2.963817,0.00954 5.229702,0.04779 5.229702,0.095607 z M 12.670632,17.674255 c 0.258138,0.277263 0.573642,0.631008 0.688365,0.793539 0.12429,0.152964 0.305946,0.372861 0.401553,0.478035 0.105165,0.105165 0.315504,0.382428 0.478035,0.621441 0.162531,0.239022 0.315504,0.449352 0.353745,0.478035 0.09561,0.08604 1.195092,1.8261 1.654002,2.629197 0.401553,0.70749 1.262016,2.466666 1.78785,3.652191 0.12429,0.277254 0.239022,0.506718 0.24858,0.506718 0.01917,0 0.191214,-0.114732 0.391986,-0.24858 0.305946,-0.210339 0.439794,-0.239022 0.850905,-0.210339 0.898704,0.0765 1.45323,0.736173 1.338498,1.596636 -0.09561,0.736182 -0.669249,1.271574 -1.348056,1.271574 -0.181656,0 -0.334629,0.02871 -0.334629,0.06696 0,0.03825 0.105174,0.430236 0.239022,0.879588 0.382428,1.242891 0.736173,2.696121 0.850905,3.480102 0.03825,0.21033 0.0765,0.449343 0.105165,0.525834 0.01908,0.0765 0.05733,0.296379 0.08604,0.478035 0.01908,0.181656 0.06696,0.573642 0.105165,0.860463 0.210339,1.711368 0.06696,3.786039 -0.315504,4.694301 l -0.162531,0.37287 -1.147284,-1.644435 C 17.871642,37.426699 16.906014,36.078643 15.232887,33.774517 13.856148,31.881493 10.366488,27.454888 9.5729485,26.584867 8.7602936,25.705279 8.3396246,25.16032 8.3587406,25.026472 8.5595216,24.07996 9.3913015,21.91924 10.117917,20.475577 c 0.420669,-0.850905 1.950381,-3.298446 2.045988,-3.298446 0.02871,0 0.258138,0.229464 0.506718,0.49716 z m 33.452901,0.669249 c 0.803097,1.233333 1.520154,2.590947 2.065113,3.919887 0.305937,0.755298 0.879579,2.428416 0.936945,2.772603 0.01908,0.08604 -0.344178,0.583209 -0.841338,1.147284 -1.262016,1.434105 -2.132037,2.495349 -3.556584,4.330998 -0.688374,0.889146 -1.29069,1.66356 -1.338498,1.720926 -0.03825,0.04779 -0.783981,1.061244 -1.634877,2.246769 -0.860463,1.185525 -1.70181,2.332809 -1.864341,2.552706 -0.162531,0.219897 -0.764856,1.089918 -1.348056,1.931265 -0.573642,0.841338 -1.08036,1.529712 -1.128168,1.53927 -0.09561,0 -0.248571,-0.391986 -0.420669,-1.099476 -0.21033,-0.908271 -0.21033,-3.250638 0.0095,-4.541337 0.01917,-0.133848 0.08604,-0.516276 0.143415,-0.860463 0.05733,-0.344187 0.12429,-0.755298 0.162531,-0.908271 0.08604,-0.487593 0.688365,-2.74392 0.841338,-3.193272 0.210339,-0.5832 0.200781,-0.631008 -0.172089,-0.650124 -0.975195,-0.04779 -1.587078,-0.936954 -1.300257,-1.873899 0.305946,-1.042119 1.53927,-1.367181 2.342376,-0.631008 0.191214,0.172089 0.200772,0.162531 0.468468,-0.516276 0.37287,-0.898713 1.424547,-3.011625 1.893024,-3.786039 0.200772,-0.325071 0.363303,-0.62145 0.363303,-0.640575 0,-0.03825 0.37287,-0.602316 1.520154,-2.275443 0.325062,-0.468477 1.931265,-2.323251 2.026872,-2.342367 0.03825,-0.0095 0.411111,0.516276 0.83178,1.156842 z M 30.224079,45.103915 c 0.267705,0.06696 0.697932,0.191214 0.975195,0.296379 l 0.487593,0.181656 -0.0095,0.975186 -0.01908,0.975195 -0.812655,0.152973 c -1.357623,0.258138 -3.833847,0.181656 -4.837716,-0.143415 -0.191214,-0.05733 -0.210339,-0.133848 -0.210339,-1.013427 l -0.0095,-0.946512 0.516276,-0.191214 c 0.516276,-0.191214 0.726615,-0.24858 1.57752,-0.382428 0.544959,-0.08604 1.720926,-0.03825 2.342367,0.09561 z"
   id="path1498"
   style="fill:#000000;stroke:none;stroke-width:0.0095607" /><sodipodi:namedview
   pagecolor="#ffffff"
   bordercolor="#666666"
   borderopacity="1"
   objecttolerance="10"
   gridtolerance="10"
   guidetolerance="10"
   inkscape:pageopacity="0"
   inkscape:pageshadow="2"
   inkscape:window-width="1840"
   inkscape:window-height="873"
   id="namedview10"
   showgrid="false"
   inkscape:zoom="3.104502"
   inkscape:cx="50.941083"
   inkscape:cy="17.654443"
   inkscape:window-x="72"
   inkscape:window-y="27"
   inkscape:window-maximized="0"
   inkscape:current-layer="svg14"
   inkscape:document-rotation="0"
   inkscape:pagecheckerboard="false" /><defs
   id="defs18" />
<metadata
   id="metadata2"> Svg Vector Icons : http://www.onlinewebfonts.com/icon <rdf:RDF><cc:Work
     rdf:about=""><dc:format>image/svg+xml</dc:format><dc:type
       rdf:resource="http://purl.org/dc/dcmitype/StillImage" /><dc:title></dc:title></cc:Work></rdf:RDF></metadata>

</svg>
