<?xml version="1.0" encoding="UTF-8" standalone="no"?>
<svg
   xmlns:dc="http://purl.org/dc/elements/1.1/"
   xmlns:cc="http://creativecommons.org/ns#"
   xmlns:rdf="http://www.w3.org/1999/02/22-rdf-syntax-ns#"
   xmlns:svg="http://www.w3.org/2000/svg"
   xmlns="http://www.w3.org/2000/svg"
   xmlns:sodipodi="http://sodipodi.sourceforge.net/DTD/sodipodi-0.dtd"
   xmlns:inkscape="http://www.inkscape.org/namespaces/inkscape"
   height="112"
   width="112"
   id="svg14"
   xml:space="preserve"
   enable-background="new 0 0 1000 1000"
   viewBox="0 0 112 112"
   y="0px"
   x="0px"
   version="1.1"
   sodipodi:docname="intro.svg"
   inkscape:version="1.0.2 (394de47547, 2021-03-26)"
   inkscape:export-filename="/home/strukturart/Desktop/Pages/rss-reader/application/icons/intro.png"
   inkscape:export-xdpi="96"
   inkscape:export-ydpi="96"><path
   d="m 36.90008,22.477025 c -1.658804,0.394908 -2.985859,2.186122 -3.993893,5.430054 -0.625246,2.002779 -0.803886,3.427285 -0.880447,7.193067 l -0.07652,3.384983 -0.344521,0.493636 c -1.799163,2.581044 -3.76422,6.643018 -4.810533,10.01389 -1.263249,4.019649 -1.263249,4.061962 0.178637,5.712134 0.765603,0.88856 1.799163,2.242549 3.304856,4.315843 0.765602,1.057809 1.531204,2.101509 1.684317,2.327176 1.263249,1.720686 6.801102,10.042089 8.574753,12.891101 0.07653,0.112854 0.510401,0.81804 0.982523,1.551445 1.122889,1.777112 3.253817,5.232613 5.244383,8.518857 0.982523,1.621961 1.77365,2.764399 2.003325,2.933638 0.446609,0.296194 1.875726,0.90266 2.424408,1.015499 0.370046,0.08457 0.66353,0.155138 1.237727,0.296165 0.586961,0.141064 2.513723,0.268006 3.815252,0.253891 2.475458,-0.04222 4.759497,-0.535958 6.239662,-1.35399 l 0.829399,-0.451333 2.07989,-3.455486 c 5.614433,-9.308686 12.670738,-20.098294 16.46047,-25.175753 0.740088,-0.987283 2.488214,-3.215718 3.011372,-3.836291 1.122877,-1.325793 1.173926,-1.537348 0.778358,-3.074694 -0.99528,-3.850406 -2.500969,-7.39053 -4.733973,-11.071685 l -1.148402,-1.918155 -0.02545,-2.778496 c 0,-1.537346 -0.03831,-3.018265 -0.07653,-3.314447 -0.03831,-0.28208 -0.1021,-0.874455 -0.140356,-1.297578 -0.11483,-1.184737 -0.510402,-2.80671 -1.020803,-4.188902 -1.110147,-2.947751 -2.60307,-4.485097 -4.351193,-4.456883 -0.599734,0 -0.880448,0.126928 -2.194736,0.916757 -0.816637,0.493649 -2.245767,1.46682 -3.177252,2.129722 l -1.671561,1.227051 H 55.84888 44.607275 l -1.301531,-0.959084 c -3.802485,-2.82081 -5.231616,-3.540114 -6.405531,-3.272132 z m 1.020804,3.004165 c 0.07652,0.02815 0.267956,0.14104 0.446596,0.253867 0.178638,0.126928 0.638,0.437223 1.020801,0.676989 0.382801,0.253881 1.518449,1.043708 2.513728,1.748914 l 1.811931,1.297562 -0.06378,0.634691 c -0.1021,1.057797 -0.56145,2.722084 -0.880445,3.272145 -0.204163,0.352594 -0.459366,0.564164 -0.765603,0.662888 -0.497648,0.155142 -0.586966,0.126929 -2.181979,-0.423122 -1.378077,-0.465433 -2.1054,-0.451333 -2.909282,0.0705 -0.586966,0.380806 -1.327043,1.241162 -1.914007,2.242547 -0.293482,0.493636 -0.446609,0.479534 -0.395559,-0.01401 0.02546,-0.211569 0.07653,-1.19885 0.114833,-2.200234 0.127605,-3.032378 0.421083,-4.597925 1.212209,-6.375038 0.586965,-1.353993 1.199441,-2.101507 1.594999,-1.960466 0.153127,0.04236 0.331764,0.09878 0.395571,0.112854 z m 36.965849,0.267967 c 0.65076,0.733417 1.607769,3.215732 1.824687,4.696651 0.165884,1.142437 0.280726,2.750296 0.382802,4.936432 l 0.03831,1.128309 -0.267956,-0.366696 c -0.153126,-0.211565 -0.510412,-0.719314 -0.803883,-1.142437 -0.638003,-0.930854 -1.543974,-1.621958 -2.296808,-1.748899 -0.421082,-0.0705 -0.854932,0.01401 -1.914005,0.36671 -0.752848,0.253868 -1.492937,0.479535 -1.633294,0.479535 -0.510402,0.04236 -0.982523,-0.23977 -1.28876,-0.747517 -0.31901,-0.535948 -0.765604,-2.200235 -0.880449,-3.258032 l -0.06378,-0.634691 0.791127,-0.550047 c 4.0577,-2.849024 5.21886,-3.610639 5.550623,-3.610639 0.08937,0 0.344522,0.197454 0.56144,0.451321 z m -12.096526,4.005562 c -0.01268,0.0705 -0.204164,0.761614 -0.408312,1.537332 -0.561454,1.98868 -1.352568,5.810875 -1.492925,7.122553 -0.03831,0.352607 -0.08937,0.733415 -0.127618,0.846242 -0.02558,0.112853 -0.08937,0.49365 -0.127605,0.846243 -0.03831,0.352608 -0.1021,0.789832 -0.127604,0.987284 -0.02546,0.197454 -0.08937,0.761615 -0.140357,1.269365 -0.03831,0.507751 -0.08937,1.015497 -0.114833,1.142424 -0.07652,0.394924 -0.33175,4.40047 -0.395558,5.980129 -0.05103,1.607859 -0.05103,7.446945 0.01268,8.532957 0.02559,0.507748 0.08937,1.297566 0.127606,1.763 0.03831,0.465434 0.102097,1.198851 0.140368,1.621974 0.127604,1.523231 0.701797,4.894104 1.084598,6.375036 0.982522,3.864506 2.233013,6.501963 4.006649,8.476529 0.459366,0.521851 0.82941,1.001398 0.803885,1.057812 -0.02547,0.0705 -0.842153,1.438606 -1.824686,3.060577 l -1.786405,2.947751 -0.06378,-1.142438 c -0.05105,-0.874441 -0.127598,-1.21295 -0.319001,-1.452716 -0.357278,-0.451323 -1.582243,-1.043699 -3.06241,-1.495021 -1.607766,-0.493648 -4.00665,-0.592374 -5.359218,-0.239779 -0.816639,0.225667 -0.803883,0.225667 -1.403603,0.394922 -0.842166,0.239765 -2.437165,1.08601 -2.615816,1.38219 -0.114831,0.169254 -0.216916,0.78983 -0.2552,1.424519 l -0.06378,1.114211 -1.531205,-2.524614 c -0.82941,-1.382209 -1.556731,-2.552846 -1.595012,-2.595158 -0.03832,-0.04236 -0.165882,-0.282081 -0.293483,-0.535949 l -0.242432,-0.465436 0.854922,-0.944969 c 3.087936,-3.399087 4.938135,-9.788223 5.359217,-18.434007 0.06378,-1.114212 0.06378,-7.193067 0.01268,-8.462432 -0.102099,-2.129707 -0.306237,-5.119772 -0.395558,-5.712148 -0.02546,-0.197454 -0.08937,-0.7334 -0.127604,-1.198838 -0.06378,-0.733414 -0.242445,-2.115608 -0.510401,-4.090175 -0.293483,-2.101506 -1.416361,-7.136652 -1.914007,-8.56117 -0.05105,-0.155144 1.148404,-0.183357 6.915948,-0.169241 3.955614,0.01407 6.97974,0.0705 6.97974,0.141041 z M 34.399108,41.404667 c 0.344522,0.409024 0.765603,0.930871 0.918717,1.170638 0.165883,0.225655 0.408327,0.550049 0.535928,0.705203 0.140356,0.15514 0.421081,0.564163 0.638002,0.916756 0.216919,0.352608 0.421083,0.662889 0.47212,0.705204 0.127603,0.126926 1.595013,2.693883 2.207488,3.87862 0.535928,1.043697 1.684331,3.638855 2.386127,5.387753 0.16588,0.409009 0.319006,0.747516 0.331763,0.747516 0.02559,0 0.255202,-0.169254 0.523157,-0.366708 0.408326,-0.310294 0.586966,-0.352607 1.135647,-0.310294 1.199442,0.112854 1.939533,1.08601 1.786407,2.355377 -0.127603,1.086024 -0.893201,1.875839 -1.79916,1.875839 -0.242445,0 -0.44661,0.04236 -0.44661,0.09878 0,0.05642 0.14037,0.634687 0.319006,1.297576 0.510405,1.833527 0.982523,3.977347 1.135648,5.133887 0.05105,0.310279 0.102099,0.662875 0.140359,0.775715 0.02547,0.112854 0.07653,0.43722 0.11483,0.705202 0.02546,0.267982 0.08937,0.846243 0.140357,1.269365 0.280725,2.524628 0.08937,5.585206 -0.421083,6.925085 l -0.216917,0.550061 -1.531206,-2.425889 C 41.340557,70.543691 40.051796,68.555025 37.818785,65.155952 35.98134,62.363342 31.32392,55.833165 30.264835,54.5497 29.180237,53.252124 28.618798,52.448193 28.64431,52.25074 c 0.26797,-1.396306 1.378092,-4.583825 2.347858,-6.713532 0.56144,-1.255265 2.603046,-4.865903 2.730647,-4.865903 0.03832,0 0.344518,0.338505 0.676282,0.733413 z m 44.647402,0.987284 c 1.07184,1.819425 2.02885,3.822195 2.756171,5.782661 0.408314,1.114225 1.173916,3.582427 1.250481,4.090176 0.02546,0.126928 -0.459354,0.860356 -1.122881,1.692485 -1.68433,2.115609 -2.84549,3.681168 -4.746741,6.389138 -0.918726,1.311679 -1.722599,2.454103 -1.786404,2.53873 -0.05103,0.0705 -1.046328,1.565557 -2.181965,3.314458 -1.148404,1.7489 -2.271292,3.441386 -2.488214,3.76578 -0.216919,0.324397 -1.020801,1.60786 -1.799161,2.849023 -0.765602,1.241152 -1.441887,2.256649 -1.505693,2.270748 -0.127604,0 -0.331752,-0.578261 -0.561439,-1.621956 -0.280713,-1.339893 -0.280713,-4.79538 0.01268,-6.699433 0.02559,-0.197455 0.114834,-0.761614 0.191407,-1.269366 0.07652,-0.507748 0.165882,-1.114223 0.21692,-1.33989 0.114832,-0.719303 0.918715,-4.047864 1.122879,-4.710753 0.280725,-0.860342 0.267969,-0.930868 -0.229675,-0.959068 -1.301531,-0.0705 -2.11817,-1.382206 -1.735369,-2.764397 0.408325,-1.537345 2.054363,-2.016881 3.126218,-0.930871 0.255199,0.253868 0.267954,0.239768 0.625233,-0.761615 0.497643,-1.325792 1.901249,-4.442783 2.526494,-5.585208 0.267957,-0.479548 0.484878,-0.916769 0.484878,-0.944983 0,-0.05642 0.497644,-0.888543 2.028848,-3.35676 0.433841,-0.691102 2.577533,-3.427286 2.705135,-3.455486 0.05107,-0.01401 0.548681,0.761618 1.110122,1.706587 z M 57.826547,81.86921 c 0.357289,0.09878 0.931485,0.282079 1.301531,0.43722 l 0.650758,0.267981 -0.01268,1.438607 -0.02546,1.438618 -1.0846,0.225668 c -1.811929,0.380806 -5.116784,0.267979 -6.456582,-0.21157 -0.255203,-0.08457 -0.28073,-0.197451 -0.28073,-1.495018 l -0.01268,-1.396305 0.68904,-0.282081 c 0.689039,-0.282081 0.969767,-0.366707 2.105412,-0.56416 0.727323,-0.126929 2.296808,-0.05642 3.126203,0.141045 z"
   id="path1498"
   style="fill:#ffffff;fill-opacity:1;stroke:none;stroke-width:0.0134152" /><sodipodi:namedview
   pagecolor="#000000"
   bordercolor="#666666"
   borderopacity="1"
   objecttolerance="10"
   gridtolerance="10"
   guidetolerance="10"
   inkscape:pageopacity="0"
   inkscape:pageshadow="2"
   inkscape:window-width="1652"
   inkscape:window-height="780"
   id="namedview10"
   showgrid="false"
   inkscape:zoom="2.8757737"
   inkscape:cx="31.548097"
   inkscape:cy="34.960058"
   inkscape:window-x="72"
   inkscape:window-y="27"
   inkscape:window-maximized="0"
   inkscape:current-layer="svg14"
   inkscape:document-rotation="0"
   inkscape:pagecheckerboard="false"
   units="in" /><defs
   id="defs18" />
<metadata
   id="metadata2"> Svg Vector Icons : http://www.onlinewebfonts.com/icon <rdf:RDF><cc:Work
     rdf:about=""><dc:format>image/svg+xml</dc:format><dc:type
       rdf:resource="http://purl.org/dc/dcmitype/StillImage" /><dc:title></dc:title></cc:Work></rdf:RDF></metadata>

<g
   inkscape:groupmode="layer"
   id="layer1"
   inkscape:label="Layer 1"
   style="display:none"><ellipse
     style="fill:#ff0d00;fill-opacity:1;stroke:#000000;stroke-width:0"
     id="path836"
     cx="37.875061"
     cy="27.683729"
     rx="1.2379931"
     ry="1.3767579" /><ellipse
     style="fill:#ff0d00;fill-opacity:1;stroke:#000000;stroke-width:0"
     id="path836-6"
     cx="19.367302"
     cy="27.65325"
     rx="1.2379931"
     ry="1.3767579" /></g></svg>
