<svg width="24" height="24" xmlns="http://www.w3.org/2000/svg"><g id="Page-1" stroke="none" stroke-width="1" fill="none" fill-rule="evenodd"><g id="Artboard-4" transform="translate(-268 -467)"><g id="166" transform="translate(268 467)"><path d="M20 15.663v4.832c0 .564-.348.727-.777.383l-.946-.756c-.43-.344-1.125-.344-1.554 0l-.946.756c-.43.344-1.151.373-1.613.065l-1.328-.886c-.468-.312-1.21-.308-1.672 0l-1.328.886c-.468.312-1.184.279-1.613-.065l-.946-.756c-.43-.344-1.125-.344-1.554 0l-.946.756c-.43.344-.777.17-.777-.387v-4.828c-1.185-.475-3-1.479-3-3.163 0-1.905 2.033-1.778 3-1.61V10a8 8 0 1 1 16 0v.89c.967-.168 3-.295 3 1.61 0 1.684-1.815 2.688-3 3.163Z" id="spoopy" stroke="#333" stroke-width="2" stroke-linejoin="round"/><path d="M9.5 11a1.5 1.5 0 1 1 0-3 1.5 1.5 0 0 1 0 3Zm2.5 3a1 1 0 1 1 0-2 1 1 0 0 1 0 2Zm2.5-3a1.5 1.5 0 1 1 0-3 1.5 1.5 0 0 1 0 3Z" id="Face" fill="#333"/></g></g></g></svg>