<?xml version="1.0" encoding="UTF-8" standalone="no"?>
<!-- Created with Inkscape (http://www.inkscape.org/) -->

<svg
   width="40mm"
   height="40mm"
   viewBox="0 0 40 40"
   version="1.1"
   id="svg4297"
   inkscape:version="1.1.2 (0a00cf5339, 2022-02-04)"
   sodipodi:docname="sleep.svg"
   xmlns:inkscape="http://www.inkscape.org/namespaces/inkscape"
   xmlns:sodipodi="http://sodipodi.sourceforge.net/DTD/sodipodi-0.dtd"
   xmlns="http://www.w3.org/2000/svg"
   xmlns:svg="http://www.w3.org/2000/svg">
  <sodipodi:namedview
     id="namedview4299"
     pagecolor="#ffffff"
     bordercolor="#666666"
     borderopacity="1.0"
     inkscape:pageshadow="2"
     inkscape:pageopacity="0.0"
     inkscape:pagecheckerboard="0"
     inkscape:document-units="mm"
     showgrid="false"
     inkscape:zoom="1.9769993"
     inkscape:cx="78.148738"
     inkscape:cy="38.189189"
     inkscape:window-width="1920"
     inkscape:window-height="1016"
     inkscape:window-x="0"
     inkscape:window-y="0"
     inkscape:window-maximized="1"
     inkscape:current-layer="layer1" />
  <defs
     id="defs4294" />
  <g
     inkscape:label="Layer 1"
     inkscape:groupmode="layer"
     id="layer1">
    <circle
       style="fill:#ffffff;stroke-width:0.720958"
       id="path4973"
       cx="19.524612"
       cy="19.8293"
       r="19.5" />
    <path
       style="fill:#000000;stroke-width:0.008"
       d="m 15.525716,35.116975 c -0.587947,-0.05227 -1.007551,-0.486206 -1.230081,-1.272105 -0.07827,-0.276423 -0.13281,-0.604821 -0.16134,-0.971465 -0.0055,-0.0704 -0.01016,-0.2522 -0.0104,-0.404 l -4.4e-4,-0.276 0.313397,-1.231999 c 0.363905,-1.430554 0.872269,-3.440751 0.876021,-3.464001 0.0026,-0.01597 -0.0031,-0.01601 -3.221418,-0.0203 -3.5461082,-0.0047 -3.2582562,-5.91e-4 -3.6071992,-0.05178 C 7.666876,27.305426 6.894264,26.979904 6.2173917,26.470239 5.2695994,25.756579 4.5950576,24.704348 4.347599,23.55351 4.302059,23.34172 4.273181,23.148575 4.2459122,22.873405 c -0.012837,-0.129536 -0.01948,-9.310118 -0.00695,-9.604345 0.00946,-0.222158 0.023925,-0.376028 0.053361,-0.567654 0.1925052,-1.253205 0.8629328,-2.388317 1.8765859,-3.1772811 0.2764157,-0.215145 0.5532353,-0.386823 0.8825451,-0.547337 0.5506264,-0.26839 1.062501,-0.410965 1.728,-0.48131 0.119422,-0.01262 0.8568151,-0.01371 11.0039988,-0.01619 7.740833,-0.0019 10.922122,-1.65e-4 11.036,0.006 0.731159,0.03963 1.393375,0.219916 2.04,0.555391 0.912175,0.473243 1.67298,1.2408691 2.145487,2.1647231 0.308241,0.602677 0.48487,1.242964 0.530756,1.924001 0.0061,0.08995 0.0079,1.557259 0.006,4.935999 -0.0024,4.501168 -0.0035,4.815403 -0.01646,4.924 -0.08067,0.675076 -0.23282,1.193015 -0.513493,1.748001 -0.588488,1.163633 -1.612877,2.055816 -2.844313,2.477229 -0.40473,0.138503 -0.833326,0.223754 -1.28,0.254602 -0.07461,0.0052 -1.336903,0.008 -3.537851,0.0081 l -3.42185,8e-5 -0.05861,0.074 c -0.03223,0.0407 -0.146577,0.1856 -0.254097,0.322 -1.256197,1.593612 -2.420747,2.958637 -3.49444,4.096 -0.235112,0.249054 -0.913953,0.92971 -1.121015,1.124012 -1.419443,1.331973 -2.418131,1.956539 -3.236141,2.023837 -0.106635,0.0088 -0.136302,0.0087 -0.237735,-2.8e-4 z m 8.411758,-10.51357 c 0.06619,-0.148851 0.467168,-1.057 0.506002,-1.146 0.02304,-0.0528 0.09857,-0.223799 0.167842,-0.379999 0.06927,-0.156201 0.128852,-0.29157 0.132396,-0.300822 0.006,-0.01577 0.0016,-0.01789 -0.07091,-0.0339 -0.04255,-0.0094 -0.365355,-0.07992 -0.717355,-0.156736 -0.352,-0.07681 -1.1206,-0.244596 -1.708,-0.372847 -0.5874,-0.128252 -1.1238,-0.245354 -1.192,-0.260228 -0.0682,-0.01487 -0.170412,-0.03719 -0.227137,-0.04958 l -0.103138,-0.02254 0.05114,-0.04411 c 0.07907,-0.0682 0.193921,-0.166048 1.291137,-1.099976 1.221444,-1.039667 1.158828,-0.986392 1.235577,-1.051266 0.03383,-0.0286 0.522072,-0.444069 1.084971,-0.923265 0.562899,-0.479195 1.024154,-0.871697 1.025012,-0.872226 0.0063,-0.0039 0.305129,-1.440794 0.300444,-1.444673 -0.0033,-0.0027 -0.184204,-0.04367 -0.402004,-0.09097 -0.2178,-0.0473 -0.6084,-0.132386 -0.868,-0.189084 -0.2596,-0.0567 -1.084,-0.236594 -1.832,-0.399768 -0.748,-0.163174 -1.4986,-0.326999 -1.668,-0.364057 -0.1694,-0.03706 -0.515,-0.112465 -0.768,-0.167574 -0.253,-0.05511 -0.467576,-0.101976 -0.476836,-0.104152 -0.01525,-0.0036 -0.02499,0.01543 -0.103364,0.201904 -0.04759,0.113223 -0.117873,0.27966 -0.156186,0.36986 -0.196746,0.463201 -0.559614,1.328737 -0.559614,1.334829 0,0.0038 0.0351,0.01452 0.078,0.02375 0.09454,0.02034 0.79562,0.173251 0.974,0.212435 0.0704,0.01546 0.3116,0.06813 0.536,0.117035 0.2244,0.04891 0.48,0.104696 0.568,0.123979 0.088,0.01928 0.3013,0.06586 0.474,0.103514 0.774037,0.168744 0.941814,0.2056 0.943472,0.207259 9.75e-4,9.74e-4 -0.223728,0.194241 -0.499339,0.429482 -0.678928,0.579485 -1.035646,0.883941 -1.250133,1.066981 -0.099,0.08449 -0.2916,0.248944 -0.428,0.365462 -0.253208,0.216301 -2.252424,1.922187 -2.420984,2.065771 l -0.09298,0.07921 -0.02083,0.09715 c -0.02536,0.118263 -0.236993,1.119137 -0.262005,1.239114 -0.0099,0.04728 -0.01597,0.08792 -0.01358,0.09031 0.0024,0.0024 0.158702,0.03808 0.347365,0.07931 1.000199,0.218612 4.059194,0.886407 5.007023,1.093061 0.242,0.05276 0.584,0.127789 0.76,0.166726 0.176,0.03894 0.321953,0.0712 0.32434,0.07171 0.0024,5.04e-4 0.01754,-0.02879 0.03368,-0.06509 z m 6.871151,-1.042 c 0.0829,-0.360799 0.150745,-0.6587 0.150774,-0.662 0,-0.0033 -0.655149,-0.006 -1.455949,-0.006 -0.8008,0 -1.456,-0.0019 -1.456,-0.0041 0,-0.0023 0.193757,-0.235366 0.430572,-0.518 0.236814,-0.282633 0.834414,-0.995938 1.328,-1.585122 l 0.897428,-1.071245 v -0.478756 -0.478756 h -2.190232 -2.190232 l -0.137954,0.658 c -0.07587,0.3619 -0.13787,0.660689 -0.137767,0.663976 1.04e-4,0.0033 0.583265,0.0069 1.295919,0.008 l 1.295734,0.002 -0.484412,0.58 c -0.549874,0.65838 -1.354816,1.621867 -1.846386,2.210059 l -0.33267,0.398057 v 0.471956 0.471956 l 2.341226,-0.002 2.341226,-0.002 z M 17.94345,20.080969 c 0,-0.0024 0.119135,-0.447941 0.264743,-0.99 0.316583,-1.178553 0.335257,-1.248249 0.335257,-1.251227 0,-0.0013 -1.297568,-0.0032 -2.883484,-0.0043 l -2.883484,-0.002 0.05298,-0.056 c 0.02914,-0.0308 0.208202,-0.214399 0.397908,-0.408 0.189707,-0.1936 0.868305,-0.8866 1.507996,-1.54 0.639691,-0.6534 1.242722,-1.269 1.340068,-1.367999 0.09735,-0.099 0.358422,-0.3654 0.580166,-0.592001 0.454664,-0.46462 0.671075,-0.685413 0.944705,-0.963833 0.103873,-0.105692 0.245073,-0.249766 0.313778,-0.320166 l 0.124918,-0.128 2.24e-4,-0.81 2.24e-4,-0.810002 H 13.708441 9.3774288 l -0.02048,0.082 c -0.01126,0.0451 -0.08772,0.355599 -0.16991,0.690001 -0.08219,0.3344 -0.197044,0.801472 -0.255236,1.03794 -0.05819,0.236467 -0.103977,0.431767 -0.101744,0.434 0.0022,0.0022 1.1580045,0.0041 2.5683802,0.0041 h 2.564321 l -0.115902,0.117999 c -0.105631,0.107544 -0.491421,0.502573 -0.974656,0.998001 -0.103001,0.105599 -0.198407,0.203145 -0.212013,0.216767 -0.01361,0.01362 -0.159684,0.163024 -0.324618,0.332 -0.164934,0.168978 -0.375534,0.384566 -0.468,0.479084 -0.184565,0.188662 -0.402495,0.411627 -0.67245,0.687984 -0.09662,0.09891 -0.249688,0.25551 -0.340154,0.348001 -0.09047,0.09249 -0.218902,0.223963 -0.285411,0.292164 -0.06651,0.0682 -0.516987,0.529 -1.0010597,1.024 l -0.8801345,0.9 -4.56e-4,0.801999 -4.56e-4,0.802 h 4.6279992 c 2.5454,0 4.628,-0.002 4.628,-0.0044 z"
       id="path1111" />
  </g>
</svg>
