<?xml version="1.0" encoding="UTF-8" standalone="no"?>
<svg
   id="emoji"
   viewBox="0 0 151.18111 151.18111"
   version="1.1"
   sodipodi:docname="23EF.svg"
   width="151.18111"
   height="151.18111"
   inkscape:version="1.1 (c4e8f9e, 2021-05-24)"
   xmlns:inkscape="http://www.inkscape.org/namespaces/inkscape"
   xmlns:sodipodi="http://sodipodi.sourceforge.net/DTD/sodipodi-0.dtd"
   xmlns="http://www.w3.org/2000/svg"
   xmlns:svg="http://www.w3.org/2000/svg">
  <defs
     id="defs1202" />
  <sodipodi:namedview
     id="namedview1200"
     pagecolor="#ffffff"
     bordercolor="#666666"
     borderopacity="1.0"
     inkscape:pageshadow="2"
     inkscape:pageopacity="0.0"
     inkscape:pagecheckerboard="0"
     showgrid="false"
     fit-margin-top="0"
     fit-margin-left="0"
     fit-margin-right="0"
     fit-margin-bottom="0"
     inkscape:zoom="3.6975792"
     inkscape:cx="75.454773"
     inkscape:cy="75.319549"
     inkscape:window-width="1551"
     inkscape:window-height="892"
     inkscape:window-x="26"
     inkscape:window-y="23"
     inkscape:window-maximized="0"
     inkscape:current-layer="emoji" />
  <circle
     style="fill:#d9d9d9;fill-opacity:1;stroke:none;stroke-width:3.77953;stroke-miterlimit:4;stroke-dasharray:none;stroke-opacity:0.0854831"
     id="path848"
     cx="75.590553"
     cy="75.590553"
     r="75.590553" />
  <g
     id="line"
     transform="matrix(1.7498892,0,0,1.7498892,12.594542,12.596758)">
    <path
       fill="none"
       stroke="#000000"
       stroke-linecap="round"
       stroke-linejoin="round"
       stroke-miterlimit="10"
       stroke-width="2"
       d="M 14.1579,54.7165 C 14.5789,54.8866 15.0526,55 15.5263,55 16.2631,55 17,54.7165 17.6316,54.2628 L 43.6842,39.0087 43.9474,38.7252 C 44.6316,37.988 45,37.0807 45,36.06 45,35.0393 44.6316,34.0753 43.9474,33.3948 L 43.6842,33.1113 17.6316,17.7438 C 16.6842,16.9499 15.3158,16.7798 14.1579,17.2901 12.8421,17.8572 12,19.2749 12,20.8059 v 30.3947 c 0,1.5311 0.8421,2.9488 2.1579,3.5159 z"
       id="path1192" />
    <line
       x1="60"
       x2="60"
       y1="17"
       y2="55"
       fill="none"
       stroke="#000000"
       stroke-linecap="round"
       stroke-linejoin="round"
       stroke-miterlimit="10"
       stroke-width="2"
       id="line1194" />
    <line
       x1="52"
       x2="52"
       y1="17"
       y2="55"
       fill="none"
       stroke="#000000"
       stroke-linecap="round"
       stroke-linejoin="round"
       stroke-miterlimit="10"
       stroke-width="2"
       id="line1196" />
  </g>
</svg>
