<?xml version="1.0" encoding="UTF-8" standalone="no"?>
<svg
   height="56"
   width="56"
   id="svg14"
   xml:space="preserve"
   enable-background="new 0 0 1000 1000"
   viewBox="0 0 56 56"
   y="0px"
   x="0px"
   version="1.1"
   sodipodi:docname="icon-56-56.svg"
   inkscape:version="1.1.1 (eb90963e84, 2021-10-02)"
   inkscape:export-filename="/home/strukturart/Desktop/Pages/rss-reader/application/icons/icon-56-56.png"
   inkscape:export-xdpi="96"
   inkscape:export-ydpi="96"
   xmlns:inkscape="http://www.inkscape.org/namespaces/inkscape"
   xmlns:sodipodi="http://sodipodi.sourceforge.net/DTD/sodipodi-0.dtd"
   xmlns="http://www.w3.org/2000/svg"
   xmlns:svg="http://www.w3.org/2000/svg"
   xmlns:rdf="http://www.w3.org/1999/02/22-rdf-syntax-ns#"
   xmlns:cc="http://creativecommons.org/ns#"
   xmlns:dc="http://purl.org/dc/elements/1.1/"><g
   id="g825"
   transform="matrix(0.95856497,0,0,0.95856497,1.3264363,1.127945)"><rect
     style="fill:#000000;fill-opacity:1;stroke:#000000;stroke-width:0"
     id="rect840"
     width="52.161304"
     height="54.057571"
     x="1.7459058"
     y="1.0048436"
     ry="3.5564101"
     inkscape:export-xdpi="242.94824"
     inkscape:export-ydpi="242.94824" /><path
     d="m 15.371417,5.5101641 c -1.105869,0.2632722 -1.990569,1.4574145 -2.662595,3.6200361 -0.416831,1.3351868 -0.535924,2.2848578 -0.586966,4.7953788 l -0.05101,2.256658 -0.229681,0.329089 c -1.199445,1.720695 -2.5094836,4.428679 -3.2070236,6.675927 -0.8421664,2.679767 -0.8421664,2.707976 0.119092,3.808091 0.5104016,0.592371 1.1994416,1.495032 2.2032316,2.877229 0.5104,0.705207 1.020802,1.401005 1.122882,1.551449 0.842167,1.147125 4.534071,6.694728 5.716504,8.594068 0.05101,0.07524 0.340268,0.545362 0.655014,1.034297 0.748594,1.184743 2.169211,3.488409 3.496257,5.679239 0.655014,1.081307 1.182432,1.842932 1.33555,1.95576 0.297739,0.197462 1.250483,0.601771 1.616272,0.676997 0.246697,0.05638 0.442352,0.103427 0.825147,0.197455 0.391309,0.09403 1.675823,0.178654 2.543505,0.169253 1.650311,-0.02823 3.173,-0.357308 4.159775,-0.902661 l 0.552935,-0.30089 1.386588,-2.303658 c 3.742955,-6.205792 8.447165,-13.398863 10.973649,-16.783836 0.493391,-0.658189 1.658807,-2.143812 2.007579,-2.557529 0.74859,-0.883861 0.78262,-1.024898 0.518903,-2.049795 -0.663513,-2.566938 -1.667309,-4.927023 -3.15598,-7.381125 l -0.765603,-1.27877 -0.017,-1.852332 c 0,-1.024897 -0.02554,-2.012176 -0.05098,-2.20963 -0.02554,-0.188054 -0.06807,-0.582971 -0.09357,-0.865052 -0.07656,-0.789826 -0.340271,-1.871141 -0.68054,-2.7926023 -0.740093,-1.9651672 -1.735379,-2.9900645 -2.900796,-2.9712554 -0.399822,0 -0.586964,0.084618 -1.463155,0.6111712 -0.544428,0.3290992 -1.497181,0.9778794 -2.118168,1.4198143 l -1.11437,0.818034 H 28.003952 20.509548 L 19.641862,7.691586 C 17.10687,5.8110452 16.154118,5.3315101 15.371507,5.5101641 Z m 0.680537,2.0027767 c 0.051,0.018764 0.178638,0.094027 0.29773,0.1692451 0.119092,0.084618 0.425335,0.2914809 0.680535,0.4513263 0.255201,0.1692538 1.0123,0.6958063 1.675819,1.1659418 l 1.207953,0.865043 -0.04252,0.423127 c -0.06807,0.705198 -0.374301,1.814722 -0.586964,2.18143 -0.136108,0.235063 -0.306242,0.376108 -0.510401,0.441926 -0.331765,0.103427 -0.391311,0.08462 -1.454652,-0.282081 -0.918719,-0.31029 -1.403601,-0.30089 -1.939524,0.047 -0.391312,0.253873 -0.884692,0.827444 -1.276003,1.495032 -0.195655,0.329091 -0.297739,0.319691 -0.263708,-0.0093 0.01698,-0.141044 0.051,-0.799233 0.07656,-1.466822 0.08507,-2.021586 0.280723,-3.0652836 0.808137,-4.2500258 0.391308,-0.9026609 0.79963,-1.4010052 1.063334,-1.3069781 0.102084,0.028237 0.221177,0.065854 0.263715,0.075236 z M 40.695853,7.691586 c 0.433839,0.4889441 1.071846,2.1438212 1.216459,3.131101 0.110588,0.761625 0.187152,1.833531 0.255202,3.290954 l 0.02556,0.752208 -0.178638,-0.244464 C 41.912353,14.48034 41.674159,14.141841 41.478514,13.85976 41.05318,13.239189 40.449197,12.778454 39.947307,12.693827 c -0.280721,-0.047 -0.569956,0.0093 -1.276004,0.244472 -0.501895,0.169245 -0.995288,0.31969 -1.088859,0.31969 -0.340268,0.02824 -0.655019,-0.159845 -0.859173,-0.498344 -0.212688,-0.357299 -0.510415,-1.466823 -0.586978,-2.172021 l -0.04252,-0.423127 0.527418,-0.3666993 c 2.705136,-1.8993489 3.479244,-2.4070928 3.700417,-2.4070928 0.05958,0 0.229679,0.1316361 0.374295,0.3008811 z m -8.064347,2.670374 c -0.0085,0.047 -0.13611,0.507745 -0.272213,1.024889 -0.374299,1.325787 -0.90171,3.873917 -0.995283,4.748369 -0.02555,0.235072 -0.05958,0.488944 -0.08508,0.564163 -0.01706,0.07523 -0.05958,0.329098 -0.08507,0.564161 -0.02555,0.235072 -0.06806,0.526554 -0.08507,0.65819 -0.01698,0.131636 -0.05958,0.507744 -0.09357,0.846243 -0.02554,0.338499 -0.05958,0.676998 -0.07655,0.761616 -0.05099,0.263281 -0.221164,2.933646 -0.263704,3.986753 -0.03402,1.071906 -0.03402,4.964632 0.0085,5.688639 0.01707,0.338499 0.05958,0.865043 0.08507,1.175334 0.02555,0.310289 0.06807,0.799233 0.09358,1.081315 0.08507,1.015488 0.467865,3.262736 0.723065,4.250025 0.655015,2.576338 1.488671,4.334642 2.671098,5.651021 0.306243,0.347899 0.55294,0.667598 0.535926,0.705207 -0.017,0.047 -0.561437,0.95907 -1.216462,2.040385 l -1.190935,1.965168 -0.04251,-0.761625 c -0.03404,-0.582963 -0.08508,-0.808635 -0.212684,-0.968479 -0.238185,-0.300882 -1.054829,-0.695799 -2.041605,-0.99668 -1.071852,-0.329099 -2.671107,-0.394917 -3.572816,-0.159854 -0.544427,0.150445 -0.535923,0.150445 -0.935738,0.263282 -0.561443,0.159844 -1.624776,0.724006 -1.743876,0.92146 -0.07655,0.112836 -0.144613,0.526553 -0.170134,0.94968 l -0.04252,0.742807 -1.020804,-1.683078 c -0.552942,-0.92147 -1.037823,-1.701895 -1.063344,-1.730104 -0.02554,-0.02824 -0.110587,-0.188054 -0.195654,-0.357299 l -0.161622,-0.31029 0.569948,-0.62998 c 2.058623,-2.266058 3.29209,-6.525483 3.572811,-12.28934 0.04252,-0.742807 0.04252,-4.795378 0.0085,-5.641621 -0.06806,-1.419805 -0.204159,-3.413182 -0.263705,-3.808099 -0.01698,-0.131636 -0.05958,-0.488935 -0.08507,-0.799225 -0.04252,-0.488944 -0.16163,-1.410406 -0.340268,-2.726784 -0.195734,-1.401006 -0.94432,-4.757769 -1.276083,-5.707449 -0.03403,-0.103427 0.765602,-0.122236 4.61063,-0.112827 2.637077,0.0094 4.65316,0.047 4.65316,0.09403 z m -18.927402,7.766634 c 0.229681,0.272681 0.510402,0.620581 0.612478,0.780426 0.11059,0.150437 0.272217,0.366699 0.357284,0.470135 0.09357,0.103427 0.280722,0.376108 0.425336,0.611171 0.144608,0.235072 0.28072,0.441926 0.314744,0.470135 0.08507,0.08462 1.063343,1.795923 1.47166,2.585748 0.357285,0.695798 1.122888,2.425902 1.590752,3.591836 0.110587,0.272672 0.212671,0.498344 0.221176,0.498344 0.01706,0 0.170133,-0.112836 0.348771,-0.244472 0.272217,-0.206864 0.39131,-0.235072 0.757098,-0.206864 0.799628,0.07523 1.293021,0.724008 1.190938,1.570251 -0.08507,0.724016 -0.595469,1.25056 -1.199442,1.25056 -0.161629,0 -0.297738,0.02824 -0.297738,0.06586 0,0.03762 0.09358,0.423126 0.212671,0.865053 0.340268,1.222351 0.655014,2.651565 0.757098,3.42259 0.03403,0.206854 0.06806,0.441918 0.09357,0.517144 0.01698,0.07523 0.05101,0.291481 0.07655,0.470135 0.01698,0.178654 0.05958,0.564162 0.09357,0.846244 0.18715,1.683086 0.05958,3.723471 -0.280723,4.616724 l -0.144612,0.366708 -1.020804,-1.61726 c -0.952747,-1.504445 -1.81192,-2.830224 -3.300595,-5.096272 -1.224964,-1.86174 -4.32991,-6.215192 -5.035967,-7.070836 -0.723062,-0.865052 -1.0973588,-1.401005 -1.0803492,-1.532641 0.1786412,-0.93087 0.9187292,-3.055882 1.5652362,-4.475688 0.374297,-0.836843 1.735365,-3.243937 1.820435,-3.243937 0.02556,0 0.229676,0.225672 0.450852,0.488945 z m 29.764931,0.65819 c 0.714565,1.212951 1.352572,2.548129 1.837448,3.855108 0.272217,0.742816 0.78262,2.388285 0.833657,2.726783 0.01698,0.08462 -0.306233,0.573571 -0.748585,1.128324 -1.122888,1.410406 -1.896995,2.454112 -3.164496,4.259425 -0.612485,0.874453 -1.148399,1.636069 -1.190938,1.692487 -0.03401,0.047 -0.697551,1.043706 -1.454638,2.209639 -0.765604,1.165933 -1.514202,2.294258 -1.658811,2.510521 -0.144609,0.216263 -0.680537,1.071906 -1.199441,1.899349 -0.510402,0.827434 -0.961258,1.504433 -1.0038,1.513833 -0.08506,0 -0.221164,-0.385508 -0.374289,-1.081307 -0.187143,-0.89326 -0.187143,-3.196919 0.0085,-4.466288 0.01707,-0.131636 0.07656,-0.507744 0.127605,-0.846243 0.05099,-0.338499 0.110588,-0.742816 0.144609,-0.893261 0.07656,-0.479535 0.61248,-2.698575 0.748589,-3.1405 0.187154,-0.573563 0.178647,-0.620581 -0.153118,-0.63938 -0.867685,-0.047 -1.412112,-0.921471 -1.156911,-1.842932 0.272219,-1.024897 1.369579,-1.344588 2.084144,-0.620581 0.170135,0.169246 0.178643,0.159845 0.416822,-0.507744 0.331765,-0.883861 1.267505,-2.961855 1.684333,-3.723472 0.178637,-0.319699 0.323249,-0.61118 0.323249,-0.629988 0,-0.03762 0.331767,-0.592363 1.352569,-2.23784 0.289225,-0.460735 1.718353,-2.284857 1.80342,-2.303658 0.03402,-0.0093 0.365789,0.507745 0.740082,1.137725 z M 29.322397,45.104958 c 0.238193,0.06586 0.620989,0.188055 0.867682,0.291481 l 0.433843,0.178655 -0.0085,0.959069 -0.01699,0.95908 -0.723066,0.150445 c -1.207921,0.253872 -3.41116,0.178654 -4.304358,-0.141046 -0.170133,-0.05638 -0.18715,-0.131636 -0.18715,-0.996679 l -0.0085,-0.930869 0.459361,-0.188054 c 0.459361,-0.188054 0.646509,-0.244473 1.403609,-0.376109 0.484877,-0.08462 1.531205,-0.03762 2.084136,0.09403 z"
     id="path1498"
     style="fill:#ffffff;fill-opacity:1;stroke:none;stroke-width:0.00894352" /></g><sodipodi:namedview
   pagecolor="#ffffff"
   bordercolor="#666666"
   borderopacity="1"
   objecttolerance="10"
   gridtolerance="10"
   guidetolerance="10"
   inkscape:pageopacity="0"
   inkscape:pageshadow="2"
   inkscape:window-width="1848"
   inkscape:window-height="1016"
   id="namedview10"
   showgrid="false"
   inkscape:zoom="3.104502"
   inkscape:cx="-58.14137"
   inkscape:cy="17.555151"
   inkscape:window-x="72"
   inkscape:window-y="27"
   inkscape:window-maximized="1"
   inkscape:current-layer="svg14"
   inkscape:document-rotation="0"
   inkscape:pagecheckerboard="false" /><defs
   id="defs18" />
<metadata
   id="metadata2"> Svg Vector Icons : http://www.onlinewebfonts.com/icon <rdf:RDF><cc:Work
     rdf:about=""><dc:format>image/svg+xml</dc:format><dc:type
       rdf:resource="http://purl.org/dc/dcmitype/StillImage" /></cc:Work></rdf:RDF></metadata>

</svg>
