<?xml version="1.0" encoding="UTF-8" standalone="no"?>
<svg
   id="emoji"
   viewBox="0 0 72 72"
   version="1.1"
   sodipodi:docname="monster.svg"
   inkscape:version="1.1.2 (0a00cf5339, 2022-02-04)"
   xmlns:inkscape="http://www.inkscape.org/namespaces/inkscape"
   xmlns:sodipodi="http://sodipodi.sourceforge.net/DTD/sodipodi-0.dtd"
   xmlns="http://www.w3.org/2000/svg"
   xmlns:svg="http://www.w3.org/2000/svg">
  <defs
     id="defs44" />
  <sodipodi:namedview
     id="namedview42"
     pagecolor="#ffffff"
     bordercolor="#666666"
     borderopacity="1.0"
     inkscape:showpageshadow="2"
     inkscape:pageopacity="0"
     inkscape:pagecheckerboard="true"
     inkscape:deskcolor="#d1d1d1"
     showgrid="false"
     inkscape:zoom="3.2777778"
     inkscape:cx="36.152542"
     inkscape:cy="36.152542"
     inkscape:window-width="1920"
     inkscape:window-height="1016"
     inkscape:window-x="0"
     inkscape:window-y="0"
     inkscape:window-maximized="1"
     inkscape:current-layer="emoji"
     inkscape:pageshadow="2" />
  <g
     id="hair" />
  <g
     id="skin" />
  <g
     id="skin-shadow" />
  <ellipse
     style="fill:#fffffd;fill-opacity:1;stroke-width:4.65"
     id="path848"
     cx="37.807865"
     cy="36.327728"
     rx="34.540501"
     ry="34.540272" />
  <path
     style="fill:#000000;stroke-width:0.528924"
     d="m 19.323529,58.631283 c -0.588474,-0.952182 0.203483,-3.909467 1.527552,-5.704147 1.230325,-1.667584 1.233391,-1.708646 0.430548,-5.74342 -0.792101,-3.98084 -0.825648,-4.037805 -1.642147,-2.789708 -2.193548,3.353041 -3.983846,3.964877 -5.924138,2.024596 -2.116678,-2.116675 -0.454876,-8.149388 3.448766,-12.519833 1.453119,-1.626884 1.807566,-2.525369 2.087412,-5.291656 l 0.337094,-3.33203 -2.062454,-1.961956 c -2.553355,-2.428954 -3.242609,-5.16524 -1.972189,-7.829357 1.103647,-2.314366 2.469489,-2.306937 4.246694,0.02308 1.927555,2.527172 3.264323,2.840528 5.005286,1.173364 2.687593,-2.573676 6.24225,-3.771869 11.189929,-3.771869 4.947674,0 8.502315,1.198193 11.189905,3.771868 1.745492,1.671498 3.077975,1.353478 5.025098,-1.19932 2.507766,-3.287846 5.224069,-1.286427 4.749715,3.499702 -0.195873,1.976344 -0.603092,2.706142 -2.400388,4.30177 l -2.16451,1.92162 0.340805,3.367579 c 0.283844,2.804671 0.633388,3.695141 2.091122,5.327198 2.397341,2.684013 3.912666,5.824924 4.271361,8.853563 0.252343,2.130658 0.119088,2.724593 -0.822581,3.66627 -1.940287,1.940281 -3.730588,1.328445 -5.924144,-2.024596 -0.816612,-1.248269 -0.84987,-1.191972 -1.639145,2.774595 l -0.805619,4.048709 1.312566,1.844755 c 0.789007,1.108921 1.337342,2.643953 1.374675,3.848387 l 0.06214,2.003651 h -6.611508 -6.611497 l -0.154042,-3.173521 -0.154032,-3.173529 h -3.129905 -3.129921 l -0.154031,3.173529 -0.154038,3.173522 -6.438204,0.148164 c -4.246046,0.09775 -6.560093,-0.04895 -6.796161,-0.430986 z M 30.814733,53.49267 c 0.151802,-3.465321 0.195251,-3.565331 1.478703,-3.404174 1.700398,0.21352 5.70449,0.21352 7.404883,0 1.283458,-0.161157 1.326899,-0.06116 1.478703,3.404174 l 0.156387,3.570202 h 4.736122 c 2.604854,0 4.73611,-0.134637 4.73611,-0.299232 0,-0.577252 -1.199527,-2.62029 -2.159496,-3.678052 -0.9407,-1.036504 -0.936891,-1.232727 0.128763,-6.611496 0.604017,-3.048802 1.329603,-5.781302 1.612407,-6.072203 0.338635,-0.348353 1.38698,0.438174 3.070783,2.303894 2.929748,3.246286 3.996145,3.23223 3.471976,-0.04565 C 56.477517,39.829948 55.3206,37.650459 52.923732,35.112741 51.072601,33.1528 50.906903,32.716206 50.673186,29.182833 50.085286,20.294696 44.446214,14.749277 35.995882,14.749277 c -8.450348,0 -14.089416,5.545419 -14.677326,14.433548 -0.23495,3.552035 -0.391653,3.959623 -2.279905,5.929891 -3.236089,3.376633 -5.281985,9.053641 -3.630602,10.074244 0.312951,0.193412 1.719474,-0.923099 3.125597,-2.481148 1.683812,-1.865724 2.732142,-2.652243 3.070789,-2.303896 0.282804,0.290901 1.008395,3.023402 1.612417,6.072203 1.06563,5.378774 1.069441,5.574992 0.128744,6.611507 -0.959968,1.057756 -2.159495,3.100789 -2.159495,3.678045 0,0.164589 2.131252,0.299238 4.736114,0.299238 h 4.736121 z m 2.248038,-17.827027 c -0.714047,-0.714033 -1.298254,-1.533046 -1.298254,-1.819997 0,-1.115386 1.191235,-1.172184 2.321155,-0.110684 0.65175,0.61229 1.511331,1.113256 1.91021,1.113256 0.398853,0 1.258447,-0.500966 1.910195,-1.113256 1.129929,-1.0615 2.321167,-1.004702 2.321167,0.110684 0,1.171763 -2.64133,3.118258 -4.231362,3.118258 -1.030542,0 -2.114741,-0.479904 -2.933111,-1.298261 z m -6.037458,-5.816749 c -0.822263,-0.990766 -0.535062,-2.399506 0.640055,-3.139538 1.83266,-1.154128 3.896346,1.446537 2.491286,3.139538 -0.816971,0.984384 -2.314361,0.984384 -3.131341,0 z m 14.809775,0 c -0.822258,-0.990766 -0.535049,-2.399506 0.640063,-3.139538 1.832647,-1.154128 3.896337,1.446537 2.49129,3.139538 -0.816981,0.984384 -2.314381,0.984384 -3.131353,0 z m -20.744177,-8.49046 c 0.545958,-1.19824 0.415909,-1.496565 -1.363197,-3.126985 -1.08171,-0.991307 -2.14815,-1.690263 -2.369856,-1.55324 -1.062321,0.656558 0.366789,5.060648 1.833661,5.650844 1.145127,0.460741 1.278216,0.392727 1.899392,-0.970619 z m 32.647834,0.02637 c 0.890171,-0.890155 1.29826,-1.887713 1.29826,-3.173515 0,-2.204793 -0.276862,-2.301693 -1.819725,-0.636925 -0.631216,0.681086 -1.565152,1.471991 -2.075446,1.757556 -0.796963,0.446009 -0.836817,0.718864 -0.28263,1.935189 0.796416,1.74794 1.231521,1.765723 2.879541,0.117695 z"
     id="path1077" />
</svg>
