<?xml version="1.0" encoding="utf-8"?>
<!-- Svg Vector Icons : http://www.onlinewebfonts.com/icon -->
<!DOCTYPE svg PUBLIC "-//W3C//DTD SVG 1.1//EN" "http://www.w3.org/Graphics/SVG/1.1/DTD/svg11.dtd">
<svg version="1.1" xmlns="http://www.w3.org/2000/svg" xmlns:xlink="http://www.w3.org/1999/xlink" x="0px" y="0px" viewBox="0 0 256 256" enable-background="new 0 0 256 256" xml:space="preserve">
<metadata> Svg Vector Icons : http://www.onlinewebfonts.com/icon </metadata>
<g><g><path fill="#000000" d="M57.2,246c-3.9,0-7.4-2.3-9-5.9c-1.6-3.6-0.8-7.8,1.8-10.6c7.7-8.3,15-18.3,18-24.5C48.7,192.5,10,162.1,10,118.5C10,51.6,55.2,10,128,10c33.1,0,63.4,11.3,85.4,31.9c21,19.7,32.6,46.8,32.6,76.3c0,27.3-11.5,51-33.2,68.5c-27.1,21.9-62.5,28.8-80.8,29.7C109.8,236.8,78.8,246,57.2,246z M128,29.7c-61.6,0-98.3,33.2-98.3,88.8c0,38.7,41.9,66,54.7,73.4c3,1.8,4.9,5,4.9,8.5c0,6.7-4,14.9-8.9,22.3c14.1-4,29.2-11.6,40.7-23c1.9-1.9,4.3-2.9,7-2.9c16.4,0,49.3-6.8,72.5-25.5c17.1-13.8,25.8-31.7,25.8-53.2c0-24.3-9.1-45.7-26.4-61.9C181.6,39.1,156.1,29.7,128,29.7z"/><path fill="#000000" d="M118.2,98.5c0-5.4-4.4-9.8-9.8-9.8h-9.8c-5.4,0-9.8,4.4-9.8,9.8v9.8c0,5.4,4.4,9.8,9.8,9.8h9.8c0,9.8-9.8,15.1-19.7,19.7v9.8c16.6-5.5,29.5-13.9,29.5-29.5V98.5L118.2,98.5z"/><path fill="#000000" d="M167.3,98.5c0-5.4-4.4-9.8-9.8-9.8h-9.8c-5.4,0-9.8,4.4-9.8,9.8v9.8c0,5.4,4.4,9.8,9.8,9.8h9.8c0,9.8-9.8,15.1-19.7,19.7v9.8c16.6-5.5,29.5-13.9,29.5-29.5V98.5z"/></g></g>
</svg>